  0
SECTION
  2
HEADER
  9
$ACADVER
  1
AC1021
  9
$ACADMAINTVER
 70
    25
  9
$DWGCODEPAGE
  3
ANSI_1252
  9
$INSBASE
 10
0.0
 20
0.0
 30
0.0
  9
$EXTMIN
 10
-16.47646
 20
-11.22646
 30
0.0
  9
$EXTMAX
 10
16.47646
 20
11.22646
 30
0.0
  9
$LIMMIN
 10
0.0
 20
0.0
  9
$LIMMAX
 10
12.0
 20
9.0
  9
$ORTHOMODE
 70
     0
  9
$REGENMODE
 70
     1
  9
$FILLMODE
 70
     1
  9
$QTEXTMODE
 70
     0
  9
$MIRRTEXT
 70
     1
  9
$LTSCALE
 40
1.0
  9
$ATTMODE
 70
     1
  9
$TEXTSIZE
 40
0.2
  9
$TRACEWID
 40
0.05
  9
$TEXTSTYLE
  7
Standard
  9
$CLAYER
  8
0
  9
$CELTYPE
  6
ByLayer
  9
$CECOLOR
 62
   256
  9
$CELTSCALE
 40
1.0
  9
$DISPSILH
 70
     0
  9
$DIMSCALE
 40
1.0
  9
$DIMASZ
 40
0.18
  9
$DIMEXO
 40
0.0625
  9
$DIMDLI
 40
0.38
  9
$DIMRND
 40
0.0
  9
$DIMDLE
 40
0.0
  9
$DIMEXE
 40
0.18
  9
$DIMTP
 40
0.0
  9
$DIMTM
 40
0.0
  9
$DIMTXT
 40
0.18
  9
$DIMCEN
 40
0.09
  9
$DIMTSZ
 40
0.0
  9
$DIMTOL
 70
     0
  9
$DIMLIM
 70
     0
  9
$DIMTIH
 70
     1
  9
$DIMTOH
 70
     1
  9
$DIMSE1
 70
     0
  9
$DIMSE2
 70
     0
  9
$DIMTAD
 70
     0
  9
$DIMZIN
 70
     0
  9
$DIMBLK
  1

  9
$DIMASO
 70
     1
  9
$DIMSHO
 70
     1
  9
$DIMPOST
  1

  9
$DIMAPOST
  1

  9
$DIMALT
 70
     0
  9
$DIMALTD
 70
     2
  9
$DIMALTF
 40
25.4
  9
$DIMLFAC
 40
1.0
  9
$DIMTOFL
 70
     0
  9
$DIMTVP
 40
0.0
  9
$DIMTIX
 70
     0
  9
$DIMSOXD
 70
     0
  9
$DIMSAH
 70
     0
  9
$DIMBLK1
  1

  9
$DIMBLK2
  1

  9
$DIMSTYLE
  2
Standard
  9
$DIMCLRD
 70
     0
  9
$DIMCLRE
 70
     0
  9
$DIMCLRT
 70
     0
  9
$DIMTFAC
 40
1.0
  9
$DIMGAP
 40
0.09
  9
$DIMJUST
 70
     0
  9
$DIMSD1
 70
     0
  9
$DIMSD2
 70
     0
  9
$DIMTOLJ
 70
     1
  9
$DIMTZIN
 70
     0
  9
$DIMALTZ
 70
     0
  9
$DIMALTTZ
 70
     0
  9
$DIMUPT
 70
     0
  9
$DIMDEC
 70
     4
  9
$DIMTDEC
 70
     4
  9
$DIMALTU
 70
     2
  9
$DIMALTTD
 70
     2
  9
$DIMTXSTY
  7
Standard
  9
$DIMAUNIT
 70
     0
  9
$DIMADEC
 70
     0
  9
$DIMALTRND
 40
0.0
  9
$DIMAZIN
 70
     0
  9
$DIMDSEP
 70
    46
  9
$DIMATFIT
 70
     3
  9
$DIMFRAC
 70
     0
  9
$DIMLDRBLK
  1

  9
$DIMLUNIT
 70
     2
  9
$DIMLWD
 70
    -2
  9
$DIMLWE
 70
    -2
  9
$DIMTMOVE
 70
     0
  9
$DIMFXL
 40
1.0
  9
$DIMFXLON
 70
     0
  9
$DIMJOGANG
 40
0.7853981633974483
  9
$DIMTFILL
 70
     0
  9
$DIMTFILLCLR
 70
     0
  9
$DIMARCSYM
 70
     0
  9
$DIMLTYPE
  6

  9
$DIMLTEX1
  6

  9
$DIMLTEX2
  6

  9
$LUNITS
 70
     2
  9
$LUPREC
 70
     4
  9
$SKETCHINC
 40
0.1
  9
$FILLETRAD
 40
0.5
  9
$AUNITS
 70
     0
  9
$AUPREC
 70
     0
  9
$MENU
  1
.
  9
$ELEVATION
 40
0.0
  9
$PELEVATION
 40
0.0
  9
$THICKNESS
 40
0.0
  9
$LIMCHECK
 70
     0
  9
$CHAMFERA
 40
0.5
  9
$CHAMFERB
 40
0.5
  9
$CHAMFERC
 40
1.0
  9
$CHAMFERD
 40
0.0
  9
$SKPOLY
 70
     0
  9
$TDCREATE
 40
2460376.408540243
  9
$TDUCREATE
 40
2460376.408540243
  9
$TDUPDATE
 40
2460376.408540498
  9
$TDUUPDATE
 40
2460376.408540498
  9
$TDINDWG
 40
0.0000000116
  9
$TDUSRTIMER
 40
0.0000000116
  9
$USRTIMER
 70
     1
  9
$ANGBASE
 50
0.0
  9
$ANGDIR
 70
     0
  9
$PDMODE
 70
     0
  9
$PDSIZE
 40
0.0
  9
$PLINEWID
 40
0.0
  9
$SPLFRAME
 70
     0
  9
$SPLINETYPE
 70
     6
  9
$SPLINESEGS
 70
     8
  9
$HANDSEED
  5
10B
  9
$SURFTAB1
 70
     6
  9
$SURFTAB2
 70
     6
  9
$SURFTYPE
 70
     6
  9
$SURFU
 70
     6
  9
$SURFV
 70
     6
  9
$UCSBASE
  2

  9
$UCSNAME
  2

  9
$UCSORG
 10
0.0
 20
0.0
 30
0.0
  9
$UCSXDIR
 10
1.0
 20
0.0
 30
0.0
  9
$UCSYDIR
 10
0.0
 20
1.0
 30
0.0
  9
$UCSORTHOREF
  2

  9
$UCSORTHOVIEW
 70
     0
  9
$UCSORGTOP
 10
0.0
 20
0.0
 30
0.0
  9
$UCSORGBOTTOM
 10
0.0
 20
0.0
 30
0.0
  9
$UCSORGLEFT
 10
0.0
 20
0.0
 30
0.0
  9
$UCSORGRIGHT
 10
0.0
 20
0.0
 30
0.0
  9
$UCSORGFRONT
 10
0.0
 20
0.0
 30
0.0
  9
$UCSORGBACK
 10
0.0
 20
0.0
 30
0.0
  9
$PUCSBASE
  2

  9
$PUCSNAME
  2

  9
$PUCSORG
 10
0.0
 20
0.0
 30
0.0
  9
$PUCSXDIR
 10
1.0
 20
0.0
 30
0.0
  9
$PUCSYDIR
 10
0.0
 20
1.0
 30
0.0
  9
$PUCSORTHOREF
  2

  9
$PUCSORTHOVIEW
 70
     0
  9
$PUCSORGTOP
 10
0.0
 20
0.0
 30
0.0
  9
$PUCSORGBOTTOM
 10
0.0
 20
0.0
 30
0.0
  9
$PUCSORGLEFT
 10
0.0
 20
0.0
 30
0.0
  9
$PUCSORGRIGHT
 10
0.0
 20
0.0
 30
0.0
  9
$PUCSORGFRONT
 10
0.0
 20
0.0
 30
0.0
  9
$PUCSORGBACK
 10
0.0
 20
0.0
 30
0.0
  9
$USERI1
 70
     0
  9
$USERI2
 70
     0
  9
$USERI3
 70
     0
  9
$USERI4
 70
     0
  9
$USERI5
 70
     0
  9
$USERR1
 40
0.0
  9
$USERR2
 40
0.0
  9
$USERR3
 40
0.0
  9
$USERR4
 40
0.0
  9
$USERR5
 40
0.0
  9
$WORLDVIEW
 70
     1
  9
$SHADEDGE
 70
     3
  9
$SHADEDIF
 70
    70
  9
$TILEMODE
 70
     1
  9
$MAXACTVP
 70
    64
  9
$PINSBASE
 10
0.0
 20
0.0
 30
0.0
  9
$PLIMCHECK
 70
     0
  9
$PEXTMIN
 10
1.000000000000000E+20
 20
1.000000000000000E+20
 30
1.000000000000000E+20
  9
$PEXTMAX
 10
-1.000000000000000E+20
 20
-1.000000000000000E+20
 30
-1.000000000000000E+20
  9
$PLIMMIN
 10
0.0
 20
0.0
  9
$PLIMMAX
 10
12.0
 20
9.0
  9
$UNITMODE
 70
     0
  9
$VISRETAIN
 70
     1
  9
$PLINEGEN
 70
     0
  9
$PSLTSCALE
 70
     1
  9
$TREEDEPTH
 70
  3020
  9
$CMLSTYLE
  2
Standard
  9
$CMLJUST
 70
     0
  9
$CMLSCALE
 40
1.0
  9
$PROXYGRAPHICS
 70
     1
  9
$MEASUREMENT
 70
     0
  9
$CELWEIGHT
370
    -1
  9
$ENDCAPS
280
     0
  9
$JOINSTYLE
280
     0
  9
$LWDISPLAY
290
     0
  9
$INSUNITS
 70
     5
  9
$HYPERLINKBASE
  1

  9
$STYLESHEET
  1

  9
$XEDIT
290
     1
  9
$CEPSNTYPE
380
     0
  9
$PSTYLEMODE
290
     1
  9
$FINGERPRINTGUID
  2
{72BEB457-FC70-403C-A40F-6344D3FFC5D0}
  9
$VERSIONGUID
  2
{FAEB1C32-E019-11D5-929B-00C0DF256EC4}
  9
$EXTNAMES
290
     1
  9
$PSVPSCALE
 40
0.0
  9
$OLESTARTUP
290
     0
  9
$SORTENTS
280
   127
  9
$INDEXCTL
280
     0
  9
$HIDETEXT
280
     1
  9
$XCLIPFRAME
290
     0
  9
$HALOGAP
280
     0
  9
$OBSCOLOR
 70
   257
  9
$OBSLTYPE
280
     0
  9
$INTERSECTIONDISPLAY
280
     0
  9
$INTERSECTIONCOLOR
 70
   257
  9
$DIMASSOC
280
     2
  9
$PROJECTNAME
  1

  9
$CAMERADISPLAY
290
     0
  9
$LENSLENGTH
 40
50.0
  9
$CAMERAHEIGHT
 40
0.0
  9
$STEPSPERSEC
 40
2.0
  9
$STEPSIZE
 40
6.0
  9
$3DDWFPREC
 40
2.0
  9
$PSOLWIDTH
 40
0.25
  9
$PSOLHEIGHT
 40
4.0
  9
$LOFTANG1
 40
1.570796326794897
  9
$LOFTANG2
 40
1.570796326794897
  9
$LOFTMAG1
 40
0.0
  9
$LOFTMAG2
 40
0.0
  9
$LOFTPARAM
 70
     7
  9
$LOFTNORMALS
280
     1
  9
$LATITUDE
 40
37.795
  9
$LONGITUDE
 40
-122.394
  9
$NORTHDIRECTION
 40
0.0
  9
$TIMEZONE
 70
 -8000
  9
$LIGHTGLYPHDISPLAY
280
     1
  9
$TILEMODELIGHTSYNCH
280
     1
  9
$SOLIDHIST
280
     1
  9
$SHOWHIST
280
     1
  9
$DWFFRAME
280
     2
  9
$DGNFRAME
280
     2
  9
$REALWORLDSCALE
290
     1
  9
$INTERFERECOLOR
 62
   256
  9
$CSHADOW
280
     0
  9
$SHADOWPLANELOCATION
 40
0.0
  0
ENDSEC
  0
SECTION
  2
CLASSES
  0
CLASS
  1
ACDBDICTIONARYWDFLT
  2
AcDbDictionaryWithDefault
  3
ObjectDBX Classes
 90
        0
 91
        4
280
     0
281
     0
  0
CLASS
  1
VISUALSTYLE
  2
AcDbVisualStyle
  3
ObjectDBX Classes
 90
     4095
 91
        4
280
     0
281
     0
  0
CLASS
  1
MATERIAL
  2
AcDbMaterial
  3
ObjectDBX Classes
 90
     1153
 91
        4
280
     0
281
     0
  0
ENDSEC
  0
SECTION
  2
TABLES
  0
TABLE
  2
VPORT
  5
8
330
0
100
AcDbSymbolTable
 70
     1
  0
VPORT
  5
29
330
8
100
AcDbSymbolTableRecord
100
AcDbViewportTableRecord
  2
*Active
 70
     0
 10
0.0
 20
0.0
 11
1.0
 21
1.0
 12
10.42990654205607
 22
4.5
 13
0.0
 23
0.0
 14
0.5
 24
0.5
 15
0.5
 25
0.5
 16
0.0
 26
0.0
 36
1.0
 17
0.0
 27
0.0
 37
0.0
 40
9.0
 41
1.972972972850329
 42
50.0
 43
0.0
 44
0.0
 50
0.0
 51
0.0
 71
     0
 72
   100
 73
     1
 74
     3
 75
     0
 76
     0
 77
     0
 78
     0
281
     0
 65
     1
110
0.0
120
0.0
130
0.0
111
1.0
121
0.0
131
0.0
112
0.0
122
1.0
132
0.0
 79
     0
146
0.0
 60
     3
 61
     5
292
     1
282
     1
141
0.0
142
0.0
 63
   250
  0
ENDTAB
  0
TABLE
  2
LTYPE
  5
5
330
0
100
AcDbSymbolTable
 70
     1
  0
LTYPE
  5
14
330
5
100
AcDbSymbolTableRecord
100
AcDbLinetypeTableRecord
  2
ByBlock
 70
     0
  3

 72
    65
 73
     0
 40
0.0
  0
LTYPE
  5
15
330
5
100
AcDbSymbolTableRecord
100
AcDbLinetypeTableRecord
  2
ByLayer
 70
     0
  3

 72
    65
 73
     0
 40
0.0
  0
LTYPE
  5
16
330
5
100
AcDbSymbolTableRecord
100
AcDbLinetypeTableRecord
  2
Continuous
 70
     0
  3
Solid line
 72
    65
 73
     0
 40
0.0
  0
ENDTAB
  0
TABLE
  2
LAYER
  5
2
330
0
100
AcDbSymbolTable
 70
     2
  0
LAYER
  5
10
330
2
100
AcDbSymbolTableRecord
100
AcDbLayerTableRecord
  2
0
 70
     0
 62
     7
  6
Continuous
370
    -3
390
F
347
3E
  0
LAYER
  5
40
330
2
100
AcDbSymbolTableRecord
100
AcDbLayerTableRecord
  2
Layer 1
 70
     0
 62
     7
  6
Continuous
370
    -3
390
F
347
3E
  0
ENDTAB
  0
TABLE
  2
STYLE
  5
3
330
0
100
AcDbSymbolTable
 70
     1
  0
STYLE
  5
11
330
3
100
AcDbSymbolTableRecord
100
AcDbTextStyleTableRecord
  2
Standard
 70
     0
 40
0.0
 41
1.0
 50
0.0
 71
     0
 42
0.2
  3
txt
  4

  0
ENDTAB
  0
TABLE
  2
VIEW
  5
6
330
0
100
AcDbSymbolTable
 70
     0
  0
ENDTAB
  0
TABLE
  2
UCS
  5
7
330
0
100
AcDbSymbolTable
 70
     0
  0
ENDTAB
  0
TABLE
  2
APPID
  5
9
330
0
100
AcDbSymbolTable
 70
     2
  0
APPID
  5
12
330
9
100
AcDbSymbolTableRecord
100
AcDbRegAppTableRecord
  2
ACAD
 70
     0
  0
APPID
  5
3F
330
9
100
AcDbSymbolTableRecord
100
AcDbRegAppTableRecord
  2
ODA
 70
     0
  0
ENDTAB
  0
TABLE
  2
DIMSTYLE
  5
A
330
0
100
AcDbSymbolTable
 70
     1
100
AcDbDimStyleTable
  0
DIMSTYLE
105
27
330
A
100
AcDbSymbolTableRecord
100
AcDbDimStyleTableRecord
  2
Standard
 70
     0
178
     0
340
11
  0
ENDTAB
  0
TABLE
  2
BLOCK_RECORD
  5
1
330
0
100
AcDbSymbolTable
 70
     1
  0
BLOCK_RECORD
  5
1F
330
1
100
AcDbSymbolTableRecord
100
AcDbBlockTableRecord
  2
*Model_Space
340
22
 70
     0
280
     1
281
     0
  0
BLOCK_RECORD
  5
1B
330
1
100
AcDbSymbolTableRecord
100
AcDbBlockTableRecord
  2
*Paper_Space
340
1E
 70
     0
280
     1
281
     0
  0
BLOCK_RECORD
  5
23
330
1
100
AcDbSymbolTableRecord
100
AcDbBlockTableRecord
  2
*Paper_Space0
340
26
 70
     0
280
     1
281
     0
  0
ENDTAB
  0
ENDSEC
  0
SECTION
  2
BLOCKS
  0
BLOCK
  5
20
330
1F
100
AcDbEntity
  8
0
100
AcDbBlockBegin
  2
*Model_Space
 70
     0
 10
0.0
 20
0.0
 30
0.0
  3
*Model_Space
  1

  0
ENDBLK
  5
21
330
1F
100
AcDbEntity
  8
0
100
AcDbBlockEnd
  0
BLOCK
  5
1C
330
1B
100
AcDbEntity
 67
     1
  8
0
100
AcDbBlockBegin
  2
*Paper_Space
 70
     0
 10
0.0
 20
0.0
 30
0.0
  3
*Paper_Space
  1

  0
ENDBLK
  5
1D
330
1B
100
AcDbEntity
 67
     1
  8
0
100
AcDbBlockEnd
  0
BLOCK
  5
24
330
23
100
AcDbEntity
  8
0
100
AcDbBlockBegin
  2
*Paper_Space0
 70
     0
 10
0.0
 20
0.0
 30
0.0
  3
*Paper_Space0
  1

  0
ENDBLK
  5
25
330
23
100
AcDbEntity
  8
0
100
AcDbBlockEnd
  0
ENDSEC
  0
SECTION
  2
ENTITIES
  0
SPLINE
  5
41
330
1F
100
AcDbEntity
  8
Layer 1
370
    53
100
AcDbSpline
210
0.0
220
0.0
230
1.0
 70
    11
 71
     3
 72
    76
 73
    72
 74
     0
 42
0.0000000001
 43
0.0000000001
 12
1.0
 22
0.0
 32
0.0
 13
1.0
 23
0.0
 33
0.0
 40
0.0
 40
0.0
 40
0.0
 40
0.0
 40
0.0526315789473684
 40
0.0526315789473684
 40
0.0526315789473684
 40
0.0526315789473684
 40
0.1052631578947368
 40
0.1052631578947368
 40
0.1052631578947368
 40
0.1052631578947368
 40
0.1578947368421053
 40
0.1578947368421053
 40
0.1578947368421053
 40
0.1578947368421053
 40
0.2105263157894737
 40
0.2105263157894737
 40
0.2105263157894737
 40
0.2105263157894737
 40
0.2631578947368421
 40
0.2631578947368421
 40
0.2631578947368421
 40
0.2631578947368421
 40
0.3157894736842105
 40
0.3157894736842105
 40
0.3157894736842105
 40
0.3157894736842105
 40
0.3684210526315789
 40
0.3684210526315789
 40
0.3684210526315789
 40
0.3684210526315789
 40
0.4210526315789473
 40
0.4210526315789473
 40
0.4210526315789473
 40
0.4210526315789473
 40
0.4736842105263158
 40
0.4736842105263158
 40
0.4736842105263158
 40
0.4736842105263158
 40
0.5263157894736842
 40
0.5263157894736842
 40
0.5263157894736842
 40
0.5263157894736842
 40
0.5789473684210527
 40
0.5789473684210527
 40
0.5789473684210527
 40
0.5789473684210527
 40
0.631578947368421
 40
0.631578947368421
 40
0.631578947368421
 40
0.631578947368421
 40
0.6842105263157895
 40
0.6842105263157895
 40
0.6842105263157895
 40
0.6842105263157895
 40
0.7368421052631579
 40
0.7368421052631579
 40
0.7368421052631579
 40
0.7368421052631579
 40
0.7894736842105263
 40
0.7894736842105263
 40
0.7894736842105263
 40
0.7894736842105263
 40
0.8421052631578947
 40
0.8421052631578947
 40
0.8421052631578947
 40
0.8421052631578947
 40
0.8947368421052632
 40
0.8947368421052632
 40
0.8947368421052632
 40
0.8947368421052632
 40
1.0
 40
1.0
 40
1.0
 40
1.0
 10
-16.45
 20
-10.7
 30
0.0
 10
-16.45
 20
-10.7
 30
0.0
 10
-16.45
 20
-1.3
 30
0.0
 10
-16.45
 20
-1.3
 30
0.0
 10
-16.45
 20
-1.3
 30
0.0
 10
-16.45
 20
-1.02386
 30
0.0
 10
-16.22614
 20
-0.8
 30
0.0
 10
-15.95
 20
-0.8
 30
0.0
 10
-15.95
 20
-0.8
 30
0.0
 10
-15.95
 20
-0.8
 30
0.0
 10
15.95
 20
-0.8
 30
0.0
 10
15.95
 20
-0.8
 30
0.0
 10
15.95
 20
-0.8
 30
0.0
 10
16.22614
 20
-0.8
 30
0.0
 10
16.45
 20
-1.02386
 30
0.0
 10
16.45
 20
-1.3
 30
0.0
 10
16.45
 20
-1.3
 30
0.0
 10
16.45
 20
-1.3
 30
0.0
 10
16.45
 20
-10.7
 30
0.0
 10
16.45
 20
-10.7
 30
0.0
 10
16.45
 20
-10.7
 30
0.0
 10
16.45
 20
-10.97614
 30
0.0
 10
16.22614
 20
-11.2
 30
0.0
 10
15.95
 20
-11.2
 30
0.0
 10
15.95
 20
-11.2
 30
0.0
 10
15.95
 20
-11.2
 30
0.0
 10
13.0
 20
-11.2
 30
0.0
 10
13.0
 20
-11.2
 30
0.0
 10
13.0
 20
-11.2
 30
0.0
 10
13.0
 20
-11.2
 30
0.0
 10
13.0
 20
-4.0
 30
0.0
 10
13.0
 20
-4.0
 30
0.0
 10
13.0
 20
-4.0
 30
0.0
 10
13.0
 20
-4.0
 30
0.0
 10
2.95
 20
-4.0
 30
0.0
 10
2.95
 20
-4.0
 30
0.0
 10
2.95
 20
-4.0
 30
0.0
 10
2.95
 20
-4.0
 30
0.0
 10
2.95
 20
-2.8
 30
0.0
 10
2.95
 20
-2.8
 30
0.0
 10
2.95
 20
-2.8
 30
0.0
 10
2.95
 20
-2.52386
 30
0.0
 10
2.72614
 20
-2.3
 30
0.0
 10
2.45
 20
-2.3
 30
0.0
 10
2.45
 20
-2.3
 30
0.0
 10
2.45
 20
-2.3
 30
0.0
 10
-3.95
 20
-2.3
 30
0.0
 10
-3.95
 20
-2.3
 30
0.0
 10
-3.95
 20
-2.3
 30
0.0
 10
-4.22614
 20
-2.3
 30
0.0
 10
-4.45
 20
-2.52386
 30
0.0
 10
-4.45
 20
-2.8
 30
0.0
 10
-4.45
 20
-2.8
 30
0.0
 10
-4.45
 20
-2.8
 30
0.0
 10
-4.45
 20
-4.0
 30
0.0
 10
-4.45
 20
-4.0
 30
0.0
 10
-4.45
 20
-4.0
 30
0.0
 10
-4.45
 20
-4.0
 30
0.0
 10
-13.0
 20
-4.0
 30
0.0
 10
-13.0
 20
-4.0
 30
0.0
 10
-13.0
 20
-4.0
 30
0.0
 10
-13.0
 20
-4.0
 30
0.0
 10
-13.0
 20
-11.2
 30
0.0
 10
-13.0
 20
-11.2
 30
0.0
 10
-13.0
 20
-11.2
 30
0.0
 10
-13.0
 20
-11.2
 30
0.0
 10
-15.95
 20
-11.2
 30
0.0
 10
-15.95
 20
-11.2
 30
0.0
 10
-15.95
 20
-11.2
 30
0.0
 10
-16.22614
 20
-11.2
 30
0.0
 10
-16.45
 20
-10.97614
 30
0.0
 10
-16.45
 20
-10.7
 30
0.0
  0
ELLIPSE
  5
42
330
1F
100
AcDbEntity
  8
Layer 1
370
    53
100
AcDbEllipse
 10
0.75001
 20
-1.50001
 30
0.0
 11
0.0
 21
0.30001
 31
0.0
210
0.0
220
0.0
230
1.0
 40
1.0
 41
0.0
 42
6.283185307179586
  0
ELLIPSE
  5
43
330
1F
100
AcDbEntity
  8
Layer 1
370
    53
100
AcDbEllipse
 10
-5.24999
 20
-1.50001
 30
0.0
 11
0.0
 21
0.30001
 31
0.0
210
0.0
220
0.0
230
1.0
 40
1.0
 41
0.0
 42
6.283185307179586
  0
ELLIPSE
  5
44
330
1F
100
AcDbEntity
  8
Layer 1
370
    53
100
AcDbEllipse
 10
-0.74999
 20
-1.50001
 30
0.0
 11
0.0
 21
0.30001
 31
0.0
210
0.0
220
0.0
230
1.0
 40
1.0
 41
0.0
 42
6.283185307179586
  0
ELLIPSE
  5
45
330
1F
100
AcDbEntity
  8
Layer 1
370
    53
100
AcDbEllipse
 10
-6.74999
 20
-1.50001
 30
0.0
 11
0.0
 21
0.30001
 31
0.0
210
0.0
220
0.0
230
1.0
 40
1.0
 41
0.0
 42
6.283185307179586
  0
ELLIPSE
  5
46
330
1F
100
AcDbEntity
  8
Layer 1
370
    53
100
AcDbEllipse
 10
2.25001
 20
-1.50001
 30
0.0
 11
0.0
 21
0.30001
 31
0.0
210
0.0
220
0.0
230
1.0
 40
1.0
 41
0.0
 42
6.283185307179586
  0
ELLIPSE
  5
47
330
1F
100
AcDbEntity
  8
Layer 1
370
    53
100
AcDbEllipse
 10
-3.74999
 20
-1.50001
 30
0.0
 11
0.0
 21
0.30001
 31
0.0
210
0.0
220
0.0
230
1.0
 40
1.0
 41
0.0
 42
6.283185307179586
  0
ELLIPSE
  5
48
330
1F
100
AcDbEntity
  8
Layer 1
370
    53
100
AcDbEllipse
 10
-2.24999
 20
-1.50001
 30
0.0
 11
0.0
 21
0.30001
 31
0.0
210
0.0
220
0.0
230
1.0
 40
1.0
 41
0.0
 42
6.283185307179586
  0
ELLIPSE
  5
49
330
1F
100
AcDbEntity
  8
Layer 1
 62
     4
370
    53
100
AcDbEllipse
 10
-2.24999
 20
-1.50001
 30
0.0
 11
0.0
 21
0.60001
 31
0.0
210
0.0
220
0.0
230
1.0
 40
1.0
 41
0.0
 42
6.283185307179586
  0
ELLIPSE
  5
4A
330
1F
100
AcDbEntity
  8
Layer 1
370
    53
100
AcDbEllipse
 10
-15.74999
 20
-1.50001
 30
0.0
 11
0.0
 21
0.30001
 31
0.0
210
0.0
220
0.0
230
1.0
 40
1.0
 41
0.0
 42
6.283185307179586
  0
ELLIPSE
  5
4B
330
1F
100
AcDbEntity
  8
Layer 1
370
    53
100
AcDbEllipse
 10
-14.24999
 20
-1.50001
 30
0.0
 11
0.0
 21
0.30001
 31
0.0
210
0.0
220
0.0
230
1.0
 40
1.0
 41
0.0
 42
6.283185307179586
  0
ELLIPSE
  5
4C
330
1F
100
AcDbEntity
  8
Layer 1
370
    53
100
AcDbEllipse
 10
-12.74999
 20
-1.50001
 30
0.0
 11
0.0
 21
0.30001
 31
0.0
210
0.0
220
0.0
230
1.0
 40
1.0
 41
0.0
 42
6.283185307179586
  0
ELLIPSE
  5
4D
330
1F
100
AcDbEntity
  8
Layer 1
370
    53
100
AcDbEllipse
 10
-11.24999
 20
-1.50001
 30
0.0
 11
0.0
 21
0.30001
 31
0.0
210
0.0
220
0.0
230
1.0
 40
1.0
 41
0.0
 42
6.283185307179586
  0
ELLIPSE
  5
4E
330
1F
100
AcDbEntity
  8
Layer 1
370
    53
100
AcDbEllipse
 10
-9.74999
 20
-1.50001
 30
0.0
 11
0.0
 21
0.30001
 31
0.0
210
0.0
220
0.0
230
1.0
 40
1.0
 41
0.0
 42
6.283185307179586
  0
ELLIPSE
  5
4F
330
1F
100
AcDbEntity
  8
Layer 1
370
    53
100
AcDbEllipse
 10
-8.24999
 20
-1.50001
 30
0.0
 11
0.0
 21
0.30001
 31
0.0
210
0.0
220
0.0
230
1.0
 40
1.0
 41
0.0
 42
6.283185307179586
  0
ELLIPSE
  5
50
330
1F
100
AcDbEntity
  8
Layer 1
370
    53
100
AcDbEllipse
 10
5.25001
 20
-1.50001
 30
0.0
 11
0.0
 21
0.30001
 31
0.0
210
0.0
220
0.0
230
1.0
 40
1.0
 41
0.0
 42
6.283185307179586
  0
ELLIPSE
  5
51
330
1F
100
AcDbEntity
  8
Layer 1
370
    53
100
AcDbEllipse
 10
3.75001
 20
-1.50001
 30
0.0
 11
0.0
 21
0.30001
 31
0.0
210
0.0
220
0.0
230
1.0
 40
1.0
 41
0.0
 42
6.283185307179586
  0
ELLIPSE
  5
52
330
1F
100
AcDbEntity
  8
Layer 1
370
    53
100
AcDbEllipse
 10
6.75001
 20
-1.50001
 30
0.0
 11
0.0
 21
0.30001
 31
0.0
210
0.0
220
0.0
230
1.0
 40
1.0
 41
0.0
 42
6.283185307179586
  0
ELLIPSE
  5
53
330
1F
100
AcDbEntity
  8
Layer 1
370
    53
100
AcDbEllipse
 10
9.75001
 20
-1.50001
 30
0.0
 11
0.0
 21
0.30001
 31
0.0
210
0.0
220
0.0
230
1.0
 40
1.0
 41
0.0
 42
6.283185307179586
  0
ELLIPSE
  5
54
330
1F
100
AcDbEntity
  8
Layer 1
370
    53
100
AcDbEllipse
 10
8.25001
 20
-1.50001
 30
0.0
 11
0.0
 21
0.30001
 31
0.0
210
0.0
220
0.0
230
1.0
 40
1.0
 41
0.0
 42
6.283185307179586
  0
ELLIPSE
  5
55
330
1F
100
AcDbEntity
  8
Layer 1
370
    53
100
AcDbEllipse
 10
11.25001
 20
-1.50001
 30
0.0
 11
0.0
 21
0.30001
 31
0.0
210
0.0
220
0.0
230
1.0
 40
1.0
 41
0.0
 42
6.283185307179586
  0
ELLIPSE
  5
56
330
1F
100
AcDbEntity
  8
Layer 1
370
    53
100
AcDbEllipse
 10
12.75001
 20
-1.50001
 30
0.0
 11
0.0
 21
0.30001
 31
0.0
210
0.0
220
0.0
230
1.0
 40
1.0
 41
0.0
 42
6.283185307179586
  0
ELLIPSE
  5
57
330
1F
100
AcDbEntity
  8
Layer 1
370
    53
100
AcDbEllipse
 10
14.25001
 20
-1.50001
 30
0.0
 11
0.0
 21
0.30001
 31
0.0
210
0.0
220
0.0
230
1.0
 40
1.0
 41
0.0
 42
6.283185307179586
  0
ELLIPSE
  5
58
330
1F
100
AcDbEntity
  8
Layer 1
370
    53
100
AcDbEllipse
 10
15.75001
 20
-1.50001
 30
0.0
 11
0.0
 21
0.30001
 31
0.0
210
0.0
220
0.0
230
1.0
 40
1.0
 41
0.0
 42
6.283185307179586
  0
ELLIPSE
  5
59
330
1F
100
AcDbEntity
  8
Layer 1
370
    53
100
AcDbEllipse
 10
15.0
 20
-1.5
 30
0.0
 11
0.0
 21
0.15
 31
0.0
210
0.0
220
0.0
230
1.0
 40
1.0
 41
0.0
 42
6.283185307179586
  0
ELLIPSE
  5
5A
330
1F
100
AcDbEntity
  8
Layer 1
370
    53
100
AcDbEllipse
 10
13.5
 20
-1.5
 30
0.0
 11
0.0
 21
0.15
 31
0.0
210
0.0
220
0.0
230
1.0
 40
1.0
 41
0.0
 42
6.283185307179586
  0
ELLIPSE
  5
5B
330
1F
100
AcDbEntity
  8
Layer 1
370
    53
100
AcDbEllipse
 10
12.0
 20
-1.5
 30
0.0
 11
0.0
 21
0.15
 31
0.0
210
0.0
220
0.0
230
1.0
 40
1.0
 41
0.0
 42
6.283185307179586
  0
ELLIPSE
  5
5C
330
1F
100
AcDbEntity
  8
Layer 1
370
    53
100
AcDbEllipse
 10
10.5
 20
-1.5
 30
0.0
 11
0.0
 21
0.15
 31
0.0
210
0.0
220
0.0
230
1.0
 40
1.0
 41
0.0
 42
6.283185307179586
  0
ELLIPSE
  5
5D
330
1F
100
AcDbEntity
  8
Layer 1
370
    53
100
AcDbEllipse
 10
9.0
 20
-1.5
 30
0.0
 11
0.0
 21
0.15
 31
0.0
210
0.0
220
0.0
230
1.0
 40
1.0
 41
0.0
 42
6.283185307179586
  0
ELLIPSE
  5
5E
330
1F
100
AcDbEntity
  8
Layer 1
370
    53
100
AcDbEllipse
 10
7.5
 20
-1.5
 30
0.0
 11
0.0
 21
0.15
 31
0.0
210
0.0
220
0.0
230
1.0
 40
1.0
 41
0.0
 42
6.283185307179586
  0
ELLIPSE
  5
5F
330
1F
100
AcDbEntity
  8
Layer 1
370
    53
100
AcDbEllipse
 10
6.0
 20
-1.5
 30
0.0
 11
0.0
 21
0.15
 31
0.0
210
0.0
220
0.0
230
1.0
 40
1.0
 41
0.0
 42
6.283185307179586
  0
ELLIPSE
  5
60
330
1F
100
AcDbEntity
  8
Layer 1
370
    53
100
AcDbEllipse
 10
4.5
 20
-1.5
 30
0.0
 11
0.0
 21
0.15
 31
0.0
210
0.0
220
0.0
230
1.0
 40
1.0
 41
0.0
 42
6.283185307179586
  0
ELLIPSE
  5
61
330
1F
100
AcDbEntity
  8
Layer 1
370
    53
100
AcDbEllipse
 10
3.0
 20
-1.5
 30
0.0
 11
0.0
 21
0.15
 31
0.0
210
0.0
220
0.0
230
1.0
 40
1.0
 41
0.0
 42
6.283185307179586
  0
ELLIPSE
  5
62
330
1F
100
AcDbEntity
  8
Layer 1
370
    53
100
AcDbEllipse
 10
1.5
 20
-1.5
 30
0.0
 11
0.0
 21
0.15
 31
0.0
210
0.0
220
0.0
230
1.0
 40
1.0
 41
0.0
 42
6.283185307179586
  0
ELLIPSE
  5
63
330
1F
100
AcDbEntity
  8
Layer 1
370
    53
100
AcDbEllipse
 10
0.0
 20
-1.5
 30
0.0
 11
0.0
 21
0.15
 31
0.0
210
0.0
220
0.0
230
1.0
 40
1.0
 41
0.0
 42
6.283185307179586
  0
ELLIPSE
  5
64
330
1F
100
AcDbEntity
  8
Layer 1
370
    53
100
AcDbEllipse
 10
-1.5
 20
-1.5
 30
0.0
 11
0.0
 21
0.15
 31
0.0
210
0.0
220
0.0
230
1.0
 40
1.0
 41
0.0
 42
6.283185307179586
  0
ELLIPSE
  5
65
330
1F
100
AcDbEntity
  8
Layer 1
370
    53
100
AcDbEllipse
 10
-3.0
 20
-1.5
 30
0.0
 11
0.0
 21
0.15
 31
0.0
210
0.0
220
0.0
230
1.0
 40
1.0
 41
0.0
 42
6.283185307179586
  0
ELLIPSE
  5
66
330
1F
100
AcDbEntity
  8
Layer 1
370
    53
100
AcDbEllipse
 10
-4.5
 20
-1.5
 30
0.0
 11
0.0
 21
0.15
 31
0.0
210
0.0
220
0.0
230
1.0
 40
1.0
 41
0.0
 42
6.283185307179586
  0
ELLIPSE
  5
67
330
1F
100
AcDbEntity
  8
Layer 1
370
    53
100
AcDbEllipse
 10
-6.0
 20
-1.5
 30
0.0
 11
0.0
 21
0.15
 31
0.0
210
0.0
220
0.0
230
1.0
 40
1.0
 41
0.0
 42
6.283185307179586
  0
ELLIPSE
  5
68
330
1F
100
AcDbEntity
  8
Layer 1
370
    53
100
AcDbEllipse
 10
-7.5
 20
-1.5
 30
0.0
 11
0.0
 21
0.15
 31
0.0
210
0.0
220
0.0
230
1.0
 40
1.0
 41
0.0
 42
6.283185307179586
  0
ELLIPSE
  5
69
330
1F
100
AcDbEntity
  8
Layer 1
370
    53
100
AcDbEllipse
 10
-9.0
 20
-1.5
 30
0.0
 11
0.0
 21
0.15
 31
0.0
210
0.0
220
0.0
230
1.0
 40
1.0
 41
0.0
 42
6.283185307179586
  0
ELLIPSE
  5
6A
330
1F
100
AcDbEntity
  8
Layer 1
370
    53
100
AcDbEllipse
 10
-10.5
 20
-1.5
 30
0.0
 11
0.0
 21
0.15
 31
0.0
210
0.0
220
0.0
230
1.0
 40
1.0
 41
0.0
 42
6.283185307179586
  0
ELLIPSE
  5
6B
330
1F
100
AcDbEntity
  8
Layer 1
370
    53
100
AcDbEllipse
 10
-12.0
 20
-1.5
 30
0.0
 11
0.0
 21
0.15
 31
0.0
210
0.0
220
0.0
230
1.0
 40
1.0
 41
0.0
 42
6.283185307179586
  0
ELLIPSE
  5
6C
330
1F
100
AcDbEntity
  8
Layer 1
370
    53
100
AcDbEllipse
 10
-13.5
 20
-1.5
 30
0.0
 11
0.0
 21
0.15
 31
0.0
210
0.0
220
0.0
230
1.0
 40
1.0
 41
0.0
 42
6.283185307179586
  0
ELLIPSE
  5
6D
330
1F
100
AcDbEntity
  8
Layer 1
370
    53
100
AcDbEllipse
 10
-15.0
 20
-1.5
 30
0.0
 11
0.0
 21
0.15
 31
0.0
210
0.0
220
0.0
230
1.0
 40
1.0
 41
0.0
 42
6.283185307179586
  0
SPLINE
  5
6E
330
1F
100
AcDbEntity
  8
Layer 1
370
    53
100
AcDbSpline
210
0.0
220
0.0
230
1.0
 70
    11
 71
     3
 72
    20
 73
    16
 74
     0
 42
0.0000000001
 43
0.0000000001
 12
1.0
 22
0.0
 32
0.0
 13
1.0
 23
0.0
 33
0.0
 40
0.0
 40
0.0
 40
0.0
 40
0.0
 40
0.2
 40
0.2
 40
0.2
 40
0.2
 40
0.4
 40
0.4
 40
0.4
 40
0.4
 40
0.6
 40
0.6
 40
0.6
 40
0.6
 40
1.0
 40
1.0
 40
1.0
 40
1.0
 10
-16.05
 20
-4.5
 30
0.0
 10
-16.05
 20
-4.33431
 30
0.0
 10
-15.91569
 20
-4.2
 30
0.0
 10
-15.75
 20
-4.2
 30
0.0
 10
-15.75
 20
-4.2
 30
0.0
 10
-15.58431
 20
-4.2
 30
0.0
 10
-15.45
 20
-4.33431
 30
0.0
 10
-15.45
 20
-4.5
 30
0.0
 10
-15.45
 20
-4.5
 30
0.0
 10
-15.45
 20
-4.66569
 30
0.0
 10
-15.58431
 20
-4.8
 30
0.0
 10
-15.75
 20
-4.8
 30
0.0
 10
-15.75
 20
-4.8
 30
0.0
 10
-15.91569
 20
-4.8
 30
0.0
 10
-16.05
 20
-4.66569
 30
0.0
 10
-16.05
 20
-4.5
 30
0.0
  0
SPLINE
  5
6F
330
1F
100
AcDbEntity
  8
Layer 1
370
    53
100
AcDbSpline
210
0.0
220
0.0
230
1.0
 70
    11
 71
     3
 72
    20
 73
    16
 74
     0
 42
0.0000000001
 43
0.0000000001
 12
1.0
 22
0.0
 32
0.0
 13
1.0
 23
0.0
 33
0.0
 40
0.0
 40
0.0
 40
0.0
 40
0.0
 40
0.2
 40
0.2
 40
0.2
 40
0.2
 40
0.4
 40
0.4
 40
0.4
 40
0.4
 40
0.6
 40
0.6
 40
0.6
 40
0.6
 40
1.0
 40
1.0
 40
1.0
 40
1.0
 10
-16.05
 20
-3.0
 30
0.0
 10
-16.05
 20
-2.83431
 30
0.0
 10
-15.91569
 20
-2.7
 30
0.0
 10
-15.75
 20
-2.7
 30
0.0
 10
-15.75
 20
-2.7
 30
0.0
 10
-15.58431
 20
-2.7
 30
0.0
 10
-15.45
 20
-2.83431
 30
0.0
 10
-15.45
 20
-3.0
 30
0.0
 10
-15.45
 20
-3.0
 30
0.0
 10
-15.45
 20
-3.16569
 30
0.0
 10
-15.58431
 20
-3.3
 30
0.0
 10
-15.75
 20
-3.3
 30
0.0
 10
-15.75
 20
-3.3
 30
0.0
 10
-15.91569
 20
-3.3
 30
0.0
 10
-16.05
 20
-3.16569
 30
0.0
 10
-16.05
 20
-3.0
 30
0.0
  0
SPLINE
  5
70
330
1F
100
AcDbEntity
  8
Layer 1
370
    53
100
AcDbSpline
210
0.0
220
0.0
230
1.0
 70
    11
 71
     3
 72
    20
 73
    16
 74
     0
 42
0.0000000001
 43
0.0000000001
 12
1.0
 22
0.0
 32
0.0
 13
1.0
 23
0.0
 33
0.0
 40
0.0
 40
0.0
 40
0.0
 40
0.0
 40
0.2
 40
0.2
 40
0.2
 40
0.2
 40
0.4
 40
0.4
 40
0.4
 40
0.4
 40
0.6
 40
0.6
 40
0.6
 40
0.6
 40
1.0
 40
1.0
 40
1.0
 40
1.0
 10
-15.9
 20
-2.25
 30
0.0
 10
-15.9
 20
-2.16716
 30
0.0
 10
-15.83284
 20
-2.1
 30
0.0
 10
-15.75
 20
-2.1
 30
0.0
 10
-15.75
 20
-2.1
 30
0.0
 10
-15.66716
 20
-2.1
 30
0.0
 10
-15.6
 20
-2.16716
 30
0.0
 10
-15.6
 20
-2.25
 30
0.0
 10
-15.6
 20
-2.25
 30
0.0
 10
-15.6
 20
-2.33284
 30
0.0
 10
-15.66716
 20
-2.4
 30
0.0
 10
-15.75
 20
-2.4
 30
0.0
 10
-15.75
 20
-2.4
 30
0.0
 10
-15.83284
 20
-2.4
 30
0.0
 10
-15.9
 20
-2.33284
 30
0.0
 10
-15.9
 20
-2.25
 30
0.0
  0
SPLINE
  5
71
330
1F
100
AcDbEntity
  8
Layer 1
370
    53
100
AcDbSpline
210
0.0
220
0.0
230
1.0
 70
    11
 71
     3
 72
    20
 73
    16
 74
     0
 42
0.0000000001
 43
0.0000000001
 12
1.0
 22
0.0
 32
0.0
 13
1.0
 23
0.0
 33
0.0
 40
0.0
 40
0.0
 40
0.0
 40
0.0
 40
0.2
 40
0.2
 40
0.2
 40
0.2
 40
0.4
 40
0.4
 40
0.4
 40
0.4
 40
0.6
 40
0.6
 40
0.6
 40
0.6
 40
1.0
 40
1.0
 40
1.0
 40
1.0
 10
-15.9
 20
-3.75
 30
0.0
 10
-15.9
 20
-3.66716
 30
0.0
 10
-15.83284
 20
-3.6
 30
0.0
 10
-15.75
 20
-3.6
 30
0.0
 10
-15.75
 20
-3.6
 30
0.0
 10
-15.66716
 20
-3.6
 30
0.0
 10
-15.6
 20
-3.66716
 30
0.0
 10
-15.6
 20
-3.75
 30
0.0
 10
-15.6
 20
-3.75
 30
0.0
 10
-15.6
 20
-3.83284
 30
0.0
 10
-15.66716
 20
-3.9
 30
0.0
 10
-15.75
 20
-3.9
 30
0.0
 10
-15.75
 20
-3.9
 30
0.0
 10
-15.83284
 20
-3.9
 30
0.0
 10
-15.9
 20
-3.83284
 30
0.0
 10
-15.9
 20
-3.75
 30
0.0
  0
SPLINE
  5
72
330
1F
100
AcDbEntity
  8
Layer 1
370
    53
100
AcDbSpline
210
0.0
220
0.0
230
1.0
 70
    11
 71
     3
 72
    20
 73
    16
 74
     0
 42
0.0000000001
 43
0.0000000001
 12
1.0
 22
0.0
 32
0.0
 13
1.0
 23
0.0
 33
0.0
 40
0.0
 40
0.0
 40
0.0
 40
0.0
 40
0.2
 40
0.2
 40
0.2
 40
0.2
 40
0.4
 40
0.4
 40
0.4
 40
0.4
 40
0.6
 40
0.6
 40
0.6
 40
0.6
 40
1.0
 40
1.0
 40
1.0
 40
1.0
 10
-16.05
 20
-10.5
 30
0.0
 10
-16.05
 20
-10.33431
 30
0.0
 10
-15.91569
 20
-10.2
 30
0.0
 10
-15.75
 20
-10.2
 30
0.0
 10
-15.75
 20
-10.2
 30
0.0
 10
-15.58431
 20
-10.2
 30
0.0
 10
-15.45
 20
-10.33431
 30
0.0
 10
-15.45
 20
-10.5
 30
0.0
 10
-15.45
 20
-10.5
 30
0.0
 10
-15.45
 20
-10.66569
 30
0.0
 10
-15.58431
 20
-10.8
 30
0.0
 10
-15.75
 20
-10.8
 30
0.0
 10
-15.75
 20
-10.8
 30
0.0
 10
-15.91569
 20
-10.8
 30
0.0
 10
-16.05
 20
-10.66569
 30
0.0
 10
-16.05
 20
-10.5
 30
0.0
  0
SPLINE
  5
73
330
1F
100
AcDbEntity
  8
Layer 1
370
    53
100
AcDbSpline
210
0.0
220
0.0
230
1.0
 70
    11
 71
     3
 72
    20
 73
    16
 74
     0
 42
0.0000000001
 43
0.0000000001
 12
1.0
 22
0.0
 32
0.0
 13
1.0
 23
0.0
 33
0.0
 40
0.0
 40
0.0
 40
0.0
 40
0.0
 40
0.2
 40
0.2
 40
0.2
 40
0.2
 40
0.4
 40
0.4
 40
0.4
 40
0.4
 40
0.6
 40
0.6
 40
0.6
 40
0.6
 40
1.0
 40
1.0
 40
1.0
 40
1.0
 10
-16.05
 20
-9.0
 30
0.0
 10
-16.05
 20
-8.83431
 30
0.0
 10
-15.91569
 20
-8.7
 30
0.0
 10
-15.75
 20
-8.7
 30
0.0
 10
-15.75
 20
-8.7
 30
0.0
 10
-15.58431
 20
-8.7
 30
0.0
 10
-15.45
 20
-8.83431
 30
0.0
 10
-15.45
 20
-9.0
 30
0.0
 10
-15.45
 20
-9.0
 30
0.0
 10
-15.45
 20
-9.16569
 30
0.0
 10
-15.58431
 20
-9.3
 30
0.0
 10
-15.75
 20
-9.3
 30
0.0
 10
-15.75
 20
-9.3
 30
0.0
 10
-15.91569
 20
-9.3
 30
0.0
 10
-16.05
 20
-9.16569
 30
0.0
 10
-16.05
 20
-9.0
 30
0.0
  0
SPLINE
  5
74
330
1F
100
AcDbEntity
  8
Layer 1
370
    53
100
AcDbSpline
210
0.0
220
0.0
230
1.0
 70
    11
 71
     3
 72
    20
 73
    16
 74
     0
 42
0.0000000001
 43
0.0000000001
 12
1.0
 22
0.0
 32
0.0
 13
1.0
 23
0.0
 33
0.0
 40
0.0
 40
0.0
 40
0.0
 40
0.0
 40
0.2
 40
0.2
 40
0.2
 40
0.2
 40
0.4
 40
0.4
 40
0.4
 40
0.4
 40
0.6
 40
0.6
 40
0.6
 40
0.6
 40
1.0
 40
1.0
 40
1.0
 40
1.0
 10
-15.9
 20
-9.75
 30
0.0
 10
-15.9
 20
-9.66716
 30
0.0
 10
-15.83284
 20
-9.6
 30
0.0
 10
-15.75
 20
-9.6
 30
0.0
 10
-15.75
 20
-9.6
 30
0.0
 10
-15.66716
 20
-9.6
 30
0.0
 10
-15.6
 20
-9.66716
 30
0.0
 10
-15.6
 20
-9.75
 30
0.0
 10
-15.6
 20
-9.75
 30
0.0
 10
-15.6
 20
-9.83284
 30
0.0
 10
-15.66716
 20
-9.9
 30
0.0
 10
-15.75
 20
-9.9
 30
0.0
 10
-15.75
 20
-9.9
 30
0.0
 10
-15.83284
 20
-9.9
 30
0.0
 10
-15.9
 20
-9.83284
 30
0.0
 10
-15.9
 20
-9.75
 30
0.0
  0
SPLINE
  5
75
330
1F
100
AcDbEntity
  8
Layer 1
370
    53
100
AcDbSpline
210
0.0
220
0.0
230
1.0
 70
    11
 71
     3
 72
    20
 73
    16
 74
     0
 42
0.0000000001
 43
0.0000000001
 12
1.0
 22
0.0
 32
0.0
 13
1.0
 23
0.0
 33
0.0
 40
0.0
 40
0.0
 40
0.0
 40
0.0
 40
0.2
 40
0.2
 40
0.2
 40
0.2
 40
0.4
 40
0.4
 40
0.4
 40
0.4
 40
0.6
 40
0.6
 40
0.6
 40
0.6
 40
1.0
 40
1.0
 40
1.0
 40
1.0
 10
-16.05
 20
-7.5
 30
0.0
 10
-16.05
 20
-7.33431
 30
0.0
 10
-15.91569
 20
-7.2
 30
0.0
 10
-15.75
 20
-7.2
 30
0.0
 10
-15.75
 20
-7.2
 30
0.0
 10
-15.58431
 20
-7.2
 30
0.0
 10
-15.45
 20
-7.33431
 30
0.0
 10
-15.45
 20
-7.5
 30
0.0
 10
-15.45
 20
-7.5
 30
0.0
 10
-15.45
 20
-7.66569
 30
0.0
 10
-15.58431
 20
-7.8
 30
0.0
 10
-15.75
 20
-7.8
 30
0.0
 10
-15.75
 20
-7.8
 30
0.0
 10
-15.91569
 20
-7.8
 30
0.0
 10
-16.05
 20
-7.66569
 30
0.0
 10
-16.05
 20
-7.5
 30
0.0
  0
SPLINE
  5
76
330
1F
100
AcDbEntity
  8
Layer 1
370
    53
100
AcDbSpline
210
0.0
220
0.0
230
1.0
 70
    11
 71
     3
 72
    20
 73
    16
 74
     0
 42
0.0000000001
 43
0.0000000001
 12
1.0
 22
0.0
 32
0.0
 13
1.0
 23
0.0
 33
0.0
 40
0.0
 40
0.0
 40
0.0
 40
0.0
 40
0.2
 40
0.2
 40
0.2
 40
0.2
 40
0.4
 40
0.4
 40
0.4
 40
0.4
 40
0.6
 40
0.6
 40
0.6
 40
0.6
 40
1.0
 40
1.0
 40
1.0
 40
1.0
 10
-15.9
 20
-8.25
 30
0.0
 10
-15.9
 20
-8.16716
 30
0.0
 10
-15.83284
 20
-8.1
 30
0.0
 10
-15.75
 20
-8.1
 30
0.0
 10
-15.75
 20
-8.1
 30
0.0
 10
-15.66716
 20
-8.1
 30
0.0
 10
-15.6
 20
-8.16716
 30
0.0
 10
-15.6
 20
-8.25
 30
0.0
 10
-15.6
 20
-8.25
 30
0.0
 10
-15.6
 20
-8.33284
 30
0.0
 10
-15.66716
 20
-8.4
 30
0.0
 10
-15.75
 20
-8.4
 30
0.0
 10
-15.75
 20
-8.4
 30
0.0
 10
-15.83284
 20
-8.4
 30
0.0
 10
-15.9
 20
-8.33284
 30
0.0
 10
-15.9
 20
-8.25
 30
0.0
  0
SPLINE
  5
77
330
1F
100
AcDbEntity
  8
Layer 1
370
    53
100
AcDbSpline
210
0.0
220
0.0
230
1.0
 70
    11
 71
     3
 72
    20
 73
    16
 74
     0
 42
0.0000000001
 43
0.0000000001
 12
1.0
 22
0.0
 32
0.0
 13
1.0
 23
0.0
 33
0.0
 40
0.0
 40
0.0
 40
0.0
 40
0.0
 40
0.2
 40
0.2
 40
0.2
 40
0.2
 40
0.4
 40
0.4
 40
0.4
 40
0.4
 40
0.6
 40
0.6
 40
0.6
 40
0.6
 40
1.0
 40
1.0
 40
1.0
 40
1.0
 10
-16.05
 20
-6.0
 30
0.0
 10
-16.05
 20
-5.83431
 30
0.0
 10
-15.91569
 20
-5.7
 30
0.0
 10
-15.75
 20
-5.7
 30
0.0
 10
-15.75
 20
-5.7
 30
0.0
 10
-15.58431
 20
-5.7
 30
0.0
 10
-15.45
 20
-5.83431
 30
0.0
 10
-15.45
 20
-6.0
 30
0.0
 10
-15.45
 20
-6.0
 30
0.0
 10
-15.45
 20
-6.16569
 30
0.0
 10
-15.58431
 20
-6.3
 30
0.0
 10
-15.75
 20
-6.3
 30
0.0
 10
-15.75
 20
-6.3
 30
0.0
 10
-15.91569
 20
-6.3
 30
0.0
 10
-16.05
 20
-6.16569
 30
0.0
 10
-16.05
 20
-6.0
 30
0.0
  0
SPLINE
  5
78
330
1F
100
AcDbEntity
  8
Layer 1
370
    53
100
AcDbSpline
210
0.0
220
0.0
230
1.0
 70
    11
 71
     3
 72
    20
 73
    16
 74
     0
 42
0.0000000001
 43
0.0000000001
 12
1.0
 22
0.0
 32
0.0
 13
1.0
 23
0.0
 33
0.0
 40
0.0
 40
0.0
 40
0.0
 40
0.0
 40
0.2
 40
0.2
 40
0.2
 40
0.2
 40
0.4
 40
0.4
 40
0.4
 40
0.4
 40
0.6
 40
0.6
 40
0.6
 40
0.6
 40
1.0
 40
1.0
 40
1.0
 40
1.0
 10
-15.9
 20
-6.75
 30
0.0
 10
-15.9
 20
-6.66716
 30
0.0
 10
-15.83284
 20
-6.6
 30
0.0
 10
-15.75
 20
-6.6
 30
0.0
 10
-15.75
 20
-6.6
 30
0.0
 10
-15.66716
 20
-6.6
 30
0.0
 10
-15.6
 20
-6.66716
 30
0.0
 10
-15.6
 20
-6.75
 30
0.0
 10
-15.6
 20
-6.75
 30
0.0
 10
-15.6
 20
-6.83284
 30
0.0
 10
-15.66716
 20
-6.9
 30
0.0
 10
-15.75
 20
-6.9
 30
0.0
 10
-15.75
 20
-6.9
 30
0.0
 10
-15.83284
 20
-6.9
 30
0.0
 10
-15.9
 20
-6.83284
 30
0.0
 10
-15.9
 20
-6.75
 30
0.0
  0
SPLINE
  5
79
330
1F
100
AcDbEntity
  8
Layer 1
370
    53
100
AcDbSpline
210
0.0
220
0.0
230
1.0
 70
    11
 71
     3
 72
    20
 73
    16
 74
     0
 42
0.0000000001
 43
0.0000000001
 12
1.0
 22
0.0
 32
0.0
 13
1.0
 23
0.0
 33
0.0
 40
0.0
 40
0.0
 40
0.0
 40
0.0
 40
0.2
 40
0.2
 40
0.2
 40
0.2
 40
0.4
 40
0.4
 40
0.4
 40
0.4
 40
0.6
 40
0.6
 40
0.6
 40
0.6
 40
1.0
 40
1.0
 40
1.0
 40
1.0
 10
15.45
 20
-10.5
 30
0.0
 10
15.45
 20
-10.33431
 30
0.0
 10
15.58431
 20
-10.2
 30
0.0
 10
15.75
 20
-10.2
 30
0.0
 10
15.75
 20
-10.2
 30
0.0
 10
15.91569
 20
-10.2
 30
0.0
 10
16.05
 20
-10.33431
 30
0.0
 10
16.05
 20
-10.5
 30
0.0
 10
16.05
 20
-10.5
 30
0.0
 10
16.05
 20
-10.66569
 30
0.0
 10
15.91569
 20
-10.8
 30
0.0
 10
15.75
 20
-10.8
 30
0.0
 10
15.75
 20
-10.8
 30
0.0
 10
15.58431
 20
-10.8
 30
0.0
 10
15.45
 20
-10.66569
 30
0.0
 10
15.45
 20
-10.5
 30
0.0
  0
SPLINE
  5
7A
330
1F
100
AcDbEntity
  8
Layer 1
370
    53
100
AcDbSpline
210
0.0
220
0.0
230
1.0
 70
    11
 71
     3
 72
    20
 73
    16
 74
     0
 42
0.0000000001
 43
0.0000000001
 12
1.0
 22
0.0
 32
0.0
 13
1.0
 23
0.0
 33
0.0
 40
0.0
 40
0.0
 40
0.0
 40
0.0
 40
0.2
 40
0.2
 40
0.2
 40
0.2
 40
0.4
 40
0.4
 40
0.4
 40
0.4
 40
0.6
 40
0.6
 40
0.6
 40
0.6
 40
1.0
 40
1.0
 40
1.0
 40
1.0
 10
15.45
 20
-9.0
 30
0.0
 10
15.45
 20
-8.83431
 30
0.0
 10
15.58431
 20
-8.7
 30
0.0
 10
15.75
 20
-8.7
 30
0.0
 10
15.75
 20
-8.7
 30
0.0
 10
15.91569
 20
-8.7
 30
0.0
 10
16.05
 20
-8.83431
 30
0.0
 10
16.05
 20
-9.0
 30
0.0
 10
16.05
 20
-9.0
 30
0.0
 10
16.05
 20
-9.16569
 30
0.0
 10
15.91569
 20
-9.3
 30
0.0
 10
15.75
 20
-9.3
 30
0.0
 10
15.75
 20
-9.3
 30
0.0
 10
15.58431
 20
-9.3
 30
0.0
 10
15.45
 20
-9.16569
 30
0.0
 10
15.45
 20
-9.0
 30
0.0
  0
SPLINE
  5
7B
330
1F
100
AcDbEntity
  8
Layer 1
370
    53
100
AcDbSpline
210
0.0
220
0.0
230
1.0
 70
    11
 71
     3
 72
    20
 73
    16
 74
     0
 42
0.0000000001
 43
0.0000000001
 12
1.0
 22
0.0
 32
0.0
 13
1.0
 23
0.0
 33
0.0
 40
0.0
 40
0.0
 40
0.0
 40
0.0
 40
0.2
 40
0.2
 40
0.2
 40
0.2
 40
0.4
 40
0.4
 40
0.4
 40
0.4
 40
0.6
 40
0.6
 40
0.6
 40
0.6
 40
1.0
 40
1.0
 40
1.0
 40
1.0
 10
15.6
 20
-9.75
 30
0.0
 10
15.6
 20
-9.66716
 30
0.0
 10
15.66716
 20
-9.6
 30
0.0
 10
15.75
 20
-9.6
 30
0.0
 10
15.75
 20
-9.6
 30
0.0
 10
15.83284
 20
-9.6
 30
0.0
 10
15.9
 20
-9.66716
 30
0.0
 10
15.9
 20
-9.75
 30
0.0
 10
15.9
 20
-9.75
 30
0.0
 10
15.9
 20
-9.83284
 30
0.0
 10
15.83284
 20
-9.9
 30
0.0
 10
15.75
 20
-9.9
 30
0.0
 10
15.75
 20
-9.9
 30
0.0
 10
15.66716
 20
-9.9
 30
0.0
 10
15.6
 20
-9.83284
 30
0.0
 10
15.6
 20
-9.75
 30
0.0
  0
SPLINE
  5
7C
330
1F
100
AcDbEntity
  8
Layer 1
370
    53
100
AcDbSpline
210
0.0
220
0.0
230
1.0
 70
    11
 71
     3
 72
    20
 73
    16
 74
     0
 42
0.0000000001
 43
0.0000000001
 12
1.0
 22
0.0
 32
0.0
 13
1.0
 23
0.0
 33
0.0
 40
0.0
 40
0.0
 40
0.0
 40
0.0
 40
0.2
 40
0.2
 40
0.2
 40
0.2
 40
0.4
 40
0.4
 40
0.4
 40
0.4
 40
0.6
 40
0.6
 40
0.6
 40
0.6
 40
1.0
 40
1.0
 40
1.0
 40
1.0
 10
15.45
 20
-7.5
 30
0.0
 10
15.45
 20
-7.33431
 30
0.0
 10
15.58431
 20
-7.2
 30
0.0
 10
15.75
 20
-7.2
 30
0.0
 10
15.75
 20
-7.2
 30
0.0
 10
15.91569
 20
-7.2
 30
0.0
 10
16.05
 20
-7.33431
 30
0.0
 10
16.05
 20
-7.5
 30
0.0
 10
16.05
 20
-7.5
 30
0.0
 10
16.05
 20
-7.66569
 30
0.0
 10
15.91569
 20
-7.8
 30
0.0
 10
15.75
 20
-7.8
 30
0.0
 10
15.75
 20
-7.8
 30
0.0
 10
15.58431
 20
-7.8
 30
0.0
 10
15.45
 20
-7.66569
 30
0.0
 10
15.45
 20
-7.5
 30
0.0
  0
SPLINE
  5
7D
330
1F
100
AcDbEntity
  8
Layer 1
370
    53
100
AcDbSpline
210
0.0
220
0.0
230
1.0
 70
    11
 71
     3
 72
    20
 73
    16
 74
     0
 42
0.0000000001
 43
0.0000000001
 12
1.0
 22
0.0
 32
0.0
 13
1.0
 23
0.0
 33
0.0
 40
0.0
 40
0.0
 40
0.0
 40
0.0
 40
0.2
 40
0.2
 40
0.2
 40
0.2
 40
0.4
 40
0.4
 40
0.4
 40
0.4
 40
0.6
 40
0.6
 40
0.6
 40
0.6
 40
1.0
 40
1.0
 40
1.0
 40
1.0
 10
15.6
 20
-8.25
 30
0.0
 10
15.6
 20
-8.16716
 30
0.0
 10
15.66716
 20
-8.1
 30
0.0
 10
15.75
 20
-8.1
 30
0.0
 10
15.75
 20
-8.1
 30
0.0
 10
15.83284
 20
-8.1
 30
0.0
 10
15.9
 20
-8.16716
 30
0.0
 10
15.9
 20
-8.25
 30
0.0
 10
15.9
 20
-8.25
 30
0.0
 10
15.9
 20
-8.33284
 30
0.0
 10
15.83284
 20
-8.4
 30
0.0
 10
15.75
 20
-8.4
 30
0.0
 10
15.75
 20
-8.4
 30
0.0
 10
15.66716
 20
-8.4
 30
0.0
 10
15.6
 20
-8.33284
 30
0.0
 10
15.6
 20
-8.25
 30
0.0
  0
SPLINE
  5
7E
330
1F
100
AcDbEntity
  8
Layer 1
370
    53
100
AcDbSpline
210
0.0
220
0.0
230
1.0
 70
    11
 71
     3
 72
    20
 73
    16
 74
     0
 42
0.0000000001
 43
0.0000000001
 12
1.0
 22
0.0
 32
0.0
 13
1.0
 23
0.0
 33
0.0
 40
0.0
 40
0.0
 40
0.0
 40
0.0
 40
0.2
 40
0.2
 40
0.2
 40
0.2
 40
0.4
 40
0.4
 40
0.4
 40
0.4
 40
0.6
 40
0.6
 40
0.6
 40
0.6
 40
1.0
 40
1.0
 40
1.0
 40
1.0
 10
15.45
 20
-6.0
 30
0.0
 10
15.45
 20
-5.83431
 30
0.0
 10
15.58431
 20
-5.7
 30
0.0
 10
15.75
 20
-5.7
 30
0.0
 10
15.75
 20
-5.7
 30
0.0
 10
15.91569
 20
-5.7
 30
0.0
 10
16.05
 20
-5.83431
 30
0.0
 10
16.05
 20
-6.0
 30
0.0
 10
16.05
 20
-6.0
 30
0.0
 10
16.05
 20
-6.16569
 30
0.0
 10
15.91569
 20
-6.3
 30
0.0
 10
15.75
 20
-6.3
 30
0.0
 10
15.75
 20
-6.3
 30
0.0
 10
15.58431
 20
-6.3
 30
0.0
 10
15.45
 20
-6.16569
 30
0.0
 10
15.45
 20
-6.0
 30
0.0
  0
SPLINE
  5
7F
330
1F
100
AcDbEntity
  8
Layer 1
370
    53
100
AcDbSpline
210
0.0
220
0.0
230
1.0
 70
    11
 71
     3
 72
    20
 73
    16
 74
     0
 42
0.0000000001
 43
0.0000000001
 12
1.0
 22
0.0
 32
0.0
 13
1.0
 23
0.0
 33
0.0
 40
0.0
 40
0.0
 40
0.0
 40
0.0
 40
0.2
 40
0.2
 40
0.2
 40
0.2
 40
0.4
 40
0.4
 40
0.4
 40
0.4
 40
0.6
 40
0.6
 40
0.6
 40
0.6
 40
1.0
 40
1.0
 40
1.0
 40
1.0
 10
15.6
 20
-6.75
 30
0.0
 10
15.6
 20
-6.66716
 30
0.0
 10
15.66716
 20
-6.6
 30
0.0
 10
15.75
 20
-6.6
 30
0.0
 10
15.75
 20
-6.6
 30
0.0
 10
15.83284
 20
-6.6
 30
0.0
 10
15.9
 20
-6.66716
 30
0.0
 10
15.9
 20
-6.75
 30
0.0
 10
15.9
 20
-6.75
 30
0.0
 10
15.9
 20
-6.83284
 30
0.0
 10
15.83284
 20
-6.9
 30
0.0
 10
15.75
 20
-6.9
 30
0.0
 10
15.75
 20
-6.9
 30
0.0
 10
15.66716
 20
-6.9
 30
0.0
 10
15.6
 20
-6.83284
 30
0.0
 10
15.6
 20
-6.75
 30
0.0
  0
SPLINE
  5
80
330
1F
100
AcDbEntity
  8
Layer 1
370
    53
100
AcDbSpline
210
0.0
220
0.0
230
1.0
 70
    11
 71
     3
 72
    20
 73
    16
 74
     0
 42
0.0000000001
 43
0.0000000001
 12
1.0
 22
0.0
 32
0.0
 13
1.0
 23
0.0
 33
0.0
 40
0.0
 40
0.0
 40
0.0
 40
0.0
 40
0.2
 40
0.2
 40
0.2
 40
0.2
 40
0.4
 40
0.4
 40
0.4
 40
0.4
 40
0.6
 40
0.6
 40
0.6
 40
0.6
 40
1.0
 40
1.0
 40
1.0
 40
1.0
 10
15.45
 20
-4.5
 30
0.0
 10
15.45
 20
-4.33431
 30
0.0
 10
15.58431
 20
-4.2
 30
0.0
 10
15.75
 20
-4.2
 30
0.0
 10
15.75
 20
-4.2
 30
0.0
 10
15.91569
 20
-4.2
 30
0.0
 10
16.05
 20
-4.33431
 30
0.0
 10
16.05
 20
-4.5
 30
0.0
 10
16.05
 20
-4.5
 30
0.0
 10
16.05
 20
-4.66569
 30
0.0
 10
15.91569
 20
-4.8
 30
0.0
 10
15.75
 20
-4.8
 30
0.0
 10
15.75
 20
-4.8
 30
0.0
 10
15.58431
 20
-4.8
 30
0.0
 10
15.45
 20
-4.66569
 30
0.0
 10
15.45
 20
-4.5
 30
0.0
  0
SPLINE
  5
81
330
1F
100
AcDbEntity
  8
Layer 1
370
    53
100
AcDbSpline
210
0.0
220
0.0
230
1.0
 70
    11
 71
     3
 72
    20
 73
    16
 74
     0
 42
0.0000000001
 43
0.0000000001
 12
1.0
 22
0.0
 32
0.0
 13
1.0
 23
0.0
 33
0.0
 40
0.0
 40
0.0
 40
0.0
 40
0.0
 40
0.2
 40
0.2
 40
0.2
 40
0.2
 40
0.4
 40
0.4
 40
0.4
 40
0.4
 40
0.6
 40
0.6
 40
0.6
 40
0.6
 40
1.0
 40
1.0
 40
1.0
 40
1.0
 10
15.6
 20
-5.25
 30
0.0
 10
15.6
 20
-5.16716
 30
0.0
 10
15.66716
 20
-5.1
 30
0.0
 10
15.75
 20
-5.1
 30
0.0
 10
15.75
 20
-5.1
 30
0.0
 10
15.83284
 20
-5.1
 30
0.0
 10
15.9
 20
-5.16716
 30
0.0
 10
15.9
 20
-5.25
 30
0.0
 10
15.9
 20
-5.25
 30
0.0
 10
15.9
 20
-5.33284
 30
0.0
 10
15.83284
 20
-5.4
 30
0.0
 10
15.75
 20
-5.4
 30
0.0
 10
15.75
 20
-5.4
 30
0.0
 10
15.66716
 20
-5.4
 30
0.0
 10
15.6
 20
-5.33284
 30
0.0
 10
15.6
 20
-5.25
 30
0.0
  0
SPLINE
  5
82
330
1F
100
AcDbEntity
  8
Layer 1
370
    53
100
AcDbSpline
210
0.0
220
0.0
230
1.0
 70
    11
 71
     3
 72
    20
 73
    16
 74
     0
 42
0.0000000001
 43
0.0000000001
 12
1.0
 22
0.0
 32
0.0
 13
1.0
 23
0.0
 33
0.0
 40
0.0
 40
0.0
 40
0.0
 40
0.0
 40
0.2
 40
0.2
 40
0.2
 40
0.2
 40
0.4
 40
0.4
 40
0.4
 40
0.4
 40
0.6
 40
0.6
 40
0.6
 40
0.6
 40
1.0
 40
1.0
 40
1.0
 40
1.0
 10
15.45
 20
-3.0
 30
0.0
 10
15.45
 20
-2.83431
 30
0.0
 10
15.58431
 20
-2.7
 30
0.0
 10
15.75
 20
-2.7
 30
0.0
 10
15.75
 20
-2.7
 30
0.0
 10
15.91569
 20
-2.7
 30
0.0
 10
16.05
 20
-2.83431
 30
0.0
 10
16.05
 20
-3.0
 30
0.0
 10
16.05
 20
-3.0
 30
0.0
 10
16.05
 20
-3.16569
 30
0.0
 10
15.91569
 20
-3.3
 30
0.0
 10
15.75
 20
-3.3
 30
0.0
 10
15.75
 20
-3.3
 30
0.0
 10
15.58431
 20
-3.3
 30
0.0
 10
15.45
 20
-3.16569
 30
0.0
 10
15.45
 20
-3.0
 30
0.0
  0
SPLINE
  5
83
330
1F
100
AcDbEntity
  8
Layer 1
370
    53
100
AcDbSpline
210
0.0
220
0.0
230
1.0
 70
    11
 71
     3
 72
    20
 73
    16
 74
     0
 42
0.0000000001
 43
0.0000000001
 12
1.0
 22
0.0
 32
0.0
 13
1.0
 23
0.0
 33
0.0
 40
0.0
 40
0.0
 40
0.0
 40
0.0
 40
0.2
 40
0.2
 40
0.2
 40
0.2
 40
0.4
 40
0.4
 40
0.4
 40
0.4
 40
0.6
 40
0.6
 40
0.6
 40
0.6
 40
1.0
 40
1.0
 40
1.0
 40
1.0
 10
15.6
 20
-3.75
 30
0.0
 10
15.6
 20
-3.66716
 30
0.0
 10
15.66716
 20
-3.6
 30
0.0
 10
15.75
 20
-3.6
 30
0.0
 10
15.75
 20
-3.6
 30
0.0
 10
15.83284
 20
-3.6
 30
0.0
 10
15.9
 20
-3.66716
 30
0.0
 10
15.9
 20
-3.75
 30
0.0
 10
15.9
 20
-3.75
 30
0.0
 10
15.9
 20
-3.83284
 30
0.0
 10
15.83284
 20
-3.9
 30
0.0
 10
15.75
 20
-3.9
 30
0.0
 10
15.75
 20
-3.9
 30
0.0
 10
15.66716
 20
-3.9
 30
0.0
 10
15.6
 20
-3.83284
 30
0.0
 10
15.6
 20
-3.75
 30
0.0
  0
SPLINE
  5
84
330
1F
100
AcDbEntity
  8
Layer 1
370
    53
100
AcDbSpline
210
0.0
220
0.0
230
1.0
 70
    11
 71
     3
 72
    20
 73
    16
 74
     0
 42
0.0000000001
 43
0.0000000001
 12
1.0
 22
0.0
 32
0.0
 13
1.0
 23
0.0
 33
0.0
 40
0.0
 40
0.0
 40
0.0
 40
0.0
 40
0.2
 40
0.2
 40
0.2
 40
0.2
 40
0.4
 40
0.4
 40
0.4
 40
0.4
 40
0.6
 40
0.6
 40
0.6
 40
0.6
 40
1.0
 40
1.0
 40
1.0
 40
1.0
 10
15.6
 20
-2.25
 30
0.0
 10
15.6
 20
-2.16716
 30
0.0
 10
15.66716
 20
-2.1
 30
0.0
 10
15.75
 20
-2.1
 30
0.0
 10
15.75
 20
-2.1
 30
0.0
 10
15.83284
 20
-2.1
 30
0.0
 10
15.9
 20
-2.16716
 30
0.0
 10
15.9
 20
-2.25
 30
0.0
 10
15.9
 20
-2.25
 30
0.0
 10
15.9
 20
-2.33284
 30
0.0
 10
15.83284
 20
-2.4
 30
0.0
 10
15.75
 20
-2.4
 30
0.0
 10
15.75
 20
-2.4
 30
0.0
 10
15.66716
 20
-2.4
 30
0.0
 10
15.6
 20
-2.33284
 30
0.0
 10
15.6
 20
-2.25
 30
0.0
  0
SPLINE
  5
85
330
1F
100
AcDbEntity
  8
Layer 1
370
    53
100
AcDbSpline
210
0.0
220
0.0
230
1.0
 70
    11
 71
     3
 72
    20
 73
    16
 74
     0
 42
0.0000000001
 43
0.0000000001
 12
1.0
 22
0.0
 32
0.0
 13
1.0
 23
0.0
 33
0.0
 40
0.0
 40
0.0
 40
0.0
 40
0.0
 40
0.2
 40
0.2
 40
0.2
 40
0.2
 40
0.4
 40
0.4
 40
0.4
 40
0.4
 40
0.6
 40
0.6
 40
0.6
 40
0.6
 40
1.0
 40
1.0
 40
1.0
 40
1.0
 10
-15.9
 20
-5.25
 30
0.0
 10
-15.9
 20
-5.16716
 30
0.0
 10
-15.83284
 20
-5.1
 30
0.0
 10
-15.75
 20
-5.1
 30
0.0
 10
-15.75
 20
-5.1
 30
0.0
 10
-15.66716
 20
-5.1
 30
0.0
 10
-15.6
 20
-5.16716
 30
0.0
 10
-15.6
 20
-5.25
 30
0.0
 10
-15.6
 20
-5.25
 30
0.0
 10
-15.6
 20
-5.33284
 30
0.0
 10
-15.66716
 20
-5.4
 30
0.0
 10
-15.75
 20
-5.4
 30
0.0
 10
-15.75
 20
-5.4
 30
0.0
 10
-15.83284
 20
-5.4
 30
0.0
 10
-15.9
 20
-5.33284
 30
0.0
 10
-15.9
 20
-5.25
 30
0.0
  0
SPLINE
  5
86
330
1F
100
AcDbEntity
  8
Layer 1
370
    53
100
AcDbSpline
210
0.0
220
0.0
230
1.0
 70
    11
 71
     3
 72
    36
 73
    32
 74
     0
 42
0.0000000001
 43
0.0000000001
 12
1.0
 22
0.0
 32
0.0
 13
1.0
 23
0.0
 33
0.0
 40
0.0
 40
0.0
 40
0.0
 40
0.0
 40
0.1111111111111111
 40
0.1111111111111111
 40
0.1111111111111111
 40
0.1111111111111111
 40
0.2222222222222222
 40
0.2222222222222222
 40
0.2222222222222222
 40
0.2222222222222222
 40
0.3333333333333333
 40
0.3333333333333333
 40
0.3333333333333333
 40
0.3333333333333333
 40
0.4444444444444444
 40
0.4444444444444444
 40
0.4444444444444444
 40
0.4444444444444444
 40
0.5555555555555556
 40
0.5555555555555556
 40
0.5555555555555556
 40
0.5555555555555556
 40
0.6666666666666666
 40
0.6666666666666666
 40
0.6666666666666666
 40
0.6666666666666666
 40
0.7777777777777778
 40
0.7777777777777778
 40
0.7777777777777778
 40
0.7777777777777778
 40
1.0
 40
1.0
 40
1.0
 40
1.0
 10
16.45
 20
1.3
 30
0.0
 10
16.45
 20
1.3
 30
0.0
 10
16.45
 20
10.7
 30
0.0
 10
16.45
 20
10.7
 30
0.0
 10
16.45
 20
10.7
 30
0.0
 10
16.45
 20
10.97614
 30
0.0
 10
16.22614
 20
11.2
 30
0.0
 10
15.95
 20
11.2
 30
0.0
 10
15.95
 20
11.2
 30
0.0
 10
15.95
 20
11.2
 30
0.0
 10
-15.95
 20
11.2
 30
0.0
 10
-15.95
 20
11.2
 30
0.0
 10
-15.95
 20
11.2
 30
0.0
 10
-16.22614
 20
11.2
 30
0.0
 10
-16.45
 20
10.97614
 30
0.0
 10
-16.45
 20
10.7
 30
0.0
 10
-16.45
 20
10.7
 30
0.0
 10
-16.45
 20
10.7
 30
0.0
 10
-16.45
 20
1.3
 30
0.0
 10
-16.45
 20
1.3
 30
0.0
 10
-16.45
 20
1.3
 30
0.0
 10
-16.45
 20
1.02386
 30
0.0
 10
-16.22614
 20
0.8
 30
0.0
 10
-15.95
 20
0.8
 30
0.0
 10
-15.95
 20
0.8
 30
0.0
 10
-15.95
 20
0.8
 30
0.0
 10
15.95
 20
0.8
 30
0.0
 10
15.95
 20
0.8
 30
0.0
 10
15.95
 20
0.8
 30
0.0
 10
16.22614
 20
0.8
 30
0.0
 10
16.45
 20
1.02386
 30
0.0
 10
16.45
 20
1.3
 30
0.0
  0
SPLINE
  5
87
330
1F
100
AcDbEntity
  8
Layer 1
370
    53
100
AcDbSpline
210
0.0
220
0.0
230
1.0
 70
    11
 71
     3
 72
    36
 73
    32
 74
     0
 42
0.0000000001
 43
0.0000000001
 12
1.0
 22
0.0
 32
0.0
 13
1.0
 23
0.0
 33
0.0
 40
0.0
 40
0.0
 40
0.0
 40
0.0
 40
0.1111111111111111
 40
0.1111111111111111
 40
0.1111111111111111
 40
0.1111111111111111
 40
0.2222222222222222
 40
0.2222222222222222
 40
0.2222222222222222
 40
0.2222222222222222
 40
0.3333333333333333
 40
0.3333333333333333
 40
0.3333333333333333
 40
0.3333333333333333
 40
0.4444444444444444
 40
0.4444444444444444
 40
0.4444444444444444
 40
0.4444444444444444
 40
0.5555555555555556
 40
0.5555555555555556
 40
0.5555555555555556
 40
0.5555555555555556
 40
0.6666666666666666
 40
0.6666666666666666
 40
0.6666666666666666
 40
0.6666666666666666
 40
0.7777777777777778
 40
0.7777777777777778
 40
0.7777777777777778
 40
0.7777777777777778
 40
1.0
 40
1.0
 40
1.0
 40
1.0
 10
11.95
 20
4.3
 30
0.0
 10
11.95
 20
4.3
 30
0.0
 10
11.95
 20
7.7
 30
0.0
 10
11.95
 20
7.7
 30
0.0
 10
11.95
 20
7.7
 30
0.0
 10
11.95
 20
7.97614
 30
0.0
 10
11.72614
 20
8.2
 30
0.0
 10
11.45
 20
8.2
 30
0.0
 10
11.45
 20
8.2
 30
0.0
 10
11.45
 20
8.2
 30
0.0
 10
11.05
 20
8.2
 30
0.0
 10
11.05
 20
8.2
 30
0.0
 10
11.05
 20
8.2
 30
0.0
 10
10.77386
 20
8.2
 30
0.0
 10
10.55
 20
7.97614
 30
0.0
 10
10.55
 20
7.7
 30
0.0
 10
10.55
 20
7.7
 30
0.0
 10
10.55
 20
7.7
 30
0.0
 10
10.55
 20
4.3
 30
0.0
 10
10.55
 20
4.3
 30
0.0
 10
10.55
 20
4.3
 30
0.0
 10
10.55
 20
4.02386
 30
0.0
 10
10.77386
 20
3.8
 30
0.0
 10
11.05
 20
3.8
 30
0.0
 10
11.05
 20
3.8
 30
0.0
 10
11.05
 20
3.8
 30
0.0
 10
11.45
 20
3.8
 30
0.0
 10
11.45
 20
3.8
 30
0.0
 10
11.45
 20
3.8
 30
0.0
 10
11.72614
 20
3.8
 30
0.0
 10
11.95
 20
4.02386
 30
0.0
 10
11.95
 20
4.3
 30
0.0
  0
SPLINE
  5
88
330
1F
100
AcDbEntity
  8
Layer 1
370
    53
100
AcDbSpline
210
0.0
220
0.0
230
1.0
 70
    11
 71
     3
 72
    36
 73
    32
 74
     0
 42
0.0000000001
 43
0.0000000001
 12
1.0
 22
0.0
 32
0.0
 13
1.0
 23
0.0
 33
0.0
 40
0.0
 40
0.0
 40
0.0
 40
0.0
 40
0.1111111111111111
 40
0.1111111111111111
 40
0.1111111111111111
 40
0.1111111111111111
 40
0.2222222222222222
 40
0.2222222222222222
 40
0.2222222222222222
 40
0.2222222222222222
 40
0.3333333333333333
 40
0.3333333333333333
 40
0.3333333333333333
 40
0.3333333333333333
 40
0.4444444444444444
 40
0.4444444444444444
 40
0.4444444444444444
 40
0.4444444444444444
 40
0.5555555555555556
 40
0.5555555555555556
 40
0.5555555555555556
 40
0.5555555555555556
 40
0.6666666666666666
 40
0.6666666666666666
 40
0.6666666666666666
 40
0.6666666666666666
 40
0.7777777777777778
 40
0.7777777777777778
 40
0.7777777777777778
 40
0.7777777777777778
 40
1.0
 40
1.0
 40
1.0
 40
1.0
 10
8.95
 20
4.3
 30
0.0
 10
8.95
 20
4.3
 30
0.0
 10
8.95
 20
7.7
 30
0.0
 10
8.95
 20
7.7
 30
0.0
 10
8.95
 20
7.7
 30
0.0
 10
8.95
 20
7.97614
 30
0.0
 10
8.72614
 20
8.2
 30
0.0
 10
8.45
 20
8.2
 30
0.0
 10
8.45
 20
8.2
 30
0.0
 10
8.45
 20
8.2
 30
0.0
 10
8.05
 20
8.2
 30
0.0
 10
8.05
 20
8.2
 30
0.0
 10
8.05
 20
8.2
 30
0.0
 10
7.77386
 20
8.2
 30
0.0
 10
7.55
 20
7.97614
 30
0.0
 10
7.55
 20
7.7
 30
0.0
 10
7.55
 20
7.7
 30
0.0
 10
7.55
 20
7.7
 30
0.0
 10
7.55
 20
4.3
 30
0.0
 10
7.55
 20
4.3
 30
0.0
 10
7.55
 20
4.3
 30
0.0
 10
7.55
 20
4.02386
 30
0.0
 10
7.77386
 20
3.8
 30
0.0
 10
8.05
 20
3.8
 30
0.0
 10
8.05
 20
3.8
 30
0.0
 10
8.05
 20
3.8
 30
0.0
 10
8.45
 20
3.8
 30
0.0
 10
8.45
 20
3.8
 30
0.0
 10
8.45
 20
3.8
 30
0.0
 10
8.72614
 20
3.8
 30
0.0
 10
8.95
 20
4.02386
 30
0.0
 10
8.95
 20
4.3
 30
0.0
  0
SPLINE
  5
89
330
1F
100
AcDbEntity
  8
Layer 1
370
    53
100
AcDbSpline
210
0.0
220
0.0
230
1.0
 70
    11
 71
     3
 72
    36
 73
    32
 74
     0
 42
0.0000000001
 43
0.0000000001
 12
1.0
 22
0.0
 32
0.0
 13
1.0
 23
0.0
 33
0.0
 40
0.0
 40
0.0
 40
0.0
 40
0.0
 40
0.1111111111111111
 40
0.1111111111111111
 40
0.1111111111111111
 40
0.1111111111111111
 40
0.2222222222222222
 40
0.2222222222222222
 40
0.2222222222222222
 40
0.2222222222222222
 40
0.3333333333333333
 40
0.3333333333333333
 40
0.3333333333333333
 40
0.3333333333333333
 40
0.4444444444444444
 40
0.4444444444444444
 40
0.4444444444444444
 40
0.4444444444444444
 40
0.5555555555555556
 40
0.5555555555555556
 40
0.5555555555555556
 40
0.5555555555555556
 40
0.6666666666666666
 40
0.6666666666666666
 40
0.6666666666666666
 40
0.6666666666666666
 40
0.7777777777777778
 40
0.7777777777777778
 40
0.7777777777777778
 40
0.7777777777777778
 40
1.0
 40
1.0
 40
1.0
 40
1.0
 10
5.95
 20
4.3
 30
0.0
 10
5.95
 20
4.3
 30
0.0
 10
5.95
 20
7.7
 30
0.0
 10
5.95
 20
7.7
 30
0.0
 10
5.95
 20
7.7
 30
0.0
 10
5.95
 20
7.97614
 30
0.0
 10
5.72614
 20
8.2
 30
0.0
 10
5.45
 20
8.2
 30
0.0
 10
5.45
 20
8.2
 30
0.0
 10
5.45
 20
8.2
 30
0.0
 10
5.05
 20
8.2
 30
0.0
 10
5.05
 20
8.2
 30
0.0
 10
5.05
 20
8.2
 30
0.0
 10
4.77386
 20
8.2
 30
0.0
 10
4.55
 20
7.97614
 30
0.0
 10
4.55
 20
7.7
 30
0.0
 10
4.55
 20
7.7
 30
0.0
 10
4.55
 20
7.7
 30
0.0
 10
4.55
 20
4.3
 30
0.0
 10
4.55
 20
4.3
 30
0.0
 10
4.55
 20
4.3
 30
0.0
 10
4.55
 20
4.02386
 30
0.0
 10
4.77386
 20
3.8
 30
0.0
 10
5.05
 20
3.8
 30
0.0
 10
5.05
 20
3.8
 30
0.0
 10
5.05
 20
3.8
 30
0.0
 10
5.45
 20
3.8
 30
0.0
 10
5.45
 20
3.8
 30
0.0
 10
5.45
 20
3.8
 30
0.0
 10
5.72614
 20
3.8
 30
0.0
 10
5.95
 20
4.02386
 30
0.0
 10
5.95
 20
4.3
 30
0.0
  0
SPLINE
  5
8A
330
1F
100
AcDbEntity
  8
Layer 1
370
    53
100
AcDbSpline
210
0.0
220
0.0
230
1.0
 70
    11
 71
     3
 72
    36
 73
    32
 74
     0
 42
0.0000000001
 43
0.0000000001
 12
1.0
 22
0.0
 32
0.0
 13
1.0
 23
0.0
 33
0.0
 40
0.0
 40
0.0
 40
0.0
 40
0.0
 40
0.1111111111111111
 40
0.1111111111111111
 40
0.1111111111111111
 40
0.1111111111111111
 40
0.2222222222222222
 40
0.2222222222222222
 40
0.2222222222222222
 40
0.2222222222222222
 40
0.3333333333333333
 40
0.3333333333333333
 40
0.3333333333333333
 40
0.3333333333333333
 40
0.4444444444444444
 40
0.4444444444444444
 40
0.4444444444444444
 40
0.4444444444444444
 40
0.5555555555555556
 40
0.5555555555555556
 40
0.5555555555555556
 40
0.5555555555555556
 40
0.6666666666666666
 40
0.6666666666666666
 40
0.6666666666666666
 40
0.6666666666666666
 40
0.7777777777777778
 40
0.7777777777777778
 40
0.7777777777777778
 40
0.7777777777777778
 40
1.0
 40
1.0
 40
1.0
 40
1.0
 10
-6.05
 20
4.3
 30
0.0
 10
-6.05
 20
4.3
 30
0.0
 10
-6.05
 20
7.7
 30
0.0
 10
-6.05
 20
7.7
 30
0.0
 10
-6.05
 20
7.7
 30
0.0
 10
-6.05
 20
7.97614
 30
0.0
 10
-6.27386
 20
8.2
 30
0.0
 10
-6.55
 20
8.2
 30
0.0
 10
-6.55
 20
8.2
 30
0.0
 10
-6.55
 20
8.2
 30
0.0
 10
-6.95
 20
8.2
 30
0.0
 10
-6.95
 20
8.2
 30
0.0
 10
-6.95
 20
8.2
 30
0.0
 10
-7.22614
 20
8.2
 30
0.0
 10
-7.45
 20
7.97614
 30
0.0
 10
-7.45
 20
7.7
 30
0.0
 10
-7.45
 20
7.7
 30
0.0
 10
-7.45
 20
7.7
 30
0.0
 10
-7.45
 20
4.3
 30
0.0
 10
-7.45
 20
4.3
 30
0.0
 10
-7.45
 20
4.3
 30
0.0
 10
-7.45
 20
4.02386
 30
0.0
 10
-7.22614
 20
3.8
 30
0.0
 10
-6.95
 20
3.8
 30
0.0
 10
-6.95
 20
3.8
 30
0.0
 10
-6.95
 20
3.8
 30
0.0
 10
-6.55
 20
3.8
 30
0.0
 10
-6.55
 20
3.8
 30
0.0
 10
-6.55
 20
3.8
 30
0.0
 10
-6.27386
 20
3.8
 30
0.0
 10
-6.05
 20
4.02386
 30
0.0
 10
-6.05
 20
4.3
 30
0.0
  0
SPLINE
  5
8B
330
1F
100
AcDbEntity
  8
Layer 1
370
    53
100
AcDbSpline
210
0.0
220
0.0
230
1.0
 70
    11
 71
     3
 72
    36
 73
    32
 74
     0
 42
0.0000000001
 43
0.0000000001
 12
1.0
 22
0.0
 32
0.0
 13
1.0
 23
0.0
 33
0.0
 40
0.0
 40
0.0
 40
0.0
 40
0.0
 40
0.1111111111111111
 40
0.1111111111111111
 40
0.1111111111111111
 40
0.1111111111111111
 40
0.2222222222222222
 40
0.2222222222222222
 40
0.2222222222222222
 40
0.2222222222222222
 40
0.3333333333333333
 40
0.3333333333333333
 40
0.3333333333333333
 40
0.3333333333333333
 40
0.4444444444444444
 40
0.4444444444444444
 40
0.4444444444444444
 40
0.4444444444444444
 40
0.5555555555555556
 40
0.5555555555555556
 40
0.5555555555555556
 40
0.5555555555555556
 40
0.6666666666666666
 40
0.6666666666666666
 40
0.6666666666666666
 40
0.6666666666666666
 40
0.7777777777777778
 40
0.7777777777777778
 40
0.7777777777777778
 40
0.7777777777777778
 40
1.0
 40
1.0
 40
1.0
 40
1.0
 10
-9.05
 20
4.3
 30
0.0
 10
-9.05
 20
4.3
 30
0.0
 10
-9.05
 20
7.7
 30
0.0
 10
-9.05
 20
7.7
 30
0.0
 10
-9.05
 20
7.7
 30
0.0
 10
-9.05
 20
7.97614
 30
0.0
 10
-9.27386
 20
8.2
 30
0.0
 10
-9.55
 20
8.2
 30
0.0
 10
-9.55
 20
8.2
 30
0.0
 10
-9.55
 20
8.2
 30
0.0
 10
-9.95
 20
8.2
 30
0.0
 10
-9.95
 20
8.2
 30
0.0
 10
-9.95
 20
8.2
 30
0.0
 10
-10.22614
 20
8.2
 30
0.0
 10
-10.45
 20
7.97614
 30
0.0
 10
-10.45
 20
7.7
 30
0.0
 10
-10.45
 20
7.7
 30
0.0
 10
-10.45
 20
7.7
 30
0.0
 10
-10.45
 20
4.3
 30
0.0
 10
-10.45
 20
4.3
 30
0.0
 10
-10.45
 20
4.3
 30
0.0
 10
-10.45
 20
4.02386
 30
0.0
 10
-10.22614
 20
3.8
 30
0.0
 10
-9.95
 20
3.8
 30
0.0
 10
-9.95
 20
3.8
 30
0.0
 10
-9.95
 20
3.8
 30
0.0
 10
-9.55
 20
3.8
 30
0.0
 10
-9.55
 20
3.8
 30
0.0
 10
-9.55
 20
3.8
 30
0.0
 10
-9.27386
 20
3.8
 30
0.0
 10
-9.05
 20
4.02386
 30
0.0
 10
-9.05
 20
4.3
 30
0.0
  0
ELLIPSE
  5
8C
330
1F
100
AcDbEntity
  8
Layer 1
370
    53
100
AcDbEllipse
 10
-0.75001
 20
10.49999
 30
0.0
 11
0.0
 21
0.30001
 31
0.0
210
0.0
220
0.0
230
1.0
 40
1.0
 41
0.0
 42
6.283185307179586
  0
ELLIPSE
  5
8D
330
1F
100
AcDbEntity
  8
Layer 1
370
    53
100
AcDbEllipse
 10
5.24999
 20
10.49999
 30
0.0
 11
0.0
 21
0.30001
 31
0.0
210
0.0
220
0.0
230
1.0
 40
1.0
 41
0.0
 42
6.283185307179586
  0
ELLIPSE
  5
8E
330
1F
100
AcDbEntity
  8
Layer 1
370
    53
100
AcDbEllipse
 10
0.74999
 20
10.49999
 30
0.0
 11
0.0
 21
0.30001
 31
0.0
210
0.0
220
0.0
230
1.0
 40
1.0
 41
0.0
 42
6.283185307179586
  0
ELLIPSE
  5
8F
330
1F
100
AcDbEntity
  8
Layer 1
370
    53
100
AcDbEllipse
 10
6.74999
 20
10.49999
 30
0.0
 11
0.0
 21
0.30001
 31
0.0
210
0.0
220
0.0
230
1.0
 40
1.0
 41
0.0
 42
6.283185307179586
  0
ELLIPSE
  5
90
330
1F
100
AcDbEntity
  8
Layer 1
370
    53
100
AcDbEllipse
 10
-2.25001
 20
10.49999
 30
0.0
 11
0.0
 21
0.30001
 31
0.0
210
0.0
220
0.0
230
1.0
 40
1.0
 41
0.0
 42
6.283185307179586
  0
ELLIPSE
  5
91
330
1F
100
AcDbEntity
  8
Layer 1
370
    53
100
AcDbEllipse
 10
3.74999
 20
10.49999
 30
0.0
 11
0.0
 21
0.30001
 31
0.0
210
0.0
220
0.0
230
1.0
 40
1.0
 41
0.0
 42
6.283185307179586
  0
ELLIPSE
  5
92
330
1F
100
AcDbEntity
  8
Layer 1
370
    53
100
AcDbEllipse
 10
2.24999
 20
10.49999
 30
0.0
 11
0.0
 21
0.30001
 31
0.0
210
0.0
220
0.0
230
1.0
 40
1.0
 41
0.0
 42
6.283185307179586
  0
ELLIPSE
  5
93
330
1F
100
AcDbEntity
  8
Layer 1
370
    53
100
AcDbEllipse
 10
15.74999
 20
10.49999
 30
0.0
 11
0.0
 21
0.30001
 31
0.0
210
0.0
220
0.0
230
1.0
 40
1.0
 41
0.0
 42
6.283185307179586
  0
ELLIPSE
  5
94
330
1F
100
AcDbEntity
  8
Layer 1
370
    53
100
AcDbEllipse
 10
14.24999
 20
10.49999
 30
0.0
 11
0.0
 21
0.30001
 31
0.0
210
0.0
220
0.0
230
1.0
 40
1.0
 41
0.0
 42
6.283185307179586
  0
ELLIPSE
  5
95
330
1F
100
AcDbEntity
  8
Layer 1
370
    53
100
AcDbEllipse
 10
12.74999
 20
10.49999
 30
0.0
 11
0.0
 21
0.30001
 31
0.0
210
0.0
220
0.0
230
1.0
 40
1.0
 41
0.0
 42
6.283185307179586
  0
ELLIPSE
  5
96
330
1F
100
AcDbEntity
  8
Layer 1
370
    53
100
AcDbEllipse
 10
11.24999
 20
10.49999
 30
0.0
 11
0.0
 21
0.30001
 31
0.0
210
0.0
220
0.0
230
1.0
 40
1.0
 41
0.0
 42
6.283185307179586
  0
ELLIPSE
  5
97
330
1F
100
AcDbEntity
  8
Layer 1
370
    53
100
AcDbEllipse
 10
9.74999
 20
10.49999
 30
0.0
 11
0.0
 21
0.30001
 31
0.0
210
0.0
220
0.0
230
1.0
 40
1.0
 41
0.0
 42
6.283185307179586
  0
ELLIPSE
  5
98
330
1F
100
AcDbEntity
  8
Layer 1
370
    53
100
AcDbEllipse
 10
8.24999
 20
10.49999
 30
0.0
 11
0.0
 21
0.30001
 31
0.0
210
0.0
220
0.0
230
1.0
 40
1.0
 41
0.0
 42
6.283185307179586
  0
ELLIPSE
  5
99
330
1F
100
AcDbEntity
  8
Layer 1
370
    53
100
AcDbEllipse
 10
-5.25001
 20
10.49999
 30
0.0
 11
0.0
 21
0.30001
 31
0.0
210
0.0
220
0.0
230
1.0
 40
1.0
 41
0.0
 42
6.283185307179586
  0
ELLIPSE
  5
9A
330
1F
100
AcDbEntity
  8
Layer 1
370
    53
100
AcDbEllipse
 10
-3.75001
 20
10.49999
 30
0.0
 11
0.0
 21
0.30001
 31
0.0
210
0.0
220
0.0
230
1.0
 40
1.0
 41
0.0
 42
6.283185307179586
  0
ELLIPSE
  5
9B
330
1F
100
AcDbEntity
  8
Layer 1
370
    53
100
AcDbEllipse
 10
-6.75001
 20
10.49999
 30
0.0
 11
0.0
 21
0.30001
 31
0.0
210
0.0
220
0.0
230
1.0
 40
1.0
 41
0.0
 42
6.283185307179586
  0
ELLIPSE
  5
9C
330
1F
100
AcDbEntity
  8
Layer 1
370
    53
100
AcDbEllipse
 10
-9.75001
 20
10.49999
 30
0.0
 11
0.0
 21
0.30001
 31
0.0
210
0.0
220
0.0
230
1.0
 40
1.0
 41
0.0
 42
6.283185307179586
  0
ELLIPSE
  5
9D
330
1F
100
AcDbEntity
  8
Layer 1
370
    53
100
AcDbEllipse
 10
-8.25001
 20
10.49999
 30
0.0
 11
0.0
 21
0.30001
 31
0.0
210
0.0
220
0.0
230
1.0
 40
1.0
 41
0.0
 42
6.283185307179586
  0
ELLIPSE
  5
9E
330
1F
100
AcDbEntity
  8
Layer 1
370
    53
100
AcDbEllipse
 10
-11.25001
 20
10.49999
 30
0.0
 11
0.0
 21
0.30001
 31
0.0
210
0.0
220
0.0
230
1.0
 40
1.0
 41
0.0
 42
6.283185307179586
  0
ELLIPSE
  5
9F
330
1F
100
AcDbEntity
  8
Layer 1
370
    53
100
AcDbEllipse
 10
-12.75001
 20
10.49999
 30
0.0
 11
0.0
 21
0.30001
 31
0.0
210
0.0
220
0.0
230
1.0
 40
1.0
 41
0.0
 42
6.283185307179586
  0
ELLIPSE
  5
A0
330
1F
100
AcDbEntity
  8
Layer 1
370
    53
100
AcDbEllipse
 10
-14.25001
 20
10.49999
 30
0.0
 11
0.0
 21
0.30001
 31
0.0
210
0.0
220
0.0
230
1.0
 40
1.0
 41
0.0
 42
6.283185307179586
  0
ELLIPSE
  5
A1
330
1F
100
AcDbEntity
  8
Layer 1
370
    53
100
AcDbEllipse
 10
-15.75001
 20
10.49999
 30
0.0
 11
0.0
 21
0.30001
 31
0.0
210
0.0
220
0.0
230
1.0
 40
1.0
 41
0.0
 42
6.283185307179586
  0
ELLIPSE
  5
A2
330
1F
100
AcDbEntity
  8
Layer 1
370
    53
100
AcDbEllipse
 10
-15.0
 20
10.5
 30
0.0
 11
0.0
 21
0.15
 31
0.0
210
0.0
220
0.0
230
1.0
 40
1.0
 41
0.0
 42
6.283185307179586
  0
ELLIPSE
  5
A3
330
1F
100
AcDbEntity
  8
Layer 1
370
    53
100
AcDbEllipse
 10
-13.5
 20
10.5
 30
0.0
 11
0.0
 21
0.15
 31
0.0
210
0.0
220
0.0
230
1.0
 40
1.0
 41
0.0
 42
6.283185307179586
  0
ELLIPSE
  5
A4
330
1F
100
AcDbEntity
  8
Layer 1
370
    53
100
AcDbEllipse
 10
-12.0
 20
10.5
 30
0.0
 11
0.0
 21
0.15
 31
0.0
210
0.0
220
0.0
230
1.0
 40
1.0
 41
0.0
 42
6.283185307179586
  0
ELLIPSE
  5
A5
330
1F
100
AcDbEntity
  8
Layer 1
370
    53
100
AcDbEllipse
 10
-10.5
 20
10.5
 30
0.0
 11
0.0
 21
0.15
 31
0.0
210
0.0
220
0.0
230
1.0
 40
1.0
 41
0.0
 42
6.283185307179586
  0
ELLIPSE
  5
A6
330
1F
100
AcDbEntity
  8
Layer 1
370
    53
100
AcDbEllipse
 10
-9.0
 20
10.5
 30
0.0
 11
0.0
 21
0.15
 31
0.0
210
0.0
220
0.0
230
1.0
 40
1.0
 41
0.0
 42
6.283185307179586
  0
ELLIPSE
  5
A7
330
1F
100
AcDbEntity
  8
Layer 1
370
    53
100
AcDbEllipse
 10
-7.5
 20
10.5
 30
0.0
 11
0.0
 21
0.15
 31
0.0
210
0.0
220
0.0
230
1.0
 40
1.0
 41
0.0
 42
6.283185307179586
  0
ELLIPSE
  5
A8
330
1F
100
AcDbEntity
  8
Layer 1
370
    53
100
AcDbEllipse
 10
-6.0
 20
10.5
 30
0.0
 11
0.0
 21
0.15
 31
0.0
210
0.0
220
0.0
230
1.0
 40
1.0
 41
0.0
 42
6.283185307179586
  0
ELLIPSE
  5
A9
330
1F
100
AcDbEntity
  8
Layer 1
370
    53
100
AcDbEllipse
 10
-4.5
 20
10.5
 30
0.0
 11
0.0
 21
0.15
 31
0.0
210
0.0
220
0.0
230
1.0
 40
1.0
 41
0.0
 42
6.283185307179586
  0
ELLIPSE
  5
AA
330
1F
100
AcDbEntity
  8
Layer 1
370
    53
100
AcDbEllipse
 10
-3.0
 20
10.5
 30
0.0
 11
0.0
 21
0.15
 31
0.0
210
0.0
220
0.0
230
1.0
 40
1.0
 41
0.0
 42
6.283185307179586
  0
ELLIPSE
  5
AB
330
1F
100
AcDbEntity
  8
Layer 1
370
    53
100
AcDbEllipse
 10
-1.5
 20
10.5
 30
0.0
 11
0.0
 21
0.15
 31
0.0
210
0.0
220
0.0
230
1.0
 40
1.0
 41
0.0
 42
6.283185307179586
  0
ELLIPSE
  5
AC
330
1F
100
AcDbEntity
  8
Layer 1
370
    53
100
AcDbEllipse
 10
0.0
 20
10.5
 30
0.0
 11
0.0
 21
0.15
 31
0.0
210
0.0
220
0.0
230
1.0
 40
1.0
 41
0.0
 42
6.283185307179586
  0
ELLIPSE
  5
AD
330
1F
100
AcDbEntity
  8
Layer 1
370
    53
100
AcDbEllipse
 10
1.5
 20
10.5
 30
0.0
 11
0.0
 21
0.15
 31
0.0
210
0.0
220
0.0
230
1.0
 40
1.0
 41
0.0
 42
6.283185307179586
  0
ELLIPSE
  5
AE
330
1F
100
AcDbEntity
  8
Layer 1
370
    53
100
AcDbEllipse
 10
3.0
 20
10.5
 30
0.0
 11
0.0
 21
0.15
 31
0.0
210
0.0
220
0.0
230
1.0
 40
1.0
 41
0.0
 42
6.283185307179586
  0
ELLIPSE
  5
AF
330
1F
100
AcDbEntity
  8
Layer 1
370
    53
100
AcDbEllipse
 10
4.5
 20
10.5
 30
0.0
 11
0.0
 21
0.15
 31
0.0
210
0.0
220
0.0
230
1.0
 40
1.0
 41
0.0
 42
6.283185307179586
  0
ELLIPSE
  5
B0
330
1F
100
AcDbEntity
  8
Layer 1
370
    53
100
AcDbEllipse
 10
6.0
 20
10.5
 30
0.0
 11
0.0
 21
0.15
 31
0.0
210
0.0
220
0.0
230
1.0
 40
1.0
 41
0.0
 42
6.283185307179586
  0
ELLIPSE
  5
B1
330
1F
100
AcDbEntity
  8
Layer 1
370
    53
100
AcDbEllipse
 10
7.5
 20
10.5
 30
0.0
 11
0.0
 21
0.15
 31
0.0
210
0.0
220
0.0
230
1.0
 40
1.0
 41
0.0
 42
6.283185307179586
  0
ELLIPSE
  5
B2
330
1F
100
AcDbEntity
  8
Layer 1
370
    53
100
AcDbEllipse
 10
9.0
 20
10.5
 30
0.0
 11
0.0
 21
0.15
 31
0.0
210
0.0
220
0.0
230
1.0
 40
1.0
 41
0.0
 42
6.283185307179586
  0
ELLIPSE
  5
B3
330
1F
100
AcDbEntity
  8
Layer 1
370
    53
100
AcDbEllipse
 10
10.5
 20
10.5
 30
0.0
 11
0.0
 21
0.15
 31
0.0
210
0.0
220
0.0
230
1.0
 40
1.0
 41
0.0
 42
6.283185307179586
  0
ELLIPSE
  5
B4
330
1F
100
AcDbEntity
  8
Layer 1
370
    53
100
AcDbEllipse
 10
12.0
 20
10.5
 30
0.0
 11
0.0
 21
0.15
 31
0.0
210
0.0
220
0.0
230
1.0
 40
1.0
 41
0.0
 42
6.283185307179586
  0
ELLIPSE
  5
B5
330
1F
100
AcDbEntity
  8
Layer 1
370
    53
100
AcDbEllipse
 10
13.5
 20
10.5
 30
0.0
 11
0.0
 21
0.15
 31
0.0
210
0.0
220
0.0
230
1.0
 40
1.0
 41
0.0
 42
6.283185307179586
  0
ELLIPSE
  5
B6
330
1F
100
AcDbEntity
  8
Layer 1
370
    53
100
AcDbEllipse
 10
15.0
 20
10.5
 30
0.0
 11
0.0
 21
0.15
 31
0.0
210
0.0
220
0.0
230
1.0
 40
1.0
 41
0.0
 42
6.283185307179586
  0
SPLINE
  5
B7
330
1F
100
AcDbEntity
  8
Layer 1
370
    53
100
AcDbSpline
210
0.0
220
0.0
230
1.0
 70
    11
 71
     3
 72
    20
 73
    16
 74
     0
 42
0.0000000001
 43
0.0000000001
 12
1.0
 22
0.0
 32
0.0
 13
1.0
 23
0.0
 33
0.0
 40
0.0
 40
0.0
 40
0.0
 40
0.0
 40
0.2
 40
0.2
 40
0.2
 40
0.2
 40
0.4
 40
0.4
 40
0.4
 40
0.4
 40
0.6
 40
0.6
 40
0.6
 40
0.6
 40
1.0
 40
1.0
 40
1.0
 40
1.0
 10
16.05
 20
7.5
 30
0.0
 10
16.05
 20
7.66569
 30
0.0
 10
15.91569
 20
7.8
 30
0.0
 10
15.75
 20
7.8
 30
0.0
 10
15.75
 20
7.8
 30
0.0
 10
15.58431
 20
7.8
 30
0.0
 10
15.45
 20
7.66569
 30
0.0
 10
15.45
 20
7.5
 30
0.0
 10
15.45
 20
7.5
 30
0.0
 10
15.45
 20
7.33431
 30
0.0
 10
15.58431
 20
7.2
 30
0.0
 10
15.75
 20
7.2
 30
0.0
 10
15.75
 20
7.2
 30
0.0
 10
15.91569
 20
7.2
 30
0.0
 10
16.05
 20
7.33431
 30
0.0
 10
16.05
 20
7.5
 30
0.0
  0
SPLINE
  5
B8
330
1F
100
AcDbEntity
  8
Layer 1
370
    53
100
AcDbSpline
210
0.0
220
0.0
230
1.0
 70
    11
 71
     3
 72
    20
 73
    16
 74
     0
 42
0.0000000001
 43
0.0000000001
 12
1.0
 22
0.0
 32
0.0
 13
1.0
 23
0.0
 33
0.0
 40
0.0
 40
0.0
 40
0.0
 40
0.0
 40
0.2
 40
0.2
 40
0.2
 40
0.2
 40
0.4
 40
0.4
 40
0.4
 40
0.4
 40
0.6
 40
0.6
 40
0.6
 40
0.6
 40
1.0
 40
1.0
 40
1.0
 40
1.0
 10
16.05
 20
9.0
 30
0.0
 10
16.05
 20
9.16569
 30
0.0
 10
15.91569
 20
9.3
 30
0.0
 10
15.75
 20
9.3
 30
0.0
 10
15.75
 20
9.3
 30
0.0
 10
15.58431
 20
9.3
 30
0.0
 10
15.45
 20
9.16569
 30
0.0
 10
15.45
 20
9.0
 30
0.0
 10
15.45
 20
9.0
 30
0.0
 10
15.45
 20
8.83431
 30
0.0
 10
15.58431
 20
8.7
 30
0.0
 10
15.75
 20
8.7
 30
0.0
 10
15.75
 20
8.7
 30
0.0
 10
15.91569
 20
8.7
 30
0.0
 10
16.05
 20
8.83431
 30
0.0
 10
16.05
 20
9.0
 30
0.0
  0
SPLINE
  5
B9
330
1F
100
AcDbEntity
  8
Layer 1
370
    53
100
AcDbSpline
210
0.0
220
0.0
230
1.0
 70
    11
 71
     3
 72
    20
 73
    16
 74
     0
 42
0.0000000001
 43
0.0000000001
 12
1.0
 22
0.0
 32
0.0
 13
1.0
 23
0.0
 33
0.0
 40
0.0
 40
0.0
 40
0.0
 40
0.0
 40
0.2
 40
0.2
 40
0.2
 40
0.2
 40
0.4
 40
0.4
 40
0.4
 40
0.4
 40
0.6
 40
0.6
 40
0.6
 40
0.6
 40
1.0
 40
1.0
 40
1.0
 40
1.0
 10
15.9
 20
9.75
 30
0.0
 10
15.9
 20
9.83284
 30
0.0
 10
15.83284
 20
9.9
 30
0.0
 10
15.75
 20
9.9
 30
0.0
 10
15.75
 20
9.9
 30
0.0
 10
15.66716
 20
9.9
 30
0.0
 10
15.6
 20
9.83284
 30
0.0
 10
15.6
 20
9.75
 30
0.0
 10
15.6
 20
9.75
 30
0.0
 10
15.6
 20
9.66716
 30
0.0
 10
15.66716
 20
9.6
 30
0.0
 10
15.75
 20
9.6
 30
0.0
 10
15.75
 20
9.6
 30
0.0
 10
15.83284
 20
9.6
 30
0.0
 10
15.9
 20
9.66716
 30
0.0
 10
15.9
 20
9.75
 30
0.0
  0
SPLINE
  5
BA
330
1F
100
AcDbEntity
  8
Layer 1
370
    53
100
AcDbSpline
210
0.0
220
0.0
230
1.0
 70
    11
 71
     3
 72
    20
 73
    16
 74
     0
 42
0.0000000001
 43
0.0000000001
 12
1.0
 22
0.0
 32
0.0
 13
1.0
 23
0.0
 33
0.0
 40
0.0
 40
0.0
 40
0.0
 40
0.0
 40
0.2
 40
0.2
 40
0.2
 40
0.2
 40
0.4
 40
0.4
 40
0.4
 40
0.4
 40
0.6
 40
0.6
 40
0.6
 40
0.6
 40
1.0
 40
1.0
 40
1.0
 40
1.0
 10
15.9
 20
8.25
 30
0.0
 10
15.9
 20
8.33284
 30
0.0
 10
15.83284
 20
8.4
 30
0.0
 10
15.75
 20
8.4
 30
0.0
 10
15.75
 20
8.4
 30
0.0
 10
15.66716
 20
8.4
 30
0.0
 10
15.6
 20
8.33284
 30
0.0
 10
15.6
 20
8.25
 30
0.0
 10
15.6
 20
8.25
 30
0.0
 10
15.6
 20
8.16716
 30
0.0
 10
15.66716
 20
8.1
 30
0.0
 10
15.75
 20
8.1
 30
0.0
 10
15.75
 20
8.1
 30
0.0
 10
15.83284
 20
8.1
 30
0.0
 10
15.9
 20
8.16716
 30
0.0
 10
15.9
 20
8.25
 30
0.0
  0
SPLINE
  5
BB
330
1F
100
AcDbEntity
  8
Layer 1
370
    53
100
AcDbSpline
210
0.0
220
0.0
230
1.0
 70
    11
 71
     3
 72
    36
 73
    32
 74
     0
 42
0.0000000001
 43
0.0000000001
 12
1.0
 22
0.0
 32
0.0
 13
1.0
 23
0.0
 33
0.0
 40
0.0
 40
0.0
 40
0.0
 40
0.0
 40
0.1111111111111111
 40
0.1111111111111111
 40
0.1111111111111111
 40
0.1111111111111111
 40
0.2222222222222222
 40
0.2222222222222222
 40
0.2222222222222222
 40
0.2222222222222222
 40
0.3333333333333333
 40
0.3333333333333333
 40
0.3333333333333333
 40
0.3333333333333333
 40
0.4444444444444444
 40
0.4444444444444444
 40
0.4444444444444444
 40
0.4444444444444444
 40
0.5555555555555556
 40
0.5555555555555556
 40
0.5555555555555556
 40
0.5555555555555556
 40
0.6666666666666666
 40
0.6666666666666666
 40
0.6666666666666666
 40
0.6666666666666666
 40
0.7777777777777778
 40
0.7777777777777778
 40
0.7777777777777778
 40
0.7777777777777778
 40
1.0
 40
1.0
 40
1.0
 40
1.0
 10
2.95
 20
5.8
 30
0.0
 10
2.95
 20
5.8
 30
0.0
 10
2.95
 20
9.2
 30
0.0
 10
2.95
 20
9.2
 30
0.0
 10
2.95
 20
9.2
 30
0.0
 10
2.95
 20
9.47614
 30
0.0
 10
2.72614
 20
9.7
 30
0.0
 10
2.45
 20
9.7
 30
0.0
 10
2.45
 20
9.7
 30
0.0
 10
2.45
 20
9.7
 30
0.0
 10
-2.45
 20
9.7
 30
0.0
 10
-2.45
 20
9.7
 30
0.0
 10
-2.45
 20
9.7
 30
0.0
 10
-2.72614
 20
9.7
 30
0.0
 10
-2.95
 20
9.47614
 30
0.0
 10
-2.95
 20
9.2
 30
0.0
 10
-2.95
 20
9.2
 30
0.0
 10
-2.95
 20
9.2
 30
0.0
 10
-2.95
 20
5.8
 30
0.0
 10
-2.95
 20
5.8
 30
0.0
 10
-2.95
 20
5.8
 30
0.0
 10
-2.95
 20
5.52386
 30
0.0
 10
-2.72614
 20
5.3
 30
0.0
 10
-2.45
 20
5.3
 30
0.0
 10
-2.45
 20
5.3
 30
0.0
 10
-2.45
 20
5.3
 30
0.0
 10
2.45
 20
5.3
 30
0.0
 10
2.45
 20
5.3
 30
0.0
 10
2.45
 20
5.3
 30
0.0
 10
2.72614
 20
5.3
 30
0.0
 10
2.95
 20
5.52386
 30
0.0
 10
2.95
 20
5.8
 30
0.0
  0
SPLINE
  5
BC
330
1F
100
AcDbEntity
  8
Layer 1
370
    53
100
AcDbSpline
210
0.0
220
0.0
230
1.0
 70
    11
 71
     3
 72
    20
 73
    16
 74
     0
 42
0.0000000001
 43
0.0000000001
 12
1.0
 22
0.0
 32
0.0
 13
1.0
 23
0.0
 33
0.0
 40
0.0
 40
0.0
 40
0.0
 40
0.0
 40
0.2
 40
0.2
 40
0.2
 40
0.2
 40
0.4
 40
0.4
 40
0.4
 40
0.4
 40
0.6
 40
0.6
 40
0.6
 40
0.6
 40
1.0
 40
1.0
 40
1.0
 40
1.0
 10
15.45
 20
1.5
 30
0.0
 10
15.45
 20
1.66569
 30
0.0
 10
15.58431
 20
1.8
 30
0.0
 10
15.75
 20
1.8
 30
0.0
 10
15.75
 20
1.8
 30
0.0
 10
15.91569
 20
1.8
 30
0.0
 10
16.05
 20
1.66569
 30
0.0
 10
16.05
 20
1.5
 30
0.0
 10
16.05
 20
1.5
 30
0.0
 10
16.05
 20
1.33431
 30
0.0
 10
15.91569
 20
1.2
 30
0.0
 10
15.75
 20
1.2
 30
0.0
 10
15.75
 20
1.2
 30
0.0
 10
15.58431
 20
1.2
 30
0.0
 10
15.45
 20
1.33431
 30
0.0
 10
15.45
 20
1.5
 30
0.0
  0
SPLINE
  5
BD
330
1F
100
AcDbEntity
  8
Layer 1
370
    53
100
AcDbSpline
210
0.0
220
0.0
230
1.0
 70
    11
 71
     3
 72
    20
 73
    16
 74
     0
 42
0.0000000001
 43
0.0000000001
 12
1.0
 22
0.0
 32
0.0
 13
1.0
 23
0.0
 33
0.0
 40
0.0
 40
0.0
 40
0.0
 40
0.0
 40
0.2
 40
0.2
 40
0.2
 40
0.2
 40
0.4
 40
0.4
 40
0.4
 40
0.4
 40
0.6
 40
0.6
 40
0.6
 40
0.6
 40
1.0
 40
1.0
 40
1.0
 40
1.0
 10
15.45
 20
3.0
 30
0.0
 10
15.45
 20
3.16569
 30
0.0
 10
15.58431
 20
3.3
 30
0.0
 10
15.75
 20
3.3
 30
0.0
 10
15.75
 20
3.3
 30
0.0
 10
15.91569
 20
3.3
 30
0.0
 10
16.05
 20
3.16569
 30
0.0
 10
16.05
 20
3.0
 30
0.0
 10
16.05
 20
3.0
 30
0.0
 10
16.05
 20
2.83431
 30
0.0
 10
15.91569
 20
2.7
 30
0.0
 10
15.75
 20
2.7
 30
0.0
 10
15.75
 20
2.7
 30
0.0
 10
15.58431
 20
2.7
 30
0.0
 10
15.45
 20
2.83431
 30
0.0
 10
15.45
 20
3.0
 30
0.0
  0
SPLINE
  5
BE
330
1F
100
AcDbEntity
  8
Layer 1
370
    53
100
AcDbSpline
210
0.0
220
0.0
230
1.0
 70
    11
 71
     3
 72
    20
 73
    16
 74
     0
 42
0.0000000001
 43
0.0000000001
 12
1.0
 22
0.0
 32
0.0
 13
1.0
 23
0.0
 33
0.0
 40
0.0
 40
0.0
 40
0.0
 40
0.0
 40
0.2
 40
0.2
 40
0.2
 40
0.2
 40
0.4
 40
0.4
 40
0.4
 40
0.4
 40
0.6
 40
0.6
 40
0.6
 40
0.6
 40
1.0
 40
1.0
 40
1.0
 40
1.0
 10
15.6
 20
2.25
 30
0.0
 10
15.6
 20
2.33284
 30
0.0
 10
15.66716
 20
2.4
 30
0.0
 10
15.75
 20
2.4
 30
0.0
 10
15.75
 20
2.4
 30
0.0
 10
15.83284
 20
2.4
 30
0.0
 10
15.9
 20
2.33284
 30
0.0
 10
15.9
 20
2.25
 30
0.0
 10
15.9
 20
2.25
 30
0.0
 10
15.9
 20
2.16716
 30
0.0
 10
15.83284
 20
2.1
 30
0.0
 10
15.75
 20
2.1
 30
0.0
 10
15.75
 20
2.1
 30
0.0
 10
15.66716
 20
2.1
 30
0.0
 10
15.6
 20
2.16716
 30
0.0
 10
15.6
 20
2.25
 30
0.0
  0
SPLINE
  5
BF
330
1F
100
AcDbEntity
  8
Layer 1
370
    53
100
AcDbSpline
210
0.0
220
0.0
230
1.0
 70
    11
 71
     3
 72
    20
 73
    16
 74
     0
 42
0.0000000001
 43
0.0000000001
 12
1.0
 22
0.0
 32
0.0
 13
1.0
 23
0.0
 33
0.0
 40
0.0
 40
0.0
 40
0.0
 40
0.0
 40
0.2
 40
0.2
 40
0.2
 40
0.2
 40
0.4
 40
0.4
 40
0.4
 40
0.4
 40
0.6
 40
0.6
 40
0.6
 40
0.6
 40
1.0
 40
1.0
 40
1.0
 40
1.0
 10
15.45
 20
4.5
 30
0.0
 10
15.45
 20
4.66569
 30
0.0
 10
15.58431
 20
4.8
 30
0.0
 10
15.75
 20
4.8
 30
0.0
 10
15.75
 20
4.8
 30
0.0
 10
15.91569
 20
4.8
 30
0.0
 10
16.05
 20
4.66569
 30
0.0
 10
16.05
 20
4.5
 30
0.0
 10
16.05
 20
4.5
 30
0.0
 10
16.05
 20
4.33431
 30
0.0
 10
15.91569
 20
4.2
 30
0.0
 10
15.75
 20
4.2
 30
0.0
 10
15.75
 20
4.2
 30
0.0
 10
15.58431
 20
4.2
 30
0.0
 10
15.45
 20
4.33431
 30
0.0
 10
15.45
 20
4.5
 30
0.0
  0
SPLINE
  5
C0
330
1F
100
AcDbEntity
  8
Layer 1
370
    53
100
AcDbSpline
210
0.0
220
0.0
230
1.0
 70
    11
 71
     3
 72
    20
 73
    16
 74
     0
 42
0.0000000001
 43
0.0000000001
 12
1.0
 22
0.0
 32
0.0
 13
1.0
 23
0.0
 33
0.0
 40
0.0
 40
0.0
 40
0.0
 40
0.0
 40
0.2
 40
0.2
 40
0.2
 40
0.2
 40
0.4
 40
0.4
 40
0.4
 40
0.4
 40
0.6
 40
0.6
 40
0.6
 40
0.6
 40
1.0
 40
1.0
 40
1.0
 40
1.0
 10
15.6
 20
3.75
 30
0.0
 10
15.6
 20
3.83284
 30
0.0
 10
15.66716
 20
3.9
 30
0.0
 10
15.75
 20
3.9
 30
0.0
 10
15.75
 20
3.9
 30
0.0
 10
15.83284
 20
3.9
 30
0.0
 10
15.9
 20
3.83284
 30
0.0
 10
15.9
 20
3.75
 30
0.0
 10
15.9
 20
3.75
 30
0.0
 10
15.9
 20
3.66716
 30
0.0
 10
15.83284
 20
3.6
 30
0.0
 10
15.75
 20
3.6
 30
0.0
 10
15.75
 20
3.6
 30
0.0
 10
15.66716
 20
3.6
 30
0.0
 10
15.6
 20
3.66716
 30
0.0
 10
15.6
 20
3.75
 30
0.0
  0
SPLINE
  5
C1
330
1F
100
AcDbEntity
  8
Layer 1
370
    53
100
AcDbSpline
210
0.0
220
0.0
230
1.0
 70
    11
 71
     3
 72
    20
 73
    16
 74
     0
 42
0.0000000001
 43
0.0000000001
 12
1.0
 22
0.0
 32
0.0
 13
1.0
 23
0.0
 33
0.0
 40
0.0
 40
0.0
 40
0.0
 40
0.0
 40
0.2
 40
0.2
 40
0.2
 40
0.2
 40
0.4
 40
0.4
 40
0.4
 40
0.4
 40
0.6
 40
0.6
 40
0.6
 40
0.6
 40
1.0
 40
1.0
 40
1.0
 40
1.0
 10
15.45
 20
6.0
 30
0.0
 10
15.45
 20
6.16569
 30
0.0
 10
15.58431
 20
6.3
 30
0.0
 10
15.75
 20
6.3
 30
0.0
 10
15.75
 20
6.3
 30
0.0
 10
15.91569
 20
6.3
 30
0.0
 10
16.05
 20
6.16569
 30
0.0
 10
16.05
 20
6.0
 30
0.0
 10
16.05
 20
6.0
 30
0.0
 10
16.05
 20
5.83431
 30
0.0
 10
15.91569
 20
5.7
 30
0.0
 10
15.75
 20
5.7
 30
0.0
 10
15.75
 20
5.7
 30
0.0
 10
15.58431
 20
5.7
 30
0.0
 10
15.45
 20
5.83431
 30
0.0
 10
15.45
 20
6.0
 30
0.0
  0
SPLINE
  5
C2
330
1F
100
AcDbEntity
  8
Layer 1
370
    53
100
AcDbSpline
210
0.0
220
0.0
230
1.0
 70
    11
 71
     3
 72
    20
 73
    16
 74
     0
 42
0.0000000001
 43
0.0000000001
 12
1.0
 22
0.0
 32
0.0
 13
1.0
 23
0.0
 33
0.0
 40
0.0
 40
0.0
 40
0.0
 40
0.0
 40
0.2
 40
0.2
 40
0.2
 40
0.2
 40
0.4
 40
0.4
 40
0.4
 40
0.4
 40
0.6
 40
0.6
 40
0.6
 40
0.6
 40
1.0
 40
1.0
 40
1.0
 40
1.0
 10
15.6
 20
5.25
 30
0.0
 10
15.6
 20
5.33284
 30
0.0
 10
15.66716
 20
5.4
 30
0.0
 10
15.75
 20
5.4
 30
0.0
 10
15.75
 20
5.4
 30
0.0
 10
15.83284
 20
5.4
 30
0.0
 10
15.9
 20
5.33284
 30
0.0
 10
15.9
 20
5.25
 30
0.0
 10
15.9
 20
5.25
 30
0.0
 10
15.9
 20
5.16716
 30
0.0
 10
15.83284
 20
5.1
 30
0.0
 10
15.75
 20
5.1
 30
0.0
 10
15.75
 20
5.1
 30
0.0
 10
15.66716
 20
5.1
 30
0.0
 10
15.6
 20
5.16716
 30
0.0
 10
15.6
 20
5.25
 30
0.0
  0
SPLINE
  5
C3
330
1F
100
AcDbEntity
  8
Layer 1
370
    53
100
AcDbSpline
210
0.0
220
0.0
230
1.0
 70
    11
 71
     3
 72
    20
 73
    16
 74
     0
 42
0.0000000001
 43
0.0000000001
 12
1.0
 22
0.0
 32
0.0
 13
1.0
 23
0.0
 33
0.0
 40
0.0
 40
0.0
 40
0.0
 40
0.0
 40
0.2
 40
0.2
 40
0.2
 40
0.2
 40
0.4
 40
0.4
 40
0.4
 40
0.4
 40
0.6
 40
0.6
 40
0.6
 40
0.6
 40
1.0
 40
1.0
 40
1.0
 40
1.0
 10
15.6
 20
6.75
 30
0.0
 10
15.6
 20
6.83284
 30
0.0
 10
15.66716
 20
6.9
 30
0.0
 10
15.75
 20
6.9
 30
0.0
 10
15.75
 20
6.9
 30
0.0
 10
15.83284
 20
6.9
 30
0.0
 10
15.9
 20
6.83284
 30
0.0
 10
15.9
 20
6.75
 30
0.0
 10
15.9
 20
6.75
 30
0.0
 10
15.9
 20
6.66716
 30
0.0
 10
15.83284
 20
6.6
 30
0.0
 10
15.75
 20
6.6
 30
0.0
 10
15.75
 20
6.6
 30
0.0
 10
15.66716
 20
6.6
 30
0.0
 10
15.6
 20
6.66716
 30
0.0
 10
15.6
 20
6.75
 30
0.0
  0
SPLINE
  5
C4
330
1F
100
AcDbEntity
  8
Layer 1
370
    53
100
AcDbSpline
210
0.0
220
0.0
230
1.0
 70
    11
 71
     3
 72
    20
 73
    16
 74
     0
 42
0.0000000001
 43
0.0000000001
 12
1.0
 22
0.0
 32
0.0
 13
1.0
 23
0.0
 33
0.0
 40
0.0
 40
0.0
 40
0.0
 40
0.0
 40
0.2
 40
0.2
 40
0.2
 40
0.2
 40
0.4
 40
0.4
 40
0.4
 40
0.4
 40
0.6
 40
0.6
 40
0.6
 40
0.6
 40
1.0
 40
1.0
 40
1.0
 40
1.0
 10
-16.05
 20
1.5
 30
0.0
 10
-16.05
 20
1.66569
 30
0.0
 10
-15.91569
 20
1.8
 30
0.0
 10
-15.75
 20
1.8
 30
0.0
 10
-15.75
 20
1.8
 30
0.0
 10
-15.58431
 20
1.8
 30
0.0
 10
-15.45
 20
1.66569
 30
0.0
 10
-15.45
 20
1.5
 30
0.0
 10
-15.45
 20
1.5
 30
0.0
 10
-15.45
 20
1.33431
 30
0.0
 10
-15.58431
 20
1.2
 30
0.0
 10
-15.75
 20
1.2
 30
0.0
 10
-15.75
 20
1.2
 30
0.0
 10
-15.91569
 20
1.2
 30
0.0
 10
-16.05
 20
1.33431
 30
0.0
 10
-16.05
 20
1.5
 30
0.0
  0
SPLINE
  5
C5
330
1F
100
AcDbEntity
  8
Layer 1
370
    53
100
AcDbSpline
210
0.0
220
0.0
230
1.0
 70
    11
 71
     3
 72
    20
 73
    16
 74
     0
 42
0.0000000001
 43
0.0000000001
 12
1.0
 22
0.0
 32
0.0
 13
1.0
 23
0.0
 33
0.0
 40
0.0
 40
0.0
 40
0.0
 40
0.0
 40
0.2
 40
0.2
 40
0.2
 40
0.2
 40
0.4
 40
0.4
 40
0.4
 40
0.4
 40
0.6
 40
0.6
 40
0.6
 40
0.6
 40
1.0
 40
1.0
 40
1.0
 40
1.0
 10
-16.05
 20
3.0
 30
0.0
 10
-16.05
 20
3.16569
 30
0.0
 10
-15.91569
 20
3.3
 30
0.0
 10
-15.75
 20
3.3
 30
0.0
 10
-15.75
 20
3.3
 30
0.0
 10
-15.58431
 20
3.3
 30
0.0
 10
-15.45
 20
3.16569
 30
0.0
 10
-15.45
 20
3.0
 30
0.0
 10
-15.45
 20
3.0
 30
0.0
 10
-15.45
 20
2.83431
 30
0.0
 10
-15.58431
 20
2.7
 30
0.0
 10
-15.75
 20
2.7
 30
0.0
 10
-15.75
 20
2.7
 30
0.0
 10
-15.91569
 20
2.7
 30
0.0
 10
-16.05
 20
2.83431
 30
0.0
 10
-16.05
 20
3.0
 30
0.0
  0
SPLINE
  5
C6
330
1F
100
AcDbEntity
  8
Layer 1
370
    53
100
AcDbSpline
210
0.0
220
0.0
230
1.0
 70
    11
 71
     3
 72
    20
 73
    16
 74
     0
 42
0.0000000001
 43
0.0000000001
 12
1.0
 22
0.0
 32
0.0
 13
1.0
 23
0.0
 33
0.0
 40
0.0
 40
0.0
 40
0.0
 40
0.0
 40
0.2
 40
0.2
 40
0.2
 40
0.2
 40
0.4
 40
0.4
 40
0.4
 40
0.4
 40
0.6
 40
0.6
 40
0.6
 40
0.6
 40
1.0
 40
1.0
 40
1.0
 40
1.0
 10
-15.9
 20
2.25
 30
0.0
 10
-15.9
 20
2.33284
 30
0.0
 10
-15.83284
 20
2.4
 30
0.0
 10
-15.75
 20
2.4
 30
0.0
 10
-15.75
 20
2.4
 30
0.0
 10
-15.66716
 20
2.4
 30
0.0
 10
-15.6
 20
2.33284
 30
0.0
 10
-15.6
 20
2.25
 30
0.0
 10
-15.6
 20
2.25
 30
0.0
 10
-15.6
 20
2.16716
 30
0.0
 10
-15.66716
 20
2.1
 30
0.0
 10
-15.75
 20
2.1
 30
0.0
 10
-15.75
 20
2.1
 30
0.0
 10
-15.83284
 20
2.1
 30
0.0
 10
-15.9
 20
2.16716
 30
0.0
 10
-15.9
 20
2.25
 30
0.0
  0
SPLINE
  5
C7
330
1F
100
AcDbEntity
  8
Layer 1
370
    53
100
AcDbSpline
210
0.0
220
0.0
230
1.0
 70
    11
 71
     3
 72
    20
 73
    16
 74
     0
 42
0.0000000001
 43
0.0000000001
 12
1.0
 22
0.0
 32
0.0
 13
1.0
 23
0.0
 33
0.0
 40
0.0
 40
0.0
 40
0.0
 40
0.0
 40
0.2
 40
0.2
 40
0.2
 40
0.2
 40
0.4
 40
0.4
 40
0.4
 40
0.4
 40
0.6
 40
0.6
 40
0.6
 40
0.6
 40
1.0
 40
1.0
 40
1.0
 40
1.0
 10
-16.05
 20
4.5
 30
0.0
 10
-16.05
 20
4.66569
 30
0.0
 10
-15.91569
 20
4.8
 30
0.0
 10
-15.75
 20
4.8
 30
0.0
 10
-15.75
 20
4.8
 30
0.0
 10
-15.58431
 20
4.8
 30
0.0
 10
-15.45
 20
4.66569
 30
0.0
 10
-15.45
 20
4.5
 30
0.0
 10
-15.45
 20
4.5
 30
0.0
 10
-15.45
 20
4.33431
 30
0.0
 10
-15.58431
 20
4.2
 30
0.0
 10
-15.75
 20
4.2
 30
0.0
 10
-15.75
 20
4.2
 30
0.0
 10
-15.91569
 20
4.2
 30
0.0
 10
-16.05
 20
4.33431
 30
0.0
 10
-16.05
 20
4.5
 30
0.0
  0
SPLINE
  5
C8
330
1F
100
AcDbEntity
  8
Layer 1
370
    53
100
AcDbSpline
210
0.0
220
0.0
230
1.0
 70
    11
 71
     3
 72
    20
 73
    16
 74
     0
 42
0.0000000001
 43
0.0000000001
 12
1.0
 22
0.0
 32
0.0
 13
1.0
 23
0.0
 33
0.0
 40
0.0
 40
0.0
 40
0.0
 40
0.0
 40
0.2
 40
0.2
 40
0.2
 40
0.2
 40
0.4
 40
0.4
 40
0.4
 40
0.4
 40
0.6
 40
0.6
 40
0.6
 40
0.6
 40
1.0
 40
1.0
 40
1.0
 40
1.0
 10
-15.9
 20
3.75
 30
0.0
 10
-15.9
 20
3.83284
 30
0.0
 10
-15.83284
 20
3.9
 30
0.0
 10
-15.75
 20
3.9
 30
0.0
 10
-15.75
 20
3.9
 30
0.0
 10
-15.66716
 20
3.9
 30
0.0
 10
-15.6
 20
3.83284
 30
0.0
 10
-15.6
 20
3.75
 30
0.0
 10
-15.6
 20
3.75
 30
0.0
 10
-15.6
 20
3.66716
 30
0.0
 10
-15.66716
 20
3.6
 30
0.0
 10
-15.75
 20
3.6
 30
0.0
 10
-15.75
 20
3.6
 30
0.0
 10
-15.83284
 20
3.6
 30
0.0
 10
-15.9
 20
3.66716
 30
0.0
 10
-15.9
 20
3.75
 30
0.0
  0
SPLINE
  5
C9
330
1F
100
AcDbEntity
  8
Layer 1
370
    53
100
AcDbSpline
210
0.0
220
0.0
230
1.0
 70
    11
 71
     3
 72
    20
 73
    16
 74
     0
 42
0.0000000001
 43
0.0000000001
 12
1.0
 22
0.0
 32
0.0
 13
1.0
 23
0.0
 33
0.0
 40
0.0
 40
0.0
 40
0.0
 40
0.0
 40
0.2
 40
0.2
 40
0.2
 40
0.2
 40
0.4
 40
0.4
 40
0.4
 40
0.4
 40
0.6
 40
0.6
 40
0.6
 40
0.6
 40
1.0
 40
1.0
 40
1.0
 40
1.0
 10
-16.05
 20
6.0
 30
0.0
 10
-16.05
 20
6.16569
 30
0.0
 10
-15.91569
 20
6.3
 30
0.0
 10
-15.75
 20
6.3
 30
0.0
 10
-15.75
 20
6.3
 30
0.0
 10
-15.58431
 20
6.3
 30
0.0
 10
-15.45
 20
6.16569
 30
0.0
 10
-15.45
 20
6.0
 30
0.0
 10
-15.45
 20
6.0
 30
0.0
 10
-15.45
 20
5.83431
 30
0.0
 10
-15.58431
 20
5.7
 30
0.0
 10
-15.75
 20
5.7
 30
0.0
 10
-15.75
 20
5.7
 30
0.0
 10
-15.91569
 20
5.7
 30
0.0
 10
-16.05
 20
5.83431
 30
0.0
 10
-16.05
 20
6.0
 30
0.0
  0
SPLINE
  5
CA
330
1F
100
AcDbEntity
  8
Layer 1
370
    53
100
AcDbSpline
210
0.0
220
0.0
230
1.0
 70
    11
 71
     3
 72
    20
 73
    16
 74
     0
 42
0.0000000001
 43
0.0000000001
 12
1.0
 22
0.0
 32
0.0
 13
1.0
 23
0.0
 33
0.0
 40
0.0
 40
0.0
 40
0.0
 40
0.0
 40
0.2
 40
0.2
 40
0.2
 40
0.2
 40
0.4
 40
0.4
 40
0.4
 40
0.4
 40
0.6
 40
0.6
 40
0.6
 40
0.6
 40
1.0
 40
1.0
 40
1.0
 40
1.0
 10
-15.9
 20
5.25
 30
0.0
 10
-15.9
 20
5.33284
 30
0.0
 10
-15.83284
 20
5.4
 30
0.0
 10
-15.75
 20
5.4
 30
0.0
 10
-15.75
 20
5.4
 30
0.0
 10
-15.66716
 20
5.4
 30
0.0
 10
-15.6
 20
5.33284
 30
0.0
 10
-15.6
 20
5.25
 30
0.0
 10
-15.6
 20
5.25
 30
0.0
 10
-15.6
 20
5.16716
 30
0.0
 10
-15.66716
 20
5.1
 30
0.0
 10
-15.75
 20
5.1
 30
0.0
 10
-15.75
 20
5.1
 30
0.0
 10
-15.83284
 20
5.1
 30
0.0
 10
-15.9
 20
5.16716
 30
0.0
 10
-15.9
 20
5.25
 30
0.0
  0
SPLINE
  5
CB
330
1F
100
AcDbEntity
  8
Layer 1
370
    53
100
AcDbSpline
210
0.0
220
0.0
230
1.0
 70
    11
 71
     3
 72
    20
 73
    16
 74
     0
 42
0.0000000001
 43
0.0000000001
 12
1.0
 22
0.0
 32
0.0
 13
1.0
 23
0.0
 33
0.0
 40
0.0
 40
0.0
 40
0.0
 40
0.0
 40
0.2
 40
0.2
 40
0.2
 40
0.2
 40
0.4
 40
0.4
 40
0.4
 40
0.4
 40
0.6
 40
0.6
 40
0.6
 40
0.6
 40
1.0
 40
1.0
 40
1.0
 40
1.0
 10
-16.05
 20
7.5
 30
0.0
 10
-16.05
 20
7.66569
 30
0.0
 10
-15.91569
 20
7.8
 30
0.0
 10
-15.75
 20
7.8
 30
0.0
 10
-15.75
 20
7.8
 30
0.0
 10
-15.58431
 20
7.8
 30
0.0
 10
-15.45
 20
7.66569
 30
0.0
 10
-15.45
 20
7.5
 30
0.0
 10
-15.45
 20
7.5
 30
0.0
 10
-15.45
 20
7.33431
 30
0.0
 10
-15.58431
 20
7.2
 30
0.0
 10
-15.75
 20
7.2
 30
0.0
 10
-15.75
 20
7.2
 30
0.0
 10
-15.91569
 20
7.2
 30
0.0
 10
-16.05
 20
7.33431
 30
0.0
 10
-16.05
 20
7.5
 30
0.0
  0
SPLINE
  5
CC
330
1F
100
AcDbEntity
  8
Layer 1
370
    53
100
AcDbSpline
210
0.0
220
0.0
230
1.0
 70
    11
 71
     3
 72
    20
 73
    16
 74
     0
 42
0.0000000001
 43
0.0000000001
 12
1.0
 22
0.0
 32
0.0
 13
1.0
 23
0.0
 33
0.0
 40
0.0
 40
0.0
 40
0.0
 40
0.0
 40
0.2
 40
0.2
 40
0.2
 40
0.2
 40
0.4
 40
0.4
 40
0.4
 40
0.4
 40
0.6
 40
0.6
 40
0.6
 40
0.6
 40
1.0
 40
1.0
 40
1.0
 40
1.0
 10
-15.9
 20
6.75
 30
0.0
 10
-15.9
 20
6.83284
 30
0.0
 10
-15.83284
 20
6.9
 30
0.0
 10
-15.75
 20
6.9
 30
0.0
 10
-15.75
 20
6.9
 30
0.0
 10
-15.66716
 20
6.9
 30
0.0
 10
-15.6
 20
6.83284
 30
0.0
 10
-15.6
 20
6.75
 30
0.0
 10
-15.6
 20
6.75
 30
0.0
 10
-15.6
 20
6.66716
 30
0.0
 10
-15.66716
 20
6.6
 30
0.0
 10
-15.75
 20
6.6
 30
0.0
 10
-15.75
 20
6.6
 30
0.0
 10
-15.83284
 20
6.6
 30
0.0
 10
-15.9
 20
6.66716
 30
0.0
 10
-15.9
 20
6.75
 30
0.0
  0
SPLINE
  5
CD
330
1F
100
AcDbEntity
  8
Layer 1
370
    53
100
AcDbSpline
210
0.0
220
0.0
230
1.0
 70
    11
 71
     3
 72
    20
 73
    16
 74
     0
 42
0.0000000001
 43
0.0000000001
 12
1.0
 22
0.0
 32
0.0
 13
1.0
 23
0.0
 33
0.0
 40
0.0
 40
0.0
 40
0.0
 40
0.0
 40
0.2
 40
0.2
 40
0.2
 40
0.2
 40
0.4
 40
0.4
 40
0.4
 40
0.4
 40
0.6
 40
0.6
 40
0.6
 40
0.6
 40
1.0
 40
1.0
 40
1.0
 40
1.0
 10
-15.9
 20
8.25
 30
0.0
 10
-15.9
 20
8.33284
 30
0.0
 10
-15.83284
 20
8.4
 30
0.0
 10
-15.75
 20
8.4
 30
0.0
 10
-15.75
 20
8.4
 30
0.0
 10
-15.66716
 20
8.4
 30
0.0
 10
-15.6
 20
8.33284
 30
0.0
 10
-15.6
 20
8.25
 30
0.0
 10
-15.6
 20
8.25
 30
0.0
 10
-15.6
 20
8.16716
 30
0.0
 10
-15.66716
 20
8.1
 30
0.0
 10
-15.75
 20
8.1
 30
0.0
 10
-15.75
 20
8.1
 30
0.0
 10
-15.83284
 20
8.1
 30
0.0
 10
-15.9
 20
8.16716
 30
0.0
 10
-15.9
 20
8.25
 30
0.0
  0
SPLINE
  5
CE
330
1F
100
AcDbEntity
  8
Layer 1
370
    53
100
AcDbSpline
210
0.0
220
0.0
230
1.0
 70
    11
 71
     3
 72
    20
 73
    16
 74
     0
 42
0.0000000001
 43
0.0000000001
 12
1.0
 22
0.0
 32
0.0
 13
1.0
 23
0.0
 33
0.0
 40
0.0
 40
0.0
 40
0.0
 40
0.0
 40
0.2
 40
0.2
 40
0.2
 40
0.2
 40
0.4
 40
0.4
 40
0.4
 40
0.4
 40
0.6
 40
0.6
 40
0.6
 40
0.6
 40
1.0
 40
1.0
 40
1.0
 40
1.0
 10
-16.05
 20
9.0
 30
0.0
 10
-16.05
 20
9.16569
 30
0.0
 10
-15.91569
 20
9.3
 30
0.0
 10
-15.75
 20
9.3
 30
0.0
 10
-15.75
 20
9.3
 30
0.0
 10
-15.58431
 20
9.3
 30
0.0
 10
-15.45
 20
9.16569
 30
0.0
 10
-15.45
 20
9.0
 30
0.0
 10
-15.45
 20
9.0
 30
0.0
 10
-15.45
 20
8.83431
 30
0.0
 10
-15.58431
 20
8.7
 30
0.0
 10
-15.75
 20
8.7
 30
0.0
 10
-15.75
 20
8.7
 30
0.0
 10
-15.91569
 20
8.7
 30
0.0
 10
-16.05
 20
8.83431
 30
0.0
 10
-16.05
 20
9.0
 30
0.0
  0
SPLINE
  5
CF
330
1F
100
AcDbEntity
  8
Layer 1
370
    53
100
AcDbSpline
210
0.0
220
0.0
230
1.0
 70
    11
 71
     3
 72
    20
 73
    16
 74
     0
 42
0.0000000001
 43
0.0000000001
 12
1.0
 22
0.0
 32
0.0
 13
1.0
 23
0.0
 33
0.0
 40
0.0
 40
0.0
 40
0.0
 40
0.0
 40
0.2
 40
0.2
 40
0.2
 40
0.2
 40
0.4
 40
0.4
 40
0.4
 40
0.4
 40
0.6
 40
0.6
 40
0.6
 40
0.6
 40
1.0
 40
1.0
 40
1.0
 40
1.0
 10
-15.9
 20
9.75
 30
0.0
 10
-15.9
 20
9.83284
 30
0.0
 10
-15.83284
 20
9.9
 30
0.0
 10
-15.75
 20
9.9
 30
0.0
 10
-15.75
 20
9.9
 30
0.0
 10
-15.66716
 20
9.9
 30
0.0
 10
-15.6
 20
9.83284
 30
0.0
 10
-15.6
 20
9.75
 30
0.0
 10
-15.6
 20
9.75
 30
0.0
 10
-15.6
 20
9.66716
 30
0.0
 10
-15.66716
 20
9.6
 30
0.0
 10
-15.75
 20
9.6
 30
0.0
 10
-15.75
 20
9.6
 30
0.0
 10
-15.83284
 20
9.6
 30
0.0
 10
-15.9
 20
9.66716
 30
0.0
 10
-15.9
 20
9.75
 30
0.0
  0
SPLINE
  5
D0
330
1F
100
AcDbEntity
  8
Layer 1
 62
     5
370
     9
100
AcDbSpline
210
0.0
220
0.0
230
1.0
 70
    11
 71
     3
 72
    92
 73
    88
 74
     0
 42
0.0000000001
 43
0.0000000001
 12
1.0
 22
0.0
 32
0.0
 13
1.0
 23
0.0
 33
0.0
 40
0.0
 40
0.0
 40
0.0
 40
0.0
 40
0.0434782608695652
 40
0.0434782608695652
 40
0.0434782608695652
 40
0.0434782608695652
 40
0.0869565217391304
 40
0.0869565217391304
 40
0.0869565217391304
 40
0.0869565217391304
 40
0.1304347826086956
 40
0.1304347826086956
 40
0.1304347826086956
 40
0.1304347826086956
 40
0.1739130434782609
 40
0.1739130434782609
 40
0.1739130434782609
 40
0.1739130434782609
 40
0.2173913043478261
 40
0.2173913043478261
 40
0.2173913043478261
 40
0.2173913043478261
 40
0.2608695652173913
 40
0.2608695652173913
 40
0.2608695652173913
 40
0.2608695652173913
 40
0.3043478260869565
 40
0.3043478260869565
 40
0.3043478260869565
 40
0.3043478260869565
 40
0.3478260869565217
 40
0.3478260869565217
 40
0.3478260869565217
 40
0.3478260869565217
 40
0.391304347826087
 40
0.391304347826087
 40
0.391304347826087
 40
0.391304347826087
 40
0.4347826086956522
 40
0.4347826086956522
 40
0.4347826086956522
 40
0.4347826086956522
 40
0.4782608695652174
 40
0.4782608695652174
 40
0.4782608695652174
 40
0.4782608695652174
 40
0.5217391304347826
 40
0.5217391304347826
 40
0.5217391304347826
 40
0.5217391304347826
 40
0.5652173913043478
 40
0.5652173913043478
 40
0.5652173913043478
 40
0.5652173913043478
 40
0.6086956521739131
 40
0.6086956521739131
 40
0.6086956521739131
 40
0.6086956521739131
 40
0.6521739130434783
 40
0.6521739130434783
 40
0.6521739130434783
 40
0.6521739130434783
 40
0.6956521739130435
 40
0.6956521739130435
 40
0.6956521739130435
 40
0.6956521739130435
 40
0.7391304347826086
 40
0.7391304347826086
 40
0.7391304347826086
 40
0.7391304347826086
 40
0.782608695652174
 40
0.782608695652174
 40
0.782608695652174
 40
0.782608695652174
 40
0.8260869565217391
 40
0.8260869565217391
 40
0.8260869565217391
 40
0.8260869565217391
 40
0.8695652173913043
 40
0.8695652173913043
 40
0.8695652173913043
 40
0.8695652173913043
 40
0.9130434782608695
 40
0.9130434782608695
 40
0.9130434782608695
 40
0.9130434782608695
 40
1.0
 40
1.0
 40
1.0
 40
1.0
 10
-3.29081
 20
2.92987
 30
0.0
 10
-3.29081
 20
2.92987
 30
0.0
 10
-3.29081
 20
3.00437
 30
0.0
 10
-3.29081
 20
3.00437
 30
0.0
 10
-3.29081
 20
3.00437
 30
0.0
 10
-3.23761
 20
2.97784
 30
0.0
 10
-3.19146
 20
2.96458
 30
0.0
 10
-3.15209
 20
2.96458
 30
0.0
 10
-3.15209
 20
2.96458
 30
0.0
 10
-3.12867
 20
2.96458
 30
0.0
 10
-3.1092
 20
2.97093
 30
0.0
 10
-3.09381
 20
2.98363
 30
0.0
 10
-3.09381
 20
2.98363
 30
0.0
 10
-3.07843
 20
2.99619
 30
0.0
 10
-3.07067
 20
3.01199
 30
0.0
 10
-3.07067
 20
3.03104
 30
0.0
 10
-3.07067
 20
3.03104
 30
0.0
 10
-3.07067
 20
3.05884
 30
0.0
 10
-3.09226
 20
3.08184
 30
0.0
 10
-3.13544
 20
3.10005
 30
0.0
 10
-3.13544
 20
3.10005
 30
0.0
 10
-3.13544
 20
3.10005
 30
0.0
 10
-3.183
 20
3.12023
 30
0.0
 10
-3.183
 20
3.12023
 30
0.0
 10
-3.183
 20
3.12023
 30
0.0
 10
-3.25313
 20
3.1493
 30
0.0
 10
-3.28827
 20
3.19135
 30
0.0
 10
-3.28827
 20
3.24596
 30
0.0
 10
-3.28827
 20
3.24596
 30
0.0
 10
-3.28827
 20
3.28504
 30
0.0
 10
-3.27444
 20
3.31581
 30
0.0
 10
-3.24678
 20
3.33824
 30
0.0
 10
-3.24678
 20
3.33824
 30
0.0
 10
-3.21912
 20
3.36068
 30
0.0
 10
-3.18116
 20
3.37183
 30
0.0
 10
-3.13304
 20
3.37183
 30
0.0
 10
-3.13304
 20
3.37183
 30
0.0
 10
-3.10807
 20
3.37183
 30
0.0
 10
-3.07702
 20
3.36844
 30
0.0
 10
-3.04019
 20
3.36153
 30
0.0
 10
-3.04019
 20
3.36153
 30
0.0
 10
-3.04019
 20
3.36153
 30
0.0
 10
-3.02326
 20
3.35828
 30
0.0
 10
-3.02326
 20
3.35828
 30
0.0
 10
-3.02326
 20
3.35828
 30
0.0
 10
-3.02326
 20
3.35828
 30
0.0
 10
-3.02326
 20
3.29055
 30
0.0
 10
-3.02326
 20
3.29055
 30
0.0
 10
-3.02326
 20
3.29055
 30
0.0
 10
-3.06856
 20
3.30409
 30
0.0
 10
-3.10468
 20
3.31087
 30
0.0
 10
-3.13163
 20
3.31087
 30
0.0
 10
-3.13163
 20
3.31087
 30
0.0
 10
-3.15534
 20
3.31087
 30
0.0
 10
-3.17411
 20
3.30565
 30
0.0
 10
-3.18836
 20
3.29535
 30
0.0
 10
-3.18836
 20
3.29535
 30
0.0
 10
-3.20247
 20
3.28504
 30
0.0
 10
-3.20953
 20
3.27122
 30
0.0
 10
-3.20953
 20
3.25386
 30
0.0
 10
-3.20953
 20
3.25386
 30
0.0
 10
-3.20953
 20
3.22945
 30
0.0
 10
-3.18977
 20
3.2087
 30
0.0
 10
-3.15012
 20
3.19191
 30
0.0
 10
-3.15012
 20
3.19191
 30
0.0
 10
-3.15012
 20
3.19191
 30
0.0
 10
-3.11103
 20
3.1754
 30
0.0
 10
-3.11103
 20
3.1754
 30
0.0
 10
-3.11103
 20
3.1754
 30
0.0
 10
-3.06672
 20
3.15677
 30
0.0
 10
-3.03539
 20
3.13702
 30
0.0
 10
-3.01705
 20
3.11628
 30
0.0
 10
-3.01705
 20
3.11628
 30
0.0
 10
-2.99856
 20
3.09553
 30
0.0
 10
-2.98939
 20
3.06957
 30
0.0
 10
-2.98939
 20
3.03852
 30
0.0
 10
-2.98939
 20
3.03852
 30
0.0
 10
-2.98939
 20
2.99915
 30
0.0
 10
-3.00491
 20
2.96684
 30
0.0
 10
-3.0361
 20
2.94158
 30
0.0
 10
-3.0361
 20
2.94158
 30
0.0
 10
-3.06714
 20
2.91632
 30
0.0
 10
-3.10694
 20
2.90362
 30
0.0
 10
-3.15534
 20
2.90362
 30
0.0
 10
-3.15534
 20
2.90362
 30
0.0
 10
-3.19259
 20
2.90362
 30
0.0
 10
-3.23761
 20
2.91237
 30
0.0
 10
-3.29081
 20
2.92987
 30
0.0
  0
SPLINE
  5
D1
330
1F
100
AcDbEntity
  8
Layer 1
 62
     5
370
     9
100
AcDbSpline
210
0.0
220
0.0
230
1.0
 70
    11
 71
     3
 72
    60
 73
    56
 74
     0
 42
0.0000000001
 43
0.0000000001
 12
1.0
 22
0.0
 32
0.0
 13
1.0
 23
0.0
 33
0.0
 40
0.0
 40
0.0
 40
0.0
 40
0.0
 40
0.0666666666666667
 40
0.0666666666666667
 40
0.0666666666666667
 40
0.0666666666666667
 40
0.1333333333333333
 40
0.1333333333333333
 40
0.1333333333333333
 40
0.1333333333333333
 40
0.2
 40
0.2
 40
0.2
 40
0.2
 40
0.2666666666666667
 40
0.2666666666666667
 40
0.2666666666666667
 40
0.2666666666666667
 40
0.3333333333333333
 40
0.3333333333333333
 40
0.3333333333333333
 40
0.3333333333333333
 40
0.4
 40
0.4
 40
0.4
 40
0.4
 40
0.4666666666666667
 40
0.4666666666666667
 40
0.4666666666666667
 40
0.4666666666666667
 40
0.5333333333333333
 40
0.5333333333333333
 40
0.5333333333333333
 40
0.5333333333333333
 40
0.6
 40
0.6
 40
0.6
 40
0.6
 40
0.6666666666666666
 40
0.6666666666666666
 40
0.6666666666666666
 40
0.6666666666666666
 40
0.7333333333333333
 40
0.7333333333333333
 40
0.7333333333333333
 40
0.7333333333333333
 40
0.8
 40
0.8
 40
0.8
 40
0.8
 40
0.8666666666666667
 40
0.8666666666666667
 40
0.8666666666666667
 40
0.8666666666666667
 40
1.0
 40
1.0
 40
1.0
 40
1.0
 10
-2.56197
 20
2.91378
 30
0.0
 10
-2.56197
 20
2.91378
 30
0.0
 10
-2.56197
 20
2.99816
 30
0.0
 10
-2.56197
 20
2.99816
 30
0.0
 10
-2.56197
 20
2.99816
 30
0.0
 10
-2.60529
 20
2.93509
 30
0.0
 10
-2.65792
 20
2.90362
 30
0.0
 10
-2.71973
 20
2.90362
 30
0.0
 10
-2.71973
 20
2.90362
 30
0.0
 10
-2.75896
 20
2.90362
 30
0.0
 10
-2.79014
 20
2.9159
 30
0.0
 10
-2.81329
 20
2.94059
 30
0.0
 10
-2.81329
 20
2.94059
 30
0.0
 10
-2.83657
 20
2.96529
 30
0.0
 10
-2.84814
 20
2.99845
 30
0.0
 10
-2.84814
 20
3.04036
 30
0.0
 10
-2.84814
 20
3.04036
 30
0.0
 10
-2.84814
 20
3.04036
 30
0.0
 10
-2.84814
 20
3.36252
 30
0.0
 10
-2.84814
 20
3.36252
 30
0.0
 10
-2.84814
 20
3.36252
 30
0.0
 10
-2.84814
 20
3.36252
 30
0.0
 10
-2.76686
 20
3.36252
 30
0.0
 10
-2.76686
 20
3.36252
 30
0.0
 10
-2.76686
 20
3.36252
 30
0.0
 10
-2.76686
 20
3.36252
 30
0.0
 10
-2.76686
 20
3.06689
 30
0.0
 10
-2.76686
 20
3.06689
 30
0.0
 10
-2.76686
 20
3.06689
 30
0.0
 10
-2.76686
 20
3.03316
 30
0.0
 10
-2.76192
 20
3.00931
 30
0.0
 10
-2.75218
 20
2.9952
 30
0.0
 10
-2.75218
 20
2.9952
 30
0.0
 10
-2.74231
 20
2.98095
 30
0.0
 10
-2.72594
 20
2.97389
 30
0.0
 10
-2.70294
 20
2.97389
 30
0.0
 10
-2.70294
 20
2.97389
 30
0.0
 10
-2.65326
 20
2.97389
 30
0.0
 10
-2.60613
 20
3.00649
 30
0.0
 10
-2.56197
 20
3.07183
 30
0.0
 10
-2.56197
 20
3.07183
 30
0.0
 10
-2.56197
 20
3.07183
 30
0.0
 10
-2.56197
 20
3.36252
 30
0.0
 10
-2.56197
 20
3.36252
 30
0.0
 10
-2.56197
 20
3.36252
 30
0.0
 10
-2.56197
 20
3.36252
 30
0.0
 10
-2.48068
 20
3.36252
 30
0.0
 10
-2.48068
 20
3.36252
 30
0.0
 10
-2.48068
 20
3.36252
 30
0.0
 10
-2.48068
 20
3.36252
 30
0.0
 10
-2.48068
 20
2.91378
 30
0.0
 10
-2.48068
 20
2.91378
 30
0.0
 10
-2.48068
 20
2.91378
 30
0.0
 10
-2.48068
 20
2.91378
 30
0.0
 10
-2.56197
 20
2.91378
 30
0.0
 10
-2.56197
 20
2.91378
 30
0.0
  0
SPLINE
  5
D2
330
1F
100
AcDbEntity
  8
Layer 1
 62
     5
370
     9
100
AcDbSpline
210
0.0
220
0.0
230
1.0
 70
    11
 71
     3
 72
    44
 73
    40
 74
     0
 42
0.0000000001
 43
0.0000000001
 12
1.0
 22
0.0
 32
0.0
 13
1.0
 23
0.0
 33
0.0
 40
0.0
 40
0.0
 40
0.0
 40
0.0
 40
0.0909090909090909
 40
0.0909090909090909
 40
0.0909090909090909
 40
0.0909090909090909
 40
0.1818181818181818
 40
0.1818181818181818
 40
0.1818181818181818
 40
0.1818181818181818
 40
0.2727272727272727
 40
0.2727272727272727
 40
0.2727272727272727
 40
0.2727272727272727
 40
0.3636363636363636
 40
0.3636363636363636
 40
0.3636363636363636
 40
0.3636363636363636
 40
0.4545454545454545
 40
0.4545454545454545
 40
0.4545454545454545
 40
0.4545454545454545
 40
0.5454545454545454
 40
0.5454545454545454
 40
0.5454545454545454
 40
0.5454545454545454
 40
0.6363636363636364
 40
0.6363636363636364
 40
0.6363636363636364
 40
0.6363636363636364
 40
0.7272727272727273
 40
0.7272727272727273
 40
0.7272727272727273
 40
0.7272727272727273
 40
0.8181818181818182
 40
0.8181818181818182
 40
0.8181818181818182
 40
0.8181818181818182
 40
1.0
 40
1.0
 40
1.0
 40
1.0
 10
-2.31756
 20
2.91378
 30
0.0
 10
-2.31756
 20
2.91378
 30
0.0
 10
-2.31756
 20
3.36252
 30
0.0
 10
-2.31756
 20
3.36252
 30
0.0
 10
-2.31756
 20
3.36252
 30
0.0
 10
-2.31756
 20
3.36252
 30
0.0
 10
-2.23628
 20
3.36252
 30
0.0
 10
-2.23628
 20
3.36252
 30
0.0
 10
-2.23628
 20
3.36252
 30
0.0
 10
-2.23628
 20
3.36252
 30
0.0
 10
-2.23628
 20
3.27771
 30
0.0
 10
-2.23628
 20
3.27771
 30
0.0
 10
-2.23628
 20
3.27771
 30
0.0
 10
-2.20396
 20
3.3405
 30
0.0
 10
-2.15712
 20
3.37183
 30
0.0
 10
-2.09559
 20
3.37183
 30
0.0
 10
-2.09559
 20
3.37183
 30
0.0
 10
-2.08727
 20
3.37183
 30
0.0
 10
-2.07852
 20
3.37112
 30
0.0
 10
-2.06949
 20
3.36971
 30
0.0
 10
-2.06949
 20
3.36971
 30
0.0
 10
-2.06949
 20
3.36971
 30
0.0
 10
-2.06949
 20
3.29365
 30
0.0
 10
-2.06949
 20
3.29365
 30
0.0
 10
-2.06949
 20
3.29365
 30
0.0
 10
-2.0836
 20
3.29831
 30
0.0
 10
-2.09601
 20
3.30071
 30
0.0
 10
-2.10674
 20
3.30071
 30
0.0
 10
-2.10674
 20
3.30071
 30
0.0
 10
-2.15839
 20
3.30071
 30
0.0
 10
-2.20157
 20
3.27023
 30
0.0
 10
-2.23628
 20
3.20913
 30
0.0
 10
-2.23628
 20
3.20913
 30
0.0
 10
-2.23628
 20
3.20913
 30
0.0
 10
-2.23628
 20
2.91378
 30
0.0
 10
-2.23628
 20
2.91378
 30
0.0
 10
-2.23628
 20
2.91378
 30
0.0
 10
-2.23628
 20
2.91378
 30
0.0
 10
-2.31756
 20
2.91378
 30
0.0
 10
-2.31756
 20
2.91378
 30
0.0
  0
SPLINE
  5
D3
330
1F
100
AcDbEntity
  8
Layer 1
 62
     5
370
     9
100
AcDbSpline
210
0.0
220
0.0
230
1.0
 70
    11
 71
     3
 72
    72
 73
    68
 74
     0
 42
0.0000000001
 43
0.0000000001
 12
1.0
 22
0.0
 32
0.0
 13
1.0
 23
0.0
 33
0.0
 40
0.0
 40
0.0
 40
0.0
 40
0.0
 40
0.0555555555555556
 40
0.0555555555555556
 40
0.0555555555555556
 40
0.0555555555555556
 40
0.1111111111111111
 40
0.1111111111111111
 40
0.1111111111111111
 40
0.1111111111111111
 40
0.1666666666666667
 40
0.1666666666666667
 40
0.1666666666666667
 40
0.1666666666666667
 40
0.2222222222222222
 40
0.2222222222222222
 40
0.2222222222222222
 40
0.2222222222222222
 40
0.2777777777777778
 40
0.2777777777777778
 40
0.2777777777777778
 40
0.2777777777777778
 40
0.3333333333333333
 40
0.3333333333333333
 40
0.3333333333333333
 40
0.3333333333333333
 40
0.3888888888888889
 40
0.3888888888888889
 40
0.3888888888888889
 40
0.3888888888888889
 40
0.4444444444444444
 40
0.4444444444444444
 40
0.4444444444444444
 40
0.4444444444444444
 40
0.5
 40
0.5
 40
0.5
 40
0.5
 40
0.5555555555555556
 40
0.5555555555555556
 40
0.5555555555555556
 40
0.5555555555555556
 40
0.6111111111111112
 40
0.6111111111111112
 40
0.6111111111111112
 40
0.6111111111111112
 40
0.6666666666666666
 40
0.6666666666666666
 40
0.6666666666666666
 40
0.6666666666666666
 40
0.7222222222222222
 40
0.7222222222222222
 40
0.7222222222222222
 40
0.7222222222222222
 40
0.7777777777777778
 40
0.7777777777777778
 40
0.7777777777777778
 40
0.7777777777777778
 40
0.8333333333333334
 40
0.8333333333333334
 40
0.8333333333333334
 40
0.8333333333333334
 40
0.8888888888888888
 40
0.8888888888888888
 40
0.8888888888888888
 40
0.8888888888888888
 40
1.0
 40
1.0
 40
1.0
 40
1.0
 10
-1.95589
 20
2.91378
 30
0.0
 10
-1.95589
 20
2.91378
 30
0.0
 10
-1.95589
 20
3.30155
 30
0.0
 10
-1.95589
 20
3.30155
 30
0.0
 10
-1.95589
 20
3.30155
 30
0.0
 10
-1.95589
 20
3.30155
 30
0.0
 10
-2.01953
 20
3.30155
 30
0.0
 10
-2.01953
 20
3.30155
 30
0.0
 10
-2.01953
 20
3.30155
 30
0.0
 10
-2.01953
 20
3.30155
 30
0.0
 10
-2.01953
 20
3.36252
 30
0.0
 10
-2.01953
 20
3.36252
 30
0.0
 10
-2.01953
 20
3.36252
 30
0.0
 10
-2.01953
 20
3.36252
 30
0.0
 10
-1.95589
 20
3.36252
 30
0.0
 10
-1.95589
 20
3.36252
 30
0.0
 10
-1.95589
 20
3.36252
 30
0.0
 10
-1.95589
 20
3.36252
 30
0.0
 10
-1.95589
 20
3.41628
 30
0.0
 10
-1.95589
 20
3.41628
 30
0.0
 10
-1.95589
 20
3.41628
 30
0.0
 10
-1.95589
 20
3.52324
 30
0.0
 10
-1.90706
 20
3.57672
 30
0.0
 10
-1.80942
 20
3.57672
 30
0.0
 10
-1.80942
 20
3.57672
 30
0.0
 10
-1.78204
 20
3.57672
 30
0.0
 10
-1.751
 20
3.57221
 30
0.0
 10
-1.71628
 20
3.56318
 30
0.0
 10
-1.71628
 20
3.56318
 30
0.0
 10
-1.71628
 20
3.56318
 30
0.0
 10
-1.71628
 20
3.49798
 30
0.0
 10
-1.71628
 20
3.49798
 30
0.0
 10
-1.71628
 20
3.49798
 30
0.0
 10
-1.75311
 20
3.50984
 30
0.0
 10
-1.7826
 20
3.51576
 30
0.0
 10
-1.80476
 20
3.51576
 30
0.0
 10
-1.80476
 20
3.51576
 30
0.0
 10
-1.83171
 20
3.51576
 30
0.0
 10
-1.85006
 20
3.50941
 30
0.0
 10
-1.85979
 20
3.49657
 30
0.0
 10
-1.85979
 20
3.49657
 30
0.0
 10
-1.86967
 20
3.48373
 30
0.0
 10
-1.87461
 20
3.45988
 30
0.0
 10
-1.87461
 20
3.42503
 30
0.0
 10
-1.87461
 20
3.42503
 30
0.0
 10
-1.87461
 20
3.42503
 30
0.0
 10
-1.87461
 20
3.36252
 30
0.0
 10
-1.87461
 20
3.36252
 30
0.0
 10
-1.87461
 20
3.36252
 30
0.0
 10
-1.87461
 20
3.36252
 30
0.0
 10
-1.76186
 20
3.36252
 30
0.0
 10
-1.76186
 20
3.36252
 30
0.0
 10
-1.76186
 20
3.36252
 30
0.0
 10
-1.76186
 20
3.36252
 30
0.0
 10
-1.76186
 20
3.30155
 30
0.0
 10
-1.76186
 20
3.30155
 30
0.0
 10
-1.76186
 20
3.30155
 30
0.0
 10
-1.76186
 20
3.30155
 30
0.0
 10
-1.87461
 20
3.30155
 30
0.0
 10
-1.87461
 20
3.30155
 30
0.0
 10
-1.87461
 20
3.30155
 30
0.0
 10
-1.87461
 20
3.30155
 30
0.0
 10
-1.87461
 20
2.91378
 30
0.0
 10
-1.87461
 20
2.91378
 30
0.0
 10
-1.87461
 20
2.91378
 30
0.0
 10
-1.87461
 20
2.91378
 30
0.0
 10
-1.95589
 20
2.91378
 30
0.0
 10
-1.95589
 20
2.91378
 30
0.0
  0
SPLINE
  5
D4
330
1F
100
AcDbEntity
  8
Layer 1
 62
     5
370
     9
100
AcDbSpline
210
0.0
220
0.0
230
1.0
 70
    11
 71
     3
 72
    80
 73
    76
 74
     0
 42
0.0000000001
 43
0.0000000001
 12
1.0
 22
0.0
 32
0.0
 13
1.0
 23
0.0
 33
0.0
 40
0.0
 40
0.0
 40
0.0
 40
0.0
 40
0.05
 40
0.05
 40
0.05
 40
0.05
 40
0.1
 40
0.1
 40
0.1
 40
0.1
 40
0.15
 40
0.15
 40
0.15
 40
0.15
 40
0.2
 40
0.2
 40
0.2
 40
0.2
 40
0.25
 40
0.25
 40
0.25
 40
0.25
 40
0.3
 40
0.3
 40
0.3
 40
0.3
 40
0.35
 40
0.35
 40
0.35
 40
0.35
 40
0.4
 40
0.4
 40
0.4
 40
0.4
 40
0.45
 40
0.45
 40
0.45
 40
0.45
 40
0.5
 40
0.5
 40
0.5
 40
0.5
 40
0.55
 40
0.55
 40
0.55
 40
0.55
 40
0.6
 40
0.6
 40
0.6
 40
0.6
 40
0.65
 40
0.65
 40
0.65
 40
0.65
 40
0.7
 40
0.7
 40
0.7
 40
0.7
 40
0.75
 40
0.75
 40
0.75
 40
0.75
 40
0.8
 40
0.8
 40
0.8
 40
0.8
 40
0.85
 40
0.85
 40
0.85
 40
0.85
 40
0.9
 40
0.9
 40
0.9
 40
0.9
 40
1.0
 40
1.0
 40
1.0
 40
1.0
 10
-1.42856
 20
2.97093
 30
0.0
 10
-1.47738
 20
2.92606
 30
0.0
 10
-1.52437
 20
2.90362
 30
0.0
 10
-1.56953
 20
2.90362
 30
0.0
 10
-1.56953
 20
2.90362
 30
0.0
 10
-1.60664
 20
2.90362
 30
0.0
 10
-1.63754
 20
2.91519
 30
0.0
 10
-1.66196
 20
2.93847
 30
0.0
 10
-1.66196
 20
2.93847
 30
0.0
 10
-1.68651
 20
2.96176
 30
0.0
 10
-1.69879
 20
2.99111
 30
0.0
 10
-1.69879
 20
3.02653
 30
0.0
 10
-1.69879
 20
3.02653
 30
0.0
 10
-1.69879
 20
3.07549
 30
0.0
 10
-1.67818
 20
3.11317
 30
0.0
 10
-1.63698
 20
3.13942
 30
0.0
 10
-1.63698
 20
3.13942
 30
0.0
 10
-1.59577
 20
3.16566
 30
0.0
 10
-1.53665
 20
3.17879
 30
0.0
 10
-1.4596
 20
3.17879
 30
0.0
 10
-1.4596
 20
3.17879
 30
0.0
 10
-1.4596
 20
3.17879
 30
0.0
 10
-1.44055
 20
3.17879
 30
0.0
 10
-1.44055
 20
3.17879
 30
0.0
 10
-1.44055
 20
3.17879
 30
0.0
 10
-1.44055
 20
3.17879
 30
0.0
 10
-1.44055
 20
3.23283
 30
0.0
 10
-1.44055
 20
3.23283
 30
0.0
 10
-1.44055
 20
3.23283
 30
0.0
 10
-1.44055
 20
3.2849
 30
0.0
 10
-1.46765
 20
3.31087
 30
0.0
 10
-1.52197
 20
3.31087
 30
0.0
 10
-1.52197
 20
3.31087
 30
0.0
 10
-1.56402
 20
3.31087
 30
0.0
 10
-1.61003
 20
3.2976
 30
0.0
 10
-1.65984
 20
3.27107
 30
0.0
 10
-1.65984
 20
3.27107
 30
0.0
 10
-1.65984
 20
3.27107
 30
0.0
 10
-1.65984
 20
3.33796
 30
0.0
 10
-1.65984
 20
3.33796
 30
0.0
 10
-1.65984
 20
3.33796
 30
0.0
 10
-1.60509
 20
3.36054
 30
0.0
 10
-1.55344
 20
3.37183
 30
0.0
 10
-1.50504
 20
3.37183
 30
0.0
 10
-1.50504
 20
3.37183
 30
0.0
 10
-1.45523
 20
3.37183
 30
0.0
 10
-1.4184
 20
3.36054
 30
0.0
 10
-1.39483
 20
3.33782
 30
0.0
 10
-1.39483
 20
3.33782
 30
0.0
 10
-1.37113
 20
3.3151
 30
0.0
 10
-1.35927
 20
3.28011
 30
0.0
 10
-1.35927
 20
3.23283
 30
0.0
 10
-1.35927
 20
3.23283
 30
0.0
 10
-1.35927
 20
3.23283
 30
0.0
 10
-1.35927
 20
3.03006
 30
0.0
 10
-1.35927
 20
3.03006
 30
0.0
 10
-1.35927
 20
3.03006
 30
0.0
 10
-1.35927
 20
2.98363
 30
0.0
 10
-1.34502
 20
2.96035
 30
0.0
 10
-1.31637
 20
2.96035
 30
0.0
 10
-1.31637
 20
2.96035
 30
0.0
 10
-1.31285
 20
2.96035
 30
0.0
 10
-1.30762
 20
2.96091
 30
0.0
 10
-1.30071
 20
2.96204
 30
0.0
 10
-1.30071
 20
2.96204
 30
0.0
 10
-1.30071
 20
2.96204
 30
0.0
 10
-1.29492
 20
2.91688
 30
0.0
 10
-1.29492
 20
2.91688
 30
0.0
 10
-1.29492
 20
2.91688
 30
0.0
 10
-1.31341
 20
2.90799
 30
0.0
 10
-1.33373
 20
2.90362
 30
0.0
 10
-1.35603
 20
2.90362
 30
0.0
 10
-1.35603
 20
2.90362
 30
0.0
 10
-1.39399
 20
2.90362
 30
0.0
 10
-1.41812
 20
2.92606
 30
0.0
 10
-1.42856
 20
2.97093
 30
0.0
  0
SPLINE
  5
D5
330
1F
100
AcDbEntity
  8
Layer 1
 62
     5
370
     9
100
AcDbSpline
210
0.0
220
0.0
230
1.0
 70
    11
 71
     3
 72
    32
 73
    28
 74
     0
 42
0.0000000001
 43
0.0000000001
 12
1.0
 22
0.0
 32
0.0
 13
1.0
 23
0.0
 33
0.0
 40
0.0
 40
0.0
 40
0.0
 40
0.0
 40
0.125
 40
0.125
 40
0.125
 40
0.125
 40
0.25
 40
0.25
 40
0.25
 40
0.25
 40
0.375
 40
0.375
 40
0.375
 40
0.375
 40
0.5
 40
0.5
 40
0.5
 40
0.5
 40
0.625
 40
0.625
 40
0.625
 40
0.625
 40
0.75
 40
0.75
 40
0.75
 40
0.75
 40
1.0
 40
1.0
 40
1.0
 40
1.0
 10
-1.44055
 20
3.01524
 30
0.0
 10
-1.44055
 20
3.01524
 30
0.0
 10
-1.44055
 20
3.13053
 30
0.0
 10
-1.44055
 20
3.13053
 30
0.0
 10
-1.44055
 20
3.13053
 30
0.0
 10
-1.44055
 20
3.13053
 30
0.0
 10
-1.46666
 20
3.13137
 30
0.0
 10
-1.46666
 20
3.13137
 30
0.0
 10
-1.46666
 20
3.13137
 30
0.0
 10
-1.51181
 20
3.13137
 30
0.0
 10
-1.54822
 20
3.12305
 30
0.0
 10
-1.57602
 20
3.1064
 30
0.0
 10
-1.57602
 20
3.1064
 30
0.0
 10
-1.60368
 20
3.08961
 30
0.0
 10
-1.61751
 20
3.06745
 30
0.0
 10
-1.61751
 20
3.03979
 30
0.0
 10
-1.61751
 20
3.03979
 30
0.0
 10
-1.61751
 20
3.02046
 30
0.0
 10
-1.61059
 20
3.00409
 30
0.0
 10
-1.5969
 20
2.99069
 30
0.0
 10
-1.5969
 20
2.99069
 30
0.0
 10
-1.58307
 20
2.97728
 30
0.0
 10
-1.56628
 20
2.97051
 30
0.0
 10
-1.54639
 20
2.97051
 30
0.0
 10
-1.54639
 20
2.97051
 30
0.0
 10
-1.51252
 20
2.97051
 30
0.0
 10
-1.47724
 20
2.98546
 30
0.0
 10
-1.44055
 20
3.01524
 30
0.0
  0
SPLINE
  5
D6
330
1F
100
AcDbEntity
  8
Layer 1
 62
     5
370
     9
100
AcDbSpline
210
0.0
220
0.0
230
1.0
 70
    11
 71
     3
 72
    60
 73
    56
 74
     0
 42
0.0000000001
 43
0.0000000001
 12
1.0
 22
0.0
 32
0.0
 13
1.0
 23
0.0
 33
0.0
 40
0.0
 40
0.0
 40
0.0
 40
0.0
 40
0.0666666666666667
 40
0.0666666666666667
 40
0.0666666666666667
 40
0.0666666666666667
 40
0.1333333333333333
 40
0.1333333333333333
 40
0.1333333333333333
 40
0.1333333333333333
 40
0.2
 40
0.2
 40
0.2
 40
0.2
 40
0.2666666666666667
 40
0.2666666666666667
 40
0.2666666666666667
 40
0.2666666666666667
 40
0.3333333333333333
 40
0.3333333333333333
 40
0.3333333333333333
 40
0.3333333333333333
 40
0.4
 40
0.4
 40
0.4
 40
0.4
 40
0.4666666666666667
 40
0.4666666666666667
 40
0.4666666666666667
 40
0.4666666666666667
 40
0.5333333333333333
 40
0.5333333333333333
 40
0.5333333333333333
 40
0.5333333333333333
 40
0.6
 40
0.6
 40
0.6
 40
0.6
 40
0.6666666666666666
 40
0.6666666666666666
 40
0.6666666666666666
 40
0.6666666666666666
 40
0.7333333333333333
 40
0.7333333333333333
 40
0.7333333333333333
 40
0.7333333333333333
 40
0.8
 40
0.8
 40
0.8
 40
0.8
 40
0.8666666666666667
 40
0.8666666666666667
 40
0.8666666666666667
 40
0.8666666666666667
 40
1.0
 40
1.0
 40
1.0
 40
1.0
 10
-0.88077
 20
2.92733
 30
0.0
 10
-0.9334
 20
2.91152
 30
0.0
 10
-0.97884
 20
2.90362
 30
0.0
 10
-1.01708
 20
2.90362
 30
0.0
 10
-1.01708
 20
2.90362
 30
0.0
 10
-1.07776
 20
2.90362
 30
0.0
 10
-1.12799
 20
2.92606
 30
0.0
 10
-1.16793
 20
2.97079
 30
0.0
 10
-1.16793
 20
2.97079
 30
0.0
 10
-1.20786
 20
3.01566
 30
0.0
 10
-1.2279
 20
3.07225
 30
0.0
 10
-1.2279
 20
3.14041
 30
0.0
 10
-1.2279
 20
3.14041
 30
0.0
 10
-1.2279
 20
3.21322
 30
0.0
 10
-1.20814
 20
3.27009
 30
0.0
 10
-1.16863
 20
3.31073
 30
0.0
 10
-1.16863
 20
3.31073
 30
0.0
 10
-1.12912
 20
3.35151
 30
0.0
 10
-1.07395
 20
3.37183
 30
0.0
 10
-1.00311
 20
3.37183
 30
0.0
 10
-1.00311
 20
3.37183
 30
0.0
 10
-0.96825
 20
3.37183
 30
0.0
 10
-0.92903
 20
3.36703
 30
0.0
 10
-0.88585
 20
3.35744
 30
0.0
 10
-0.88585
 20
3.35744
 30
0.0
 10
-0.88585
 20
3.35744
 30
0.0
 10
-0.88585
 20
3.28885
 30
0.0
 10
-0.88585
 20
3.28885
 30
0.0
 10
-0.88585
 20
3.28885
 30
0.0
 10
-0.93171
 20
3.3024
 30
0.0
 10
-0.9691
 20
3.30917
 30
0.0
 10
-0.99789
 20
3.30917
 30
0.0
 10
-0.99789
 20
3.30917
 30
0.0
 10
-1.03966
 20
3.30917
 30
0.0
 10
-1.0731
 20
3.29351
 30
0.0
 10
-1.09808
 20
3.26233
 30
0.0
 10
-1.09808
 20
3.26233
 30
0.0
 10
-1.12305
 20
3.23114
 30
0.0
 10
-1.13561
 20
3.18951
 30
0.0
 10
-1.13561
 20
3.13758
 30
0.0
 10
-1.13561
 20
3.13758
 30
0.0
 10
-1.13561
 20
3.08721
 30
0.0
 10
-1.12263
 20
3.04657
 30
0.0
 10
-1.09681
 20
3.01538
 30
0.0
 10
-1.09681
 20
3.01538
 30
0.0
 10
-1.07098
 20
2.98434
 30
0.0
 10
-1.03726
 20
2.96881
 30
0.0
 10
-0.99535
 20
2.96881
 30
0.0
 10
-0.99535
 20
2.96881
 30
0.0
 10
-0.95824
 20
2.96881
 30
0.0
 10
-0.92014
 20
2.97841
 30
0.0
 10
-0.88077
 20
2.9976
 30
0.0
 10
-0.88077
 20
2.9976
 30
0.0
 10
-0.88077
 20
2.9976
 30
0.0
 10
-0.88077
 20
2.92733
 30
0.0
 10
-0.88077
 20
2.92733
 30
0.0
  0
SPLINE
  5
D7
330
1F
100
AcDbEntity
  8
Layer 1
 62
     5
370
     9
100
AcDbSpline
210
0.0
220
0.0
230
1.0
 70
    11
 71
     3
 72
    52
 73
    48
 74
     0
 42
0.0000000001
 43
0.0000000001
 12
1.0
 22
0.0
 32
0.0
 13
1.0
 23
0.0
 33
0.0
 40
0.0
 40
0.0
 40
0.0
 40
0.0
 40
0.0769230769230769
 40
0.0769230769230769
 40
0.0769230769230769
 40
0.0769230769230769
 40
0.1538461538461539
 40
0.1538461538461539
 40
0.1538461538461539
 40
0.1538461538461539
 40
0.2307692307692308
 40
0.2307692307692308
 40
0.2307692307692308
 40
0.2307692307692308
 40
0.3076923076923077
 40
0.3076923076923077
 40
0.3076923076923077
 40
0.3076923076923077
 40
0.3846153846153846
 40
0.3846153846153846
 40
0.3846153846153846
 40
0.3846153846153846
 40
0.4615384615384616
 40
0.4615384615384616
 40
0.4615384615384616
 40
0.4615384615384616
 40
0.5384615384615384
 40
0.5384615384615384
 40
0.5384615384615384
 40
0.5384615384615384
 40
0.6153846153846154
 40
0.6153846153846154
 40
0.6153846153846154
 40
0.6153846153846154
 40
0.6923076923076923
 40
0.6923076923076923
 40
0.6923076923076923
 40
0.6923076923076923
 40
0.7692307692307693
 40
0.7692307692307693
 40
0.7692307692307693
 40
0.7692307692307693
 40
0.8461538461538461
 40
0.8461538461538461
 40
0.8461538461538461
 40
0.8461538461538461
 40
1.0
 40
1.0
 40
1.0
 40
1.0
 10
-0.42935
 20
2.92817
 30
0.0
 10
-0.48396
 20
2.9118
 30
0.0
 10
-0.53066
 20
2.90362
 30
0.0
 10
-0.56961
 20
2.90362
 30
0.0
 10
-0.56961
 20
2.90362
 30
0.0
 10
-0.63607
 20
2.90362
 30
0.0
 10
-0.69012
 20
2.92563
 30
0.0
 10
-0.73175
 20
2.96952
 30
0.0
 10
-0.73175
 20
2.96952
 30
0.0
 10
-0.77338
 20
3.0134
 30
0.0
 10
-0.79426
 20
3.07027
 30
0.0
 10
-0.79426
 20
3.14026
 30
0.0
 10
-0.79426
 20
3.14026
 30
0.0
 10
-0.79426
 20
3.20814
 30
0.0
 10
-0.77592
 20
3.26388
 30
0.0
 10
-0.73909
 20
3.30748
 30
0.0
 10
-0.73909
 20
3.30748
 30
0.0
 10
-0.70226
 20
3.35094
 30
0.0
 10
-0.65512
 20
3.37268
 30
0.0
 10
-0.59769
 20
3.37268
 30
0.0
 10
-0.59769
 20
3.37268
 30
0.0
 10
-0.54336
 20
3.37268
 30
0.0
 10
-0.50131
 20
3.35334
 30
0.0
 10
-0.47168
 20
3.31468
 30
0.0
 10
-0.47168
 20
3.31468
 30
0.0
 10
-0.44205
 20
3.27601
 30
0.0
 10
-0.42723
 20
3.22126
 30
0.0
 10
-0.42723
 20
3.15028
 30
0.0
 10
-0.42723
 20
3.15028
 30
0.0
 10
-0.42723
 20
3.15028
 30
0.0
 10
-0.42765
 20
3.12545
 30
0.0
 10
-0.42765
 20
3.12545
 30
0.0
 10
-0.42765
 20
3.12545
 30
0.0
 10
-0.42765
 20
3.12545
 30
0.0
 10
-0.71129
 20
3.12545
 30
0.0
 10
-0.71129
 20
3.12545
 30
0.0
 10
-0.71129
 20
3.12545
 30
0.0
 10
-0.69943
 20
3.0182
 30
0.0
 10
-0.64708
 20
2.96458
 30
0.0
 10
-0.55437
 20
2.96458
 30
0.0
 10
-0.55437
 20
2.96458
 30
0.0
 10
-0.52036
 20
2.96458
 30
0.0
 10
-0.47873
 20
2.97418
 30
0.0
 10
-0.42935
 20
2.99337
 30
0.0
 10
-0.42935
 20
2.99337
 30
0.0
 10
-0.42935
 20
2.99337
 30
0.0
 10
-0.42935
 20
2.92817
 30
0.0
 10
-0.42935
 20
2.92817
 30
0.0
  0
SPLINE
  5
D8
330
1F
100
AcDbEntity
  8
Layer 1
 62
     5
370
     9
100
AcDbSpline
210
0.0
220
0.0
230
1.0
 70
    11
 71
     3
 72
    16
 73
    12
 74
     0
 42
0.0000000001
 43
0.0000000001
 12
1.0
 22
0.0
 32
0.0
 13
1.0
 23
0.0
 33
0.0
 40
0.0
 40
0.0
 40
0.0
 40
0.0
 40
0.25
 40
0.25
 40
0.25
 40
0.25
 40
0.5
 40
0.5
 40
0.5
 40
0.5
 40
1.0
 40
1.0
 40
1.0
 40
1.0
 10
-0.70705
 20
3.18641
 30
0.0
 10
-0.70705
 20
3.18641
 30
0.0
 10
-0.50893
 20
3.18641
 30
0.0
 10
-0.50893
 20
3.18641
 30
0.0
 10
-0.50893
 20
3.18641
 30
0.0
 10
-0.50893
 20
3.26995
 30
0.0
 10
-0.54012
 20
3.31171
 30
0.0
 10
-0.60235
 20
3.31171
 30
0.0
 10
-0.60235
 20
3.31171
 30
0.0
 10
-0.665
 20
3.31171
 30
0.0
 10
-0.69986
 20
3.26995
 30
0.0
 10
-0.70705
 20
3.18641
 30
0.0
  0
SPLINE
  5
D9
330
1F
100
AcDbEntity
  8
Layer 1
 62
     5
370
     9
100
AcDbSpline
210
0.0
220
0.0
230
1.0
 70
    11
 71
     3
 72
    20
 73
    16
 74
     0
 42
0.0000000001
 43
0.0000000001
 12
1.0
 22
0.0
 32
0.0
 13
1.0
 23
0.0
 33
0.0
 40
0.0
 40
0.0
 40
0.0
 40
0.0
 40
0.2
 40
0.2
 40
0.2
 40
0.2
 40
0.4
 40
0.4
 40
0.4
 40
0.4
 40
0.6
 40
0.6
 40
0.6
 40
0.6
 40
1.0
 40
1.0
 40
1.0
 40
1.0
 10
-0.33268
 20
2.85282
 30
0.0
 10
-0.33268
 20
2.85282
 30
0.0
 10
-0.33268
 20
2.91378
 30
0.0
 10
-0.33268
 20
2.91378
 30
0.0
 10
-0.33268
 20
2.91378
 30
0.0
 10
-0.33268
 20
2.91378
 30
0.0
 10
0.01953
 20
2.91378
 30
0.0
 10
0.01953
 20
2.91378
 30
0.0
 10
0.01953
 20
2.91378
 30
0.0
 10
0.01953
 20
2.91378
 30
0.0
 10
0.01953
 20
2.85282
 30
0.0
 10
0.01953
 20
2.85282
 30
0.0
 10
0.01953
 20
2.85282
 30
0.0
 10
0.01953
 20
2.85282
 30
0.0
 10
-0.33268
 20
2.85282
 30
0.0
 10
-0.33268
 20
2.85282
 30
0.0
  0
SPLINE
  5
DA
330
1F
100
AcDbEntity
  8
Layer 1
 62
     5
370
     9
100
AcDbSpline
210
0.0
220
0.0
230
1.0
 70
    11
 71
     3
 72
    48
 73
    44
 74
     0
 42
0.0000000001
 43
0.0000000001
 12
1.0
 22
0.0
 32
0.0
 13
1.0
 23
0.0
 33
0.0
 40
0.0
 40
0.0
 40
0.0
 40
0.0
 40
0.0833333333333333
 40
0.0833333333333333
 40
0.0833333333333333
 40
0.0833333333333333
 40
0.1666666666666667
 40
0.1666666666666667
 40
0.1666666666666667
 40
0.1666666666666667
 40
0.25
 40
0.25
 40
0.25
 40
0.25
 40
0.3333333333333333
 40
0.3333333333333333
 40
0.3333333333333333
 40
0.3333333333333333
 40
0.4166666666666667
 40
0.4166666666666667
 40
0.4166666666666667
 40
0.4166666666666667
 40
0.5
 40
0.5
 40
0.5
 40
0.5
 40
0.5833333333333334
 40
0.5833333333333334
 40
0.5833333333333334
 40
0.5833333333333334
 40
0.6666666666666666
 40
0.6666666666666666
 40
0.6666666666666666
 40
0.6666666666666666
 40
0.75
 40
0.75
 40
0.75
 40
0.75
 40
0.8333333333333334
 40
0.8333333333333334
 40
0.8333333333333334
 40
0.8333333333333334
 40
1.0
 40
1.0
 40
1.0
 40
1.0
 10
0.13638
 20
2.75037
 30
0.0
 10
0.13638
 20
2.75037
 30
0.0
 10
0.13638
 20
3.36252
 30
0.0
 10
0.13638
 20
3.36252
 30
0.0
 10
0.13638
 20
3.36252
 30
0.0
 10
0.13638
 20
3.36252
 30
0.0
 10
0.21766
 20
3.36252
 30
0.0
 10
0.21766
 20
3.36252
 30
0.0
 10
0.21766
 20
3.36252
 30
0.0
 10
0.21766
 20
3.36252
 30
0.0
 10
0.21766
 20
3.27771
 30
0.0
 10
0.21766
 20
3.27771
 30
0.0
 10
0.21766
 20
3.27771
 30
0.0
 10
0.25096
 20
3.3405
 30
0.0
 10
0.30106
 20
3.37183
 30
0.0
 10
0.3678
 20
3.37183
 30
0.0
 10
0.3678
 20
3.37183
 30
0.0
 10
0.42185
 20
3.37183
 30
0.0
 10
0.46432
 20
3.35221
 30
0.0
 10
0.49537
 20
3.31284
 30
0.0
 10
0.49537
 20
3.31284
 30
0.0
 10
0.52641
 20
3.27347
 30
0.0
 10
0.54194
 20
3.21971
 30
0.0
 10
0.54194
 20
3.15155
 30
0.0
 10
0.54194
 20
3.15155
 30
0.0
 10
0.54194
 20
3.07733
 30
0.0
 10
0.5243
 20
3.01736
 30
0.0
 10
0.48916
 20
2.97192
 30
0.0
 10
0.48916
 20
2.97192
 30
0.0
 10
0.45402
 20
2.92634
 30
0.0
 10
0.40774
 20
2.90362
 30
0.0
 10
0.35045
 20
2.90362
 30
0.0
 10
0.35045
 20
2.90362
 30
0.0
 10
0.29725
 20
2.90362
 30
0.0
 10
0.25294
 20
2.92394
 30
0.0
 10
0.21766
 20
2.96472
 30
0.0
 10
0.21766
 20
2.96472
 30
0.0
 10
0.21766
 20
2.96472
 30
0.0
 10
0.21766
 20
2.75037
 30
0.0
 10
0.21766
 20
2.75037
 30
0.0
 10
0.21766
 20
2.75037
 30
0.0
 10
0.21766
 20
2.75037
 30
0.0
 10
0.13638
 20
2.75037
 30
0.0
 10
0.13638
 20
2.75037
 30
0.0
  0
SPLINE
  5
DB
330
1F
100
AcDbEntity
  8
Layer 1
 62
     5
370
     9
100
AcDbSpline
210
0.0
220
0.0
230
1.0
 70
    11
 71
     3
 72
    28
 73
    24
 74
     0
 42
0.0000000001
 43
0.0000000001
 12
1.0
 22
0.0
 32
0.0
 13
1.0
 23
0.0
 33
0.0
 40
0.0
 40
0.0
 40
0.0
 40
0.0
 40
0.1428571428571428
 40
0.1428571428571428
 40
0.1428571428571428
 40
0.1428571428571428
 40
0.2857142857142857
 40
0.2857142857142857
 40
0.2857142857142857
 40
0.2857142857142857
 40
0.4285714285714285
 40
0.4285714285714285
 40
0.4285714285714285
 40
0.4285714285714285
 40
0.5714285714285714
 40
0.5714285714285714
 40
0.5714285714285714
 40
0.5714285714285714
 40
0.7142857142857143
 40
0.7142857142857143
 40
0.7142857142857143
 40
0.7142857142857143
 40
1.0
 40
1.0
 40
1.0
 40
1.0
 10
0.21766
 20
3.02074
 30
0.0
 10
0.25957
 20
2.98335
 30
0.0
 10
0.29951
 20
2.96458
 30
0.0
 10
0.33746
 20
2.96458
 30
0.0
 10
0.33746
 20
2.96458
 30
0.0
 10
0.37486
 20
2.96458
 30
0.0
 10
0.40379
 20
2.98024
 30
0.0
 10
0.42411
 20
3.01143
 30
0.0
 10
0.42411
 20
3.01143
 30
0.0
 10
0.44457
 20
3.04261
 30
0.0
 10
0.45473
 20
3.0865
 30
0.0
 10
0.45473
 20
3.14323
 30
0.0
 10
0.45473
 20
3.14323
 30
0.0
 10
0.45473
 20
3.24821
 30
0.0
 10
0.42001
 20
3.30071
 30
0.0
 10
0.35059
 20
3.30071
 30
0.0
 10
0.35059
 20
3.30071
 30
0.0
 10
0.30515
 20
3.30071
 30
0.0
 10
0.26084
 20
3.27615
 30
0.0
 10
0.21766
 20
3.22691
 30
0.0
 10
0.21766
 20
3.22691
 30
0.0
 10
0.21766
 20
3.22691
 30
0.0
 10
0.21766
 20
3.02074
 30
0.0
 10
0.21766
 20
3.02074
 30
0.0
  0
SPLINE
  5
DC
330
1F
100
AcDbEntity
  8
Layer 1
 62
     5
370
     9
100
AcDbSpline
210
0.0
220
0.0
230
1.0
 70
    11
 71
     3
 72
    44
 73
    40
 74
     0
 42
0.0000000001
 43
0.0000000001
 12
1.0
 22
0.0
 32
0.0
 13
1.0
 23
0.0
 33
0.0
 40
0.0
 40
0.0
 40
0.0
 40
0.0
 40
0.0909090909090909
 40
0.0909090909090909
 40
0.0909090909090909
 40
0.0909090909090909
 40
0.1818181818181818
 40
0.1818181818181818
 40
0.1818181818181818
 40
0.1818181818181818
 40
0.2727272727272727
 40
0.2727272727272727
 40
0.2727272727272727
 40
0.2727272727272727
 40
0.3636363636363636
 40
0.3636363636363636
 40
0.3636363636363636
 40
0.3636363636363636
 40
0.4545454545454545
 40
0.4545454545454545
 40
0.4545454545454545
 40
0.4545454545454545
 40
0.5454545454545454
 40
0.5454545454545454
 40
0.5454545454545454
 40
0.5454545454545454
 40
0.6363636363636364
 40
0.6363636363636364
 40
0.6363636363636364
 40
0.6363636363636364
 40
0.7272727272727273
 40
0.7272727272727273
 40
0.7272727272727273
 40
0.7272727272727273
 40
0.8181818181818182
 40
0.8181818181818182
 40
0.8181818181818182
 40
0.8181818181818182
 40
1.0
 40
1.0
 40
1.0
 40
1.0
 10
0.66922
 20
2.91378
 30
0.0
 10
0.66922
 20
2.91378
 30
0.0
 10
0.66922
 20
3.36252
 30
0.0
 10
0.66922
 20
3.36252
 30
0.0
 10
0.66922
 20
3.36252
 30
0.0
 10
0.66922
 20
3.36252
 30
0.0
 10
0.7505
 20
3.36252
 30
0.0
 10
0.7505
 20
3.36252
 30
0.0
 10
0.7505
 20
3.36252
 30
0.0
 10
0.7505
 20
3.36252
 30
0.0
 10
0.7505
 20
3.27771
 30
0.0
 10
0.7505
 20
3.27771
 30
0.0
 10
0.7505
 20
3.27771
 30
0.0
 10
0.78282
 20
3.3405
 30
0.0
 10
0.82966
 20
3.37183
 30
0.0
 10
0.89119
 20
3.37183
 30
0.0
 10
0.89119
 20
3.37183
 30
0.0
 10
0.89951
 20
3.37183
 30
0.0
 10
0.90826
 20
3.37112
 30
0.0
 10
0.91729
 20
3.36971
 30
0.0
 10
0.91729
 20
3.36971
 30
0.0
 10
0.91729
 20
3.36971
 30
0.0
 10
0.91729
 20
3.29365
 30
0.0
 10
0.91729
 20
3.29365
 30
0.0
 10
0.91729
 20
3.29365
 30
0.0
 10
0.90318
 20
3.29831
 30
0.0
 10
0.89077
 20
3.30071
 30
0.0
 10
0.88004
 20
3.30071
 30
0.0
 10
0.88004
 20
3.30071
 30
0.0
 10
0.82839
 20
3.30071
 30
0.0
 10
0.78521
 20
3.27023
 30
0.0
 10
0.7505
 20
3.20913
 30
0.0
 10
0.7505
 20
3.20913
 30
0.0
 10
0.7505
 20
3.20913
 30
0.0
 10
0.7505
 20
2.91378
 30
0.0
 10
0.7505
 20
2.91378
 30
0.0
 10
0.7505
 20
2.91378
 30
0.0
 10
0.7505
 20
2.91378
 30
0.0
 10
0.66922
 20
2.91378
 30
0.0
 10
0.66922
 20
2.91378
 30
0.0
  0
SPLINE
  5
DD
330
1F
100
AcDbEntity
  8
Layer 1
 62
     5
370
     9
100
AcDbSpline
210
0.0
220
0.0
230
1.0
 70
    11
 71
     3
 72
    36
 73
    32
 74
     0
 42
0.0000000001
 43
0.0000000001
 12
1.0
 22
0.0
 32
0.0
 13
1.0
 23
0.0
 33
0.0
 40
0.0
 40
0.0
 40
0.0
 40
0.0
 40
0.1111111111111111
 40
0.1111111111111111
 40
0.1111111111111111
 40
0.1111111111111111
 40
0.2222222222222222
 40
0.2222222222222222
 40
0.2222222222222222
 40
0.2222222222222222
 40
0.3333333333333333
 40
0.3333333333333333
 40
0.3333333333333333
 40
0.3333333333333333
 40
0.4444444444444444
 40
0.4444444444444444
 40
0.4444444444444444
 40
0.4444444444444444
 40
0.5555555555555556
 40
0.5555555555555556
 40
0.5555555555555556
 40
0.5555555555555556
 40
0.6666666666666666
 40
0.6666666666666666
 40
0.6666666666666666
 40
0.6666666666666666
 40
0.7777777777777778
 40
0.7777777777777778
 40
0.7777777777777778
 40
0.7777777777777778
 40
1.0
 40
1.0
 40
1.0
 40
1.0
 10
1.1943
 20
2.90362
 30
0.0
 10
1.1284
 20
2.90362
 30
0.0
 10
1.07619
 20
2.92465
 30
0.0
 10
1.0378
 20
2.9667
 30
0.0
 10
1.0378
 20
2.9667
 30
0.0
 10
0.99928
 20
3.00875
 30
0.0
 10
0.98009
 20
3.0659
 30
0.0
 10
0.98009
 20
3.13801
 30
0.0
 10
0.98009
 20
3.13801
 30
0.0
 10
0.98009
 20
3.20997
 30
0.0
 10
0.99928
 20
3.26698
 30
0.0
 10
1.0378
 20
3.30889
 30
0.0
 10
1.0378
 20
3.30889
 30
0.0
 10
1.07619
 20
3.3508
 30
0.0
 10
1.1284
 20
3.37183
 30
0.0
 10
1.1943
 20
3.37183
 30
0.0
 10
1.1943
 20
3.37183
 30
0.0
 10
1.2602
 20
3.37183
 30
0.0
 10
1.31241
 20
3.3508
 30
0.0
 10
1.35079
 20
3.30889
 30
0.0
 10
1.35079
 20
3.30889
 30
0.0
 10
1.38931
 20
3.26698
 30
0.0
 10
1.40851
 20
3.20997
 30
0.0
 10
1.40851
 20
3.13801
 30
0.0
 10
1.40851
 20
3.13801
 30
0.0
 10
1.40851
 20
3.0659
 30
0.0
 10
1.38931
 20
3.00875
 30
0.0
 10
1.35079
 20
2.9667
 30
0.0
 10
1.35079
 20
2.9667
 30
0.0
 10
1.31241
 20
2.92465
 30
0.0
 10
1.2602
 20
2.90362
 30
0.0
 10
1.1943
 20
2.90362
 30
0.0
  0
SPLINE
  5
DE
330
1F
100
AcDbEntity
  8
Layer 1
 62
     5
370
     9
100
AcDbSpline
210
0.0
220
0.0
230
1.0
 70
    11
 71
     3
 72
    36
 73
    32
 74
     0
 42
0.0000000001
 43
0.0000000001
 12
1.0
 22
0.0
 32
0.0
 13
1.0
 23
0.0
 33
0.0
 40
0.0
 40
0.0
 40
0.0
 40
0.0
 40
0.1111111111111111
 40
0.1111111111111111
 40
0.1111111111111111
 40
0.1111111111111111
 40
0.2222222222222222
 40
0.2222222222222222
 40
0.2222222222222222
 40
0.2222222222222222
 40
0.3333333333333333
 40
0.3333333333333333
 40
0.3333333333333333
 40
0.3333333333333333
 40
0.4444444444444444
 40
0.4444444444444444
 40
0.4444444444444444
 40
0.4444444444444444
 40
0.5555555555555556
 40
0.5555555555555556
 40
0.5555555555555556
 40
0.5555555555555556
 40
0.6666666666666666
 40
0.6666666666666666
 40
0.6666666666666666
 40
0.6666666666666666
 40
0.7777777777777778
 40
0.7777777777777778
 40
0.7777777777777778
 40
0.7777777777777778
 40
1.0
 40
1.0
 40
1.0
 40
1.0
 10
1.19416
 20
2.96458
 30
0.0
 10
1.23437
 20
2.96458
 30
0.0
 10
1.2657
 20
2.97968
 30
0.0
 10
1.288
 20
3.01002
 30
0.0
 10
1.288
 20
3.01002
 30
0.0
 10
1.31015
 20
3.04022
 30
0.0
 10
1.3213
 20
3.08297
 30
0.0
 10
1.3213
 20
3.13801
 30
0.0
 10
1.3213
 20
3.13801
 30
0.0
 10
1.3213
 20
3.1929
 30
0.0
 10
1.31015
 20
3.23551
 30
0.0
 10
1.288
 20
3.26571
 30
0.0
 10
1.288
 20
3.26571
 30
0.0
 10
1.2657
 20
3.29577
 30
0.0
 10
1.23437
 20
3.31087
 30
0.0
 10
1.19416
 20
3.31087
 30
0.0
 10
1.19416
 20
3.31087
 30
0.0
 10
1.1538
 20
3.31087
 30
0.0
 10
1.12247
 20
3.29577
 30
0.0
 10
1.10046
 20
3.26571
 30
0.0
 10
1.10046
 20
3.26571
 30
0.0
 10
1.0783
 20
3.23551
 30
0.0
 10
1.0673
 20
3.1929
 30
0.0
 10
1.0673
 20
3.13801
 30
0.0
 10
1.0673
 20
3.13801
 30
0.0
 10
1.0673
 20
3.08297
 30
0.0
 10
1.0783
 20
3.04022
 30
0.0
 10
1.10046
 20
3.01002
 30
0.0
 10
1.10046
 20
3.01002
 30
0.0
 10
1.12247
 20
2.97968
 30
0.0
 10
1.1538
 20
2.96458
 30
0.0
 10
1.19416
 20
2.96458
 30
0.0
  0
SPLINE
  5
DF
330
1F
100
AcDbEntity
  8
Layer 1
 62
     5
370
     9
100
AcDbSpline
210
0.0
220
0.0
230
1.0
 70
    11
 71
     3
 72
    20
 73
    16
 74
     0
 42
0.0000000001
 43
0.0000000001
 12
1.0
 22
0.0
 32
0.0
 13
1.0
 23
0.0
 33
0.0
 40
0.0
 40
0.0
 40
0.0
 40
0.0
 40
0.2
 40
0.2
 40
0.2
 40
0.2
 40
0.4
 40
0.4
 40
0.4
 40
0.4
 40
0.6
 40
0.6
 40
0.6
 40
0.6
 40
1.0
 40
1.0
 40
1.0
 40
1.0
 10
1.49007
 20
2.85282
 30
0.0
 10
1.49007
 20
2.85282
 30
0.0
 10
1.49007
 20
2.91378
 30
0.0
 10
1.49007
 20
2.91378
 30
0.0
 10
1.49007
 20
2.91378
 30
0.0
 10
1.49007
 20
2.91378
 30
0.0
 10
1.84228
 20
2.91378
 30
0.0
 10
1.84228
 20
2.91378
 30
0.0
 10
1.84228
 20
2.91378
 30
0.0
 10
1.84228
 20
2.91378
 30
0.0
 10
1.84228
 20
2.85282
 30
0.0
 10
1.84228
 20
2.85282
 30
0.0
 10
1.84228
 20
2.85282
 30
0.0
 10
1.84228
 20
2.85282
 30
0.0
 10
1.49007
 20
2.85282
 30
0.0
 10
1.49007
 20
2.85282
 30
0.0
  0
SPLINE
  5
E0
330
1F
100
AcDbEntity
  8
Layer 1
 62
     5
370
     9
100
AcDbSpline
210
0.0
220
0.0
230
1.0
 70
    11
 71
     3
 72
    60
 73
    56
 74
     0
 42
0.0000000001
 43
0.0000000001
 12
1.0
 22
0.0
 32
0.0
 13
1.0
 23
0.0
 33
0.0
 40
0.0
 40
0.0
 40
0.0
 40
0.0
 40
0.0666666666666667
 40
0.0666666666666667
 40
0.0666666666666667
 40
0.0666666666666667
 40
0.1333333333333333
 40
0.1333333333333333
 40
0.1333333333333333
 40
0.1333333333333333
 40
0.2
 40
0.2
 40
0.2
 40
0.2
 40
0.2666666666666667
 40
0.2666666666666667
 40
0.2666666666666667
 40
0.2666666666666667
 40
0.3333333333333333
 40
0.3333333333333333
 40
0.3333333333333333
 40
0.3333333333333333
 40
0.4
 40
0.4
 40
0.4
 40
0.4
 40
0.4666666666666667
 40
0.4666666666666667
 40
0.4666666666666667
 40
0.4666666666666667
 40
0.5333333333333333
 40
0.5333333333333333
 40
0.5333333333333333
 40
0.5333333333333333
 40
0.6
 40
0.6
 40
0.6
 40
0.6
 40
0.6666666666666666
 40
0.6666666666666666
 40
0.6666666666666666
 40
0.6666666666666666
 40
0.7333333333333333
 40
0.7333333333333333
 40
0.7333333333333333
 40
0.7333333333333333
 40
0.8
 40
0.8
 40
0.8
 40
0.8
 40
0.8666666666666667
 40
0.8666666666666667
 40
0.8666666666666667
 40
0.8666666666666667
 40
1.0
 40
1.0
 40
1.0
 40
1.0
 10
1.95913
 20
2.91378
 30
0.0
 10
1.95913
 20
2.91378
 30
0.0
 10
1.95913
 20
3.56656
 30
0.0
 10
1.95913
 20
3.56656
 30
0.0
 10
1.95913
 20
3.56656
 30
0.0
 10
1.95913
 20
3.56656
 30
0.0
 10
2.04041
 20
3.56656
 30
0.0
 10
2.04041
 20
3.56656
 30
0.0
 10
2.04041
 20
3.56656
 30
0.0
 10
2.04041
 20
3.56656
 30
0.0
 10
2.04041
 20
3.27771
 30
0.0
 10
2.04041
 20
3.27771
 30
0.0
 10
2.04041
 20
3.27771
 30
0.0
 10
2.08345
 20
3.3405
 30
0.0
 10
2.13623
 20
3.37183
 30
0.0
 10
2.1986
 20
3.37183
 30
0.0
 10
2.1986
 20
3.37183
 30
0.0
 10
2.23783
 20
3.37183
 30
0.0
 10
2.26901
 20
3.35955
 30
0.0
 10
2.29201
 20
3.33486
 30
0.0
 10
2.29201
 20
3.33486
 30
0.0
 10
2.31501
 20
3.3103
 30
0.0
 10
2.32659
 20
3.27714
 30
0.0
 10
2.32659
 20
3.23566
 30
0.0
 10
2.32659
 20
3.23566
 30
0.0
 10
2.32659
 20
3.23566
 30
0.0
 10
2.32659
 20
2.91378
 30
0.0
 10
2.32659
 20
2.91378
 30
0.0
 10
2.32659
 20
2.91378
 30
0.0
 10
2.32659
 20
2.91378
 30
0.0
 10
2.2453
 20
2.91378
 30
0.0
 10
2.2453
 20
2.91378
 30
0.0
 10
2.2453
 20
2.91378
 30
0.0
 10
2.2453
 20
2.91378
 30
0.0
 10
2.2453
 20
3.20913
 30
0.0
 10
2.2453
 20
3.20913
 30
0.0
 10
2.2453
 20
3.20913
 30
0.0
 10
2.2453
 20
3.24243
 30
0.0
 10
2.24037
 20
3.26614
 30
0.0
 10
2.23063
 20
3.28025
 30
0.0
 10
2.23063
 20
3.28025
 30
0.0
 10
2.22075
 20
3.2945
 30
0.0
 10
2.20452
 20
3.30155
 30
0.0
 10
2.1818
 20
3.30155
 30
0.0
 10
2.1818
 20
3.30155
 30
0.0
 10
2.13185
 20
3.30155
 30
0.0
 10
2.08472
 20
3.26896
 30
0.0
 10
2.04041
 20
3.20376
 30
0.0
 10
2.04041
 20
3.20376
 30
0.0
 10
2.04041
 20
3.20376
 30
0.0
 10
2.04041
 20
2.91378
 30
0.0
 10
2.04041
 20
2.91378
 30
0.0
 10
2.04041
 20
2.91378
 30
0.0
 10
2.04041
 20
2.91378
 30
0.0
 10
1.95913
 20
2.91378
 30
0.0
 10
1.95913
 20
2.91378
 30
0.0
  0
SPLINE
  5
E1
330
1F
100
AcDbEntity
  8
Layer 1
 62
     5
370
     9
100
AcDbSpline
210
0.0
220
0.0
230
1.0
 70
    11
 71
     3
 72
    80
 73
    76
 74
     0
 42
0.0000000001
 43
0.0000000001
 12
1.0
 22
0.0
 32
0.0
 13
1.0
 23
0.0
 33
0.0
 40
0.0
 40
0.0
 40
0.0
 40
0.0
 40
0.05
 40
0.05
 40
0.05
 40
0.05
 40
0.1
 40
0.1
 40
0.1
 40
0.1
 40
0.15
 40
0.15
 40
0.15
 40
0.15
 40
0.2
 40
0.2
 40
0.2
 40
0.2
 40
0.25
 40
0.25
 40
0.25
 40
0.25
 40
0.3
 40
0.3
 40
0.3
 40
0.3
 40
0.35
 40
0.35
 40
0.35
 40
0.35
 40
0.4
 40
0.4
 40
0.4
 40
0.4
 40
0.45
 40
0.45
 40
0.45
 40
0.45
 40
0.5
 40
0.5
 40
0.5
 40
0.5
 40
0.55
 40
0.55
 40
0.55
 40
0.55
 40
0.6
 40
0.6
 40
0.6
 40
0.6
 40
0.65
 40
0.65
 40
0.65
 40
0.65
 40
0.7
 40
0.7
 40
0.7
 40
0.7
 40
0.75
 40
0.75
 40
0.75
 40
0.75
 40
0.8
 40
0.8
 40
0.8
 40
0.8
 40
0.85
 40
0.85
 40
0.85
 40
0.85
 40
0.9
 40
0.9
 40
0.9
 40
0.9
 40
1.0
 40
1.0
 40
1.0
 40
1.0
 10
2.71591
 20
2.97093
 30
0.0
 10
2.66709
 20
2.92606
 30
0.0
 10
2.6201
 20
2.90362
 30
0.0
 10
2.57494
 20
2.90362
 30
0.0
 10
2.57494
 20
2.90362
 30
0.0
 10
2.53783
 20
2.90362
 30
0.0
 10
2.50693
 20
2.91519
 30
0.0
 10
2.48251
 20
2.93847
 30
0.0
 10
2.48251
 20
2.93847
 30
0.0
 10
2.45796
 20
2.96176
 30
0.0
 10
2.44568
 20
2.99111
 30
0.0
 10
2.44568
 20
3.02653
 30
0.0
 10
2.44568
 20
3.02653
 30
0.0
 10
2.44568
 20
3.07549
 30
0.0
 10
2.46629
 20
3.11317
 30
0.0
 10
2.50749
 20
3.13942
 30
0.0
 10
2.50749
 20
3.13942
 30
0.0
 10
2.5487
 20
3.16566
 30
0.0
 10
2.60782
 20
3.17879
 30
0.0
 10
2.68487
 20
3.17879
 30
0.0
 10
2.68487
 20
3.17879
 30
0.0
 10
2.68487
 20
3.17879
 30
0.0
 10
2.70392
 20
3.17879
 30
0.0
 10
2.70392
 20
3.17879
 30
0.0
 10
2.70392
 20
3.17879
 30
0.0
 10
2.70392
 20
3.17879
 30
0.0
 10
2.70392
 20
3.23283
 30
0.0
 10
2.70392
 20
3.23283
 30
0.0
 10
2.70392
 20
3.23283
 30
0.0
 10
2.70392
 20
3.2849
 30
0.0
 10
2.67682
 20
3.31087
 30
0.0
 10
2.6225
 20
3.31087
 30
0.0
 10
2.6225
 20
3.31087
 30
0.0
 10
2.58045
 20
3.31087
 30
0.0
 10
2.53444
 20
3.2976
 30
0.0
 10
2.48463
 20
3.27107
 30
0.0
 10
2.48463
 20
3.27107
 30
0.0
 10
2.48463
 20
3.27107
 30
0.0
 10
2.48463
 20
3.33796
 30
0.0
 10
2.48463
 20
3.33796
 30
0.0
 10
2.48463
 20
3.33796
 30
0.0
 10
2.53938
 20
3.36054
 30
0.0
 10
2.59103
 20
3.37183
 30
0.0
 10
2.63943
 20
3.37183
 30
0.0
 10
2.63943
 20
3.37183
 30
0.0
 10
2.68924
 20
3.37183
 30
0.0
 10
2.72607
 20
3.36054
 30
0.0
 10
2.74964
 20
3.33782
 30
0.0
 10
2.74964
 20
3.33782
 30
0.0
 10
2.77334
 20
3.3151
 30
0.0
 10
2.7852
 20
3.28011
 30
0.0
 10
2.7852
 20
3.23283
 30
0.0
 10
2.7852
 20
3.23283
 30
0.0
 10
2.7852
 20
3.23283
 30
0.0
 10
2.7852
 20
3.03006
 30
0.0
 10
2.7852
 20
3.03006
 30
0.0
 10
2.7852
 20
3.03006
 30
0.0
 10
2.7852
 20
2.98363
 30
0.0
 10
2.79945
 20
2.96035
 30
0.0
 10
2.8281
 20
2.96035
 30
0.0
 10
2.8281
 20
2.96035
 30
0.0
 10
2.83162
 20
2.96035
 30
0.0
 10
2.83685
 20
2.96091
 30
0.0
 10
2.84376
 20
2.96204
 30
0.0
 10
2.84376
 20
2.96204
 30
0.0
 10
2.84376
 20
2.96204
 30
0.0
 10
2.84955
 20
2.91688
 30
0.0
 10
2.84955
 20
2.91688
 30
0.0
 10
2.84955
 20
2.91688
 30
0.0
 10
2.83106
 20
2.90799
 30
0.0
 10
2.81074
 20
2.90362
 30
0.0
 10
2.78844
 20
2.90362
 30
0.0
 10
2.78844
 20
2.90362
 30
0.0
 10
2.75048
 20
2.90362
 30
0.0
 10
2.72635
 20
2.92606
 30
0.0
 10
2.71591
 20
2.97093
 30
0.0
  0
SPLINE
  5
E2
330
1F
100
AcDbEntity
  8
Layer 1
 62
     5
370
     9
100
AcDbSpline
210
0.0
220
0.0
230
1.0
 70
    11
 71
     3
 72
    32
 73
    28
 74
     0
 42
0.0000000001
 43
0.0000000001
 12
1.0
 22
0.0
 32
0.0
 13
1.0
 23
0.0
 33
0.0
 40
0.0
 40
0.0
 40
0.0
 40
0.0
 40
0.125
 40
0.125
 40
0.125
 40
0.125
 40
0.25
 40
0.25
 40
0.25
 40
0.25
 40
0.375
 40
0.375
 40
0.375
 40
0.375
 40
0.5
 40
0.5
 40
0.5
 40
0.5
 40
0.625
 40
0.625
 40
0.625
 40
0.625
 40
0.75
 40
0.75
 40
0.75
 40
0.75
 40
1.0
 40
1.0
 40
1.0
 40
1.0
 10
2.70392
 20
3.01524
 30
0.0
 10
2.70392
 20
3.01524
 30
0.0
 10
2.70392
 20
3.13053
 30
0.0
 10
2.70392
 20
3.13053
 30
0.0
 10
2.70392
 20
3.13053
 30
0.0
 10
2.70392
 20
3.13053
 30
0.0
 10
2.67781
 20
3.13137
 30
0.0
 10
2.67781
 20
3.13137
 30
0.0
 10
2.67781
 20
3.13137
 30
0.0
 10
2.63266
 20
3.13137
 30
0.0
 10
2.59625
 20
3.12305
 30
0.0
 10
2.56845
 20
3.1064
 30
0.0
 10
2.56845
 20
3.1064
 30
0.0
 10
2.54079
 20
3.08961
 30
0.0
 10
2.52696
 20
3.06745
 30
0.0
 10
2.52696
 20
3.03979
 30
0.0
 10
2.52696
 20
3.03979
 30
0.0
 10
2.52696
 20
3.02046
 30
0.0
 10
2.53388
 20
3.00409
 30
0.0
 10
2.54757
 20
2.99069
 30
0.0
 10
2.54757
 20
2.99069
 30
0.0
 10
2.5614
 20
2.97728
 30
0.0
 10
2.57819
 20
2.97051
 30
0.0
 10
2.59808
 20
2.97051
 30
0.0
 10
2.59808
 20
2.97051
 30
0.0
 10
2.63195
 20
2.97051
 30
0.0
 10
2.66723
 20
2.98546
 30
0.0
 10
2.70392
 20
3.01524
 30
0.0
  0
SPLINE
  5
E3
330
1F
100
AcDbEntity
  8
Layer 1
 62
     5
370
     9
100
AcDbSpline
210
0.0
220
0.0
230
1.0
 70
    11
 71
     3
 72
    20
 73
    16
 74
     0
 42
0.0000000001
 43
0.0000000001
 12
1.0
 22
0.0
 32
0.0
 13
1.0
 23
0.0
 33
0.0
 40
0.0
 40
0.0
 40
0.0
 40
0.0
 40
0.2
 40
0.2
 40
0.2
 40
0.2
 40
0.4
 40
0.4
 40
0.4
 40
0.4
 40
0.6
 40
0.6
 40
0.6
 40
0.6
 40
1.0
 40
1.0
 40
1.0
 40
1.0
 10
2.95213
 20
2.91378
 30
0.0
 10
2.95213
 20
2.91378
 30
0.0
 10
2.95213
 20
3.56656
 30
0.0
 10
2.95213
 20
3.56656
 30
0.0
 10
2.95213
 20
3.56656
 30
0.0
 10
2.95213
 20
3.56656
 30
0.0
 10
3.03341
 20
3.56656
 30
0.0
 10
3.03341
 20
3.56656
 30
0.0
 10
3.03341
 20
3.56656
 30
0.0
 10
3.03341
 20
3.56656
 30
0.0
 10
3.03341
 20
2.91378
 30
0.0
 10
3.03341
 20
2.91378
 30
0.0
 10
3.03341
 20
2.91378
 30
0.0
 10
3.03341
 20
2.91378
 30
0.0
 10
2.95213
 20
2.91378
 30
0.0
 10
2.95213
 20
2.91378
 30
0.0
  0
SPLINE
  5
E4
330
1F
100
AcDbEntity
  8
Layer 1
 62
     5
370
     9
100
AcDbSpline
210
0.0
220
0.0
230
1.0
 70
    11
 71
     3
 72
    72
 73
    68
 74
     0
 42
0.0000000001
 43
0.0000000001
 12
1.0
 22
0.0
 32
0.0
 13
1.0
 23
0.0
 33
0.0
 40
0.0
 40
0.0
 40
0.0
 40
0.0
 40
0.0555555555555556
 40
0.0555555555555556
 40
0.0555555555555556
 40
0.0555555555555556
 40
0.1111111111111111
 40
0.1111111111111111
 40
0.1111111111111111
 40
0.1111111111111111
 40
0.1666666666666667
 40
0.1666666666666667
 40
0.1666666666666667
 40
0.1666666666666667
 40
0.2222222222222222
 40
0.2222222222222222
 40
0.2222222222222222
 40
0.2222222222222222
 40
0.2777777777777778
 40
0.2777777777777778
 40
0.2777777777777778
 40
0.2777777777777778
 40
0.3333333333333333
 40
0.3333333333333333
 40
0.3333333333333333
 40
0.3333333333333333
 40
0.3888888888888889
 40
0.3888888888888889
 40
0.3888888888888889
 40
0.3888888888888889
 40
0.4444444444444444
 40
0.4444444444444444
 40
0.4444444444444444
 40
0.4444444444444444
 40
0.5
 40
0.5
 40
0.5
 40
0.5
 40
0.5555555555555556
 40
0.5555555555555556
 40
0.5555555555555556
 40
0.5555555555555556
 40
0.6111111111111112
 40
0.6111111111111112
 40
0.6111111111111112
 40
0.6111111111111112
 40
0.6666666666666666
 40
0.6666666666666666
 40
0.6666666666666666
 40
0.6666666666666666
 40
0.7222222222222222
 40
0.7222222222222222
 40
0.7222222222222222
 40
0.7222222222222222
 40
0.7777777777777778
 40
0.7777777777777778
 40
0.7777777777777778
 40
0.7777777777777778
 40
0.8333333333333334
 40
0.8333333333333334
 40
0.8333333333333334
 40
0.8333333333333334
 40
0.8888888888888888
 40
0.8888888888888888
 40
0.8888888888888888
 40
0.8888888888888888
 40
1.0
 40
1.0
 40
1.0
 40
1.0
 10
3.21206
 20
2.91378
 30
0.0
 10
3.21206
 20
2.91378
 30
0.0
 10
3.21206
 20
3.30155
 30
0.0
 10
3.21206
 20
3.30155
 30
0.0
 10
3.21206
 20
3.30155
 30
0.0
 10
3.21206
 20
3.30155
 30
0.0
 10
3.14842
 20
3.30155
 30
0.0
 10
3.14842
 20
3.30155
 30
0.0
 10
3.14842
 20
3.30155
 30
0.0
 10
3.14842
 20
3.30155
 30
0.0
 10
3.14842
 20
3.36252
 30
0.0
 10
3.14842
 20
3.36252
 30
0.0
 10
3.14842
 20
3.36252
 30
0.0
 10
3.14842
 20
3.36252
 30
0.0
 10
3.21206
 20
3.36252
 30
0.0
 10
3.21206
 20
3.36252
 30
0.0
 10
3.21206
 20
3.36252
 30
0.0
 10
3.21206
 20
3.36252
 30
0.0
 10
3.21206
 20
3.41628
 30
0.0
 10
3.21206
 20
3.41628
 30
0.0
 10
3.21206
 20
3.41628
 30
0.0
 10
3.21206
 20
3.52324
 30
0.0
 10
3.26089
 20
3.57672
 30
0.0
 10
3.35853
 20
3.57672
 30
0.0
 10
3.35853
 20
3.57672
 30
0.0
 10
3.38591
 20
3.57672
 30
0.0
 10
3.41695
 20
3.57221
 30
0.0
 10
3.45167
 20
3.56318
 30
0.0
 10
3.45167
 20
3.56318
 30
0.0
 10
3.45167
 20
3.56318
 30
0.0
 10
3.45167
 20
3.49798
 30
0.0
 10
3.45167
 20
3.49798
 30
0.0
 10
3.45167
 20
3.49798
 30
0.0
 10
3.41484
 20
3.50984
 30
0.0
 10
3.38535
 20
3.51576
 30
0.0
 10
3.36319
 20
3.51576
 30
0.0
 10
3.36319
 20
3.51576
 30
0.0
 10
3.33624
 20
3.51576
 30
0.0
 10
3.31789
 20
3.50941
 30
0.0
 10
3.30816
 20
3.49657
 30
0.0
 10
3.30816
 20
3.49657
 30
0.0
 10
3.29828
 20
3.48373
 30
0.0
 10
3.29334
 20
3.45988
 30
0.0
 10
3.29334
 20
3.42503
 30
0.0
 10
3.29334
 20
3.42503
 30
0.0
 10
3.29334
 20
3.42503
 30
0.0
 10
3.29334
 20
3.36252
 30
0.0
 10
3.29334
 20
3.36252
 30
0.0
 10
3.29334
 20
3.36252
 30
0.0
 10
3.29334
 20
3.36252
 30
0.0
 10
3.40609
 20
3.36252
 30
0.0
 10
3.40609
 20
3.36252
 30
0.0
 10
3.40609
 20
3.36252
 30
0.0
 10
3.40609
 20
3.36252
 30
0.0
 10
3.40609
 20
3.30155
 30
0.0
 10
3.40609
 20
3.30155
 30
0.0
 10
3.40609
 20
3.30155
 30
0.0
 10
3.40609
 20
3.30155
 30
0.0
 10
3.29334
 20
3.30155
 30
0.0
 10
3.29334
 20
3.30155
 30
0.0
 10
3.29334
 20
3.30155
 30
0.0
 10
3.29334
 20
3.30155
 30
0.0
 10
3.29334
 20
2.91378
 30
0.0
 10
3.29334
 20
2.91378
 30
0.0
 10
3.29334
 20
2.91378
 30
0.0
 10
3.29334
 20
2.91378
 30
0.0
 10
3.21206
 20
2.91378
 30
0.0
 10
3.21206
 20
2.91378
 30
0.0
  0
SPLINE
  5
E5
330
1F
100
AcDbEntity
  8
Layer 1
 62
     5
370
     9
100
AcDbSpline
210
0.0
220
0.0
230
1.0
 70
    11
 71
     3
 72
    76
 73
    72
 74
     0
 42
0.0000000001
 43
0.0000000001
 12
1.0
 22
0.0
 32
0.0
 13
1.0
 23
0.0
 33
0.0
 40
0.0
 40
0.0
 40
0.0
 40
0.0
 40
0.0526315789473684
 40
0.0526315789473684
 40
0.0526315789473684
 40
0.0526315789473684
 40
0.1052631578947368
 40
0.1052631578947368
 40
0.1052631578947368
 40
0.1052631578947368
 40
0.1578947368421053
 40
0.1578947368421053
 40
0.1578947368421053
 40
0.1578947368421053
 40
0.2105263157894737
 40
0.2105263157894737
 40
0.2105263157894737
 40
0.2105263157894737
 40
0.2631578947368421
 40
0.2631578947368421
 40
0.2631578947368421
 40
0.2631578947368421
 40
0.3157894736842105
 40
0.3157894736842105
 40
0.3157894736842105
 40
0.3157894736842105
 40
0.3684210526315789
 40
0.3684210526315789
 40
0.3684210526315789
 40
0.3684210526315789
 40
0.4210526315789473
 40
0.4210526315789473
 40
0.4210526315789473
 40
0.4210526315789473
 40
0.4736842105263158
 40
0.4736842105263158
 40
0.4736842105263158
 40
0.4736842105263158
 40
0.5263157894736842
 40
0.5263157894736842
 40
0.5263157894736842
 40
0.5263157894736842
 40
0.5789473684210527
 40
0.5789473684210527
 40
0.5789473684210527
 40
0.5789473684210527
 40
0.631578947368421
 40
0.631578947368421
 40
0.631578947368421
 40
0.631578947368421
 40
0.6842105263157895
 40
0.6842105263157895
 40
0.6842105263157895
 40
0.6842105263157895
 40
0.7368421052631579
 40
0.7368421052631579
 40
0.7368421052631579
 40
0.7368421052631579
 40
0.7894736842105263
 40
0.7894736842105263
 40
0.7894736842105263
 40
0.7894736842105263
 40
0.8421052631578947
 40
0.8421052631578947
 40
0.8421052631578947
 40
0.8421052631578947
 40
0.8947368421052632
 40
0.8947368421052632
 40
0.8947368421052632
 40
0.8947368421052632
 40
1.0
 40
1.0
 40
1.0
 40
1.0
 10
-0.90905
 20
1.61274
 30
0.0
 10
-0.90905
 20
1.61274
 30
0.0
 10
-0.90905
 20
1.68386
 30
0.0
 10
-0.90905
 20
1.68386
 30
0.0
 10
-0.90905
 20
1.68386
 30
0.0
 10
-0.88534
 20
1.73932
 30
0.0
 10
-0.8375
 20
1.79985
 30
0.0
 10
-0.76539
 20
1.86519
 30
0.0
 10
-0.76539
 20
1.86519
 30
0.0
 10
-0.76539
 20
1.86519
 30
0.0
 10
-0.71883
 20
1.90696
 30
0.0
 10
-0.71883
 20
1.90696
 30
0.0
 10
-0.71883
 20
1.90696
 30
0.0
 10
-0.65886
 20
1.96143
 30
0.0
 10
-0.6288
 20
2.01533
 30
0.0
 10
-0.6288
 20
2.06895
 30
0.0
 10
-0.6288
 20
2.06895
 30
0.0
 10
-0.6288
 20
2.10324
 30
0.0
 10
-0.6391
 20
2.13006
 30
0.0
 10
-0.65956
 20
2.14967
 30
0.0
 10
-0.65956
 20
2.14967
 30
0.0
 10
-0.68002
 20
2.16928
 30
0.0
 10
-0.70839
 20
2.17916
 30
0.0
 10
-0.74437
 20
2.17916
 30
0.0
 10
-0.74437
 20
2.17916
 30
0.0
 10
-0.78642
 20
2.17916
 30
0.0
 10
-0.83623
 20
2.16308
 30
0.0
 10
-0.89381
 20
2.1309
 30
0.0
 10
-0.89381
 20
2.1309
 30
0.0
 10
-0.89381
 20
2.1309
 30
0.0
 10
-0.89381
 20
2.20202
 30
0.0
 10
-0.89381
 20
2.20202
 30
0.0
 10
-0.89381
 20
2.20202
 30
0.0
 10
-0.83948
 20
2.22742
 30
0.0
 10
-0.78543
 20
2.24012
 30
0.0
 10
-0.73153
 20
2.24012
 30
0.0
 10
-0.73153
 20
2.24012
 30
0.0
 10
-0.67424
 20
2.24012
 30
0.0
 10
-0.62823
 20
2.22474
 30
0.0
 10
-0.59352
 20
2.19384
 30
0.0
 10
-0.59352
 20
2.19384
 30
0.0
 10
-0.55895
 20
2.16293
 30
0.0
 10
-0.54159
 20
2.12201
 30
0.0
 10
-0.54159
 20
2.07093
 30
0.0
 10
-0.54159
 20
2.07093
 30
0.0
 10
-0.54159
 20
2.03424
 30
0.0
 10
-0.55034
 20
2.00164
 30
0.0
 10
-0.56784
 20
1.97328
 30
0.0
 10
-0.56784
 20
1.97328
 30
0.0
 10
-0.58548
 20
1.94478
 30
0.0
 10
-0.61807
 20
1.91034
 30
0.0
 10
-0.66591
 20
1.8697
 30
0.0
 10
-0.66591
 20
1.8697
 30
0.0
 10
-0.66591
 20
1.8697
 30
0.0
 10
-0.69738
 20
1.84289
 30
0.0
 10
-0.69738
 20
1.84289
 30
0.0
 10
-0.69738
 20
1.84289
 30
0.0
 10
-0.76285
 20
1.78744
 30
0.0
 10
-0.80067
 20
1.73438
 30
0.0
 10
-0.81083
 20
1.68386
 30
0.0
 10
-0.81083
 20
1.68386
 30
0.0
 10
-0.81083
 20
1.68386
 30
0.0
 10
-0.54413
 20
1.68386
 30
0.0
 10
-0.54413
 20
1.68386
 30
0.0
 10
-0.54413
 20
1.68386
 30
0.0
 10
-0.54413
 20
1.68386
 30
0.0
 10
-0.54413
 20
1.61274
 30
0.0
 10
-0.54413
 20
1.61274
 30
0.0
 10
-0.54413
 20
1.61274
 30
0.0
 10
-0.54413
 20
1.61274
 30
0.0
 10
-0.90905
 20
1.61274
 30
0.0
 10
-0.90905
 20
1.61274
 30
0.0
  0
SPLINE
  5
E6
330
1F
100
AcDbEntity
  8
Layer 1
 62
     5
370
     9
100
AcDbSpline
210
0.0
220
0.0
230
1.0
 70
    11
 71
     3
 72
    76
 73
    72
 74
     0
 42
0.0000000001
 43
0.0000000001
 12
1.0
 22
0.0
 32
0.0
 13
1.0
 23
0.0
 33
0.0
 40
0.0
 40
0.0
 40
0.0
 40
0.0
 40
0.0526315789473684
 40
0.0526315789473684
 40
0.0526315789473684
 40
0.0526315789473684
 40
0.1052631578947368
 40
0.1052631578947368
 40
0.1052631578947368
 40
0.1052631578947368
 40
0.1578947368421053
 40
0.1578947368421053
 40
0.1578947368421053
 40
0.1578947368421053
 40
0.2105263157894737
 40
0.2105263157894737
 40
0.2105263157894737
 40
0.2105263157894737
 40
0.2631578947368421
 40
0.2631578947368421
 40
0.2631578947368421
 40
0.2631578947368421
 40
0.3157894736842105
 40
0.3157894736842105
 40
0.3157894736842105
 40
0.3157894736842105
 40
0.3684210526315789
 40
0.3684210526315789
 40
0.3684210526315789
 40
0.3684210526315789
 40
0.4210526315789473
 40
0.4210526315789473
 40
0.4210526315789473
 40
0.4210526315789473
 40
0.4736842105263158
 40
0.4736842105263158
 40
0.4736842105263158
 40
0.4736842105263158
 40
0.5263157894736842
 40
0.5263157894736842
 40
0.5263157894736842
 40
0.5263157894736842
 40
0.5789473684210527
 40
0.5789473684210527
 40
0.5789473684210527
 40
0.5789473684210527
 40
0.631578947368421
 40
0.631578947368421
 40
0.631578947368421
 40
0.631578947368421
 40
0.6842105263157895
 40
0.6842105263157895
 40
0.6842105263157895
 40
0.6842105263157895
 40
0.7368421052631579
 40
0.7368421052631579
 40
0.7368421052631579
 40
0.7368421052631579
 40
0.7894736842105263
 40
0.7894736842105263
 40
0.7894736842105263
 40
0.7894736842105263
 40
0.8421052631578947
 40
0.8421052631578947
 40
0.8421052631578947
 40
0.8421052631578947
 40
0.8947368421052632
 40
0.8947368421052632
 40
0.8947368421052632
 40
0.8947368421052632
 40
1.0
 40
1.0
 40
1.0
 40
1.0
 10
-0.37367
 20
1.61274
 30
0.0
 10
-0.37367
 20
1.61274
 30
0.0
 10
-0.37367
 20
1.68386
 30
0.0
 10
-0.37367
 20
1.68386
 30
0.0
 10
-0.37367
 20
1.68386
 30
0.0
 10
-0.34996
 20
1.73932
 30
0.0
 10
-0.30212
 20
1.79985
 30
0.0
 10
-0.23001
 20
1.86519
 30
0.0
 10
-0.23001
 20
1.86519
 30
0.0
 10
-0.23001
 20
1.86519
 30
0.0
 10
-0.18345
 20
1.90696
 30
0.0
 10
-0.18345
 20
1.90696
 30
0.0
 10
-0.18345
 20
1.90696
 30
0.0
 10
-0.12348
 20
1.96143
 30
0.0
 10
-0.09342
 20
2.01533
 30
0.0
 10
-0.09342
 20
2.06895
 30
0.0
 10
-0.09342
 20
2.06895
 30
0.0
 10
-0.09342
 20
2.10324
 30
0.0
 10
-0.10372
 20
2.13006
 30
0.0
 10
-0.12418
 20
2.14967
 30
0.0
 10
-0.12418
 20
2.14967
 30
0.0
 10
-0.14464
 20
2.16928
 30
0.0
 10
-0.17301
 20
2.17916
 30
0.0
 10
-0.20899
 20
2.17916
 30
0.0
 10
-0.20899
 20
2.17916
 30
0.0
 10
-0.25104
 20
2.17916
 30
0.0
 10
-0.30085
 20
2.16308
 30
0.0
 10
-0.35843
 20
2.1309
 30
0.0
 10
-0.35843
 20
2.1309
 30
0.0
 10
-0.35843
 20
2.1309
 30
0.0
 10
-0.35843
 20
2.20202
 30
0.0
 10
-0.35843
 20
2.20202
 30
0.0
 10
-0.35843
 20
2.20202
 30
0.0
 10
-0.3041
 20
2.22742
 30
0.0
 10
-0.25005
 20
2.24012
 30
0.0
 10
-0.19615
 20
2.24012
 30
0.0
 10
-0.19615
 20
2.24012
 30
0.0
 10
-0.13886
 20
2.24012
 30
0.0
 10
-0.09285
 20
2.22474
 30
0.0
 10
-0.05814
 20
2.19384
 30
0.0
 10
-0.05814
 20
2.19384
 30
0.0
 10
-0.02357
 20
2.16293
 30
0.0
 10
-0.00621
 20
2.12201
 30
0.0
 10
-0.00621
 20
2.07093
 30
0.0
 10
-0.00621
 20
2.07093
 30
0.0
 10
-0.00621
 20
2.03424
 30
0.0
 10
-0.01496
 20
2.00164
 30
0.0
 10
-0.03246
 20
1.97328
 30
0.0
 10
-0.03246
 20
1.97328
 30
0.0
 10
-0.0501
 20
1.94478
 30
0.0
 10
-0.08269
 20
1.91034
 30
0.0
 10
-0.13053
 20
1.8697
 30
0.0
 10
-0.13053
 20
1.8697
 30
0.0
 10
-0.13053
 20
1.8697
 30
0.0
 10
-0.162
 20
1.84289
 30
0.0
 10
-0.162
 20
1.84289
 30
0.0
 10
-0.162
 20
1.84289
 30
0.0
 10
-0.22747
 20
1.78744
 30
0.0
 10
-0.26529
 20
1.73438
 30
0.0
 10
-0.27545
 20
1.68386
 30
0.0
 10
-0.27545
 20
1.68386
 30
0.0
 10
-0.27545
 20
1.68386
 30
0.0
 10
-0.00875
 20
1.68386
 30
0.0
 10
-0.00875
 20
1.68386
 30
0.0
 10
-0.00875
 20
1.68386
 30
0.0
 10
-0.00875
 20
1.68386
 30
0.0
 10
-0.00875
 20
1.61274
 30
0.0
 10
-0.00875
 20
1.61274
 30
0.0
 10
-0.00875
 20
1.61274
 30
0.0
 10
-0.00875
 20
1.61274
 30
0.0
 10
-0.37367
 20
1.61274
 30
0.0
 10
-0.37367
 20
1.61274
 30
0.0
  0
SPLINE
  5
E7
330
1F
100
AcDbEntity
  8
Layer 1
 62
     5
370
     9
100
AcDbSpline
210
0.0
220
0.0
230
1.0
 70
    11
 71
     3
 72
    20
 73
    16
 74
     0
 42
0.0000000001
 43
0.0000000001
 12
1.0
 22
0.0
 32
0.0
 13
1.0
 23
0.0
 33
0.0
 40
0.0
 40
0.0
 40
0.0
 40
0.0
 40
0.2
 40
0.2
 40
0.2
 40
0.2
 40
0.4
 40
0.4
 40
0.4
 40
0.4
 40
0.6
 40
0.6
 40
0.6
 40
0.6
 40
1.0
 40
1.0
 40
1.0
 40
1.0
 10
0.127
 20
1.55178
 30
0.0
 10
0.127
 20
1.55178
 30
0.0
 10
0.127
 20
1.61274
 30
0.0
 10
0.127
 20
1.61274
 30
0.0
 10
0.127
 20
1.61274
 30
0.0
 10
0.127
 20
1.61274
 30
0.0
 10
0.47921
 20
1.61274
 30
0.0
 10
0.47921
 20
1.61274
 30
0.0
 10
0.47921
 20
1.61274
 30
0.0
 10
0.47921
 20
1.61274
 30
0.0
 10
0.47921
 20
1.55178
 30
0.0
 10
0.47921
 20
1.55178
 30
0.0
 10
0.47921
 20
1.55178
 30
0.0
 10
0.47921
 20
1.55178
 30
0.0
 10
0.127
 20
1.55178
 30
0.0
 10
0.127
 20
1.55178
 30
0.0
  0
SPLINE
  5
E8
330
1F
100
AcDbEntity
  8
Layer 1
 62
     5
370
     9
100
AcDbSpline
210
0.0
220
0.0
230
1.0
 70
    11
 71
     3
 72
    40
 73
    36
 74
     0
 42
0.0000000001
 43
0.0000000001
 12
1.0
 22
0.0
 32
0.0
 13
1.0
 23
0.0
 33
0.0
 40
0.0
 40
0.0
 40
0.0
 40
0.0
 40
0.1
 40
0.1
 40
0.1
 40
0.1
 40
0.2
 40
0.2
 40
0.2
 40
0.2
 40
0.3
 40
0.3
 40
0.3
 40
0.3
 40
0.4
 40
0.4
 40
0.4
 40
0.4
 40
0.5
 40
0.5
 40
0.5
 40
0.5
 40
0.6
 40
0.6
 40
0.6
 40
0.6
 40
0.7
 40
0.7
 40
0.7
 40
0.7
 40
0.8
 40
0.8
 40
0.8
 40
0.8
 40
1.0
 40
1.0
 40
1.0
 40
1.0
 10
0.64178
 20
1.61274
 30
0.0
 10
0.64968
 20
1.66044
 30
0.0
 10
0.66111
 20
1.70178
 30
0.0
 10
0.67579
 20
1.73649
 30
0.0
 10
0.67579
 20
1.73649
 30
0.0
 10
0.69046
 20
1.77121
 30
0.0
 10
0.71657
 20
1.81905
 30
0.0
 10
0.75382
 20
1.87972
 30
0.0
 10
0.75382
 20
1.87972
 30
0.0
 10
0.75382
 20
1.87972
 30
0.0
 10
0.92033
 20
2.14868
 30
0.0
 10
0.92033
 20
2.14868
 30
0.0
 10
0.92033
 20
2.14868
 30
0.0
 10
0.92033
 20
2.14868
 30
0.0
 10
0.60622
 20
2.14868
 30
0.0
 10
0.60622
 20
2.14868
 30
0.0
 10
0.60622
 20
2.14868
 30
0.0
 10
0.60622
 20
2.14868
 30
0.0
 10
0.60622
 20
2.22488
 30
0.0
 10
0.60622
 20
2.22488
 30
0.0
 10
0.60622
 20
2.22488
 30
0.0
 10
0.60622
 20
2.22488
 30
0.0
 10
0.99908
 20
2.22488
 30
0.0
 10
0.99908
 20
2.22488
 30
0.0
 10
0.99908
 20
2.22488
 30
0.0
 10
0.99908
 20
2.22488
 30
0.0
 10
0.99908
 20
2.14868
 30
0.0
 10
0.99908
 20
2.14868
 30
0.0
 10
0.99908
 20
2.14868
 30
0.0
 10
0.8423
 20
1.91726
 30
0.0
 10
0.75453
 20
1.73861
 30
0.0
 10
0.73576
 20
1.61274
 30
0.0
 10
0.73576
 20
1.61274
 30
0.0
 10
0.73576
 20
1.61274
 30
0.0
 10
0.64178
 20
1.61274
 30
0.0
 10
0.64178
 20
1.61274
 30
0.0
  0
ENDSEC
  0
SECTION
  2
OBJECTS
  0
DICTIONARY
  5
C
330
0
100
AcDbDictionary
281
     1
  3
ACAD_GROUP
350
D
  3
ACAD_LAYOUT
350
1A
  3
ACAD_MATERIAL
350
3B
  3
ACAD_MLEADERSTYLE
350
10A
  3
ACAD_MLINESTYLE
350
17
  3
ACAD_PLOTSETTINGS
350
19
  3
ACAD_PLOTSTYLENAME
350
E
  3
ACAD_TABLESTYLE
350
109
  3
ACAD_VISUALSTYLE
350
2A
  0
DICTIONARY
  5
D
102
{ACAD_REACTORS
330
C
102
}
330
C
100
AcDbDictionary
281
     1
  0
DICTIONARY
  5
1A
102
{ACAD_REACTORS
330
C
102
}
330
C
100
AcDbDictionary
281
     1
  3
Layout1
350
1E
  3
Layout2
350
26
  3
Model
350
22
  0
DICTIONARY
  5
3B
102
{ACAD_REACTORS
330
C
102
}
330
C
100
AcDbDictionary
281
     1
  3
ByBlock
350
3D
  3
ByLayer
350
3C
  3
Global
350
3E
  0
DICTIONARY
  5
10A
102
{ACAD_REACTORS
330
C
102
}
330
C
100
AcDbDictionary
281
     1
  0
DICTIONARY
  5
17
102
{ACAD_REACTORS
330
C
102
}
330
C
100
AcDbDictionary
281
     1
  3
Standard
350
18
  0
DICTIONARY
  5
19
102
{ACAD_REACTORS
330
C
102
}
330
C
100
AcDbDictionary
281
     1
  0
ACDBDICTIONARYWDFLT
  5
E
102
{ACAD_REACTORS
330
C
102
}
330
C
100
AcDbDictionary
281
     1
  3
Normal
350
F
100
AcDbDictionaryWithDefault
340
F
  0
DICTIONARY
  5
109
102
{ACAD_REACTORS
330
C
102
}
330
C
100
AcDbDictionary
281
     1
  0
DICTIONARY
  5
2A
102
{ACAD_REACTORS
330
C
102
}
330
C
100
AcDbDictionary
281
     1
  3
2dWireframe
350
2F
  3
3D Hidden
350
31
  3
3dWireframe
350
30
  3
Basic
350
32
  3
Brighten
350
36
  3
ColorChange
350
3A
  3
Conceptual
350
34
  3
Dim
350
35
  3
Facepattern
350
39
  3
Flat
350
2B
  3
FlatWithEdges
350
2C
  3
Gouraud
350
2D
  3
GouraudWithEdges
350
2E
  3
Linepattern
350
38
  3
Realistic
350
33
  3
Thicken
350
37
  0
LAYOUT
  5
1E
102
{ACAD_REACTORS
330
1A
102
}
330
1A
100
AcDbPlotSettings
  1

  2
none_device
  4

  6

 40
0.0
 41
0.0
 42
0.0
 43
0.0
 44
0.0
 45
0.0
 46
0.0
 47
0.0
 48
0.0
 49
0.0
140
0.0
141
0.0
142
1.0
143
1.0
 70
   688
 72
     0
 73
     0
 74
     5
  7

 75
    16
 76
     0
 77
     2
 78
   300
147
1.0
148
0.0
149
0.0
100
AcDbLayout
  1
Layout1
 70
     1
 71
     1
 10
0.0
 20
0.0
 11
12.0
 21
9.0
 12
0.0
 22
0.0
 32
0.0
 14
1.000000000000000E+20
 24
1.000000000000000E+20
 34
1.000000000000000E+20
 15
-1.000000000000000E+20
 25
-1.000000000000000E+20
 35
-1.000000000000000E+20
146
0.0
 13
0.0
 23
0.0
 33
0.0
 16
1.0
 26
0.0
 36
0.0
 17
0.0
 27
1.0
 37
0.0
 76
     0
330
1B
  0
LAYOUT
  5
26
102
{ACAD_REACTORS
330
1A
102
}
330
1A
100
AcDbPlotSettings
  1

  2
none_device
  4

  6

 40
0.0
 41
0.0
 42
0.0
 43
0.0
 44
0.0
 45
0.0
 46
0.0
 47
0.0
 48
0.0
 49
0.0
140
0.0
141
0.0
142
1.0
143
1.0
 70
   688
 72
     0
 73
     0
 74
     5
  7

 75
    16
 76
     0
 77
     2
 78
   300
147
1.0
148
0.0
149
0.0
100
AcDbLayout
  1
Layout2
 70
     1
 71
     2
 10
0.0
 20
0.0
 11
0.0
 21
0.0
 12
0.0
 22
0.0
 32
0.0
 14
0.0
 24
0.0
 34
0.0
 15
0.0
 25
0.0
 35
0.0
146
0.0
 13
0.0
 23
0.0
 33
0.0
 16
1.0
 26
0.0
 36
0.0
 17
0.0
 27
1.0
 37
0.0
 76
     0
330
23
  0
LAYOUT
  5
22
102
{ACAD_REACTORS
330
1A
102
}
330
1A
100
AcDbPlotSettings
  1

  2
none_device
  4

  6

 40
0.0
 41
0.0
 42
0.0
 43
0.0
 44
0.0
 45
0.0
 46
0.0
 47
0.0
 48
0.0
 49
0.0
140
0.0
141
0.0
142
1.0
143
1.0
 70
  1712
 72
     0
 73
     0
 74
     0
  7

 75
     0
 76
     0
 77
     2
 78
   300
147
1.0
148
0.0
149
0.0
100
AcDbLayout
  1
Model
 70
     1
 71
     0
 10
0.0
 20
0.0
 11
12.0
 21
9.0
 12
0.0
 22
0.0
 32
0.0
 14
-16.47646
 24
-11.22646
 34
0.0
 15
16.47646
 25
11.22646
 35
0.0
146
0.0
 13
0.0
 23
0.0
 33
0.0
 16
1.0
 26
0.0
 36
0.0
 17
0.0
 27
1.0
 37
0.0
 76
     0
330
1F
331
29
  0
MATERIAL
  5
3D
102
{ACAD_REACTORS
330
3B
102
}
330
3B
100
AcDbMaterial
  1
ByBlock
 72
     1
 94
      127
  0
MATERIAL
  5
3C
102
{ACAD_REACTORS
330
3B
102
}
330
3B
100
AcDbMaterial
  1
ByLayer
 72
     1
 94
      127
  0
MATERIAL
  5
3E
102
{ACAD_REACTORS
330
3B
102
}
330
3B
100
AcDbMaterial
  1
Global
 72
     1
 94
      127
  0
MLINESTYLE
  5
18
102
{ACAD_REACTORS
330
17
102
}
330
17
100
AcDbMlineStyle
  2
Standard
 70
     0
  3

 62
   256
 51
90.0
 52
90.0
 71
     2
 49
0.5
 62
   256
  6
BYLAYER
 49
-0.5
 62
   256
  6
BYLAYER
  0
ACDBPLACEHOLDER
  5
F
102
{ACAD_REACTORS
330
E
102
}
330
E
  0
VISUALSTYLE
  5
2F
102
{ACAD_REACTORS
330
2A
102
}
102
{ACAD_XDICTIONARY
360
F1
102
}
330
2A
100
AcDbVisualStyle
  2
2dWireframe
 70
     4
 71
     0
 72
     2
 73
     0
 90
        0
 40
-0.6
 41
-30.0
 62
     5
 63
     7
421
 16777215
 74
     1
 91
        4
 64
     7
 65
   257
 75
     1
175
     1
 42
1.0
 92
        0
 66
   257
 43
1.0
 76
     1
 77
     6
 78
     2
 67
     7
 79
     5
170
     0
171
     0
290
     0
174
     0
 93
        1
 44
0.0
173
     0
291
     0
 45
0.0
  0
VISUALSTYLE
  5
31
102
{ACAD_REACTORS
330
2A
102
}
102
{ACAD_XDICTIONARY
360
F5
102
}
330
2A
100
AcDbVisualStyle
  2
3D Hidden
 70
     6
 71
     1
 72
     2
 73
     2
 90
        0
 40
-0.6
 41
-30.0
 62
     5
 63
     7
421
 16777215
 74
     2
 91
        2
 64
     7
 65
   257
 75
     2
175
     1
 42
40.0
 92
        0
 66
   257
 43
1.0
 76
     1
 77
     6
 78
     2
 67
     7
 79
     3
170
     0
171
     0
290
     0
174
     0
 93
        1
 44
0.0
173
     0
291
     0
 45
0.0
  0
VISUALSTYLE
  5
30
102
{ACAD_REACTORS
330
2A
102
}
102
{ACAD_XDICTIONARY
360
F3
102
}
330
2A
100
AcDbVisualStyle
  2
3dWireframe
 70
     5
 71
     0
 72
     2
 73
     0
 90
        0
 40
-0.6
 41
-30.0
 62
     5
 63
     7
421
 16777215
 74
     1
 91
        4
 64
     7
 65
   257
 75
     1
175
     1
 42
1.0
 92
        0
 66
   257
 43
1.0
 76
     1
 77
     6
 78
     2
 67
     7
 79
     5
170
     0
171
     0
290
     0
174
     0
 93
        1
 44
0.0
173
     0
291
     0
 45
0.0
  0
VISUALSTYLE
  5
32
102
{ACAD_REACTORS
330
2A
102
}
102
{ACAD_XDICTIONARY
360
F7
102
}
330
2A
100
AcDbVisualStyle
  2
Basic
 70
     7
 71
     1
 72
     0
 73
     1
 90
        0
 40
-0.6
 41
-30.0
 62
     5
 63
     7
421
 16777215
 74
     0
 91
        4
 64
     7
 65
   257
 75
     1
175
     1
 42
1.0
 92
        8
 66
     7
 43
1.0
 76
     1
 77
     6
 78
     2
 67
     7
 79
     5
170
     0
171
     0
290
     0
174
     0
 93
        1
 44
0.0
173
     0
291
     1
 45
0.0
  0
VISUALSTYLE
  5
36
102
{ACAD_REACTORS
330
2A
102
}
102
{ACAD_XDICTIONARY
360
FF
102
}
330
2A
100
AcDbVisualStyle
  2
Brighten
 70
    12
 71
     2
 72
     2
 73
     0
 90
        0
 40
-0.6
 41
-30.0
 62
     5
 63
     7
421
 16777215
 74
     1
 91
        4
 64
     7
 65
   257
 75
     1
175
     1
 42
1.0
 92
        8
 66
     7
 43
1.0
 76
     1
 77
     6
 78
     2
 67
     7
 79
     5
170
     0
171
     0
290
     0
174
     0
 93
        1
 44
50.0
173
     0
291
     1
 45
0.0
  0
VISUALSTYLE
  5
3A
102
{ACAD_REACTORS
330
2A
102
}
102
{ACAD_XDICTIONARY
360
107
102
}
330
2A
100
AcDbVisualStyle
  2
ColorChange
 70
    16
 71
     2
 72
     2
 73
     3
 90
        0
 40
-0.6
 41
-30.0
 62
     5
 63
     8
421
  8421504
 74
     1
 91
        4
 64
     7
 65
   257
 75
     1
175
     1
 42
1.0
 92
        8
 66
     8
424
  8421504
 43
1.0
 76
     1
 77
     6
 78
     2
 67
     7
 79
     5
170
     0
171
     0
290
     0
174
     0
 93
        1
 44
0.0
173
     0
291
     1
 45
0.0
  0
VISUALSTYLE
  5
34
102
{ACAD_REACTORS
330
2A
102
}
102
{ACAD_XDICTIONARY
360
FB
102
}
330
2A
100
AcDbVisualStyle
  2
Conceptual
 70
     9
 71
     3
 72
     2
 73
     0
 90
        0
 40
-0.6
 41
-30.0
 62
     5
 63
     7
421
 16777215
 74
     2
 91
        2
 64
     7
 65
   257
 75
     1
175
     1
 42
40.0
 92
        8
 66
     7
 43
1.0
 76
     1
 77
     6
 78
     2
 67
     7
 79
     3
170
     0
171
     0
290
     0
174
     0
 93
        1
 44
0.0
173
     0
291
     0
 45
0.0
  0
VISUALSTYLE
  5
35
102
{ACAD_REACTORS
330
2A
102
}
102
{ACAD_XDICTIONARY
360
FD
102
}
330
2A
100
AcDbVisualStyle
  2
Dim
 70
    11
 71
     2
 72
     2
 73
     0
 90
        0
 40
-0.6
 41
-30.0
 62
     5
 63
     7
421
 16777215
 74
     1
 91
        4
 64
     7
 65
   257
 75
     1
175
     1
 42
1.0
 92
        8
 66
     7
 43
1.0
 76
     1
 77
     6
 78
     2
 67
     7
 79
     5
170
     0
171
     0
290
     0
174
     0
 93
        1
 44
-50.0
173
     0
291
     1
 45
0.0
  0
VISUALSTYLE
  5
39
102
{ACAD_REACTORS
330
2A
102
}
102
{ACAD_XDICTIONARY
360
105
102
}
330
2A
100
AcDbVisualStyle
  2
Facepattern
 70
    15
 71
     2
 72
     2
 73
     0
 90
        0
 40
-0.6
 41
-30.0
 62
     5
 63
     7
421
 16777215
 74
     1
 91
        4
 64
     7
 65
   257
 75
     1
175
     1
 42
1.0
 92
        8
 66
     7
 43
1.0
 76
     1
 77
     6
 78
     2
 67
     7
 79
     5
170
     0
171
     0
290
     0
174
     0
 93
        1
 44
0.0
173
     0
291
     1
 45
0.0
  0
VISUALSTYLE
  5
2B
102
{ACAD_REACTORS
330
2A
102
}
102
{ACAD_XDICTIONARY
360
E9
102
}
330
2A
100
AcDbVisualStyle
  2
Flat
 70
     0
 71
     2
 72
     1
 73
     1
 90
        2
 40
-0.6
 41
30.0
 62
     5
 63
     7
421
 16777215
 74
     0
 91
        4
 64
     7
 65
   257
 75
     1
175
     1
 42
1.0
 92
        8
 66
     7
 43
1.0
 76
     1
 77
     6
 78
     2
 67
     7
 79
     5
170
     0
171
     0
290
     0
174
     0
 93
       13
 44
0.0
173
     0
291
     1
 45
0.0
  0
VISUALSTYLE
  5
2C
102
{ACAD_REACTORS
330
2A
102
}
102
{ACAD_XDICTIONARY
360
EB
102
}
330
2A
100
AcDbVisualStyle
  2
FlatWithEdges
 70
     1
 71
     2
 72
     1
 73
     1
 90
        2
 40
-0.6
 41
30.0
 62
     5
 63
     7
421
 16777215
 74
     1
 91
        4
 64
     7
 65
   257
 75
     1
175
     1
 42
1.0
 92
        0
 66
   257
 43
1.0
 76
     1
 77
     6
 78
     2
 67
     7
 79
     5
170
     0
171
     0
290
     0
174
     0
 93
       13
 44
0.0
173
     0
291
     1
 45
0.0
  0
VISUALSTYLE
  5
2D
102
{ACAD_REACTORS
330
2A
102
}
102
{ACAD_XDICTIONARY
360
ED
102
}
330
2A
100
AcDbVisualStyle
  2
Gouraud
 70
     2
 71
     2
 72
     2
 73
     1
 90
        2
 40
-0.6
 41
30.0
 62
     5
 63
     7
421
 16777215
 74
     0
 91
        4
 64
     7
 65
   257
 75
     1
175
     1
 42
1.0
 92
        0
 66
     7
 43
1.0
 76
     1
 77
     6
 78
     2
 67
     7
 79
     5
170
     0
171
     0
290
     0
174
     0
 93
       13
 44
0.0
173
     0
291
     1
 45
0.0
  0
VISUALSTYLE
  5
2E
102
{ACAD_REACTORS
330
2A
102
}
102
{ACAD_XDICTIONARY
360
EF
102
}
330
2A
100
AcDbVisualStyle
  2
GouraudWithEdges
 70
     3
 71
     2
 72
     2
 73
     1
 90
        2
 40
-0.6
 41
30.0
 62
     5
 63
     7
421
 16777215
 74
     1
 91
        4
 64
     7
 65
   257
 75
     1
175
     1
 42
1.0
 92
        0
 66
   257
 43
1.0
 76
     1
 77
     6
 78
     2
 67
     7
 79
     5
170
     0
171
     0
290
     0
174
     0
 93
       13
 44
0.0
173
     0
291
     1
 45
0.0
  0
VISUALSTYLE
  5
38
102
{ACAD_REACTORS
330
2A
102
}
102
{ACAD_XDICTIONARY
360
103
102
}
330
2A
100
AcDbVisualStyle
  2
Linepattern
 70
    14
 71
     2
 72
     2
 73
     0
 90
        0
 40
-0.6
 41
-30.0
 62
     5
 63
     7
421
 16777215
 74
     1
 91
        4
 64
     7
 65
   257
 75
     7
175
     7
 42
1.0
 92
        8
 66
     7
 43
1.0
 76
     1
 77
     6
 78
     2
 67
     7
 79
     5
170
     0
171
     0
290
     0
174
     0
 93
        1
 44
0.0
173
     0
291
     1
 45
0.0
  0
VISUALSTYLE
  5
33
102
{ACAD_REACTORS
330
2A
102
}
102
{ACAD_XDICTIONARY
360
F9
102
}
330
2A
100
AcDbVisualStyle
  2
Realistic
 70
     8
 71
     2
 72
     2
 73
     0
 90
        0
 40
-0.6
 41
-30.0
 62
     5
 63
     7
421
 16777215
 74
     1
 91
        0
 64
     7
 65
   257
 75
     1
175
     1
 42
1.0
 92
        8
 66
     8
424
  7895160
 43
1.0
 76
     1
 77
     6
 78
     2
 67
     7
 79
     5
170
     0
171
     0
290
     0
174
     0
 93
       13
 44
0.0
173
     0
291
     0
 45
0.0
  0
VISUALSTYLE
  5
37
102
{ACAD_REACTORS
330
2A
102
}
102
{ACAD_XDICTIONARY
360
101
102
}
330
2A
100
AcDbVisualStyle
  2
Thicken
 70
    13
 71
     2
 72
     2
 73
     0
 90
        0
 40
-0.6
 41
-30.0
 62
     5
 63
     7
421
 16777215
 74
     1
 91
        4
 64
     7
 65
   257
 75
     1
175
     1
 42
1.0
 92
       12
 66
     7
 43
1.0
 76
     1
 77
     6
 78
     2
 67
     7
 79
     5
170
     0
171
     0
290
     0
174
     0
 93
        1
 44
0.0
173
     0
291
     1
 45
0.0
  0
DICTIONARY
  5
F1
330
2F
100
AcDbDictionary
280
     1
281
     1
  3
ACAD_XREC_ROUNDTRIP
360
F2
  0
DICTIONARY
  5
F5
330
31
100
AcDbDictionary
280
     1
281
     1
  3
ACAD_XREC_ROUNDTRIP
360
F6
  0
DICTIONARY
  5
F3
330
30
100
AcDbDictionary
280
     1
281
     1
  3
ACAD_XREC_ROUNDTRIP
360
F4
  0
DICTIONARY
  5
F7
330
32
100
AcDbDictionary
280
     1
281
     1
  3
ACAD_XREC_ROUNDTRIP
360
F8
  0
DICTIONARY
  5
FF
330
36
100
AcDbDictionary
280
     1
281
     1
  3
ACAD_XREC_ROUNDTRIP
360
100
  0
DICTIONARY
  5
107
330
3A
100
AcDbDictionary
280
     1
281
     1
  3
ACAD_XREC_ROUNDTRIP
360
108
  0
DICTIONARY
  5
FB
330
34
100
AcDbDictionary
280
     1
281
     1
  3
ACAD_XREC_ROUNDTRIP
360
FC
  0
DICTIONARY
  5
FD
330
35
100
AcDbDictionary
280
     1
281
     1
  3
ACAD_XREC_ROUNDTRIP
360
FE
  0
DICTIONARY
  5
105
330
39
100
AcDbDictionary
280
     1
281
     1
  3
ACAD_XREC_ROUNDTRIP
360
106
  0
DICTIONARY
  5
E9
330
2B
100
AcDbDictionary
280
     1
281
     1
  3
ACAD_XREC_ROUNDTRIP
360
EA
  0
DICTIONARY
  5
EB
330
2C
100
AcDbDictionary
280
     1
281
     1
  3
ACAD_XREC_ROUNDTRIP
360
EC
  0
DICTIONARY
  5
ED
330
2D
100
AcDbDictionary
280
     1
281
     1
  3
ACAD_XREC_ROUNDTRIP
360
EE
  0
DICTIONARY
  5
EF
330
2E
100
AcDbDictionary
280
     1
281
     1
  3
ACAD_XREC_ROUNDTRIP
360
F0
  0
DICTIONARY
  5
103
330
38
100
AcDbDictionary
280
     1
281
     1
  3
ACAD_XREC_ROUNDTRIP
360
104
  0
DICTIONARY
  5
F9
330
33
100
AcDbDictionary
280
     1
281
     1
  3
ACAD_XREC_ROUNDTRIP
360
FA
  0
DICTIONARY
  5
101
330
37
100
AcDbDictionary
280
     1
281
     1
  3
ACAD_XREC_ROUNDTRIP
360
102
  0
XRECORD
  5
F2
102
{ACAD_REACTORS
330
F1
102
}
330
F1
100
AcDbXrecord
280
     1
102
RTVSPropertyOp0
 70
     1
102
RTVSPropertyOp1
 70
     1
102
RTVSPropertyOp2
 70
     1
102
RTVSPropertyOp3
 70
     1
102
RTVSPropertyOp4
 70
     1
102
RTVSPropertyOp5
 70
     1
102
RTVSPropertyOp6
 70
     1
102
RTVSPropertyOp7
 70
     1
102
RTVSPropertyOp8
 70
     1
102
RTVSPropertyOp9
 70
     1
102
RTVSPropertyOp10
 70
     1
102
RTVSPropertyOp11
 70
     1
102
RTVSPropertyOp12
 70
     1
102
RTVSPropertyOp13
 70
     1
102
RTVSPropertyOp14
 70
     1
102
RTVSPropertyOp15
 70
     1
102
RTVSPropertyOp16
 70
     1
102
RTVSPropertyOp17
 70
     1
102
RTVSPropertyOp18
 70
     1
102
RTVSPropertyOp19
 70
     1
102
RTVSPropertyOp20
 70
     1
102
RTVSPropertyOp21
 70
     1
102
RTVSPropertyOp22
 70
     1
102
RTVSPropertyOp23
 70
     1
102
RTVSPropertyOp24
 70
     1
102
RTVSPropertyOp25
 70
     1
102
RTVSPropertyOp26
 70
     1
102
RTVSPropertyOp27
 70
     1
102
RTVSPropertyOp28
 70
     1
102
RTVSPropertyOp29
 70
     1
102
RTVSPropertyOp30
 70
     1
102
RTVSPropertyOp31
 70
     1
102
RTVSPropertyOp32
 70
     1
  0
XRECORD
  5
F6
102
{ACAD_REACTORS
330
F5
102
}
330
F5
100
AcDbXrecord
280
     1
102
RTVSPropertyOp0
 70
     1
102
RTVSPropertyOp1
 70
     1
102
RTVSPropertyOp2
 70
     1
102
RTVSPropertyOp3
 70
     1
102
RTVSPropertyOp4
 70
     1
102
RTVSPropertyOp5
 70
     1
102
RTVSPropertyOp6
 70
     1
102
RTVSPropertyOp7
 70
     1
102
RTVSPropertyOp8
 70
     1
102
RTVSPropertyOp9
 70
     1
102
RTVSPropertyOp10
 70
     1
102
RTVSPropertyOp11
 70
     1
102
RTVSPropertyOp12
 70
     1
102
RTVSPropertyOp13
 70
     1
102
RTVSPropertyOp14
 70
     1
102
RTVSPropertyOp15
 70
     1
102
RTVSPropertyOp16
 70
     1
102
RTVSPropertyOp17
 70
     1
102
RTVSPropertyOp18
 70
     1
102
RTVSPropertyOp19
 70
     1
102
RTVSPropertyOp20
 70
     1
102
RTVSPropertyOp21
 70
     1
102
RTVSPropertyOp22
 70
     1
102
RTVSPropertyOp23
 70
     1
102
RTVSPropertyOp24
 70
     1
102
RTVSPropertyOp25
 70
     1
102
RTVSPropertyOp26
 70
     1
102
RTVSPropertyOp27
 70
     1
102
RTVSPropertyOp28
 70
     1
102
RTVSPropertyOp29
 70
     1
102
RTVSPropertyOp30
 70
     1
102
RTVSPropertyOp31
 70
     1
102
RTVSPropertyOp32
 70
     1
  0
XRECORD
  5
F4
102
{ACAD_REACTORS
330
F3
102
}
330
F3
100
AcDbXrecord
280
     1
102
RTVSPropertyOp0
 70
     1
102
RTVSPropertyOp1
 70
     1
102
RTVSPropertyOp2
 70
     1
102
RTVSPropertyOp3
 70
     1
102
RTVSPropertyOp4
 70
     1
102
RTVSPropertyOp5
 70
     1
102
RTVSPropertyOp6
 70
     1
102
RTVSPropertyOp7
 70
     1
102
RTVSPropertyOp8
 70
     1
102
RTVSPropertyOp9
 70
     1
102
RTVSPropertyOp10
 70
     1
102
RTVSPropertyOp11
 70
     1
102
RTVSPropertyOp12
 70
     1
102
RTVSPropertyOp13
 70
     1
102
RTVSPropertyOp14
 70
     1
102
RTVSPropertyOp15
 70
     1
102
RTVSPropertyOp16
 70
     1
102
RTVSPropertyOp17
 70
     1
102
RTVSPropertyOp18
 70
     1
102
RTVSPropertyOp19
 70
     1
102
RTVSPropertyOp20
 70
     1
102
RTVSPropertyOp21
 70
     1
102
RTVSPropertyOp22
 70
     1
102
RTVSPropertyOp23
 70
     1
102
RTVSPropertyOp24
 70
     1
102
RTVSPropertyOp25
 70
     1
102
RTVSPropertyOp26
 70
     1
102
RTVSPropertyOp27
 70
     1
102
RTVSPropertyOp28
 70
     1
102
RTVSPropertyOp29
 70
     1
102
RTVSPropertyOp30
 70
     1
102
RTVSPropertyOp31
 70
     1
102
RTVSPropertyOp32
 70
     1
  0
XRECORD
  5
F8
102
{ACAD_REACTORS
330
F7
102
}
330
F7
100
AcDbXrecord
280
     1
102
RTVSPropertyOp0
 70
     1
102
RTVSPropertyOp1
 70
     1
102
RTVSPropertyOp2
 70
     1
102
RTVSPropertyOp3
 70
     1
102
RTVSPropertyOp4
 70
     1
102
RTVSPropertyOp5
 70
     1
102
RTVSPropertyOp6
 70
     1
102
RTVSPropertyOp7
 70
     1
102
RTVSPropertyOp8
 70
     1
102
RTVSPropertyOp9
 70
     1
102
RTVSPropertyOp10
 70
     1
102
RTVSPropertyOp11
 70
     1
102
RTVSPropertyOp12
 70
     1
102
RTVSPropertyOp13
 70
     1
102
RTVSPropertyOp14
 70
     1
102
RTVSPropertyOp15
 70
     1
102
RTVSPropertyOp16
 70
     1
102
RTVSPropertyOp17
 70
     1
102
RTVSPropertyOp18
 70
     1
102
RTVSPropertyOp19
 70
     1
102
RTVSPropertyOp20
 70
     1
102
RTVSPropertyOp21
 70
     1
102
RTVSPropertyOp22
 70
     1
102
RTVSPropertyOp23
 70
     1
102
RTVSPropertyOp24
 70
     1
102
RTVSPropertyOp25
 70
     1
102
RTVSPropertyOp26
 70
     1
102
RTVSPropertyOp27
 70
     1
102
RTVSPropertyOp28
 70
     1
102
RTVSPropertyOp29
 70
     1
102
RTVSPropertyOp30
 70
     1
102
RTVSPropertyOp31
 70
     1
102
RTVSPropertyOp32
 70
     1
  0
XRECORD
  5
100
102
{ACAD_REACTORS
330
FF
102
}
330
FF
100
AcDbXrecord
280
     1
102
RTVSPropertyOp0
 70
     1
102
RTVSPropertyOp1
 70
     1
102
RTVSPropertyOp2
 70
     1
102
RTVSPropertyOp3
 70
     1
102
RTVSPropertyOp4
 70
     1
102
RTVSPropertyOp5
 70
     1
102
RTVSPropertyOp6
 70
     1
102
RTVSPropertyOp7
 70
     1
102
RTVSPropertyOp8
 70
     1
102
RTVSPropertyOp9
 70
     1
102
RTVSPropertyOp10
 70
     1
102
RTVSPropertyOp11
 70
     1
102
RTVSPropertyOp12
 70
     1
102
RTVSPropertyOp13
 70
     1
102
RTVSPropertyOp14
 70
     1
102
RTVSPropertyOp15
 70
     1
102
RTVSPropertyOp16
 70
     1
102
RTVSPropertyOp17
 70
     1
102
RTVSPropertyOp18
 70
     1
102
RTVSPropertyOp19
 70
     1
102
RTVSPropertyOp20
 70
     1
102
RTVSPropertyOp21
 70
     1
102
RTVSPropertyOp22
 70
     1
102
RTVSPropertyOp23
 70
     1
102
RTVSPropertyOp24
 70
     1
102
RTVSPropertyOp25
 70
     1
102
RTVSPropertyOp26
 70
     1
102
RTVSPropertyOp27
 70
     1
102
RTVSPropertyOp28
 70
     1
102
RTVSPropertyOp29
 70
     1
102
RTVSPropertyOp30
 70
     1
102
RTVSPropertyOp31
 70
     1
102
RTVSPropertyOp32
 70
     1
  0
XRECORD
  5
108
102
{ACAD_REACTORS
330
107
102
}
330
107
100
AcDbXrecord
280
     1
102
RTVSPropertyOp0
 70
     1
102
RTVSPropertyOp1
 70
     1
102
RTVSPropertyOp2
 70
     1
102
RTVSPropertyOp3
 70
     1
102
RTVSPropertyOp4
 70
     1
102
RTVSPropertyOp5
 70
     1
102
RTVSPropertyOp6
 70
     1
102
RTVSPropertyOp7
 70
     1
102
RTVSPropertyOp8
 70
     1
102
RTVSPropertyOp9
 70
     1
102
RTVSPropertyOp10
 70
     1
102
RTVSPropertyOp11
 70
     1
102
RTVSPropertyOp12
 70
     1
102
RTVSPropertyOp13
 70
     1
102
RTVSPropertyOp14
 70
     1
102
RTVSPropertyOp15
 70
     1
102
RTVSPropertyOp16
 70
     1
102
RTVSPropertyOp17
 70
     1
102
RTVSPropertyOp18
 70
     1
102
RTVSPropertyOp19
 70
     1
102
RTVSPropertyOp20
 70
     1
102
RTVSPropertyOp21
 70
     1
102
RTVSPropertyOp22
 70
     1
102
RTVSPropertyOp23
 70
     1
102
RTVSPropertyOp24
 70
     1
102
RTVSPropertyOp25
 70
     1
102
RTVSPropertyOp26
 70
     1
102
RTVSPropertyOp27
 70
     1
102
RTVSPropertyOp28
 70
     1
102
RTVSPropertyOp29
 70
     1
102
RTVSPropertyOp30
 70
     1
102
RTVSPropertyOp31
 70
     1
102
RTVSPropertyOp32
 70
     1
  0
XRECORD
  5
FC
102
{ACAD_REACTORS
330
FB
102
}
330
FB
100
AcDbXrecord
280
     1
102
RTVSPropertyOp0
 70
     1
102
RTVSPropertyOp1
 70
     1
102
RTVSPropertyOp2
 70
     1
102
RTVSPropertyOp3
 70
     1
102
RTVSPropertyOp4
 70
     1
102
RTVSPropertyOp5
 70
     1
102
RTVSPropertyOp6
 70
     1
102
RTVSPropertyOp7
 70
     1
102
RTVSPropertyOp8
 70
     1
102
RTVSPropertyOp9
 70
     1
102
RTVSPropertyOp10
 70
     1
102
RTVSPropertyOp11
 70
     1
102
RTVSPropertyOp12
 70
     1
102
RTVSPropertyOp13
 70
     1
102
RTVSPropertyOp14
 70
     1
102
RTVSPropertyOp15
 70
     1
102
RTVSPropertyOp16
 70
     1
102
RTVSPropertyOp17
 70
     1
102
RTVSPropertyOp18
 70
     1
102
RTVSPropertyOp19
 70
     1
102
RTVSPropertyOp20
 70
     1
102
RTVSPropertyOp21
 70
     1
102
RTVSPropertyOp22
 70
     1
102
RTVSPropertyOp23
 70
     1
102
RTVSPropertyOp24
 70
     1
102
RTVSPropertyOp25
 70
     1
102
RTVSPropertyOp26
 70
     1
102
RTVSPropertyOp27
 70
     1
102
RTVSPropertyOp28
 70
     1
102
RTVSPropertyOp29
 70
     1
102
RTVSPropertyOp30
 70
     1
102
RTVSPropertyOp31
 70
     1
102
RTVSPropertyOp32
 70
     1
  0
XRECORD
  5
FE
102
{ACAD_REACTORS
330
FD
102
}
330
FD
100
AcDbXrecord
280
     1
102
RTVSPropertyOp0
 70
     1
102
RTVSPropertyOp1
 70
     1
102
RTVSPropertyOp2
 70
     1
102
RTVSPropertyOp3
 70
     1
102
RTVSPropertyOp4
 70
     1
102
RTVSPropertyOp5
 70
     1
102
RTVSPropertyOp6
 70
     1
102
RTVSPropertyOp7
 70
     1
102
RTVSPropertyOp8
 70
     1
102
RTVSPropertyOp9
 70
     1
102
RTVSPropertyOp10
 70
     1
102
RTVSPropertyOp11
 70
     1
102
RTVSPropertyOp12
 70
     1
102
RTVSPropertyOp13
 70
     1
102
RTVSPropertyOp14
 70
     1
102
RTVSPropertyOp15
 70
     1
102
RTVSPropertyOp16
 70
     1
102
RTVSPropertyOp17
 70
     1
102
RTVSPropertyOp18
 70
     1
102
RTVSPropertyOp19
 70
     1
102
RTVSPropertyOp20
 70
     1
102
RTVSPropertyOp21
 70
     1
102
RTVSPropertyOp22
 70
     1
102
RTVSPropertyOp23
 70
     1
102
RTVSPropertyOp24
 70
     1
102
RTVSPropertyOp25
 70
     1
102
RTVSPropertyOp26
 70
     1
102
RTVSPropertyOp27
 70
     1
102
RTVSPropertyOp28
 70
     1
102
RTVSPropertyOp29
 70
     1
102
RTVSPropertyOp30
 70
     1
102
RTVSPropertyOp31
 70
     1
102
RTVSPropertyOp32
 70
     1
  0
XRECORD
  5
106
102
{ACAD_REACTORS
330
105
102
}
330
105
100
AcDbXrecord
280
     1
102
RTVSPropertyOp0
 70
     1
102
RTVSPropertyOp1
 70
     1
102
RTVSPropertyOp2
 70
     1
102
RTVSPropertyOp3
 70
     1
102
RTVSPropertyOp4
 70
     1
102
RTVSPropertyOp5
 70
     1
102
RTVSPropertyOp6
 70
     1
102
RTVSPropertyOp7
 70
     1
102
RTVSPropertyOp8
 70
     1
102
RTVSPropertyOp9
 70
     1
102
RTVSPropertyOp10
 70
     1
102
RTVSPropertyOp11
 70
     1
102
RTVSPropertyOp12
 70
     1
102
RTVSPropertyOp13
 70
     1
102
RTVSPropertyOp14
 70
     1
102
RTVSPropertyOp15
 70
     1
102
RTVSPropertyOp16
 70
     1
102
RTVSPropertyOp17
 70
     1
102
RTVSPropertyOp18
 70
     1
102
RTVSPropertyOp19
 70
     1
102
RTVSPropertyOp20
 70
     1
102
RTVSPropertyOp21
 70
     1
102
RTVSPropertyOp22
 70
     1
102
RTVSPropertyOp23
 70
     1
102
RTVSPropertyOp24
 70
     1
102
RTVSPropertyOp25
 70
     1
102
RTVSPropertyOp26
 70
     1
102
RTVSPropertyOp27
 70
     1
102
RTVSPropertyOp28
 70
     1
102
RTVSPropertyOp29
 70
     1
102
RTVSPropertyOp30
 70
     1
102
RTVSPropertyOp31
 70
     1
102
RTVSPropertyOp32
 70
     1
  0
XRECORD
  5
EA
102
{ACAD_REACTORS
330
E9
102
}
330
E9
100
AcDbXrecord
280
     1
102
RTVSPropertyOp0
 70
     1
102
RTVSPropertyOp1
 70
     1
102
RTVSPropertyOp2
 70
     1
102
RTVSPropertyOp3
 70
     1
102
RTVSPropertyOp4
 70
     1
102
RTVSPropertyOp5
 70
     1
102
RTVSPropertyOp6
 70
     1
102
RTVSPropertyOp7
 70
     1
102
RTVSPropertyOp8
 70
     1
102
RTVSPropertyOp9
 70
     1
102
RTVSPropertyOp10
 70
     1
102
RTVSPropertyOp11
 70
     1
102
RTVSPropertyOp12
 70
     1
102
RTVSPropertyOp13
 70
     1
102
RTVSPropertyOp14
 70
     1
102
RTVSPropertyOp15
 70
     1
102
RTVSPropertyOp16
 70
     1
102
RTVSPropertyOp17
 70
     1
102
RTVSPropertyOp18
 70
     1
102
RTVSPropertyOp19
 70
     1
102
RTVSPropertyOp20
 70
     1
102
RTVSPropertyOp21
 70
     1
102
RTVSPropertyOp22
 70
     1
102
RTVSPropertyOp23
 70
     1
102
RTVSPropertyOp24
 70
     1
102
RTVSPropertyOp25
 70
     1
102
RTVSPropertyOp26
 70
     1
102
RTVSPropertyOp27
 70
     1
102
RTVSPropertyOp28
 70
     1
102
RTVSPropertyOp29
 70
     1
102
RTVSPropertyOp30
 70
     1
102
RTVSPropertyOp31
 70
     1
102
RTVSPropertyOp32
 70
     1
  0
XRECORD
  5
EC
102
{ACAD_REACTORS
330
EB
102
}
330
EB
100
AcDbXrecord
280
     1
102
RTVSPropertyOp0
 70
     1
102
RTVSPropertyOp1
 70
     1
102
RTVSPropertyOp2
 70
     1
102
RTVSPropertyOp3
 70
     1
102
RTVSPropertyOp4
 70
     1
102
RTVSPropertyOp5
 70
     1
102
RTVSPropertyOp6
 70
     1
102
RTVSPropertyOp7
 70
     1
102
RTVSPropertyOp8
 70
     1
102
RTVSPropertyOp9
 70
     1
102
RTVSPropertyOp10
 70
     1
102
RTVSPropertyOp11
 70
     1
102
RTVSPropertyOp12
 70
     1
102
RTVSPropertyOp13
 70
     1
102
RTVSPropertyOp14
 70
     1
102
RTVSPropertyOp15
 70
     1
102
RTVSPropertyOp16
 70
     1
102
RTVSPropertyOp17
 70
     1
102
RTVSPropertyOp18
 70
     1
102
RTVSPropertyOp19
 70
     1
102
RTVSPropertyOp20
 70
     1
102
RTVSPropertyOp21
 70
     1
102
RTVSPropertyOp22
 70
     1
102
RTVSPropertyOp23
 70
     1
102
RTVSPropertyOp24
 70
     1
102
RTVSPropertyOp25
 70
     1
102
RTVSPropertyOp26
 70
     1
102
RTVSPropertyOp27
 70
     1
102
RTVSPropertyOp28
 70
     1
102
RTVSPropertyOp29
 70
     1
102
RTVSPropertyOp30
 70
     1
102
RTVSPropertyOp31
 70
     1
102
RTVSPropertyOp32
 70
     1
  0
XRECORD
  5
EE
102
{ACAD_REACTORS
330
ED
102
}
330
ED
100
AcDbXrecord
280
     1
102
RTVSPropertyOp0
 70
     1
102
RTVSPropertyOp1
 70
     1
102
RTVSPropertyOp2
 70
     1
102
RTVSPropertyOp3
 70
     1
102
RTVSPropertyOp4
 70
     1
102
RTVSPropertyOp5
 70
     1
102
RTVSPropertyOp6
 70
     1
102
RTVSPropertyOp7
 70
     1
102
RTVSPropertyOp8
 70
     1
102
RTVSPropertyOp9
 70
     1
102
RTVSPropertyOp10
 70
     1
102
RTVSPropertyOp11
 70
     1
102
RTVSPropertyOp12
 70
     1
102
RTVSPropertyOp13
 70
     1
102
RTVSPropertyOp14
 70
     1
102
RTVSPropertyOp15
 70
     1
102
RTVSPropertyOp16
 70
     1
102
RTVSPropertyOp17
 70
     1
102
RTVSPropertyOp18
 70
     1
102
RTVSPropertyOp19
 70
     1
102
RTVSPropertyOp20
 70
     1
102
RTVSPropertyOp21
 70
     1
102
RTVSPropertyOp22
 70
     1
102
RTVSPropertyOp23
 70
     1
102
RTVSPropertyOp24
 70
     1
102
RTVSPropertyOp25
 70
     1
102
RTVSPropertyOp26
 70
     1
102
RTVSPropertyOp27
 70
     1
102
RTVSPropertyOp28
 70
     1
102
RTVSPropertyOp29
 70
     1
102
RTVSPropertyOp30
 70
     1
102
RTVSPropertyOp31
 70
     1
102
RTVSPropertyOp32
 70
     1
  0
XRECORD
  5
F0
102
{ACAD_REACTORS
330
EF
102
}
330
EF
100
AcDbXrecord
280
     1
102
RTVSPropertyOp0
 70
     1
102
RTVSPropertyOp1
 70
     1
102
RTVSPropertyOp2
 70
     1
102
RTVSPropertyOp3
 70
     1
102
RTVSPropertyOp4
 70
     1
102
RTVSPropertyOp5
 70
     1
102
RTVSPropertyOp6
 70
     1
102
RTVSPropertyOp7
 70
     1
102
RTVSPropertyOp8
 70
     1
102
RTVSPropertyOp9
 70
     1
102
RTVSPropertyOp10
 70
     1
102
RTVSPropertyOp11
 70
     1
102
RTVSPropertyOp12
 70
     1
102
RTVSPropertyOp13
 70
     1
102
RTVSPropertyOp14
 70
     1
102
RTVSPropertyOp15
 70
     1
102
RTVSPropertyOp16
 70
     1
102
RTVSPropertyOp17
 70
     1
102
RTVSPropertyOp18
 70
     1
102
RTVSPropertyOp19
 70
     1
102
RTVSPropertyOp20
 70
     1
102
RTVSPropertyOp21
 70
     1
102
RTVSPropertyOp22
 70
     1
102
RTVSPropertyOp23
 70
     1
102
RTVSPropertyOp24
 70
     1
102
RTVSPropertyOp25
 70
     1
102
RTVSPropertyOp26
 70
     1
102
RTVSPropertyOp27
 70
     1
102
RTVSPropertyOp28
 70
     1
102
RTVSPropertyOp29
 70
     1
102
RTVSPropertyOp30
 70
     1
102
RTVSPropertyOp31
 70
     1
102
RTVSPropertyOp32
 70
     1
  0
XRECORD
  5
104
102
{ACAD_REACTORS
330
103
102
}
330
103
100
AcDbXrecord
280
     1
102
RTVSPropertyOp0
 70
     1
102
RTVSPropertyOp1
 70
     1
102
RTVSPropertyOp2
 70
     1
102
RTVSPropertyOp3
 70
     1
102
RTVSPropertyOp4
 70
     1
102
RTVSPropertyOp5
 70
     1
102
RTVSPropertyOp6
 70
     1
102
RTVSPropertyOp7
 70
     1
102
RTVSPropertyOp8
 70
     1
102
RTVSPropertyOp9
 70
     1
102
RTVSPropertyOp10
 70
     1
102
RTVSPropertyOp11
 70
     1
102
RTVSPropertyOp12
 70
     1
102
RTVSPropertyOp13
 70
     1
102
RTVSPropertyOp14
 70
     1
102
RTVSPropertyOp15
 70
     1
102
RTVSPropertyOp16
 70
     1
102
RTVSPropertyOp17
 70
     1
102
RTVSPropertyOp18
 70
     1
102
RTVSPropertyOp19
 70
     1
102
RTVSPropertyOp20
 70
     1
102
RTVSPropertyOp21
 70
     1
102
RTVSPropertyOp22
 70
     1
102
RTVSPropertyOp23
 70
     1
102
RTVSPropertyOp24
 70
     1
102
RTVSPropertyOp25
 70
     1
102
RTVSPropertyOp26
 70
     1
102
RTVSPropertyOp27
 70
     1
102
RTVSPropertyOp28
 70
     1
102
RTVSPropertyOp29
 70
     1
102
RTVSPropertyOp30
 70
     1
102
RTVSPropertyOp31
 70
     1
102
RTVSPropertyOp32
 70
     1
  0
XRECORD
  5
FA
102
{ACAD_REACTORS
330
F9
102
}
330
F9
100
AcDbXrecord
280
     1
102
RTVSPropertyOp0
 70
     1
102
RTVSPropertyOp1
 70
     1
102
RTVSPropertyOp2
 70
     1
102
RTVSPropertyOp3
 70
     1
102
RTVSPropertyOp4
 70
     1
102
RTVSPropertyOp5
 70
     1
102
RTVSPropertyOp6
 70
     1
102
RTVSPropertyOp7
 70
     1
102
RTVSPropertyOp8
 70
     1
102
RTVSPropertyOp9
 70
     1
102
RTVSPropertyOp10
 70
     1
102
RTVSPropertyOp11
 70
     1
102
RTVSPropertyOp12
 70
     1
102
RTVSPropertyOp13
 70
     1
102
RTVSPropertyOp14
 70
     1
102
RTVSPropertyOp15
 70
     1
102
RTVSPropertyOp16
 70
     1
102
RTVSPropertyOp17
 70
     1
102
RTVSPropertyOp18
 70
     1
102
RTVSPropertyOp19
 70
     1
102
RTVSPropertyOp20
 70
     1
102
RTVSPropertyOp21
 70
     1
102
RTVSPropertyOp22
 70
     1
102
RTVSPropertyOp23
 70
     1
102
RTVSPropertyOp24
 70
     1
102
RTVSPropertyOp25
 70
     1
102
RTVSPropertyOp26
 70
     1
102
RTVSPropertyOp27
 70
     1
102
RTVSPropertyOp28
 70
     1
102
RTVSPropertyOp29
 70
     1
102
RTVSPropertyOp30
 70
     1
102
RTVSPropertyOp31
 70
     1
102
RTVSPropertyOp32
 70
     1
  0
XRECORD
  5
102
102
{ACAD_REACTORS
330
101
102
}
330
101
100
AcDbXrecord
280
     1
102
RTVSPropertyOp0
 70
     1
102
RTVSPropertyOp1
 70
     1
102
RTVSPropertyOp2
 70
     1
102
RTVSPropertyOp3
 70
     1
102
RTVSPropertyOp4
 70
     1
102
RTVSPropertyOp5
 70
     1
102
RTVSPropertyOp6
 70
     1
102
RTVSPropertyOp7
 70
     1
102
RTVSPropertyOp8
 70
     1
102
RTVSPropertyOp9
 70
     1
102
RTVSPropertyOp10
 70
     1
102
RTVSPropertyOp11
 70
     1
102
RTVSPropertyOp12
 70
     1
102
RTVSPropertyOp13
 70
     1
102
RTVSPropertyOp14
 70
     1
102
RTVSPropertyOp15
 70
     1
102
RTVSPropertyOp16
 70
     1
102
RTVSPropertyOp17
 70
     1
102
RTVSPropertyOp18
 70
     1
102
RTVSPropertyOp19
 70
     1
102
RTVSPropertyOp20
 70
     1
102
RTVSPropertyOp21
 70
     1
102
RTVSPropertyOp22
 70
     1
102
RTVSPropertyOp23
 70
     1
102
RTVSPropertyOp24
 70
     1
102
RTVSPropertyOp25
 70
     1
102
RTVSPropertyOp26
 70
     1
102
RTVSPropertyOp27
 70
     1
102
RTVSPropertyOp28
 70
     1
102
RTVSPropertyOp29
 70
     1
102
RTVSPropertyOp30
 70
     1
102
RTVSPropertyOp31
 70
     1
102
RTVSPropertyOp32
 70
     1
  0
ENDSEC
  0
EOF
