  0
SECTION
  2
HEADER
  9
$ACADVER
  1
AC1021
  9
$ACADMAINTVER
 70
    25
  9
$DWGCODEPAGE
  3
ANSI_1252
  9
$INSBASE
 10
0.0
 20
0.0
 30
0.0
  9
$EXTMIN
 10
-16.47646
 20
-5.22646
 30
0.0
  9
$EXTMAX
 10
16.47646
 20
5.22646
 30
0.0
  9
$LIMMIN
 10
0.0
 20
0.0
  9
$LIMMAX
 10
12.0
 20
9.0
  9
$ORTHOMODE
 70
     0
  9
$REGENMODE
 70
     1
  9
$FILLMODE
 70
     1
  9
$QTEXTMODE
 70
     0
  9
$MIRRTEXT
 70
     1
  9
$LTSCALE
 40
1.0
  9
$ATTMODE
 70
     1
  9
$TEXTSIZE
 40
0.2
  9
$TRACEWID
 40
0.05
  9
$TEXTSTYLE
  7
Standard
  9
$CLAYER
  8
0
  9
$CELTYPE
  6
ByLayer
  9
$CECOLOR
 62
   256
  9
$CELTSCALE
 40
1.0
  9
$DISPSILH
 70
     0
  9
$DIMSCALE
 40
1.0
  9
$DIMASZ
 40
0.18
  9
$DIMEXO
 40
0.0625
  9
$DIMDLI
 40
0.38
  9
$DIMRND
 40
0.0
  9
$DIMDLE
 40
0.0
  9
$DIMEXE
 40
0.18
  9
$DIMTP
 40
0.0
  9
$DIMTM
 40
0.0
  9
$DIMTXT
 40
0.18
  9
$DIMCEN
 40
0.09
  9
$DIMTSZ
 40
0.0
  9
$DIMTOL
 70
     0
  9
$DIMLIM
 70
     0
  9
$DIMTIH
 70
     1
  9
$DIMTOH
 70
     1
  9
$DIMSE1
 70
     0
  9
$DIMSE2
 70
     0
  9
$DIMTAD
 70
     0
  9
$DIMZIN
 70
     0
  9
$DIMBLK
  1

  9
$DIMASO
 70
     1
  9
$DIMSHO
 70
     1
  9
$DIMPOST
  1

  9
$DIMAPOST
  1

  9
$DIMALT
 70
     0
  9
$DIMALTD
 70
     2
  9
$DIMALTF
 40
25.4
  9
$DIMLFAC
 40
1.0
  9
$DIMTOFL
 70
     0
  9
$DIMTVP
 40
0.0
  9
$DIMTIX
 70
     0
  9
$DIMSOXD
 70
     0
  9
$DIMSAH
 70
     0
  9
$DIMBLK1
  1

  9
$DIMBLK2
  1

  9
$DIMSTYLE
  2
Standard
  9
$DIMCLRD
 70
     0
  9
$DIMCLRE
 70
     0
  9
$DIMCLRT
 70
     0
  9
$DIMTFAC
 40
1.0
  9
$DIMGAP
 40
0.09
  9
$DIMJUST
 70
     0
  9
$DIMSD1
 70
     0
  9
$DIMSD2
 70
     0
  9
$DIMTOLJ
 70
     1
  9
$DIMTZIN
 70
     0
  9
$DIMALTZ
 70
     0
  9
$DIMALTTZ
 70
     0
  9
$DIMUPT
 70
     0
  9
$DIMDEC
 70
     4
  9
$DIMTDEC
 70
     4
  9
$DIMALTU
 70
     2
  9
$DIMALTTD
 70
     2
  9
$DIMTXSTY
  7
Standard
  9
$DIMAUNIT
 70
     0
  9
$DIMADEC
 70
     0
  9
$DIMALTRND
 40
0.0
  9
$DIMAZIN
 70
     0
  9
$DIMDSEP
 70
    46
  9
$DIMATFIT
 70
     3
  9
$DIMFRAC
 70
     0
  9
$DIMLDRBLK
  1

  9
$DIMLUNIT
 70
     2
  9
$DIMLWD
 70
    -2
  9
$DIMLWE
 70
    -2
  9
$DIMTMOVE
 70
     0
  9
$DIMFXL
 40
1.0
  9
$DIMFXLON
 70
     0
  9
$DIMJOGANG
 40
0.7853981633974483
  9
$DIMTFILL
 70
     0
  9
$DIMTFILLCLR
 70
     0
  9
$DIMARCSYM
 70
     0
  9
$DIMLTYPE
  6

  9
$DIMLTEX1
  6

  9
$DIMLTEX2
  6

  9
$LUNITS
 70
     2
  9
$LUPREC
 70
     4
  9
$SKETCHINC
 40
0.1
  9
$FILLETRAD
 40
0.5
  9
$AUNITS
 70
     0
  9
$AUPREC
 70
     0
  9
$MENU
  1
.
  9
$ELEVATION
 40
0.0
  9
$PELEVATION
 40
0.0
  9
$THICKNESS
 40
0.0
  9
$LIMCHECK
 70
     0
  9
$CHAMFERA
 40
0.5
  9
$CHAMFERB
 40
0.5
  9
$CHAMFERC
 40
1.0
  9
$CHAMFERD
 40
0.0
  9
$SKPOLY
 70
     0
  9
$TDCREATE
 40
2460365.770204838
  9
$TDUCREATE
 40
2460365.770204838
  9
$TDUPDATE
 40
2460365.770205139
  9
$TDUUPDATE
 40
2460365.770205139
  9
$TDINDWG
 40
0.0000000116
  9
$TDUSRTIMER
 40
0.0000000116
  9
$USRTIMER
 70
     1
  9
$ANGBASE
 50
0.0
  9
$ANGDIR
 70
     0
  9
$PDMODE
 70
     0
  9
$PDSIZE
 40
0.0
  9
$PLINEWID
 40
0.0
  9
$SPLFRAME
 70
     0
  9
$SPLINETYPE
 70
     6
  9
$SPLINESEGS
 70
     8
  9
$HANDSEED
  5
B7
  9
$SURFTAB1
 70
     6
  9
$SURFTAB2
 70
     6
  9
$SURFTYPE
 70
     6
  9
$SURFU
 70
     6
  9
$SURFV
 70
     6
  9
$UCSBASE
  2

  9
$UCSNAME
  2

  9
$UCSORG
 10
0.0
 20
0.0
 30
0.0
  9
$UCSXDIR
 10
1.0
 20
0.0
 30
0.0
  9
$UCSYDIR
 10
0.0
 20
1.0
 30
0.0
  9
$UCSORTHOREF
  2

  9
$UCSORTHOVIEW
 70
     0
  9
$UCSORGTOP
 10
0.0
 20
0.0
 30
0.0
  9
$UCSORGBOTTOM
 10
0.0
 20
0.0
 30
0.0
  9
$UCSORGLEFT
 10
0.0
 20
0.0
 30
0.0
  9
$UCSORGRIGHT
 10
0.0
 20
0.0
 30
0.0
  9
$UCSORGFRONT
 10
0.0
 20
0.0
 30
0.0
  9
$UCSORGBACK
 10
0.0
 20
0.0
 30
0.0
  9
$PUCSBASE
  2

  9
$PUCSNAME
  2

  9
$PUCSORG
 10
0.0
 20
0.0
 30
0.0
  9
$PUCSXDIR
 10
1.0
 20
0.0
 30
0.0
  9
$PUCSYDIR
 10
0.0
 20
1.0
 30
0.0
  9
$PUCSORTHOREF
  2

  9
$PUCSORTHOVIEW
 70
     0
  9
$PUCSORGTOP
 10
0.0
 20
0.0
 30
0.0
  9
$PUCSORGBOTTOM
 10
0.0
 20
0.0
 30
0.0
  9
$PUCSORGLEFT
 10
0.0
 20
0.0
 30
0.0
  9
$PUCSORGRIGHT
 10
0.0
 20
0.0
 30
0.0
  9
$PUCSORGFRONT
 10
0.0
 20
0.0
 30
0.0
  9
$PUCSORGBACK
 10
0.0
 20
0.0
 30
0.0
  9
$USERI1
 70
     0
  9
$USERI2
 70
     0
  9
$USERI3
 70
     0
  9
$USERI4
 70
     0
  9
$USERI5
 70
     0
  9
$USERR1
 40
0.0
  9
$USERR2
 40
0.0
  9
$USERR3
 40
0.0
  9
$USERR4
 40
0.0
  9
$USERR5
 40
0.0
  9
$WORLDVIEW
 70
     1
  9
$SHADEDGE
 70
     3
  9
$SHADEDIF
 70
    70
  9
$TILEMODE
 70
     1
  9
$MAXACTVP
 70
    64
  9
$PINSBASE
 10
0.0
 20
0.0
 30
0.0
  9
$PLIMCHECK
 70
     0
  9
$PEXTMIN
 10
1.000000000000000E+20
 20
1.000000000000000E+20
 30
1.000000000000000E+20
  9
$PEXTMAX
 10
-1.000000000000000E+20
 20
-1.000000000000000E+20
 30
-1.000000000000000E+20
  9
$PLIMMIN
 10
0.0
 20
0.0
  9
$PLIMMAX
 10
12.0
 20
9.0
  9
$UNITMODE
 70
     0
  9
$VISRETAIN
 70
     1
  9
$PLINEGEN
 70
     0
  9
$PSLTSCALE
 70
     1
  9
$TREEDEPTH
 70
  3020
  9
$CMLSTYLE
  2
Standard
  9
$CMLJUST
 70
     0
  9
$CMLSCALE
 40
1.0
  9
$PROXYGRAPHICS
 70
     1
  9
$MEASUREMENT
 70
     0
  9
$CELWEIGHT
370
    -1
  9
$ENDCAPS
280
     0
  9
$JOINSTYLE
280
     0
  9
$LWDISPLAY
290
     0
  9
$INSUNITS
 70
     5
  9
$HYPERLINKBASE
  1

  9
$STYLESHEET
  1

  9
$XEDIT
290
     1
  9
$CEPSNTYPE
380
     0
  9
$PSTYLEMODE
290
     1
  9
$FINGERPRINTGUID
  2
{6F75F824-6D08-4ADA-BFC0-FAA70BBE2776}
  9
$VERSIONGUID
  2
{FAEB1C32-E019-11D5-929B-00C0DF256EC4}
  9
$EXTNAMES
290
     1
  9
$PSVPSCALE
 40
0.0
  9
$OLESTARTUP
290
     0
  9
$SORTENTS
280
   127
  9
$INDEXCTL
280
     0
  9
$HIDETEXT
280
     1
  9
$XCLIPFRAME
290
     0
  9
$HALOGAP
280
     0
  9
$OBSCOLOR
 70
   257
  9
$OBSLTYPE
280
     0
  9
$INTERSECTIONDISPLAY
280
     0
  9
$INTERSECTIONCOLOR
 70
   257
  9
$DIMASSOC
280
     2
  9
$PROJECTNAME
  1

  9
$CAMERADISPLAY
290
     0
  9
$LENSLENGTH
 40
50.0
  9
$CAMERAHEIGHT
 40
0.0
  9
$STEPSPERSEC
 40
2.0
  9
$STEPSIZE
 40
6.0
  9
$3DDWFPREC
 40
2.0
  9
$PSOLWIDTH
 40
0.25
  9
$PSOLHEIGHT
 40
4.0
  9
$LOFTANG1
 40
1.570796326794897
  9
$LOFTANG2
 40
1.570796326794897
  9
$LOFTMAG1
 40
0.0
  9
$LOFTMAG2
 40
0.0
  9
$LOFTPARAM
 70
     7
  9
$LOFTNORMALS
280
     1
  9
$LATITUDE
 40
37.795
  9
$LONGITUDE
 40
-122.394
  9
$NORTHDIRECTION
 40
0.0
  9
$TIMEZONE
 70
 -8000
  9
$LIGHTGLYPHDISPLAY
280
     1
  9
$TILEMODELIGHTSYNCH
280
     1
  9
$SOLIDHIST
280
     1
  9
$SHOWHIST
280
     1
  9
$DWFFRAME
280
     2
  9
$DGNFRAME
280
     2
  9
$REALWORLDSCALE
290
     1
  9
$INTERFERECOLOR
 62
   256
  9
$CSHADOW
280
     0
  9
$SHADOWPLANELOCATION
 40
0.0
  0
ENDSEC
  0
SECTION
  2
CLASSES
  0
CLASS
  1
ACDBDICTIONARYWDFLT
  2
AcDbDictionaryWithDefault
  3
ObjectDBX Classes
 90
        0
 91
        4
280
     0
281
     0
  0
CLASS
  1
VISUALSTYLE
  2
AcDbVisualStyle
  3
ObjectDBX Classes
 90
     4095
 91
        4
280
     0
281
     0
  0
CLASS
  1
MATERIAL
  2
AcDbMaterial
  3
ObjectDBX Classes
 90
     1153
 91
        4
280
     0
281
     0
  0
ENDSEC
  0
SECTION
  2
TABLES
  0
TABLE
  2
VPORT
  5
8
330
0
100
AcDbSymbolTable
 70
     1
  0
VPORT
  5
29
330
8
100
AcDbSymbolTableRecord
100
AcDbViewportTableRecord
  2
*Active
 70
     0
 10
0.0
 20
0.0
 11
1.0
 21
1.0
 12
10.42990654205607
 22
4.5
 13
0.0
 23
0.0
 14
0.5
 24
0.5
 15
0.5
 25
0.5
 16
0.0
 26
0.0
 36
1.0
 17
0.0
 27
0.0
 37
0.0
 40
9.0
 41
1.972972972850329
 42
50.0
 43
0.0
 44
0.0
 50
0.0
 51
0.0
 71
     0
 72
   100
 73
     1
 74
     3
 75
     0
 76
     0
 77
     0
 78
     0
281
     0
 65
     1
110
0.0
120
0.0
130
0.0
111
1.0
121
0.0
131
0.0
112
0.0
122
1.0
132
0.0
 79
     0
146
0.0
 60
     3
 61
     5
292
     1
282
     1
141
0.0
142
0.0
 63
   250
  0
ENDTAB
  0
TABLE
  2
LTYPE
  5
5
330
0
100
AcDbSymbolTable
 70
     1
  0
LTYPE
  5
14
330
5
100
AcDbSymbolTableRecord
100
AcDbLinetypeTableRecord
  2
ByBlock
 70
     0
  3

 72
    65
 73
     0
 40
0.0
  0
LTYPE
  5
15
330
5
100
AcDbSymbolTableRecord
100
AcDbLinetypeTableRecord
  2
ByLayer
 70
     0
  3

 72
    65
 73
     0
 40
0.0
  0
LTYPE
  5
16
330
5
100
AcDbSymbolTableRecord
100
AcDbLinetypeTableRecord
  2
Continuous
 70
     0
  3
Solid line
 72
    65
 73
     0
 40
0.0
  0
ENDTAB
  0
TABLE
  2
LAYER
  5
2
330
0
100
AcDbSymbolTable
 70
     2
  0
LAYER
  5
10
330
2
100
AcDbSymbolTableRecord
100
AcDbLayerTableRecord
  2
0
 70
     0
 62
     7
  6
Continuous
370
    -3
390
F
347
3E
  0
LAYER
  5
40
330
2
100
AcDbSymbolTableRecord
100
AcDbLayerTableRecord
  2
Layer 1
 70
     0
 62
     7
  6
Continuous
370
    -3
390
F
347
3E
  0
ENDTAB
  0
TABLE
  2
STYLE
  5
3
330
0
100
AcDbSymbolTable
 70
     1
  0
STYLE
  5
11
330
3
100
AcDbSymbolTableRecord
100
AcDbTextStyleTableRecord
  2
Standard
 70
     0
 40
0.0
 41
1.0
 50
0.0
 71
     0
 42
0.2
  3
txt
  4

  0
ENDTAB
  0
TABLE
  2
VIEW
  5
6
330
0
100
AcDbSymbolTable
 70
     0
  0
ENDTAB
  0
TABLE
  2
UCS
  5
7
330
0
100
AcDbSymbolTable
 70
     0
  0
ENDTAB
  0
TABLE
  2
APPID
  5
9
330
0
100
AcDbSymbolTable
 70
     2
  0
APPID
  5
12
330
9
100
AcDbSymbolTableRecord
100
AcDbRegAppTableRecord
  2
ACAD
 70
     0
  0
APPID
  5
3F
330
9
100
AcDbSymbolTableRecord
100
AcDbRegAppTableRecord
  2
ODA
 70
     0
  0
ENDTAB
  0
TABLE
  2
DIMSTYLE
  5
A
330
0
100
AcDbSymbolTable
 70
     1
100
AcDbDimStyleTable
  0
DIMSTYLE
105
27
330
A
100
AcDbSymbolTableRecord
100
AcDbDimStyleTableRecord
  2
Standard
 70
     0
178
     0
340
11
  0
ENDTAB
  0
TABLE
  2
BLOCK_RECORD
  5
1
330
0
100
AcDbSymbolTable
 70
     1
  0
BLOCK_RECORD
  5
1F
330
1
100
AcDbSymbolTableRecord
100
AcDbBlockTableRecord
  2
*Model_Space
340
22
 70
     0
280
     1
281
     0
  0
BLOCK_RECORD
  5
1B
330
1
100
AcDbSymbolTableRecord
100
AcDbBlockTableRecord
  2
*Paper_Space
340
1E
 70
     0
280
     1
281
     0
  0
BLOCK_RECORD
  5
23
330
1
100
AcDbSymbolTableRecord
100
AcDbBlockTableRecord
  2
*Paper_Space0
340
26
 70
     0
280
     1
281
     0
  0
ENDTAB
  0
ENDSEC
  0
SECTION
  2
BLOCKS
  0
BLOCK
  5
20
330
1F
100
AcDbEntity
  8
0
100
AcDbBlockBegin
  2
*Model_Space
 70
     0
 10
0.0
 20
0.0
 30
0.0
  3
*Model_Space
  1

  0
ENDBLK
  5
21
330
1F
100
AcDbEntity
  8
0
100
AcDbBlockEnd
  0
BLOCK
  5
1C
330
1B
100
AcDbEntity
 67
     1
  8
0
100
AcDbBlockBegin
  2
*Paper_Space
 70
     0
 10
0.0
 20
0.0
 30
0.0
  3
*Paper_Space
  1

  0
ENDBLK
  5
1D
330
1B
100
AcDbEntity
 67
     1
  8
0
100
AcDbBlockEnd
  0
BLOCK
  5
24
330
23
100
AcDbEntity
  8
0
100
AcDbBlockBegin
  2
*Paper_Space0
 70
     0
 10
0.0
 20
0.0
 30
0.0
  3
*Paper_Space0
  1

  0
ENDBLK
  5
25
330
23
100
AcDbEntity
  8
0
100
AcDbBlockEnd
  0
ENDSEC
  0
SECTION
  2
ENTITIES
  0
SPLINE
  5
41
330
1F
100
AcDbEntity
  8
Layer 1
370
    53
100
AcDbSpline
210
0.0
220
0.0
230
1.0
 70
    11
 71
     3
 72
    72
 73
    68
 74
     0
 42
0.0000000001
 43
0.0000000001
 12
1.0
 22
0.0
 32
0.0
 13
1.0
 23
0.0
 33
0.0
 40
0.0
 40
0.0
 40
0.0
 40
0.0
 40
0.0555555555555556
 40
0.0555555555555556
 40
0.0555555555555556
 40
0.0555555555555556
 40
0.1111111111111111
 40
0.1111111111111111
 40
0.1111111111111111
 40
0.1111111111111111
 40
0.1666666666666667
 40
0.1666666666666667
 40
0.1666666666666667
 40
0.1666666666666667
 40
0.2222222222222222
 40
0.2222222222222222
 40
0.2222222222222222
 40
0.2222222222222222
 40
0.2777777777777778
 40
0.2777777777777778
 40
0.2777777777777778
 40
0.2777777777777778
 40
0.3333333333333333
 40
0.3333333333333333
 40
0.3333333333333333
 40
0.3333333333333333
 40
0.3888888888888889
 40
0.3888888888888889
 40
0.3888888888888889
 40
0.3888888888888889
 40
0.4444444444444444
 40
0.4444444444444444
 40
0.4444444444444444
 40
0.4444444444444444
 40
0.5
 40
0.5
 40
0.5
 40
0.5
 40
0.5555555555555556
 40
0.5555555555555556
 40
0.5555555555555556
 40
0.5555555555555556
 40
0.6111111111111112
 40
0.6111111111111112
 40
0.6111111111111112
 40
0.6111111111111112
 40
0.6666666666666666
 40
0.6666666666666666
 40
0.6666666666666666
 40
0.6666666666666666
 40
0.7222222222222222
 40
0.7222222222222222
 40
0.7222222222222222
 40
0.7222222222222222
 40
0.7777777777777778
 40
0.7777777777777778
 40
0.7777777777777778
 40
0.7777777777777778
 40
0.8333333333333334
 40
0.8333333333333334
 40
0.8333333333333334
 40
0.8333333333333334
 40
0.8888888888888888
 40
0.8888888888888888
 40
0.8888888888888888
 40
0.8888888888888888
 40
1.0
 40
1.0
 40
1.0
 40
1.0
 10
-16.45
 20
0.7
 30
0.0
 10
-16.45
 20
0.7
 30
0.0
 10
-16.45
 20
4.7
 30
0.0
 10
-16.45
 20
4.7
 30
0.0
 10
-16.45
 20
4.7
 30
0.0
 10
-16.45
 20
4.97614
 30
0.0
 10
-16.22614
 20
5.2
 30
0.0
 10
-15.95
 20
5.2
 30
0.0
 10
-15.95
 20
5.2
 30
0.0
 10
-15.95
 20
5.2
 30
0.0
 10
15.95
 20
5.2
 30
0.0
 10
15.95
 20
5.2
 30
0.0
 10
15.95
 20
5.2
 30
0.0
 10
16.22614
 20
5.2
 30
0.0
 10
16.45
 20
4.97614
 30
0.0
 10
16.45
 20
4.7
 30
0.0
 10
16.45
 20
4.7
 30
0.0
 10
16.45
 20
4.7
 30
0.0
 10
16.45
 20
3.7
 30
0.0
 10
16.45
 20
3.7
 30
0.0
 10
16.45
 20
3.7
 30
0.0
 10
16.45
 20
3.7
 30
0.0
 10
14.05
 20
3.7
 30
0.0
 10
14.05
 20
3.7
 30
0.0
 10
14.05
 20
3.7
 30
0.0
 10
13.77386
 20
3.7
 30
0.0
 10
13.55
 20
3.47614
 30
0.0
 10
13.55
 20
3.2
 30
0.0
 10
13.55
 20
3.2
 30
0.0
 10
13.55
 20
3.2
 30
0.0
 10
13.55
 20
1.3
 30
0.0
 10
13.55
 20
1.3
 30
0.0
 10
13.55
 20
1.3
 30
0.0
 10
13.55
 20
1.02386
 30
0.0
 10
13.77386
 20
0.8
 30
0.0
 10
14.05
 20
0.8
 30
0.0
 10
14.05
 20
0.8
 30
0.0
 10
14.05
 20
0.8
 30
0.0
 10
16.45
 20
0.8
 30
0.0
 10
16.45
 20
0.8
 30
0.0
 10
16.45
 20
0.8
 30
0.0
 10
16.45
 20
0.8
 30
0.0
 10
16.45
 20
-4.7
 30
0.0
 10
16.45
 20
-4.7
 30
0.0
 10
16.45
 20
-4.7
 30
0.0
 10
16.45
 20
-4.97614
 30
0.0
 10
16.22614
 20
-5.2
 30
0.0
 10
15.95
 20
-5.2
 30
0.0
 10
15.95
 20
-5.2
 30
0.0
 10
15.95
 20
-5.2
 30
0.0
 10
-13.59164
 20
-5.2
 30
0.0
 10
-13.59164
 20
-5.2
 30
0.0
 10
-13.59164
 20
-5.2
 30
0.0
 10
-13.56488
 20
-5.13875
 30
0.0
 10
-13.55
 20
-5.07112
 30
0.0
 10
-13.55
 20
-5.0
 30
0.0
 10
-13.55
 20
-5.0
 30
0.0
 10
-13.55
 20
-5.0
 30
0.0
 10
-13.55
 20
0.2
 30
0.0
 10
-13.55
 20
0.2
 30
0.0
 10
-13.55
 20
0.2
 30
0.0
 10
-13.55
 20
0.47614
 30
0.0
 10
-13.77386
 20
0.7
 30
0.0
 10
-14.05
 20
0.7
 30
0.0
 10
-14.05
 20
0.7
 30
0.0
 10
-14.05
 20
0.7
 30
0.0
 10
-16.45
 20
0.7
 30
0.0
 10
-16.45
 20
0.7
 30
0.0
  0
SPLINE
  5
42
330
1F
100
AcDbEntity
  8
Layer 1
370
    53
100
AcDbSpline
210
0.0
220
0.0
230
1.0
 70
    11
 71
     3
 72
    36
 73
    32
 74
     0
 42
0.0000000001
 43
0.0000000001
 12
1.0
 22
0.0
 32
0.0
 13
1.0
 23
0.0
 33
0.0
 40
0.0
 40
0.0
 40
0.0
 40
0.0
 40
0.1111111111111111
 40
0.1111111111111111
 40
0.1111111111111111
 40
0.1111111111111111
 40
0.2222222222222222
 40
0.2222222222222222
 40
0.2222222222222222
 40
0.2222222222222222
 40
0.3333333333333333
 40
0.3333333333333333
 40
0.3333333333333333
 40
0.3333333333333333
 40
0.4444444444444444
 40
0.4444444444444444
 40
0.4444444444444444
 40
0.4444444444444444
 40
0.5555555555555556
 40
0.5555555555555556
 40
0.5555555555555556
 40
0.5555555555555556
 40
0.6666666666666666
 40
0.6666666666666666
 40
0.6666666666666666
 40
0.6666666666666666
 40
0.7777777777777778
 40
0.7777777777777778
 40
0.7777777777777778
 40
0.7777777777777778
 40
1.0
 40
1.0
 40
1.0
 40
1.0
 10
-2.85
 20
1.3
 30
0.0
 10
-2.85
 20
1.3
 30
0.0
 10
-2.85
 20
3.2
 30
0.0
 10
-2.85
 20
3.2
 30
0.0
 10
-2.85
 20
3.2
 30
0.0
 10
-2.85
 20
3.47614
 30
0.0
 10
-2.62614
 20
3.7
 30
0.0
 10
-2.35
 20
3.7
 30
0.0
 10
-2.35
 20
3.7
 30
0.0
 10
-2.35
 20
3.7
 30
0.0
 10
-0.45
 20
3.7
 30
0.0
 10
-0.45
 20
3.7
 30
0.0
 10
-0.45
 20
3.7
 30
0.0
 10
-0.17386
 20
3.7
 30
0.0
 10
0.05
 20
3.47614
 30
0.0
 10
0.05
 20
3.2
 30
0.0
 10
0.05
 20
3.2
 30
0.0
 10
0.05
 20
3.2
 30
0.0
 10
0.05
 20
1.3
 30
0.0
 10
0.05
 20
1.3
 30
0.0
 10
0.05
 20
1.3
 30
0.0
 10
0.05
 20
1.02386
 30
0.0
 10
-0.17386
 20
0.8
 30
0.0
 10
-0.45
 20
0.8
 30
0.0
 10
-0.45
 20
0.8
 30
0.0
 10
-0.45
 20
0.8
 30
0.0
 10
-2.35
 20
0.8
 30
0.0
 10
-2.35
 20
0.8
 30
0.0
 10
-2.35
 20
0.8
 30
0.0
 10
-2.62614
 20
0.8
 30
0.0
 10
-2.85
 20
1.02386
 30
0.0
 10
-2.85
 20
1.3
 30
0.0
  0
SPLINE
  5
43
330
1F
100
AcDbEntity
  8
Layer 1
 62
     5
370
    53
100
AcDbSpline
210
0.0
220
0.0
230
1.0
 70
    11
 71
     3
 72
    20
 73
    16
 74
     0
 42
0.0000000001
 43
0.0000000001
 12
1.0
 22
0.0
 32
0.0
 13
1.0
 23
0.0
 33
0.0
 40
0.0
 40
0.0
 40
0.0
 40
0.0
 40
0.2
 40
0.2
 40
0.2
 40
0.2
 40
0.4
 40
0.4
 40
0.4
 40
0.4
 40
0.6
 40
0.6
 40
0.6
 40
0.6
 40
1.0
 40
1.0
 40
1.0
 40
1.0
 10
-14.6
 20
3.55
 30
0.0
 10
-14.6
 20
3.55
 30
0.0
 10
14.6
 20
3.55
 30
0.0
 10
14.6
 20
3.55
 30
0.0
 10
14.6
 20
3.55
 30
0.0
 10
14.6
 20
3.55
 30
0.0
 10
14.6
 20
-5.2
 30
0.0
 10
14.6
 20
-5.2
 30
0.0
 10
14.6
 20
-5.2
 30
0.0
 10
14.6
 20
-5.2
 30
0.0
 10
-14.6
 20
-5.2
 30
0.0
 10
-14.6
 20
-5.2
 30
0.0
 10
-14.6
 20
-5.2
 30
0.0
 10
-14.6
 20
-5.2
 30
0.0
 10
-14.6
 20
3.55
 30
0.0
 10
-14.6
 20
3.55
 30
0.0
  0
SPLINE
  5
44
330
1F
100
AcDbEntity
  8
Layer 1
 62
     5
370
    53
100
AcDbSpline
210
0.0
220
0.0
230
1.0
 70
    11
 71
     3
 72
    92
 73
    88
 74
     0
 42
0.0000000001
 43
0.0000000001
 12
1.0
 22
0.0
 32
0.0
 13
1.0
 23
0.0
 33
0.0
 40
0.0
 40
0.0
 40
0.0
 40
0.0
 40
0.0434782608695652
 40
0.0434782608695652
 40
0.0434782608695652
 40
0.0434782608695652
 40
0.0869565217391304
 40
0.0869565217391304
 40
0.0869565217391304
 40
0.0869565217391304
 40
0.1304347826086956
 40
0.1304347826086956
 40
0.1304347826086956
 40
0.1304347826086956
 40
0.1739130434782609
 40
0.1739130434782609
 40
0.1739130434782609
 40
0.1739130434782609
 40
0.2173913043478261
 40
0.2173913043478261
 40
0.2173913043478261
 40
0.2173913043478261
 40
0.2608695652173913
 40
0.2608695652173913
 40
0.2608695652173913
 40
0.2608695652173913
 40
0.3043478260869565
 40
0.3043478260869565
 40
0.3043478260869565
 40
0.3043478260869565
 40
0.3478260869565217
 40
0.3478260869565217
 40
0.3478260869565217
 40
0.3478260869565217
 40
0.391304347826087
 40
0.391304347826087
 40
0.391304347826087
 40
0.391304347826087
 40
0.4347826086956522
 40
0.4347826086956522
 40
0.4347826086956522
 40
0.4347826086956522
 40
0.4782608695652174
 40
0.4782608695652174
 40
0.4782608695652174
 40
0.4782608695652174
 40
0.5217391304347826
 40
0.5217391304347826
 40
0.5217391304347826
 40
0.5217391304347826
 40
0.5652173913043478
 40
0.5652173913043478
 40
0.5652173913043478
 40
0.5652173913043478
 40
0.6086956521739131
 40
0.6086956521739131
 40
0.6086956521739131
 40
0.6086956521739131
 40
0.6521739130434783
 40
0.6521739130434783
 40
0.6521739130434783
 40
0.6521739130434783
 40
0.6956521739130435
 40
0.6956521739130435
 40
0.6956521739130435
 40
0.6956521739130435
 40
0.7391304347826086
 40
0.7391304347826086
 40
0.7391304347826086
 40
0.7391304347826086
 40
0.782608695652174
 40
0.782608695652174
 40
0.782608695652174
 40
0.782608695652174
 40
0.8260869565217391
 40
0.8260869565217391
 40
0.8260869565217391
 40
0.8260869565217391
 40
0.8695652173913043
 40
0.8695652173913043
 40
0.8695652173913043
 40
0.8695652173913043
 40
0.9130434782608695
 40
0.9130434782608695
 40
0.9130434782608695
 40
0.9130434782608695
 40
1.0
 40
1.0
 40
1.0
 40
1.0
 10
-2.82747
 20
-2.32013
 30
0.0
 10
-2.82747
 20
-2.32013
 30
0.0
 10
-2.82747
 20
-2.24563
 30
0.0
 10
-2.82747
 20
-2.24563
 30
0.0
 10
-2.82747
 20
-2.24563
 30
0.0
 10
-2.77427
 20
-2.27216
 30
0.0
 10
-2.72812
 20
-2.28542
 30
0.0
 10
-2.68875
 20
-2.28542
 30
0.0
 10
-2.68875
 20
-2.28542
 30
0.0
 10
-2.66533
 20
-2.28542
 30
0.0
 10
-2.64586
 20
-2.27907
 30
0.0
 10
-2.63047
 20
-2.26637
 30
0.0
 10
-2.63047
 20
-2.26637
 30
0.0
 10
-2.61509
 20
-2.25381
 30
0.0
 10
-2.60733
 20
-2.23801
 30
0.0
 10
-2.60733
 20
-2.21896
 30
0.0
 10
-2.60733
 20
-2.21896
 30
0.0
 10
-2.60733
 20
-2.19116
 30
0.0
 10
-2.62892
 20
-2.16816
 30
0.0
 10
-2.6721
 20
-2.14995
 30
0.0
 10
-2.6721
 20
-2.14995
 30
0.0
 10
-2.6721
 20
-2.14995
 30
0.0
 10
-2.71966
 20
-2.12977
 30
0.0
 10
-2.71966
 20
-2.12977
 30
0.0
 10
-2.71966
 20
-2.12977
 30
0.0
 10
-2.78979
 20
-2.1007
 30
0.0
 10
-2.82493
 20
-2.05865
 30
0.0
 10
-2.82493
 20
-2.00404
 30
0.0
 10
-2.82493
 20
-2.00404
 30
0.0
 10
-2.82493
 20
-1.96496
 30
0.0
 10
-2.8111
 20
-1.93419
 30
0.0
 10
-2.78344
 20
-1.91176
 30
0.0
 10
-2.78344
 20
-1.91176
 30
0.0
 10
-2.75578
 20
-1.88932
 30
0.0
 10
-2.71782
 20
-1.87817
 30
0.0
 10
-2.6697
 20
-1.87817
 30
0.0
 10
-2.6697
 20
-1.87817
 30
0.0
 10
-2.64473
 20
-1.87817
 30
0.0
 10
-2.61368
 20
-1.88156
 30
0.0
 10
-2.57685
 20
-1.88847
 30
0.0
 10
-2.57685
 20
-1.88847
 30
0.0
 10
-2.57685
 20
-1.88847
 30
0.0
 10
-2.55992
 20
-1.89172
 30
0.0
 10
-2.55992
 20
-1.89172
 30
0.0
 10
-2.55992
 20
-1.89172
 30
0.0
 10
-2.55992
 20
-1.89172
 30
0.0
 10
-2.55992
 20
-1.95945
 30
0.0
 10
-2.55992
 20
-1.95945
 30
0.0
 10
-2.55992
 20
-1.95945
 30
0.0
 10
-2.60522
 20
-1.94591
 30
0.0
 10
-2.64134
 20
-1.93913
 30
0.0
 10
-2.66829
 20
-1.93913
 30
0.0
 10
-2.66829
 20
-1.93913
 30
0.0
 10
-2.692
 20
-1.93913
 30
0.0
 10
-2.71077
 20
-1.94435
 30
0.0
 10
-2.72502
 20
-1.95465
 30
0.0
 10
-2.72502
 20
-1.95465
 30
0.0
 10
-2.73913
 20
-1.96496
 30
0.0
 10
-2.74619
 20
-1.97878
 30
0.0
 10
-2.74619
 20
-1.99614
 30
0.0
 10
-2.74619
 20
-1.99614
 30
0.0
 10
-2.74619
 20
-2.02055
 30
0.0
 10
-2.72643
 20
-2.0413
 30
0.0
 10
-2.68678
 20
-2.05809
 30
0.0
 10
-2.68678
 20
-2.05809
 30
0.0
 10
-2.68678
 20
-2.05809
 30
0.0
 10
-2.64769
 20
-2.0746
 30
0.0
 10
-2.64769
 20
-2.0746
 30
0.0
 10
-2.64769
 20
-2.0746
 30
0.0
 10
-2.60338
 20
-2.09323
 30
0.0
 10
-2.57205
 20
-2.11298
 30
0.0
 10
-2.55371
 20
-2.13372
 30
0.0
 10
-2.55371
 20
-2.13372
 30
0.0
 10
-2.53522
 20
-2.15447
 30
0.0
 10
-2.52605
 20
-2.18043
 30
0.0
 10
-2.52605
 20
-2.21148
 30
0.0
 10
-2.52605
 20
-2.21148
 30
0.0
 10
-2.52605
 20
-2.25085
 30
0.0
 10
-2.54157
 20
-2.28316
 30
0.0
 10
-2.57276
 20
-2.30842
 30
0.0
 10
-2.57276
 20
-2.30842
 30
0.0
 10
-2.6038
 20
-2.33368
 30
0.0
 10
-2.6436
 20
-2.34638
 30
0.0
 10
-2.692
 20
-2.34638
 30
0.0
 10
-2.692
 20
-2.34638
 30
0.0
 10
-2.72925
 20
-2.34638
 30
0.0
 10
-2.77427
 20
-2.33763
 30
0.0
 10
-2.82747
 20
-2.32013
 30
0.0
  0
SPLINE
  5
45
330
1F
100
AcDbEntity
  8
Layer 1
 62
     5
370
    53
100
AcDbSpline
210
0.0
220
0.0
230
1.0
 70
    11
 71
     3
 72
    60
 73
    56
 74
     0
 42
0.0000000001
 43
0.0000000001
 12
1.0
 22
0.0
 32
0.0
 13
1.0
 23
0.0
 33
0.0
 40
0.0
 40
0.0
 40
0.0
 40
0.0
 40
0.0666666666666667
 40
0.0666666666666667
 40
0.0666666666666667
 40
0.0666666666666667
 40
0.1333333333333333
 40
0.1333333333333333
 40
0.1333333333333333
 40
0.1333333333333333
 40
0.2
 40
0.2
 40
0.2
 40
0.2
 40
0.2666666666666667
 40
0.2666666666666667
 40
0.2666666666666667
 40
0.2666666666666667
 40
0.3333333333333333
 40
0.3333333333333333
 40
0.3333333333333333
 40
0.3333333333333333
 40
0.4
 40
0.4
 40
0.4
 40
0.4
 40
0.4666666666666667
 40
0.4666666666666667
 40
0.4666666666666667
 40
0.4666666666666667
 40
0.5333333333333333
 40
0.5333333333333333
 40
0.5333333333333333
 40
0.5333333333333333
 40
0.6
 40
0.6
 40
0.6
 40
0.6
 40
0.6666666666666666
 40
0.6666666666666666
 40
0.6666666666666666
 40
0.6666666666666666
 40
0.7333333333333333
 40
0.7333333333333333
 40
0.7333333333333333
 40
0.7333333333333333
 40
0.8
 40
0.8
 40
0.8
 40
0.8
 40
0.8666666666666667
 40
0.8666666666666667
 40
0.8666666666666667
 40
0.8666666666666667
 40
1.0
 40
1.0
 40
1.0
 40
1.0
 10
-2.09863
 20
-2.33622
 30
0.0
 10
-2.09863
 20
-2.33622
 30
0.0
 10
-2.09863
 20
-2.25184
 30
0.0
 10
-2.09863
 20
-2.25184
 30
0.0
 10
-2.09863
 20
-2.25184
 30
0.0
 10
-2.14195
 20
-2.31491
 30
0.0
 10
-2.19458
 20
-2.34638
 30
0.0
 10
-2.25639
 20
-2.34638
 30
0.0
 10
-2.25639
 20
-2.34638
 30
0.0
 10
-2.29562
 20
-2.34638
 30
0.0
 10
-2.3268
 20
-2.3341
 30
0.0
 10
-2.34995
 20
-2.30941
 30
0.0
 10
-2.34995
 20
-2.30941
 30
0.0
 10
-2.37323
 20
-2.28471
 30
0.0
 10
-2.3848
 20
-2.25155
 30
0.0
 10
-2.3848
 20
-2.20964
 30
0.0
 10
-2.3848
 20
-2.20964
 30
0.0
 10
-2.3848
 20
-2.20964
 30
0.0
 10
-2.3848
 20
-1.88748
 30
0.0
 10
-2.3848
 20
-1.88748
 30
0.0
 10
-2.3848
 20
-1.88748
 30
0.0
 10
-2.3848
 20
-1.88748
 30
0.0
 10
-2.30352
 20
-1.88748
 30
0.0
 10
-2.30352
 20
-1.88748
 30
0.0
 10
-2.30352
 20
-1.88748
 30
0.0
 10
-2.30352
 20
-1.88748
 30
0.0
 10
-2.30352
 20
-2.18311
 30
0.0
 10
-2.30352
 20
-2.18311
 30
0.0
 10
-2.30352
 20
-2.18311
 30
0.0
 10
-2.30352
 20
-2.21684
 30
0.0
 10
-2.29858
 20
-2.24069
 30
0.0
 10
-2.28884
 20
-2.2548
 30
0.0
 10
-2.28884
 20
-2.2548
 30
0.0
 10
-2.27897
 20
-2.26905
 30
0.0
 10
-2.2626
 20
-2.27611
 30
0.0
 10
-2.2396
 20
-2.27611
 30
0.0
 10
-2.2396
 20
-2.27611
 30
0.0
 10
-2.18992
 20
-2.27611
 30
0.0
 10
-2.14279
 20
-2.24351
 30
0.0
 10
-2.09863
 20
-2.17817
 30
0.0
 10
-2.09863
 20
-2.17817
 30
0.0
 10
-2.09863
 20
-2.17817
 30
0.0
 10
-2.09863
 20
-1.88748
 30
0.0
 10
-2.09863
 20
-1.88748
 30
0.0
 10
-2.09863
 20
-1.88748
 30
0.0
 10
-2.09863
 20
-1.88748
 30
0.0
 10
-2.01734
 20
-1.88748
 30
0.0
 10
-2.01734
 20
-1.88748
 30
0.0
 10
-2.01734
 20
-1.88748
 30
0.0
 10
-2.01734
 20
-1.88748
 30
0.0
 10
-2.01734
 20
-2.33622
 30
0.0
 10
-2.01734
 20
-2.33622
 30
0.0
 10
-2.01734
 20
-2.33622
 30
0.0
 10
-2.01734
 20
-2.33622
 30
0.0
 10
-2.09863
 20
-2.33622
 30
0.0
 10
-2.09863
 20
-2.33622
 30
0.0
  0
SPLINE
  5
46
330
1F
100
AcDbEntity
  8
Layer 1
 62
     5
370
    53
100
AcDbSpline
210
0.0
220
0.0
230
1.0
 70
    11
 71
     3
 72
    44
 73
    40
 74
     0
 42
0.0000000001
 43
0.0000000001
 12
1.0
 22
0.0
 32
0.0
 13
1.0
 23
0.0
 33
0.0
 40
0.0
 40
0.0
 40
0.0
 40
0.0
 40
0.0909090909090909
 40
0.0909090909090909
 40
0.0909090909090909
 40
0.0909090909090909
 40
0.1818181818181818
 40
0.1818181818181818
 40
0.1818181818181818
 40
0.1818181818181818
 40
0.2727272727272727
 40
0.2727272727272727
 40
0.2727272727272727
 40
0.2727272727272727
 40
0.3636363636363636
 40
0.3636363636363636
 40
0.3636363636363636
 40
0.3636363636363636
 40
0.4545454545454545
 40
0.4545454545454545
 40
0.4545454545454545
 40
0.4545454545454545
 40
0.5454545454545454
 40
0.5454545454545454
 40
0.5454545454545454
 40
0.5454545454545454
 40
0.6363636363636364
 40
0.6363636363636364
 40
0.6363636363636364
 40
0.6363636363636364
 40
0.7272727272727273
 40
0.7272727272727273
 40
0.7272727272727273
 40
0.7272727272727273
 40
0.8181818181818182
 40
0.8181818181818182
 40
0.8181818181818182
 40
0.8181818181818182
 40
1.0
 40
1.0
 40
1.0
 40
1.0
 10
-1.85422
 20
-2.33622
 30
0.0
 10
-1.85422
 20
-2.33622
 30
0.0
 10
-1.85422
 20
-1.88748
 30
0.0
 10
-1.85422
 20
-1.88748
 30
0.0
 10
-1.85422
 20
-1.88748
 30
0.0
 10
-1.85422
 20
-1.88748
 30
0.0
 10
-1.77294
 20
-1.88748
 30
0.0
 10
-1.77294
 20
-1.88748
 30
0.0
 10
-1.77294
 20
-1.88748
 30
0.0
 10
-1.77294
 20
-1.88748
 30
0.0
 10
-1.77294
 20
-1.97229
 30
0.0
 10
-1.77294
 20
-1.97229
 30
0.0
 10
-1.77294
 20
-1.97229
 30
0.0
 10
-1.74062
 20
-1.9095
 30
0.0
 10
-1.69378
 20
-1.87817
 30
0.0
 10
-1.63225
 20
-1.87817
 30
0.0
 10
-1.63225
 20
-1.87817
 30
0.0
 10
-1.62393
 20
-1.87817
 30
0.0
 10
-1.61518
 20
-1.87888
 30
0.0
 10
-1.60615
 20
-1.88029
 30
0.0
 10
-1.60615
 20
-1.88029
 30
0.0
 10
-1.60615
 20
-1.88029
 30
0.0
 10
-1.60615
 20
-1.95635
 30
0.0
 10
-1.60615
 20
-1.95635
 30
0.0
 10
-1.60615
 20
-1.95635
 30
0.0
 10
-1.62026
 20
-1.95169
 30
0.0
 10
-1.63267
 20
-1.94929
 30
0.0
 10
-1.6434
 20
-1.94929
 30
0.0
 10
-1.6434
 20
-1.94929
 30
0.0
 10
-1.69505
 20
-1.94929
 30
0.0
 10
-1.73823
 20
-1.97977
 30
0.0
 10
-1.77294
 20
-2.04087
 30
0.0
 10
-1.77294
 20
-2.04087
 30
0.0
 10
-1.77294
 20
-2.04087
 30
0.0
 10
-1.77294
 20
-2.33622
 30
0.0
 10
-1.77294
 20
-2.33622
 30
0.0
 10
-1.77294
 20
-2.33622
 30
0.0
 10
-1.77294
 20
-2.33622
 30
0.0
 10
-1.85422
 20
-2.33622
 30
0.0
 10
-1.85422
 20
-2.33622
 30
0.0
  0
SPLINE
  5
47
330
1F
100
AcDbEntity
  8
Layer 1
 62
     5
370
    53
100
AcDbSpline
210
0.0
220
0.0
230
1.0
 70
    11
 71
     3
 72
    72
 73
    68
 74
     0
 42
0.0000000001
 43
0.0000000001
 12
1.0
 22
0.0
 32
0.0
 13
1.0
 23
0.0
 33
0.0
 40
0.0
 40
0.0
 40
0.0
 40
0.0
 40
0.0555555555555556
 40
0.0555555555555556
 40
0.0555555555555556
 40
0.0555555555555556
 40
0.1111111111111111
 40
0.1111111111111111
 40
0.1111111111111111
 40
0.1111111111111111
 40
0.1666666666666667
 40
0.1666666666666667
 40
0.1666666666666667
 40
0.1666666666666667
 40
0.2222222222222222
 40
0.2222222222222222
 40
0.2222222222222222
 40
0.2222222222222222
 40
0.2777777777777778
 40
0.2777777777777778
 40
0.2777777777777778
 40
0.2777777777777778
 40
0.3333333333333333
 40
0.3333333333333333
 40
0.3333333333333333
 40
0.3333333333333333
 40
0.3888888888888889
 40
0.3888888888888889
 40
0.3888888888888889
 40
0.3888888888888889
 40
0.4444444444444444
 40
0.4444444444444444
 40
0.4444444444444444
 40
0.4444444444444444
 40
0.5
 40
0.5
 40
0.5
 40
0.5
 40
0.5555555555555556
 40
0.5555555555555556
 40
0.5555555555555556
 40
0.5555555555555556
 40
0.6111111111111112
 40
0.6111111111111112
 40
0.6111111111111112
 40
0.6111111111111112
 40
0.6666666666666666
 40
0.6666666666666666
 40
0.6666666666666666
 40
0.6666666666666666
 40
0.7222222222222222
 40
0.7222222222222222
 40
0.7222222222222222
 40
0.7222222222222222
 40
0.7777777777777778
 40
0.7777777777777778
 40
0.7777777777777778
 40
0.7777777777777778
 40
0.8333333333333334
 40
0.8333333333333334
 40
0.8333333333333334
 40
0.8333333333333334
 40
0.8888888888888888
 40
0.8888888888888888
 40
0.8888888888888888
 40
0.8888888888888888
 40
1.0
 40
1.0
 40
1.0
 40
1.0
 10
-1.49255
 20
-2.33622
 30
0.0
 10
-1.49255
 20
-2.33622
 30
0.0
 10
-1.49255
 20
-1.94845
 30
0.0
 10
-1.49255
 20
-1.94845
 30
0.0
 10
-1.49255
 20
-1.94845
 30
0.0
 10
-1.49255
 20
-1.94845
 30
0.0
 10
-1.55619
 20
-1.94845
 30
0.0
 10
-1.55619
 20
-1.94845
 30
0.0
 10
-1.55619
 20
-1.94845
 30
0.0
 10
-1.55619
 20
-1.94845
 30
0.0
 10
-1.55619
 20
-1.88748
 30
0.0
 10
-1.55619
 20
-1.88748
 30
0.0
 10
-1.55619
 20
-1.88748
 30
0.0
 10
-1.55619
 20
-1.88748
 30
0.0
 10
-1.49255
 20
-1.88748
 30
0.0
 10
-1.49255
 20
-1.88748
 30
0.0
 10
-1.49255
 20
-1.88748
 30
0.0
 10
-1.49255
 20
-1.88748
 30
0.0
 10
-1.49255
 20
-1.83372
 30
0.0
 10
-1.49255
 20
-1.83372
 30
0.0
 10
-1.49255
 20
-1.83372
 30
0.0
 10
-1.49255
 20
-1.72676
 30
0.0
 10
-1.44372
 20
-1.67328
 30
0.0
 10
-1.34608
 20
-1.67328
 30
0.0
 10
-1.34608
 20
-1.67328
 30
0.0
 10
-1.3187
 20
-1.67328
 30
0.0
 10
-1.28766
 20
-1.67779
 30
0.0
 10
-1.25294
 20
-1.68682
 30
0.0
 10
-1.25294
 20
-1.68682
 30
0.0
 10
-1.25294
 20
-1.68682
 30
0.0
 10
-1.25294
 20
-1.75202
 30
0.0
 10
-1.25294
 20
-1.75202
 30
0.0
 10
-1.25294
 20
-1.75202
 30
0.0
 10
-1.28977
 20
-1.74016
 30
0.0
 10
-1.31926
 20
-1.73424
 30
0.0
 10
-1.34142
 20
-1.73424
 30
0.0
 10
-1.34142
 20
-1.73424
 30
0.0
 10
-1.36837
 20
-1.73424
 30
0.0
 10
-1.38672
 20
-1.74059
 30
0.0
 10
-1.39645
 20
-1.75343
 30
0.0
 10
-1.39645
 20
-1.75343
 30
0.0
 10
-1.40633
 20
-1.76627
 30
0.0
 10
-1.41127
 20
-1.79012
 30
0.0
 10
-1.41127
 20
-1.82497
 30
0.0
 10
-1.41127
 20
-1.82497
 30
0.0
 10
-1.41127
 20
-1.82497
 30
0.0
 10
-1.41127
 20
-1.88748
 30
0.0
 10
-1.41127
 20
-1.88748
 30
0.0
 10
-1.41127
 20
-1.88748
 30
0.0
 10
-1.41127
 20
-1.88748
 30
0.0
 10
-1.29852
 20
-1.88748
 30
0.0
 10
-1.29852
 20
-1.88748
 30
0.0
 10
-1.29852
 20
-1.88748
 30
0.0
 10
-1.29852
 20
-1.88748
 30
0.0
 10
-1.29852
 20
-1.94845
 30
0.0
 10
-1.29852
 20
-1.94845
 30
0.0
 10
-1.29852
 20
-1.94845
 30
0.0
 10
-1.29852
 20
-1.94845
 30
0.0
 10
-1.41127
 20
-1.94845
 30
0.0
 10
-1.41127
 20
-1.94845
 30
0.0
 10
-1.41127
 20
-1.94845
 30
0.0
 10
-1.41127
 20
-1.94845
 30
0.0
 10
-1.41127
 20
-2.33622
 30
0.0
 10
-1.41127
 20
-2.33622
 30
0.0
 10
-1.41127
 20
-2.33622
 30
0.0
 10
-1.41127
 20
-2.33622
 30
0.0
 10
-1.49255
 20
-2.33622
 30
0.0
 10
-1.49255
 20
-2.33622
 30
0.0
  0
SPLINE
  5
48
330
1F
100
AcDbEntity
  8
Layer 1
 62
     5
370
    53
100
AcDbSpline
210
0.0
220
0.0
230
1.0
 70
    11
 71
     3
 72
    80
 73
    76
 74
     0
 42
0.0000000001
 43
0.0000000001
 12
1.0
 22
0.0
 32
0.0
 13
1.0
 23
0.0
 33
0.0
 40
0.0
 40
0.0
 40
0.0
 40
0.0
 40
0.05
 40
0.05
 40
0.05
 40
0.05
 40
0.1
 40
0.1
 40
0.1
 40
0.1
 40
0.15
 40
0.15
 40
0.15
 40
0.15
 40
0.2
 40
0.2
 40
0.2
 40
0.2
 40
0.25
 40
0.25
 40
0.25
 40
0.25
 40
0.3
 40
0.3
 40
0.3
 40
0.3
 40
0.35
 40
0.35
 40
0.35
 40
0.35
 40
0.4
 40
0.4
 40
0.4
 40
0.4
 40
0.45
 40
0.45
 40
0.45
 40
0.45
 40
0.5
 40
0.5
 40
0.5
 40
0.5
 40
0.55
 40
0.55
 40
0.55
 40
0.55
 40
0.6
 40
0.6
 40
0.6
 40
0.6
 40
0.65
 40
0.65
 40
0.65
 40
0.65
 40
0.7
 40
0.7
 40
0.7
 40
0.7
 40
0.75
 40
0.75
 40
0.75
 40
0.75
 40
0.8
 40
0.8
 40
0.8
 40
0.8
 40
0.85
 40
0.85
 40
0.85
 40
0.85
 40
0.9
 40
0.9
 40
0.9
 40
0.9
 40
1.0
 40
1.0
 40
1.0
 40
1.0
 10
-0.96522
 20
-2.27907
 30
0.0
 10
-1.01404
 20
-2.32394
 30
0.0
 10
-1.06103
 20
-2.34638
 30
0.0
 10
-1.10619
 20
-2.34638
 30
0.0
 10
-1.10619
 20
-2.34638
 30
0.0
 10
-1.1433
 20
-2.34638
 30
0.0
 10
-1.1742
 20
-2.33481
 30
0.0
 10
-1.19862
 20
-2.31153
 30
0.0
 10
-1.19862
 20
-2.31153
 30
0.0
 10
-1.22317
 20
-2.28824
 30
0.0
 10
-1.23545
 20
-2.25889
 30
0.0
 10
-1.23545
 20
-2.22347
 30
0.0
 10
-1.23545
 20
-2.22347
 30
0.0
 10
-1.23545
 20
-2.17451
 30
0.0
 10
-1.21484
 20
-2.13683
 30
0.0
 10
-1.17364
 20
-2.11058
 30
0.0
 10
-1.17364
 20
-2.11058
 30
0.0
 10
-1.13243
 20
-2.08434
 30
0.0
 10
-1.07331
 20
-2.07121
 30
0.0
 10
-0.99626
 20
-2.07121
 30
0.0
 10
-0.99626
 20
-2.07121
 30
0.0
 10
-0.99626
 20
-2.07121
 30
0.0
 10
-0.97721
 20
-2.07121
 30
0.0
 10
-0.97721
 20
-2.07121
 30
0.0
 10
-0.97721
 20
-2.07121
 30
0.0
 10
-0.97721
 20
-2.07121
 30
0.0
 10
-0.97721
 20
-2.01717
 30
0.0
 10
-0.97721
 20
-2.01717
 30
0.0
 10
-0.97721
 20
-2.01717
 30
0.0
 10
-0.97721
 20
-1.9651
 30
0.0
 10
-1.00431
 20
-1.93913
 30
0.0
 10
-1.05863
 20
-1.93913
 30
0.0
 10
-1.05863
 20
-1.93913
 30
0.0
 10
-1.10068
 20
-1.93913
 30
0.0
 10
-1.14669
 20
-1.9524
 30
0.0
 10
-1.1965
 20
-1.97893
 30
0.0
 10
-1.1965
 20
-1.97893
 30
0.0
 10
-1.1965
 20
-1.97893
 30
0.0
 10
-1.1965
 20
-1.91204
 30
0.0
 10
-1.1965
 20
-1.91204
 30
0.0
 10
-1.1965
 20
-1.91204
 30
0.0
 10
-1.14175
 20
-1.88946
 30
0.0
 10
-1.0901
 20
-1.87817
 30
0.0
 10
-1.0417
 20
-1.87817
 30
0.0
 10
-1.0417
 20
-1.87817
 30
0.0
 10
-0.99189
 20
-1.87817
 30
0.0
 10
-0.95506
 20
-1.88946
 30
0.0
 10
-0.93149
 20
-1.91218
 30
0.0
 10
-0.93149
 20
-1.91218
 30
0.0
 10
-0.90779
 20
-1.9349
 30
0.0
 10
-0.89593
 20
-1.96989
 30
0.0
 10
-0.89593
 20
-2.01717
 30
0.0
 10
-0.89593
 20
-2.01717
 30
0.0
 10
-0.89593
 20
-2.01717
 30
0.0
 10
-0.89593
 20
-2.21994
 30
0.0
 10
-0.89593
 20
-2.21994
 30
0.0
 10
-0.89593
 20
-2.21994
 30
0.0
 10
-0.89593
 20
-2.26637
 30
0.0
 10
-0.88168
 20
-2.28965
 30
0.0
 10
-0.85303
 20
-2.28965
 30
0.0
 10
-0.85303
 20
-2.28965
 30
0.0
 10
-0.84951
 20
-2.28965
 30
0.0
 10
-0.84428
 20
-2.28909
 30
0.0
 10
-0.83737
 20
-2.28796
 30
0.0
 10
-0.83737
 20
-2.28796
 30
0.0
 10
-0.83737
 20
-2.28796
 30
0.0
 10
-0.83158
 20
-2.33312
 30
0.0
 10
-0.83158
 20
-2.33312
 30
0.0
 10
-0.83158
 20
-2.33312
 30
0.0
 10
-0.85007
 20
-2.34201
 30
0.0
 10
-0.87039
 20
-2.34638
 30
0.0
 10
-0.89269
 20
-2.34638
 30
0.0
 10
-0.89269
 20
-2.34638
 30
0.0
 10
-0.93065
 20
-2.34638
 30
0.0
 10
-0.95478
 20
-2.32394
 30
0.0
 10
-0.96522
 20
-2.27907
 30
0.0
  0
SPLINE
  5
49
330
1F
100
AcDbEntity
  8
Layer 1
 62
     5
370
    53
100
AcDbSpline
210
0.0
220
0.0
230
1.0
 70
    11
 71
     3
 72
    32
 73
    28
 74
     0
 42
0.0000000001
 43
0.0000000001
 12
1.0
 22
0.0
 32
0.0
 13
1.0
 23
0.0
 33
0.0
 40
0.0
 40
0.0
 40
0.0
 40
0.0
 40
0.125
 40
0.125
 40
0.125
 40
0.125
 40
0.25
 40
0.25
 40
0.25
 40
0.25
 40
0.375
 40
0.375
 40
0.375
 40
0.375
 40
0.5
 40
0.5
 40
0.5
 40
0.5
 40
0.625
 40
0.625
 40
0.625
 40
0.625
 40
0.75
 40
0.75
 40
0.75
 40
0.75
 40
1.0
 40
1.0
 40
1.0
 40
1.0
 10
-0.97721
 20
-2.23476
 30
0.0
 10
-0.97721
 20
-2.23476
 30
0.0
 10
-0.97721
 20
-2.11947
 30
0.0
 10
-0.97721
 20
-2.11947
 30
0.0
 10
-0.97721
 20
-2.11947
 30
0.0
 10
-0.97721
 20
-2.11947
 30
0.0
 10
-1.00332
 20
-2.11863
 30
0.0
 10
-1.00332
 20
-2.11863
 30
0.0
 10
-1.00332
 20
-2.11863
 30
0.0
 10
-1.04847
 20
-2.11863
 30
0.0
 10
-1.08488
 20
-2.12695
 30
0.0
 10
-1.11268
 20
-2.1436
 30
0.0
 10
-1.11268
 20
-2.1436
 30
0.0
 10
-1.14034
 20
-2.16039
 30
0.0
 10
-1.15417
 20
-2.18255
 30
0.0
 10
-1.15417
 20
-2.21021
 30
0.0
 10
-1.15417
 20
-2.21021
 30
0.0
 10
-1.15417
 20
-2.22954
 30
0.0
 10
-1.14725
 20
-2.24591
 30
0.0
 10
-1.13356
 20
-2.25931
 30
0.0
 10
-1.13356
 20
-2.25931
 30
0.0
 10
-1.11973
 20
-2.27272
 30
0.0
 10
-1.10294
 20
-2.27949
 30
0.0
 10
-1.08305
 20
-2.27949
 30
0.0
 10
-1.08305
 20
-2.27949
 30
0.0
 10
-1.04918
 20
-2.27949
 30
0.0
 10
-1.0139
 20
-2.26454
 30
0.0
 10
-0.97721
 20
-2.23476
 30
0.0
  0
SPLINE
  5
4A
330
1F
100
AcDbEntity
  8
Layer 1
 62
     5
370
    53
100
AcDbSpline
210
0.0
220
0.0
230
1.0
 70
    11
 71
     3
 72
    60
 73
    56
 74
     0
 42
0.0000000001
 43
0.0000000001
 12
1.0
 22
0.0
 32
0.0
 13
1.0
 23
0.0
 33
0.0
 40
0.0
 40
0.0
 40
0.0
 40
0.0
 40
0.0666666666666667
 40
0.0666666666666667
 40
0.0666666666666667
 40
0.0666666666666667
 40
0.1333333333333333
 40
0.1333333333333333
 40
0.1333333333333333
 40
0.1333333333333333
 40
0.2
 40
0.2
 40
0.2
 40
0.2
 40
0.2666666666666667
 40
0.2666666666666667
 40
0.2666666666666667
 40
0.2666666666666667
 40
0.3333333333333333
 40
0.3333333333333333
 40
0.3333333333333333
 40
0.3333333333333333
 40
0.4
 40
0.4
 40
0.4
 40
0.4
 40
0.4666666666666667
 40
0.4666666666666667
 40
0.4666666666666667
 40
0.4666666666666667
 40
0.5333333333333333
 40
0.5333333333333333
 40
0.5333333333333333
 40
0.5333333333333333
 40
0.6
 40
0.6
 40
0.6
 40
0.6
 40
0.6666666666666666
 40
0.6666666666666666
 40
0.6666666666666666
 40
0.6666666666666666
 40
0.7333333333333333
 40
0.7333333333333333
 40
0.7333333333333333
 40
0.7333333333333333
 40
0.8
 40
0.8
 40
0.8
 40
0.8
 40
0.8666666666666667
 40
0.8666666666666667
 40
0.8666666666666667
 40
0.8666666666666667
 40
1.0
 40
1.0
 40
1.0
 40
1.0
 10
-0.41743
 20
-2.32267
 30
0.0
 10
-0.47006
 20
-2.33848
 30
0.0
 10
-0.5155
 20
-2.34638
 30
0.0
 10
-0.55374
 20
-2.34638
 30
0.0
 10
-0.55374
 20
-2.34638
 30
0.0
 10
-0.61442
 20
-2.34638
 30
0.0
 10
-0.66465
 20
-2.32394
 30
0.0
 10
-0.70459
 20
-2.27921
 30
0.0
 10
-0.70459
 20
-2.27921
 30
0.0
 10
-0.74452
 20
-2.23434
 30
0.0
 10
-0.76456
 20
-2.17775
 30
0.0
 10
-0.76456
 20
-2.10959
 30
0.0
 10
-0.76456
 20
-2.10959
 30
0.0
 10
-0.76456
 20
-2.03678
 30
0.0
 10
-0.7448
 20
-1.97991
 30
0.0
 10
-0.70529
 20
-1.93927
 30
0.0
 10
-0.70529
 20
-1.93927
 30
0.0
 10
-0.66578
 20
-1.89849
 30
0.0
 10
-0.61061
 20
-1.87817
 30
0.0
 10
-0.53977
 20
-1.87817
 30
0.0
 10
-0.53977
 20
-1.87817
 30
0.0
 10
-0.50491
 20
-1.87817
 30
0.0
 10
-0.46569
 20
-1.88297
 30
0.0
 10
-0.42251
 20
-1.89256
 30
0.0
 10
-0.42251
 20
-1.89256
 30
0.0
 10
-0.42251
 20
-1.89256
 30
0.0
 10
-0.42251
 20
-1.96115
 30
0.0
 10
-0.42251
 20
-1.96115
 30
0.0
 10
-0.42251
 20
-1.96115
 30
0.0
 10
-0.46837
 20
-1.9476
 30
0.0
 10
-0.50576
 20
-1.94083
 30
0.0
 10
-0.53455
 20
-1.94083
 30
0.0
 10
-0.53455
 20
-1.94083
 30
0.0
 10
-0.57632
 20
-1.94083
 30
0.0
 10
-0.60976
 20
-1.95649
 30
0.0
 10
-0.63474
 20
-1.98767
 30
0.0
 10
-0.63474
 20
-1.98767
 30
0.0
 10
-0.65971
 20
-2.01886
 30
0.0
 10
-0.67227
 20
-2.06049
 30
0.0
 10
-0.67227
 20
-2.11242
 30
0.0
 10
-0.67227
 20
-2.11242
 30
0.0
 10
-0.67227
 20
-2.16279
 30
0.0
 10
-0.65929
 20
-2.20343
 30
0.0
 10
-0.63347
 20
-2.23462
 30
0.0
 10
-0.63347
 20
-2.23462
 30
0.0
 10
-0.60764
 20
-2.26566
 30
0.0
 10
-0.57392
 20
-2.28119
 30
0.0
 10
-0.53201
 20
-2.28119
 30
0.0
 10
-0.53201
 20
-2.28119
 30
0.0
 10
-0.4949
 20
-2.28119
 30
0.0
 10
-0.4568
 20
-2.27159
 30
0.0
 10
-0.41743
 20
-2.2524
 30
0.0
 10
-0.41743
 20
-2.2524
 30
0.0
 10
-0.41743
 20
-2.2524
 30
0.0
 10
-0.41743
 20
-2.32267
 30
0.0
 10
-0.41743
 20
-2.32267
 30
0.0
  0
SPLINE
  5
4B
330
1F
100
AcDbEntity
  8
Layer 1
 62
     5
370
    53
100
AcDbSpline
210
0.0
220
0.0
230
1.0
 70
    11
 71
     3
 72
    52
 73
    48
 74
     0
 42
0.0000000001
 43
0.0000000001
 12
1.0
 22
0.0
 32
0.0
 13
1.0
 23
0.0
 33
0.0
 40
0.0
 40
0.0
 40
0.0
 40
0.0
 40
0.0769230769230769
 40
0.0769230769230769
 40
0.0769230769230769
 40
0.0769230769230769
 40
0.1538461538461539
 40
0.1538461538461539
 40
0.1538461538461539
 40
0.1538461538461539
 40
0.2307692307692308
 40
0.2307692307692308
 40
0.2307692307692308
 40
0.2307692307692308
 40
0.3076923076923077
 40
0.3076923076923077
 40
0.3076923076923077
 40
0.3076923076923077
 40
0.3846153846153846
 40
0.3846153846153846
 40
0.3846153846153846
 40
0.3846153846153846
 40
0.4615384615384616
 40
0.4615384615384616
 40
0.4615384615384616
 40
0.4615384615384616
 40
0.5384615384615384
 40
0.5384615384615384
 40
0.5384615384615384
 40
0.5384615384615384
 40
0.6153846153846154
 40
0.6153846153846154
 40
0.6153846153846154
 40
0.6153846153846154
 40
0.6923076923076923
 40
0.6923076923076923
 40
0.6923076923076923
 40
0.6923076923076923
 40
0.7692307692307693
 40
0.7692307692307693
 40
0.7692307692307693
 40
0.7692307692307693
 40
0.8461538461538461
 40
0.8461538461538461
 40
0.8461538461538461
 40
0.8461538461538461
 40
1.0
 40
1.0
 40
1.0
 40
1.0
 10
0.03399
 20
-2.32183
 30
0.0
 10
-0.02062
 20
-2.3382
 30
0.0
 10
-0.06732
 20
-2.34638
 30
0.0
 10
-0.10627
 20
-2.34638
 30
0.0
 10
-0.10627
 20
-2.34638
 30
0.0
 10
-0.17273
 20
-2.34638
 30
0.0
 10
-0.22678
 20
-2.32437
 30
0.0
 10
-0.26841
 20
-2.28048
 30
0.0
 10
-0.26841
 20
-2.28048
 30
0.0
 10
-0.31004
 20
-2.2366
 30
0.0
 10
-0.33092
 20
-2.17973
 30
0.0
 10
-0.33092
 20
-2.10974
 30
0.0
 10
-0.33092
 20
-2.10974
 30
0.0
 10
-0.33092
 20
-2.04186
 30
0.0
 10
-0.31258
 20
-1.98612
 30
0.0
 10
-0.27575
 20
-1.94252
 30
0.0
 10
-0.27575
 20
-1.94252
 30
0.0
 10
-0.23892
 20
-1.89906
 30
0.0
 10
-0.19178
 20
-1.87732
 30
0.0
 10
-0.13435
 20
-1.87732
 30
0.0
 10
-0.13435
 20
-1.87732
 30
0.0
 10
-0.08002
 20
-1.87732
 30
0.0
 10
-0.03797
 20
-1.89666
 30
0.0
 10
-0.00834
 20
-1.93532
 30
0.0
 10
-0.00834
 20
-1.93532
 30
0.0
 10
0.02129
 20
-1.97399
 30
0.0
 10
0.03611
 20
-2.02874
 30
0.0
 10
0.03611
 20
-2.09972
 30
0.0
 10
0.03611
 20
-2.09972
 30
0.0
 10
0.03611
 20
-2.09972
 30
0.0
 10
0.03569
 20
-2.12455
 30
0.0
 10
0.03569
 20
-2.12455
 30
0.0
 10
0.03569
 20
-2.12455
 30
0.0
 10
0.03569
 20
-2.12455
 30
0.0
 10
-0.24795
 20
-2.12455
 30
0.0
 10
-0.24795
 20
-2.12455
 30
0.0
 10
-0.24795
 20
-2.12455
 30
0.0
 10
-0.23609
 20
-2.2318
 30
0.0
 10
-0.18374
 20
-2.28542
 30
0.0
 10
-0.09103
 20
-2.28542
 30
0.0
 10
-0.09103
 20
-2.28542
 30
0.0
 10
-0.05702
 20
-2.28542
 30
0.0
 10
-0.01539
 20
-2.27582
 30
0.0
 10
0.03399
 20
-2.25663
 30
0.0
 10
0.03399
 20
-2.25663
 30
0.0
 10
0.03399
 20
-2.25663
 30
0.0
 10
0.03399
 20
-2.32183
 30
0.0
 10
0.03399
 20
-2.32183
 30
0.0
  0
SPLINE
  5
4C
330
1F
100
AcDbEntity
  8
Layer 1
 62
     5
370
    53
100
AcDbSpline
210
0.0
220
0.0
230
1.0
 70
    11
 71
     3
 72
    16
 73
    12
 74
     0
 42
0.0000000001
 43
0.0000000001
 12
1.0
 22
0.0
 32
0.0
 13
1.0
 23
0.0
 33
0.0
 40
0.0
 40
0.0
 40
0.0
 40
0.0
 40
0.25
 40
0.25
 40
0.25
 40
0.25
 40
0.5
 40
0.5
 40
0.5
 40
0.5
 40
1.0
 40
1.0
 40
1.0
 40
1.0
 10
-0.24371
 20
-2.06359
 30
0.0
 10
-0.24371
 20
-2.06359
 30
0.0
 10
-0.04559
 20
-2.06359
 30
0.0
 10
-0.04559
 20
-2.06359
 30
0.0
 10
-0.04559
 20
-2.06359
 30
0.0
 10
-0.04559
 20
-1.98005
 30
0.0
 10
-0.07678
 20
-1.93829
 30
0.0
 10
-0.13901
 20
-1.93829
 30
0.0
 10
-0.13901
 20
-1.93829
 30
0.0
 10
-0.20166
 20
-1.93829
 30
0.0
 10
-0.23652
 20
-1.98005
 30
0.0
 10
-0.24371
 20
-2.06359
 30
0.0
  0
SPLINE
  5
4D
330
1F
100
AcDbEntity
  8
Layer 1
 62
     5
370
    53
100
AcDbSpline
210
0.0
220
0.0
230
1.0
 70
    11
 71
     3
 72
    20
 73
    16
 74
     0
 42
0.0000000001
 43
0.0000000001
 12
1.0
 22
0.0
 32
0.0
 13
1.0
 23
0.0
 33
0.0
 40
0.0
 40
0.0
 40
0.0
 40
0.0
 40
0.2
 40
0.2
 40
0.2
 40
0.2
 40
0.4
 40
0.4
 40
0.4
 40
0.4
 40
0.6
 40
0.6
 40
0.6
 40
0.6
 40
1.0
 40
1.0
 40
1.0
 40
1.0
 10
0.13066
 20
-2.39718
 30
0.0
 10
0.13066
 20
-2.39718
 30
0.0
 10
0.13066
 20
-2.33622
 30
0.0
 10
0.13066
 20
-2.33622
 30
0.0
 10
0.13066
 20
-2.33622
 30
0.0
 10
0.13066
 20
-2.33622
 30
0.0
 10
0.48287
 20
-2.33622
 30
0.0
 10
0.48287
 20
-2.33622
 30
0.0
 10
0.48287
 20
-2.33622
 30
0.0
 10
0.48287
 20
-2.33622
 30
0.0
 10
0.48287
 20
-2.39718
 30
0.0
 10
0.48287
 20
-2.39718
 30
0.0
 10
0.48287
 20
-2.39718
 30
0.0
 10
0.48287
 20
-2.39718
 30
0.0
 10
0.13066
 20
-2.39718
 30
0.0
 10
0.13066
 20
-2.39718
 30
0.0
  0
SPLINE
  5
4E
330
1F
100
AcDbEntity
  8
Layer 1
 62
     5
370
    53
100
AcDbSpline
210
0.0
220
0.0
230
1.0
 70
    11
 71
     3
 72
    48
 73
    44
 74
     0
 42
0.0000000001
 43
0.0000000001
 12
1.0
 22
0.0
 32
0.0
 13
1.0
 23
0.0
 33
0.0
 40
0.0
 40
0.0
 40
0.0
 40
0.0
 40
0.0833333333333333
 40
0.0833333333333333
 40
0.0833333333333333
 40
0.0833333333333333
 40
0.1666666666666667
 40
0.1666666666666667
 40
0.1666666666666667
 40
0.1666666666666667
 40
0.25
 40
0.25
 40
0.25
 40
0.25
 40
0.3333333333333333
 40
0.3333333333333333
 40
0.3333333333333333
 40
0.3333333333333333
 40
0.4166666666666667
 40
0.4166666666666667
 40
0.4166666666666667
 40
0.4166666666666667
 40
0.5
 40
0.5
 40
0.5
 40
0.5
 40
0.5833333333333334
 40
0.5833333333333334
 40
0.5833333333333334
 40
0.5833333333333334
 40
0.6666666666666666
 40
0.6666666666666666
 40
0.6666666666666666
 40
0.6666666666666666
 40
0.75
 40
0.75
 40
0.75
 40
0.75
 40
0.8333333333333334
 40
0.8333333333333334
 40
0.8333333333333334
 40
0.8333333333333334
 40
1.0
 40
1.0
 40
1.0
 40
1.0
 10
0.59972
 20
-2.49963
 30
0.0
 10
0.59972
 20
-2.49963
 30
0.0
 10
0.59972
 20
-1.88748
 30
0.0
 10
0.59972
 20
-1.88748
 30
0.0
 10
0.59972
 20
-1.88748
 30
0.0
 10
0.59972
 20
-1.88748
 30
0.0
 10
0.681
 20
-1.88748
 30
0.0
 10
0.681
 20
-1.88748
 30
0.0
 10
0.681
 20
-1.88748
 30
0.0
 10
0.681
 20
-1.88748
 30
0.0
 10
0.681
 20
-1.97229
 30
0.0
 10
0.681
 20
-1.97229
 30
0.0
 10
0.681
 20
-1.97229
 30
0.0
 10
0.7143
 20
-1.9095
 30
0.0
 10
0.7644
 20
-1.87817
 30
0.0
 10
0.83114
 20
-1.87817
 30
0.0
 10
0.83114
 20
-1.87817
 30
0.0
 10
0.88519
 20
-1.87817
 30
0.0
 10
0.92766
 20
-1.89779
 30
0.0
 10
0.95871
 20
-1.93716
 30
0.0
 10
0.95871
 20
-1.93716
 30
0.0
 10
0.98975
 20
-1.97653
 30
0.0
 10
1.00528
 20
-2.03029
 30
0.0
 10
1.00528
 20
-2.09845
 30
0.0
 10
1.00528
 20
-2.09845
 30
0.0
 10
1.00528
 20
-2.17267
 30
0.0
 10
0.98764
 20
-2.23264
 30
0.0
 10
0.9525
 20
-2.27808
 30
0.0
 10
0.9525
 20
-2.27808
 30
0.0
 10
0.91736
 20
-2.32366
 30
0.0
 10
0.87108
 20
-2.34638
 30
0.0
 10
0.81379
 20
-2.34638
 30
0.0
 10
0.81379
 20
-2.34638
 30
0.0
 10
0.76059
 20
-2.34638
 30
0.0
 10
0.71628
 20
-2.32606
 30
0.0
 10
0.681
 20
-2.28528
 30
0.0
 10
0.681
 20
-2.28528
 30
0.0
 10
0.681
 20
-2.28528
 30
0.0
 10
0.681
 20
-2.49963
 30
0.0
 10
0.681
 20
-2.49963
 30
0.0
 10
0.681
 20
-2.49963
 30
0.0
 10
0.681
 20
-2.49963
 30
0.0
 10
0.59972
 20
-2.49963
 30
0.0
 10
0.59972
 20
-2.49963
 30
0.0
  0
SPLINE
  5
4F
330
1F
100
AcDbEntity
  8
Layer 1
 62
     5
370
    53
100
AcDbSpline
210
0.0
220
0.0
230
1.0
 70
    11
 71
     3
 72
    28
 73
    24
 74
     0
 42
0.0000000001
 43
0.0000000001
 12
1.0
 22
0.0
 32
0.0
 13
1.0
 23
0.0
 33
0.0
 40
0.0
 40
0.0
 40
0.0
 40
0.0
 40
0.1428571428571428
 40
0.1428571428571428
 40
0.1428571428571428
 40
0.1428571428571428
 40
0.2857142857142857
 40
0.2857142857142857
 40
0.2857142857142857
 40
0.2857142857142857
 40
0.4285714285714285
 40
0.4285714285714285
 40
0.4285714285714285
 40
0.4285714285714285
 40
0.5714285714285714
 40
0.5714285714285714
 40
0.5714285714285714
 40
0.5714285714285714
 40
0.7142857142857143
 40
0.7142857142857143
 40
0.7142857142857143
 40
0.7142857142857143
 40
1.0
 40
1.0
 40
1.0
 40
1.0
 10
0.681
 20
-2.22926
 30
0.0
 10
0.72291
 20
-2.26665
 30
0.0
 10
0.76285
 20
-2.28542
 30
0.0
 10
0.8008
 20
-2.28542
 30
0.0
 10
0.8008
 20
-2.28542
 30
0.0
 10
0.8382
 20
-2.28542
 30
0.0
 10
0.86713
 20
-2.26976
 30
0.0
 10
0.88745
 20
-2.23857
 30
0.0
 10
0.88745
 20
-2.23857
 30
0.0
 10
0.90791
 20
-2.20739
 30
0.0
 10
0.91807
 20
-2.1635
 30
0.0
 10
0.91807
 20
-2.10677
 30
0.0
 10
0.91807
 20
-2.10677
 30
0.0
 10
0.91807
 20
-2.00179
 30
0.0
 10
0.88335
 20
-1.94929
 30
0.0
 10
0.81393
 20
-1.94929
 30
0.0
 10
0.81393
 20
-1.94929
 30
0.0
 10
0.76849
 20
-1.94929
 30
0.0
 10
0.72418
 20
-1.97385
 30
0.0
 10
0.681
 20
-2.02309
 30
0.0
 10
0.681
 20
-2.02309
 30
0.0
 10
0.681
 20
-2.02309
 30
0.0
 10
0.681
 20
-2.22926
 30
0.0
 10
0.681
 20
-2.22926
 30
0.0
  0
SPLINE
  5
50
330
1F
100
AcDbEntity
  8
Layer 1
 62
     5
370
    53
100
AcDbSpline
210
0.0
220
0.0
230
1.0
 70
    11
 71
     3
 72
    44
 73
    40
 74
     0
 42
0.0000000001
 43
0.0000000001
 12
1.0
 22
0.0
 32
0.0
 13
1.0
 23
0.0
 33
0.0
 40
0.0
 40
0.0
 40
0.0
 40
0.0
 40
0.0909090909090909
 40
0.0909090909090909
 40
0.0909090909090909
 40
0.0909090909090909
 40
0.1818181818181818
 40
0.1818181818181818
 40
0.1818181818181818
 40
0.1818181818181818
 40
0.2727272727272727
 40
0.2727272727272727
 40
0.2727272727272727
 40
0.2727272727272727
 40
0.3636363636363636
 40
0.3636363636363636
 40
0.3636363636363636
 40
0.3636363636363636
 40
0.4545454545454545
 40
0.4545454545454545
 40
0.4545454545454545
 40
0.4545454545454545
 40
0.5454545454545454
 40
0.5454545454545454
 40
0.5454545454545454
 40
0.5454545454545454
 40
0.6363636363636364
 40
0.6363636363636364
 40
0.6363636363636364
 40
0.6363636363636364
 40
0.7272727272727273
 40
0.7272727272727273
 40
0.7272727272727273
 40
0.7272727272727273
 40
0.8181818181818182
 40
0.8181818181818182
 40
0.8181818181818182
 40
0.8181818181818182
 40
1.0
 40
1.0
 40
1.0
 40
1.0
 10
1.13256
 20
-2.33622
 30
0.0
 10
1.13256
 20
-2.33622
 30
0.0
 10
1.13256
 20
-1.88748
 30
0.0
 10
1.13256
 20
-1.88748
 30
0.0
 10
1.13256
 20
-1.88748
 30
0.0
 10
1.13256
 20
-1.88748
 30
0.0
 10
1.21384
 20
-1.88748
 30
0.0
 10
1.21384
 20
-1.88748
 30
0.0
 10
1.21384
 20
-1.88748
 30
0.0
 10
1.21384
 20
-1.88748
 30
0.0
 10
1.21384
 20
-1.97229
 30
0.0
 10
1.21384
 20
-1.97229
 30
0.0
 10
1.21384
 20
-1.97229
 30
0.0
 10
1.24616
 20
-1.9095
 30
0.0
 10
1.293
 20
-1.87817
 30
0.0
 10
1.35453
 20
-1.87817
 30
0.0
 10
1.35453
 20
-1.87817
 30
0.0
 10
1.36285
 20
-1.87817
 30
0.0
 10
1.3716
 20
-1.87888
 30
0.0
 10
1.38063
 20
-1.88029
 30
0.0
 10
1.38063
 20
-1.88029
 30
0.0
 10
1.38063
 20
-1.88029
 30
0.0
 10
1.38063
 20
-1.95635
 30
0.0
 10
1.38063
 20
-1.95635
 30
0.0
 10
1.38063
 20
-1.95635
 30
0.0
 10
1.36652
 20
-1.95169
 30
0.0
 10
1.35411
 20
-1.94929
 30
0.0
 10
1.34338
 20
-1.94929
 30
0.0
 10
1.34338
 20
-1.94929
 30
0.0
 10
1.29173
 20
-1.94929
 30
0.0
 10
1.24855
 20
-1.97977
 30
0.0
 10
1.21384
 20
-2.04087
 30
0.0
 10
1.21384
 20
-2.04087
 30
0.0
 10
1.21384
 20
-2.04087
 30
0.0
 10
1.21384
 20
-2.33622
 30
0.0
 10
1.21384
 20
-2.33622
 30
0.0
 10
1.21384
 20
-2.33622
 30
0.0
 10
1.21384
 20
-2.33622
 30
0.0
 10
1.13256
 20
-2.33622
 30
0.0
 10
1.13256
 20
-2.33622
 30
0.0
  0
SPLINE
  5
51
330
1F
100
AcDbEntity
  8
Layer 1
 62
     5
370
    53
100
AcDbSpline
210
0.0
220
0.0
230
1.0
 70
    11
 71
     3
 72
    36
 73
    32
 74
     0
 42
0.0000000001
 43
0.0000000001
 12
1.0
 22
0.0
 32
0.0
 13
1.0
 23
0.0
 33
0.0
 40
0.0
 40
0.0
 40
0.0
 40
0.0
 40
0.1111111111111111
 40
0.1111111111111111
 40
0.1111111111111111
 40
0.1111111111111111
 40
0.2222222222222222
 40
0.2222222222222222
 40
0.2222222222222222
 40
0.2222222222222222
 40
0.3333333333333333
 40
0.3333333333333333
 40
0.3333333333333333
 40
0.3333333333333333
 40
0.4444444444444444
 40
0.4444444444444444
 40
0.4444444444444444
 40
0.4444444444444444
 40
0.5555555555555556
 40
0.5555555555555556
 40
0.5555555555555556
 40
0.5555555555555556
 40
0.6666666666666666
 40
0.6666666666666666
 40
0.6666666666666666
 40
0.6666666666666666
 40
0.7777777777777778
 40
0.7777777777777778
 40
0.7777777777777778
 40
0.7777777777777778
 40
1.0
 40
1.0
 40
1.0
 40
1.0
 10
1.65764
 20
-2.34638
 30
0.0
 10
1.59174
 20
-2.34638
 30
0.0
 10
1.53953
 20
-2.32535
 30
0.0
 10
1.50114
 20
-2.2833
 30
0.0
 10
1.50114
 20
-2.2833
 30
0.0
 10
1.46262
 20
-2.24125
 30
0.0
 10
1.44343
 20
-2.1841
 30
0.0
 10
1.44343
 20
-2.11199
 30
0.0
 10
1.44343
 20
-2.11199
 30
0.0
 10
1.44343
 20
-2.04003
 30
0.0
 10
1.46262
 20
-1.98302
 30
0.0
 10
1.50114
 20
-1.94111
 30
0.0
 10
1.50114
 20
-1.94111
 30
0.0
 10
1.53953
 20
-1.8992
 30
0.0
 10
1.59174
 20
-1.87817
 30
0.0
 10
1.65764
 20
-1.87817
 30
0.0
 10
1.65764
 20
-1.87817
 30
0.0
 10
1.72354
 20
-1.87817
 30
0.0
 10
1.77575
 20
-1.8992
 30
0.0
 10
1.81413
 20
-1.94111
 30
0.0
 10
1.81413
 20
-1.94111
 30
0.0
 10
1.85265
 20
-1.98302
 30
0.0
 10
1.87185
 20
-2.04003
 30
0.0
 10
1.87185
 20
-2.11199
 30
0.0
 10
1.87185
 20
-2.11199
 30
0.0
 10
1.87185
 20
-2.1841
 30
0.0
 10
1.85265
 20
-2.24125
 30
0.0
 10
1.81413
 20
-2.2833
 30
0.0
 10
1.81413
 20
-2.2833
 30
0.0
 10
1.77575
 20
-2.32535
 30
0.0
 10
1.72354
 20
-2.34638
 30
0.0
 10
1.65764
 20
-2.34638
 30
0.0
  0
SPLINE
  5
52
330
1F
100
AcDbEntity
  8
Layer 1
 62
     5
370
    53
100
AcDbSpline
210
0.0
220
0.0
230
1.0
 70
    11
 71
     3
 72
    36
 73
    32
 74
     0
 42
0.0000000001
 43
0.0000000001
 12
1.0
 22
0.0
 32
0.0
 13
1.0
 23
0.0
 33
0.0
 40
0.0
 40
0.0
 40
0.0
 40
0.0
 40
0.1111111111111111
 40
0.1111111111111111
 40
0.1111111111111111
 40
0.1111111111111111
 40
0.2222222222222222
 40
0.2222222222222222
 40
0.2222222222222222
 40
0.2222222222222222
 40
0.3333333333333333
 40
0.3333333333333333
 40
0.3333333333333333
 40
0.3333333333333333
 40
0.4444444444444444
 40
0.4444444444444444
 40
0.4444444444444444
 40
0.4444444444444444
 40
0.5555555555555556
 40
0.5555555555555556
 40
0.5555555555555556
 40
0.5555555555555556
 40
0.6666666666666666
 40
0.6666666666666666
 40
0.6666666666666666
 40
0.6666666666666666
 40
0.7777777777777778
 40
0.7777777777777778
 40
0.7777777777777778
 40
0.7777777777777778
 40
1.0
 40
1.0
 40
1.0
 40
1.0
 10
1.6575
 20
-2.28542
 30
0.0
 10
1.69771
 20
-2.28542
 30
0.0
 10
1.72904
 20
-2.27032
 30
0.0
 10
1.75134
 20
-2.23998
 30
0.0
 10
1.75134
 20
-2.23998
 30
0.0
 10
1.77349
 20
-2.20978
 30
0.0
 10
1.78464
 20
-2.16703
 30
0.0
 10
1.78464
 20
-2.11199
 30
0.0
 10
1.78464
 20
-2.11199
 30
0.0
 10
1.78464
 20
-2.0571
 30
0.0
 10
1.77349
 20
-2.01449
 30
0.0
 10
1.75134
 20
-1.98429
 30
0.0
 10
1.75134
 20
-1.98429
 30
0.0
 10
1.72904
 20
-1.95423
 30
0.0
 10
1.69771
 20
-1.93913
 30
0.0
 10
1.6575
 20
-1.93913
 30
0.0
 10
1.6575
 20
-1.93913
 30
0.0
 10
1.61714
 20
-1.93913
 30
0.0
 10
1.58581
 20
-1.95423
 30
0.0
 10
1.5638
 20
-1.98429
 30
0.0
 10
1.5638
 20
-1.98429
 30
0.0
 10
1.54164
 20
-2.01449
 30
0.0
 10
1.53064
 20
-2.0571
 30
0.0
 10
1.53064
 20
-2.11199
 30
0.0
 10
1.53064
 20
-2.11199
 30
0.0
 10
1.53064
 20
-2.16703
 30
0.0
 10
1.54164
 20
-2.20978
 30
0.0
 10
1.5638
 20
-2.23998
 30
0.0
 10
1.5638
 20
-2.23998
 30
0.0
 10
1.58581
 20
-2.27032
 30
0.0
 10
1.61714
 20
-2.28542
 30
0.0
 10
1.6575
 20
-2.28542
 30
0.0
  0
SPLINE
  5
53
330
1F
100
AcDbEntity
  8
Layer 1
 62
     5
370
    53
100
AcDbSpline
210
0.0
220
0.0
230
1.0
 70
    11
 71
     3
 72
    20
 73
    16
 74
     0
 42
0.0000000001
 43
0.0000000001
 12
1.0
 22
0.0
 32
0.0
 13
1.0
 23
0.0
 33
0.0
 40
0.0
 40
0.0
 40
0.0
 40
0.0
 40
0.2
 40
0.2
 40
0.2
 40
0.2
 40
0.4
 40
0.4
 40
0.4
 40
0.4
 40
0.6
 40
0.6
 40
0.6
 40
0.6
 40
1.0
 40
1.0
 40
1.0
 40
1.0
 10
1.95341
 20
-2.39718
 30
0.0
 10
1.95341
 20
-2.39718
 30
0.0
 10
1.95341
 20
-2.33622
 30
0.0
 10
1.95341
 20
-2.33622
 30
0.0
 10
1.95341
 20
-2.33622
 30
0.0
 10
1.95341
 20
-2.33622
 30
0.0
 10
2.30562
 20
-2.33622
 30
0.0
 10
2.30562
 20
-2.33622
 30
0.0
 10
2.30562
 20
-2.33622
 30
0.0
 10
2.30562
 20
-2.33622
 30
0.0
 10
2.30562
 20
-2.39718
 30
0.0
 10
2.30562
 20
-2.39718
 30
0.0
 10
2.30562
 20
-2.39718
 30
0.0
 10
2.30562
 20
-2.39718
 30
0.0
 10
1.95341
 20
-2.39718
 30
0.0
 10
1.95341
 20
-2.39718
 30
0.0
  0
SPLINE
  5
54
330
1F
100
AcDbEntity
  8
Layer 1
 62
     5
370
    53
100
AcDbSpline
210
0.0
220
0.0
230
1.0
 70
    11
 71
     3
 72
    40
 73
    36
 74
     0
 42
0.0000000001
 43
0.0000000001
 12
1.0
 22
0.0
 32
0.0
 13
1.0
 23
0.0
 33
0.0
 40
0.0
 40
0.0
 40
0.0
 40
0.0
 40
0.1
 40
0.1
 40
0.1
 40
0.1
 40
0.2
 40
0.2
 40
0.2
 40
0.2
 40
0.3
 40
0.3
 40
0.3
 40
0.3
 40
0.4
 40
0.4
 40
0.4
 40
0.4
 40
0.5
 40
0.5
 40
0.5
 40
0.5
 40
0.6
 40
0.6
 40
0.6
 40
0.6
 40
0.7
 40
0.7
 40
0.7
 40
0.7
 40
0.8
 40
0.8
 40
0.8
 40
0.8
 40
1.0
 40
1.0
 40
1.0
 40
1.0
 10
2.46819
 20
-2.33622
 30
0.0
 10
2.47609
 20
-2.28852
 30
0.0
 10
2.48752
 20
-2.24718
 30
0.0
 10
2.5022
 20
-2.21247
 30
0.0
 10
2.5022
 20
-2.21247
 30
0.0
 10
2.51687
 20
-2.17775
 30
0.0
 10
2.54298
 20
-2.12991
 30
0.0
 10
2.58023
 20
-2.06924
 30
0.0
 10
2.58023
 20
-2.06924
 30
0.0
 10
2.58023
 20
-2.06924
 30
0.0
 10
2.74674
 20
-1.80028
 30
0.0
 10
2.74674
 20
-1.80028
 30
0.0
 10
2.74674
 20
-1.80028
 30
0.0
 10
2.74674
 20
-1.80028
 30
0.0
 10
2.43263
 20
-1.80028
 30
0.0
 10
2.43263
 20
-1.80028
 30
0.0
 10
2.43263
 20
-1.80028
 30
0.0
 10
2.43263
 20
-1.80028
 30
0.0
 10
2.43263
 20
-1.72408
 30
0.0
 10
2.43263
 20
-1.72408
 30
0.0
 10
2.43263
 20
-1.72408
 30
0.0
 10
2.43263
 20
-1.72408
 30
0.0
 10
2.82549
 20
-1.72408
 30
0.0
 10
2.82549
 20
-1.72408
 30
0.0
 10
2.82549
 20
-1.72408
 30
0.0
 10
2.82549
 20
-1.72408
 30
0.0
 10
2.82549
 20
-1.80028
 30
0.0
 10
2.82549
 20
-1.80028
 30
0.0
 10
2.82549
 20
-1.80028
 30
0.0
 10
2.66871
 20
-2.0317
 30
0.0
 10
2.58094
 20
-2.21035
 30
0.0
 10
2.56217
 20
-2.33622
 30
0.0
 10
2.56217
 20
-2.33622
 30
0.0
 10
2.56217
 20
-2.33622
 30
0.0
 10
2.46819
 20
-2.33622
 30
0.0
 10
2.46819
 20
-2.33622
 30
0.0
  0
SPLINE
  5
55
330
1F
100
AcDbEntity
  8
Layer 1
 62
     5
370
    53
100
AcDbSpline
210
0.0
220
0.0
230
1.0
 70
    11
 71
     3
 72
    76
 73
    72
 74
     0
 42
0.0000000001
 43
0.0000000001
 12
1.0
 22
0.0
 32
0.0
 13
1.0
 23
0.0
 33
0.0
 40
0.0
 40
0.0
 40
0.0
 40
0.0
 40
0.0526315789473684
 40
0.0526315789473684
 40
0.0526315789473684
 40
0.0526315789473684
 40
0.1052631578947368
 40
0.1052631578947368
 40
0.1052631578947368
 40
0.1052631578947368
 40
0.1578947368421053
 40
0.1578947368421053
 40
0.1578947368421053
 40
0.1578947368421053
 40
0.2105263157894737
 40
0.2105263157894737
 40
0.2105263157894737
 40
0.2105263157894737
 40
0.2631578947368421
 40
0.2631578947368421
 40
0.2631578947368421
 40
0.2631578947368421
 40
0.3157894736842105
 40
0.3157894736842105
 40
0.3157894736842105
 40
0.3157894736842105
 40
0.3684210526315789
 40
0.3684210526315789
 40
0.3684210526315789
 40
0.3684210526315789
 40
0.4210526315789473
 40
0.4210526315789473
 40
0.4210526315789473
 40
0.4210526315789473
 40
0.4736842105263158
 40
0.4736842105263158
 40
0.4736842105263158
 40
0.4736842105263158
 40
0.5263157894736842
 40
0.5263157894736842
 40
0.5263157894736842
 40
0.5263157894736842
 40
0.5789473684210527
 40
0.5789473684210527
 40
0.5789473684210527
 40
0.5789473684210527
 40
0.631578947368421
 40
0.631578947368421
 40
0.631578947368421
 40
0.631578947368421
 40
0.6842105263157895
 40
0.6842105263157895
 40
0.6842105263157895
 40
0.6842105263157895
 40
0.7368421052631579
 40
0.7368421052631579
 40
0.7368421052631579
 40
0.7368421052631579
 40
0.7894736842105263
 40
0.7894736842105263
 40
0.7894736842105263
 40
0.7894736842105263
 40
0.8421052631578947
 40
0.8421052631578947
 40
0.8421052631578947
 40
0.8421052631578947
 40
0.8947368421052632
 40
0.8947368421052632
 40
0.8947368421052632
 40
0.8947368421052632
 40
1.0
 40
1.0
 40
1.0
 40
1.0
 10
-0.95251
 20
-3.63726
 30
0.0
 10
-0.95251
 20
-3.63726
 30
0.0
 10
-0.95251
 20
-3.56614
 30
0.0
 10
-0.95251
 20
-3.56614
 30
0.0
 10
-0.95251
 20
-3.56614
 30
0.0
 10
-0.9288
 20
-3.51068
 30
0.0
 10
-0.88096
 20
-3.45015
 30
0.0
 10
-0.80885
 20
-3.38481
 30
0.0
 10
-0.80885
 20
-3.38481
 30
0.0
 10
-0.80885
 20
-3.38481
 30
0.0
 10
-0.76229
 20
-3.34304
 30
0.0
 10
-0.76229
 20
-3.34304
 30
0.0
 10
-0.76229
 20
-3.34304
 30
0.0
 10
-0.70232
 20
-3.28857
 30
0.0
 10
-0.67226
 20
-3.23467
 30
0.0
 10
-0.67226
 20
-3.18105
 30
0.0
 10
-0.67226
 20
-3.18105
 30
0.0
 10
-0.67226
 20
-3.14676
 30
0.0
 10
-0.68256
 20
-3.11994
 30
0.0
 10
-0.70302
 20
-3.10033
 30
0.0
 10
-0.70302
 20
-3.10033
 30
0.0
 10
-0.72348
 20
-3.08072
 30
0.0
 10
-0.75185
 20
-3.07084
 30
0.0
 10
-0.78783
 20
-3.07084
 30
0.0
 10
-0.78783
 20
-3.07084
 30
0.0
 10
-0.82988
 20
-3.07084
 30
0.0
 10
-0.87969
 20
-3.08692
 30
0.0
 10
-0.93727
 20
-3.1191
 30
0.0
 10
-0.93727
 20
-3.1191
 30
0.0
 10
-0.93727
 20
-3.1191
 30
0.0
 10
-0.93727
 20
-3.04798
 30
0.0
 10
-0.93727
 20
-3.04798
 30
0.0
 10
-0.93727
 20
-3.04798
 30
0.0
 10
-0.88294
 20
-3.02258
 30
0.0
 10
-0.82889
 20
-3.00988
 30
0.0
 10
-0.77499
 20
-3.00988
 30
0.0
 10
-0.77499
 20
-3.00988
 30
0.0
 10
-0.7177
 20
-3.00988
 30
0.0
 10
-0.67169
 20
-3.02526
 30
0.0
 10
-0.63698
 20
-3.05616
 30
0.0
 10
-0.63698
 20
-3.05616
 30
0.0
 10
-0.60241
 20
-3.08707
 30
0.0
 10
-0.58505
 20
-3.12799
 30
0.0
 10
-0.58505
 20
-3.17907
 30
0.0
 10
-0.58505
 20
-3.17907
 30
0.0
 10
-0.58505
 20
-3.21576
 30
0.0
 10
-0.5938
 20
-3.24836
 30
0.0
 10
-0.6113
 20
-3.27672
 30
0.0
 10
-0.6113
 20
-3.27672
 30
0.0
 10
-0.62894
 20
-3.30522
 30
0.0
 10
-0.66153
 20
-3.33966
 30
0.0
 10
-0.70937
 20
-3.3803
 30
0.0
 10
-0.70937
 20
-3.3803
 30
0.0
 10
-0.70937
 20
-3.3803
 30
0.0
 10
-0.74084
 20
-3.40711
 30
0.0
 10
-0.74084
 20
-3.40711
 30
0.0
 10
-0.74084
 20
-3.40711
 30
0.0
 10
-0.80631
 20
-3.46256
 30
0.0
 10
-0.84413
 20
-3.51562
 30
0.0
 10
-0.85429
 20
-3.56614
 30
0.0
 10
-0.85429
 20
-3.56614
 30
0.0
 10
-0.85429
 20
-3.56614
 30
0.0
 10
-0.58759
 20
-3.56614
 30
0.0
 10
-0.58759
 20
-3.56614
 30
0.0
 10
-0.58759
 20
-3.56614
 30
0.0
 10
-0.58759
 20
-3.56614
 30
0.0
 10
-0.58759
 20
-3.63726
 30
0.0
 10
-0.58759
 20
-3.63726
 30
0.0
 10
-0.58759
 20
-3.63726
 30
0.0
 10
-0.58759
 20
-3.63726
 30
0.0
 10
-0.95251
 20
-3.63726
 30
0.0
 10
-0.95251
 20
-3.63726
 30
0.0
  0
SPLINE
  5
56
330
1F
100
AcDbEntity
  8
Layer 1
 62
     5
370
    53
100
AcDbSpline
210
0.0
220
0.0
230
1.0
 70
    11
 71
     3
 72
    76
 73
    72
 74
     0
 42
0.0000000001
 43
0.0000000001
 12
1.0
 22
0.0
 32
0.0
 13
1.0
 23
0.0
 33
0.0
 40
0.0
 40
0.0
 40
0.0
 40
0.0
 40
0.0526315789473684
 40
0.0526315789473684
 40
0.0526315789473684
 40
0.0526315789473684
 40
0.1052631578947368
 40
0.1052631578947368
 40
0.1052631578947368
 40
0.1052631578947368
 40
0.1578947368421053
 40
0.1578947368421053
 40
0.1578947368421053
 40
0.1578947368421053
 40
0.2105263157894737
 40
0.2105263157894737
 40
0.2105263157894737
 40
0.2105263157894737
 40
0.2631578947368421
 40
0.2631578947368421
 40
0.2631578947368421
 40
0.2631578947368421
 40
0.3157894736842105
 40
0.3157894736842105
 40
0.3157894736842105
 40
0.3157894736842105
 40
0.3684210526315789
 40
0.3684210526315789
 40
0.3684210526315789
 40
0.3684210526315789
 40
0.4210526315789473
 40
0.4210526315789473
 40
0.4210526315789473
 40
0.4210526315789473
 40
0.4736842105263158
 40
0.4736842105263158
 40
0.4736842105263158
 40
0.4736842105263158
 40
0.5263157894736842
 40
0.5263157894736842
 40
0.5263157894736842
 40
0.5263157894736842
 40
0.5789473684210527
 40
0.5789473684210527
 40
0.5789473684210527
 40
0.5789473684210527
 40
0.631578947368421
 40
0.631578947368421
 40
0.631578947368421
 40
0.631578947368421
 40
0.6842105263157895
 40
0.6842105263157895
 40
0.6842105263157895
 40
0.6842105263157895
 40
0.7368421052631579
 40
0.7368421052631579
 40
0.7368421052631579
 40
0.7368421052631579
 40
0.7894736842105263
 40
0.7894736842105263
 40
0.7894736842105263
 40
0.7894736842105263
 40
0.8421052631578947
 40
0.8421052631578947
 40
0.8421052631578947
 40
0.8421052631578947
 40
0.8947368421052632
 40
0.8947368421052632
 40
0.8947368421052632
 40
0.8947368421052632
 40
1.0
 40
1.0
 40
1.0
 40
1.0
 10
-0.41713
 20
-3.63726
 30
0.0
 10
-0.41713
 20
-3.63726
 30
0.0
 10
-0.41713
 20
-3.56614
 30
0.0
 10
-0.41713
 20
-3.56614
 30
0.0
 10
-0.41713
 20
-3.56614
 30
0.0
 10
-0.39342
 20
-3.51068
 30
0.0
 10
-0.34558
 20
-3.45015
 30
0.0
 10
-0.27347
 20
-3.38481
 30
0.0
 10
-0.27347
 20
-3.38481
 30
0.0
 10
-0.27347
 20
-3.38481
 30
0.0
 10
-0.22691
 20
-3.34304
 30
0.0
 10
-0.22691
 20
-3.34304
 30
0.0
 10
-0.22691
 20
-3.34304
 30
0.0
 10
-0.16694
 20
-3.28857
 30
0.0
 10
-0.13688
 20
-3.23467
 30
0.0
 10
-0.13688
 20
-3.18105
 30
0.0
 10
-0.13688
 20
-3.18105
 30
0.0
 10
-0.13688
 20
-3.14676
 30
0.0
 10
-0.14718
 20
-3.11994
 30
0.0
 10
-0.16764
 20
-3.10033
 30
0.0
 10
-0.16764
 20
-3.10033
 30
0.0
 10
-0.1881
 20
-3.08072
 30
0.0
 10
-0.21647
 20
-3.07084
 30
0.0
 10
-0.25245
 20
-3.07084
 30
0.0
 10
-0.25245
 20
-3.07084
 30
0.0
 10
-0.2945
 20
-3.07084
 30
0.0
 10
-0.34431
 20
-3.08692
 30
0.0
 10
-0.40189
 20
-3.1191
 30
0.0
 10
-0.40189
 20
-3.1191
 30
0.0
 10
-0.40189
 20
-3.1191
 30
0.0
 10
-0.40189
 20
-3.04798
 30
0.0
 10
-0.40189
 20
-3.04798
 30
0.0
 10
-0.40189
 20
-3.04798
 30
0.0
 10
-0.34756
 20
-3.02258
 30
0.0
 10
-0.29351
 20
-3.00988
 30
0.0
 10
-0.23961
 20
-3.00988
 30
0.0
 10
-0.23961
 20
-3.00988
 30
0.0
 10
-0.18232
 20
-3.00988
 30
0.0
 10
-0.13631
 20
-3.02526
 30
0.0
 10
-0.1016
 20
-3.05616
 30
0.0
 10
-0.1016
 20
-3.05616
 30
0.0
 10
-0.06703
 20
-3.08707
 30
0.0
 10
-0.04967
 20
-3.12799
 30
0.0
 10
-0.04967
 20
-3.17907
 30
0.0
 10
-0.04967
 20
-3.17907
 30
0.0
 10
-0.04967
 20
-3.21576
 30
0.0
 10
-0.05842
 20
-3.24836
 30
0.0
 10
-0.07592
 20
-3.27672
 30
0.0
 10
-0.07592
 20
-3.27672
 30
0.0
 10
-0.09356
 20
-3.30522
 30
0.0
 10
-0.12615
 20
-3.33966
 30
0.0
 10
-0.17399
 20
-3.3803
 30
0.0
 10
-0.17399
 20
-3.3803
 30
0.0
 10
-0.17399
 20
-3.3803
 30
0.0
 10
-0.20546
 20
-3.40711
 30
0.0
 10
-0.20546
 20
-3.40711
 30
0.0
 10
-0.20546
 20
-3.40711
 30
0.0
 10
-0.27093
 20
-3.46256
 30
0.0
 10
-0.30875
 20
-3.51562
 30
0.0
 10
-0.31891
 20
-3.56614
 30
0.0
 10
-0.31891
 20
-3.56614
 30
0.0
 10
-0.31891
 20
-3.56614
 30
0.0
 10
-0.05221
 20
-3.56614
 30
0.0
 10
-0.05221
 20
-3.56614
 30
0.0
 10
-0.05221
 20
-3.56614
 30
0.0
 10
-0.05221
 20
-3.56614
 30
0.0
 10
-0.05221
 20
-3.63726
 30
0.0
 10
-0.05221
 20
-3.63726
 30
0.0
 10
-0.05221
 20
-3.63726
 30
0.0
 10
-0.05221
 20
-3.63726
 30
0.0
 10
-0.41713
 20
-3.63726
 30
0.0
 10
-0.41713
 20
-3.63726
 30
0.0
  0
SPLINE
  5
57
330
1F
100
AcDbEntity
  8
Layer 1
 62
     5
370
    53
100
AcDbSpline
210
0.0
220
0.0
230
1.0
 70
    11
 71
     3
 72
    20
 73
    16
 74
     0
 42
0.0000000001
 43
0.0000000001
 12
1.0
 22
0.0
 32
0.0
 13
1.0
 23
0.0
 33
0.0
 40
0.0
 40
0.0
 40
0.0
 40
0.0
 40
0.2
 40
0.2
 40
0.2
 40
0.2
 40
0.4
 40
0.4
 40
0.4
 40
0.4
 40
0.6
 40
0.6
 40
0.6
 40
0.6
 40
1.0
 40
1.0
 40
1.0
 40
1.0
 10
0.08354
 20
-3.69822
 30
0.0
 10
0.08354
 20
-3.69822
 30
0.0
 10
0.08354
 20
-3.63726
 30
0.0
 10
0.08354
 20
-3.63726
 30
0.0
 10
0.08354
 20
-3.63726
 30
0.0
 10
0.08354
 20
-3.63726
 30
0.0
 10
0.43575
 20
-3.63726
 30
0.0
 10
0.43575
 20
-3.63726
 30
0.0
 10
0.43575
 20
-3.63726
 30
0.0
 10
0.43575
 20
-3.63726
 30
0.0
 10
0.43575
 20
-3.69822
 30
0.0
 10
0.43575
 20
-3.69822
 30
0.0
 10
0.43575
 20
-3.69822
 30
0.0
 10
0.43575
 20
-3.69822
 30
0.0
 10
0.08354
 20
-3.69822
 30
0.0
 10
0.08354
 20
-3.69822
 30
0.0
  0
SPLINE
  5
58
330
1F
100
AcDbEntity
  8
Layer 1
 62
     5
370
    53
100
AcDbSpline
210
0.0
220
0.0
230
1.0
 70
    11
 71
     3
 72
    40
 73
    36
 74
     0
 42
0.0000000001
 43
0.0000000001
 12
1.0
 22
0.0
 32
0.0
 13
1.0
 23
0.0
 33
0.0
 40
0.0
 40
0.0
 40
0.0
 40
0.0
 40
0.1
 40
0.1
 40
0.1
 40
0.1
 40
0.2
 40
0.2
 40
0.2
 40
0.2
 40
0.3
 40
0.3
 40
0.3
 40
0.3
 40
0.4
 40
0.4
 40
0.4
 40
0.4
 40
0.5
 40
0.5
 40
0.5
 40
0.5
 40
0.6
 40
0.6
 40
0.6
 40
0.6
 40
0.7
 40
0.7
 40
0.7
 40
0.7
 40
0.8
 40
0.8
 40
0.8
 40
0.8
 40
1.0
 40
1.0
 40
1.0
 40
1.0
 10
0.59832
 20
-3.63726
 30
0.0
 10
0.60622
 20
-3.58956
 30
0.0
 10
0.61765
 20
-3.54822
 30
0.0
 10
0.63233
 20
-3.51351
 30
0.0
 10
0.63233
 20
-3.51351
 30
0.0
 10
0.647
 20
-3.47879
 30
0.0
 10
0.67311
 20
-3.43095
 30
0.0
 10
0.71036
 20
-3.37028
 30
0.0
 10
0.71036
 20
-3.37028
 30
0.0
 10
0.71036
 20
-3.37028
 30
0.0
 10
0.87687
 20
-3.10132
 30
0.0
 10
0.87687
 20
-3.10132
 30
0.0
 10
0.87687
 20
-3.10132
 30
0.0
 10
0.87687
 20
-3.10132
 30
0.0
 10
0.56276
 20
-3.10132
 30
0.0
 10
0.56276
 20
-3.10132
 30
0.0
 10
0.56276
 20
-3.10132
 30
0.0
 10
0.56276
 20
-3.10132
 30
0.0
 10
0.56276
 20
-3.02512
 30
0.0
 10
0.56276
 20
-3.02512
 30
0.0
 10
0.56276
 20
-3.02512
 30
0.0
 10
0.56276
 20
-3.02512
 30
0.0
 10
0.95562
 20
-3.02512
 30
0.0
 10
0.95562
 20
-3.02512
 30
0.0
 10
0.95562
 20
-3.02512
 30
0.0
 10
0.95562
 20
-3.02512
 30
0.0
 10
0.95562
 20
-3.10132
 30
0.0
 10
0.95562
 20
-3.10132
 30
0.0
 10
0.95562
 20
-3.10132
 30
0.0
 10
0.79884
 20
-3.33274
 30
0.0
 10
0.71107
 20
-3.51139
 30
0.0
 10
0.6923
 20
-3.63726
 30
0.0
 10
0.6923
 20
-3.63726
 30
0.0
 10
0.6923
 20
-3.63726
 30
0.0
 10
0.59832
 20
-3.63726
 30
0.0
 10
0.59832
 20
-3.63726
 30
0.0
  0
SPLINE
  5
59
330
1F
100
AcDbEntity
  8
Layer 1
370
    53
100
AcDbSpline
210
0.0
220
0.0
230
1.0
 70
    11
 71
     3
 72
    36
 73
    32
 74
     0
 42
0.0000000001
 43
0.0000000001
 12
1.0
 22
0.0
 32
0.0
 13
1.0
 23
0.0
 33
0.0
 40
0.0
 40
0.0
 40
0.0
 40
0.0
 40
0.1111111111111111
 40
0.1111111111111111
 40
0.1111111111111111
 40
0.1111111111111111
 40
0.2222222222222222
 40
0.2222222222222222
 40
0.2222222222222222
 40
0.2222222222222222
 40
0.3333333333333333
 40
0.3333333333333333
 40
0.3333333333333333
 40
0.3333333333333333
 40
0.4444444444444444
 40
0.4444444444444444
 40
0.4444444444444444
 40
0.4444444444444444
 40
0.5555555555555556
 40
0.5555555555555556
 40
0.5555555555555556
 40
0.5555555555555556
 40
0.6666666666666666
 40
0.6666666666666666
 40
0.6666666666666666
 40
0.6666666666666666
 40
0.7777777777777778
 40
0.7777777777777778
 40
0.7777777777777778
 40
0.7777777777777778
 40
1.0
 40
1.0
 40
1.0
 40
1.0
 10
9.05
 20
-3.95
 30
0.0
 10
9.05
 20
-3.95
 30
0.0
 10
9.05
 20
2.45
 30
0.0
 10
9.05
 20
2.45
 30
0.0
 10
9.05
 20
2.45
 30
0.0
 10
9.05
 20
2.72614
 30
0.0
 10
9.27386
 20
2.95
 30
0.0
 10
9.55
 20
2.95
 30
0.0
 10
9.55
 20
2.95
 30
0.0
 10
9.55
 20
2.95
 30
0.0
 10
9.95
 20
2.95
 30
0.0
 10
9.95
 20
2.95
 30
0.0
 10
9.95
 20
2.95
 30
0.0
 10
10.22614
 20
2.95
 30
0.0
 10
10.45
 20
2.72614
 30
0.0
 10
10.45
 20
2.45
 30
0.0
 10
10.45
 20
2.45
 30
0.0
 10
10.45
 20
2.45
 30
0.0
 10
10.45
 20
-3.95
 30
0.0
 10
10.45
 20
-3.95
 30
0.0
 10
10.45
 20
-3.95
 30
0.0
 10
10.45
 20
-4.22614
 30
0.0
 10
10.22614
 20
-4.45
 30
0.0
 10
9.95
 20
-4.45
 30
0.0
 10
9.95
 20
-4.45
 30
0.0
 10
9.95
 20
-4.45
 30
0.0
 10
9.55
 20
-4.45
 30
0.0
 10
9.55
 20
-4.45
 30
0.0
 10
9.55
 20
-4.45
 30
0.0
 10
9.27386
 20
-4.45
 30
0.0
 10
9.05
 20
-4.22614
 30
0.0
 10
9.05
 20
-3.95
 30
0.0
  0
SPLINE
  5
5A
330
1F
100
AcDbEntity
  8
Layer 1
370
    53
100
AcDbSpline
210
0.0
220
0.0
230
1.0
 70
    11
 71
     3
 72
    36
 73
    32
 74
     0
 42
0.0000000001
 43
0.0000000001
 12
1.0
 22
0.0
 32
0.0
 13
1.0
 23
0.0
 33
0.0
 40
0.0
 40
0.0
 40
0.0
 40
0.0
 40
0.1111111111111111
 40
0.1111111111111111
 40
0.1111111111111111
 40
0.1111111111111111
 40
0.2222222222222222
 40
0.2222222222222222
 40
0.2222222222222222
 40
0.2222222222222222
 40
0.3333333333333333
 40
0.3333333333333333
 40
0.3333333333333333
 40
0.3333333333333333
 40
0.4444444444444444
 40
0.4444444444444444
 40
0.4444444444444444
 40
0.4444444444444444
 40
0.5555555555555556
 40
0.5555555555555556
 40
0.5555555555555556
 40
0.5555555555555556
 40
0.6666666666666666
 40
0.6666666666666666
 40
0.6666666666666666
 40
0.6666666666666666
 40
0.7777777777777778
 40
0.7777777777777778
 40
0.7777777777777778
 40
0.7777777777777778
 40
1.0
 40
1.0
 40
1.0
 40
1.0
 10
6.05
 20
-3.95
 30
0.0
 10
6.05
 20
-3.95
 30
0.0
 10
6.05
 20
2.45
 30
0.0
 10
6.05
 20
2.45
 30
0.0
 10
6.05
 20
2.45
 30
0.0
 10
6.05
 20
2.72614
 30
0.0
 10
6.27386
 20
2.95
 30
0.0
 10
6.55
 20
2.95
 30
0.0
 10
6.55
 20
2.95
 30
0.0
 10
6.55
 20
2.95
 30
0.0
 10
6.95
 20
2.95
 30
0.0
 10
6.95
 20
2.95
 30
0.0
 10
6.95
 20
2.95
 30
0.0
 10
7.22614
 20
2.95
 30
0.0
 10
7.45
 20
2.72614
 30
0.0
 10
7.45
 20
2.45
 30
0.0
 10
7.45
 20
2.45
 30
0.0
 10
7.45
 20
2.45
 30
0.0
 10
7.45
 20
-3.95
 30
0.0
 10
7.45
 20
-3.95
 30
0.0
 10
7.45
 20
-3.95
 30
0.0
 10
7.45
 20
-4.22614
 30
0.0
 10
7.22614
 20
-4.45
 30
0.0
 10
6.95
 20
-4.45
 30
0.0
 10
6.95
 20
-4.45
 30
0.0
 10
6.95
 20
-4.45
 30
0.0
 10
6.55
 20
-4.45
 30
0.0
 10
6.55
 20
-4.45
 30
0.0
 10
6.55
 20
-4.45
 30
0.0
 10
6.27386
 20
-4.45
 30
0.0
 10
6.05
 20
-4.22614
 30
0.0
 10
6.05
 20
-3.95
 30
0.0
  0
SPLINE
  5
5B
330
1F
100
AcDbEntity
  8
Layer 1
370
    53
100
AcDbSpline
210
0.0
220
0.0
230
1.0
 70
    11
 71
     3
 72
    36
 73
    32
 74
     0
 42
0.0000000001
 43
0.0000000001
 12
1.0
 22
0.0
 32
0.0
 13
1.0
 23
0.0
 33
0.0
 40
0.0
 40
0.0
 40
0.0
 40
0.0
 40
0.1111111111111111
 40
0.1111111111111111
 40
0.1111111111111111
 40
0.1111111111111111
 40
0.2222222222222222
 40
0.2222222222222222
 40
0.2222222222222222
 40
0.2222222222222222
 40
0.3333333333333333
 40
0.3333333333333333
 40
0.3333333333333333
 40
0.3333333333333333
 40
0.4444444444444444
 40
0.4444444444444444
 40
0.4444444444444444
 40
0.4444444444444444
 40
0.5555555555555556
 40
0.5555555555555556
 40
0.5555555555555556
 40
0.5555555555555556
 40
0.6666666666666666
 40
0.6666666666666666
 40
0.6666666666666666
 40
0.6666666666666666
 40
0.7777777777777778
 40
0.7777777777777778
 40
0.7777777777777778
 40
0.7777777777777778
 40
1.0
 40
1.0
 40
1.0
 40
1.0
 10
3.05
 20
-3.95
 30
0.0
 10
3.05
 20
-3.95
 30
0.0
 10
3.05
 20
2.45
 30
0.0
 10
3.05
 20
2.45
 30
0.0
 10
3.05
 20
2.45
 30
0.0
 10
3.05
 20
2.72614
 30
0.0
 10
3.27386
 20
2.95
 30
0.0
 10
3.55
 20
2.95
 30
0.0
 10
3.55
 20
2.95
 30
0.0
 10
3.55
 20
2.95
 30
0.0
 10
3.95
 20
2.95
 30
0.0
 10
3.95
 20
2.95
 30
0.0
 10
3.95
 20
2.95
 30
0.0
 10
4.22614
 20
2.95
 30
0.0
 10
4.45
 20
2.72614
 30
0.0
 10
4.45
 20
2.45
 30
0.0
 10
4.45
 20
2.45
 30
0.0
 10
4.45
 20
2.45
 30
0.0
 10
4.45
 20
-3.95
 30
0.0
 10
4.45
 20
-3.95
 30
0.0
 10
4.45
 20
-3.95
 30
0.0
 10
4.45
 20
-4.22614
 30
0.0
 10
4.22614
 20
-4.45
 30
0.0
 10
3.95
 20
-4.45
 30
0.0
 10
3.95
 20
-4.45
 30
0.0
 10
3.95
 20
-4.45
 30
0.0
 10
3.55
 20
-4.45
 30
0.0
 10
3.55
 20
-4.45
 30
0.0
 10
3.55
 20
-4.45
 30
0.0
 10
3.27386
 20
-4.45
 30
0.0
 10
3.05
 20
-4.22614
 30
0.0
 10
3.05
 20
-3.95
 30
0.0
  0
SPLINE
  5
5C
330
1F
100
AcDbEntity
  8
Layer 1
370
    53
100
AcDbSpline
210
0.0
220
0.0
230
1.0
 70
    11
 71
     3
 72
    36
 73
    32
 74
     0
 42
0.0000000001
 43
0.0000000001
 12
1.0
 22
0.0
 32
0.0
 13
1.0
 23
0.0
 33
0.0
 40
0.0
 40
0.0
 40
0.0
 40
0.0
 40
0.1111111111111111
 40
0.1111111111111111
 40
0.1111111111111111
 40
0.1111111111111111
 40
0.2222222222222222
 40
0.2222222222222222
 40
0.2222222222222222
 40
0.2222222222222222
 40
0.3333333333333333
 40
0.3333333333333333
 40
0.3333333333333333
 40
0.3333333333333333
 40
0.4444444444444444
 40
0.4444444444444444
 40
0.4444444444444444
 40
0.4444444444444444
 40
0.5555555555555556
 40
0.5555555555555556
 40
0.5555555555555556
 40
0.5555555555555556
 40
0.6666666666666666
 40
0.6666666666666666
 40
0.6666666666666666
 40
0.6666666666666666
 40
0.7777777777777778
 40
0.7777777777777778
 40
0.7777777777777778
 40
0.7777777777777778
 40
1.0
 40
1.0
 40
1.0
 40
1.0
 10
-5.95
 20
-3.95
 30
0.0
 10
-5.95
 20
-3.95
 30
0.0
 10
-5.95
 20
2.45
 30
0.0
 10
-5.95
 20
2.45
 30
0.0
 10
-5.95
 20
2.45
 30
0.0
 10
-5.95
 20
2.72614
 30
0.0
 10
-5.72614
 20
2.95
 30
0.0
 10
-5.45
 20
2.95
 30
0.0
 10
-5.45
 20
2.95
 30
0.0
 10
-5.45
 20
2.95
 30
0.0
 10
-5.05
 20
2.95
 30
0.0
 10
-5.05
 20
2.95
 30
0.0
 10
-5.05
 20
2.95
 30
0.0
 10
-4.77386
 20
2.95
 30
0.0
 10
-4.55
 20
2.72614
 30
0.0
 10
-4.55
 20
2.45
 30
0.0
 10
-4.55
 20
2.45
 30
0.0
 10
-4.55
 20
2.45
 30
0.0
 10
-4.55
 20
-3.95
 30
0.0
 10
-4.55
 20
-3.95
 30
0.0
 10
-4.55
 20
-3.95
 30
0.0
 10
-4.55
 20
-4.22614
 30
0.0
 10
-4.77386
 20
-4.45
 30
0.0
 10
-5.05
 20
-4.45
 30
0.0
 10
-5.05
 20
-4.45
 30
0.0
 10
-5.05
 20
-4.45
 30
0.0
 10
-5.45
 20
-4.45
 30
0.0
 10
-5.45
 20
-4.45
 30
0.0
 10
-5.45
 20
-4.45
 30
0.0
 10
-5.72614
 20
-4.45
 30
0.0
 10
-5.95
 20
-4.22614
 30
0.0
 10
-5.95
 20
-3.95
 30
0.0
  0
SPLINE
  5
5D
330
1F
100
AcDbEntity
  8
Layer 1
370
    53
100
AcDbSpline
210
0.0
220
0.0
230
1.0
 70
    11
 71
     3
 72
    36
 73
    32
 74
     0
 42
0.0000000001
 43
0.0000000001
 12
1.0
 22
0.0
 32
0.0
 13
1.0
 23
0.0
 33
0.0
 40
0.0
 40
0.0
 40
0.0
 40
0.0
 40
0.1111111111111111
 40
0.1111111111111111
 40
0.1111111111111111
 40
0.1111111111111111
 40
0.2222222222222222
 40
0.2222222222222222
 40
0.2222222222222222
 40
0.2222222222222222
 40
0.3333333333333333
 40
0.3333333333333333
 40
0.3333333333333333
 40
0.3333333333333333
 40
0.4444444444444444
 40
0.4444444444444444
 40
0.4444444444444444
 40
0.4444444444444444
 40
0.5555555555555556
 40
0.5555555555555556
 40
0.5555555555555556
 40
0.5555555555555556
 40
0.6666666666666666
 40
0.6666666666666666
 40
0.6666666666666666
 40
0.6666666666666666
 40
0.7777777777777778
 40
0.7777777777777778
 40
0.7777777777777778
 40
0.7777777777777778
 40
1.0
 40
1.0
 40
1.0
 40
1.0
 10
-8.95
 20
-3.95
 30
0.0
 10
-8.95
 20
-3.95
 30
0.0
 10
-8.95
 20
2.45
 30
0.0
 10
-8.95
 20
2.45
 30
0.0
 10
-8.95
 20
2.45
 30
0.0
 10
-8.95
 20
2.72614
 30
0.0
 10
-8.72614
 20
2.95
 30
0.0
 10
-8.45
 20
2.95
 30
0.0
 10
-8.45
 20
2.95
 30
0.0
 10
-8.45
 20
2.95
 30
0.0
 10
-8.05
 20
2.95
 30
0.0
 10
-8.05
 20
2.95
 30
0.0
 10
-8.05
 20
2.95
 30
0.0
 10
-7.77386
 20
2.95
 30
0.0
 10
-7.55
 20
2.72614
 30
0.0
 10
-7.55
 20
2.45
 30
0.0
 10
-7.55
 20
2.45
 30
0.0
 10
-7.55
 20
2.45
 30
0.0
 10
-7.55
 20
-3.95
 30
0.0
 10
-7.55
 20
-3.95
 30
0.0
 10
-7.55
 20
-3.95
 30
0.0
 10
-7.55
 20
-4.22614
 30
0.0
 10
-7.77386
 20
-4.45
 30
0.0
 10
-8.05
 20
-4.45
 30
0.0
 10
-8.05
 20
-4.45
 30
0.0
 10
-8.05
 20
-4.45
 30
0.0
 10
-8.45
 20
-4.45
 30
0.0
 10
-8.45
 20
-4.45
 30
0.0
 10
-8.45
 20
-4.45
 30
0.0
 10
-8.72614
 20
-4.45
 30
0.0
 10
-8.95
 20
-4.22614
 30
0.0
 10
-8.95
 20
-3.95
 30
0.0
  0
SPLINE
  5
5E
330
1F
100
AcDbEntity
  8
Layer 1
370
    53
100
AcDbSpline
210
0.0
220
0.0
230
1.0
 70
    11
 71
     3
 72
    36
 73
    32
 74
     0
 42
0.0000000001
 43
0.0000000001
 12
1.0
 22
0.0
 32
0.0
 13
1.0
 23
0.0
 33
0.0
 40
0.0
 40
0.0
 40
0.0
 40
0.0
 40
0.1111111111111111
 40
0.1111111111111111
 40
0.1111111111111111
 40
0.1111111111111111
 40
0.2222222222222222
 40
0.2222222222222222
 40
0.2222222222222222
 40
0.2222222222222222
 40
0.3333333333333333
 40
0.3333333333333333
 40
0.3333333333333333
 40
0.3333333333333333
 40
0.4444444444444444
 40
0.4444444444444444
 40
0.4444444444444444
 40
0.4444444444444444
 40
0.5555555555555556
 40
0.5555555555555556
 40
0.5555555555555556
 40
0.5555555555555556
 40
0.6666666666666666
 40
0.6666666666666666
 40
0.6666666666666666
 40
0.6666666666666666
 40
0.7777777777777778
 40
0.7777777777777778
 40
0.7777777777777778
 40
0.7777777777777778
 40
1.0
 40
1.0
 40
1.0
 40
1.0
 10
-11.95
 20
-3.95
 30
0.0
 10
-11.95
 20
-3.95
 30
0.0
 10
-11.95
 20
2.45
 30
0.0
 10
-11.95
 20
2.45
 30
0.0
 10
-11.95
 20
2.45
 30
0.0
 10
-11.95
 20
2.72614
 30
0.0
 10
-11.72614
 20
2.95
 30
0.0
 10
-11.45
 20
2.95
 30
0.0
 10
-11.45
 20
2.95
 30
0.0
 10
-11.45
 20
2.95
 30
0.0
 10
-11.05
 20
2.95
 30
0.0
 10
-11.05
 20
2.95
 30
0.0
 10
-11.05
 20
2.95
 30
0.0
 10
-10.77386
 20
2.95
 30
0.0
 10
-10.55
 20
2.72614
 30
0.0
 10
-10.55
 20
2.45
 30
0.0
 10
-10.55
 20
2.45
 30
0.0
 10
-10.55
 20
2.45
 30
0.0
 10
-10.55
 20
-3.95
 30
0.0
 10
-10.55
 20
-3.95
 30
0.0
 10
-10.55
 20
-3.95
 30
0.0
 10
-10.55
 20
-4.22614
 30
0.0
 10
-10.77386
 20
-4.45
 30
0.0
 10
-11.05
 20
-4.45
 30
0.0
 10
-11.05
 20
-4.45
 30
0.0
 10
-11.05
 20
-4.45
 30
0.0
 10
-11.45
 20
-4.45
 30
0.0
 10
-11.45
 20
-4.45
 30
0.0
 10
-11.45
 20
-4.45
 30
0.0
 10
-11.72614
 20
-4.45
 30
0.0
 10
-11.95
 20
-4.22614
 30
0.0
 10
-11.95
 20
-3.95
 30
0.0
  0
ELLIPSE
  5
5F
330
1F
100
AcDbEntity
  8
Layer 1
370
    53
100
AcDbEllipse
 10
0.75001
 20
4.49999
 30
0.0
 11
0.0
 21
0.30001
 31
0.0
210
0.0
220
0.0
230
1.0
 40
1.0
 41
0.0
 42
6.283185307179586
  0
ELLIPSE
  5
60
330
1F
100
AcDbEntity
  8
Layer 1
370
    53
100
AcDbEllipse
 10
-5.24999
 20
4.49999
 30
0.0
 11
0.0
 21
0.30001
 31
0.0
210
0.0
220
0.0
230
1.0
 40
1.0
 41
0.0
 42
6.283185307179586
  0
ELLIPSE
  5
61
330
1F
100
AcDbEntity
  8
Layer 1
370
    53
100
AcDbEllipse
 10
-0.74999
 20
4.49999
 30
0.0
 11
0.0
 21
0.30001
 31
0.0
210
0.0
220
0.0
230
1.0
 40
1.0
 41
0.0
 42
6.283185307179586
  0
ELLIPSE
  5
62
330
1F
100
AcDbEntity
  8
Layer 1
370
    53
100
AcDbEllipse
 10
-6.74999
 20
4.49999
 30
0.0
 11
0.0
 21
0.30001
 31
0.0
210
0.0
220
0.0
230
1.0
 40
1.0
 41
0.0
 42
6.283185307179586
  0
ELLIPSE
  5
63
330
1F
100
AcDbEntity
  8
Layer 1
370
    53
100
AcDbEllipse
 10
2.25001
 20
4.49999
 30
0.0
 11
0.0
 21
0.30001
 31
0.0
210
0.0
220
0.0
230
1.0
 40
1.0
 41
0.0
 42
6.283185307179586
  0
ELLIPSE
  5
64
330
1F
100
AcDbEntity
  8
Layer 1
370
    53
100
AcDbEllipse
 10
-3.74999
 20
4.49999
 30
0.0
 11
0.0
 21
0.30001
 31
0.0
210
0.0
220
0.0
230
1.0
 40
1.0
 41
0.0
 42
6.283185307179586
  0
ELLIPSE
  5
65
330
1F
100
AcDbEntity
  8
Layer 1
370
    53
100
AcDbEllipse
 10
-2.24999
 20
4.49999
 30
0.0
 11
0.0
 21
0.30001
 31
0.0
210
0.0
220
0.0
230
1.0
 40
1.0
 41
0.0
 42
6.283185307179586
  0
ELLIPSE
  5
66
330
1F
100
AcDbEntity
  8
Layer 1
 62
     4
370
    53
100
AcDbEllipse
 10
-2.24999
 20
4.49999
 30
0.0
 11
0.0
 21
0.60001
 31
0.0
210
0.0
220
0.0
230
1.0
 40
1.0
 41
0.0
 42
6.283185307179586
  0
ELLIPSE
  5
67
330
1F
100
AcDbEntity
  8
Layer 1
370
    53
100
AcDbEllipse
 10
-15.74999
 20
1.49999
 30
0.0
 11
0.0
 21
0.30001
 31
0.0
210
0.0
220
0.0
230
1.0
 40
1.0
 41
0.0
 42
6.283185307179586
  0
ELLIPSE
  5
68
330
1F
100
AcDbEntity
  8
Layer 1
370
    53
100
AcDbEllipse
 10
-15.74999
 20
2.99999
 30
0.0
 11
0.0
 21
0.30001
 31
0.0
210
0.0
220
0.0
230
1.0
 40
1.0
 41
0.0
 42
6.283185307179586
  0
ELLIPSE
  5
69
330
1F
100
AcDbEntity
  8
Layer 1
370
    53
100
AcDbEllipse
 10
-15.74999
 20
4.49999
 30
0.0
 11
0.0
 21
0.30001
 31
0.0
210
0.0
220
0.0
230
1.0
 40
1.0
 41
0.0
 42
6.283185307179586
  0
ELLIPSE
  5
6A
330
1F
100
AcDbEntity
  8
Layer 1
370
    53
100
AcDbEllipse
 10
-14.24999
 20
4.49999
 30
0.0
 11
0.0
 21
0.30001
 31
0.0
210
0.0
220
0.0
230
1.0
 40
1.0
 41
0.0
 42
6.283185307179586
  0
ELLIPSE
  5
6B
330
1F
100
AcDbEntity
  8
Layer 1
370
    53
100
AcDbEllipse
 10
-12.74999
 20
4.49999
 30
0.0
 11
0.0
 21
0.30001
 31
0.0
210
0.0
220
0.0
230
1.0
 40
1.0
 41
0.0
 42
6.283185307179586
  0
ELLIPSE
  5
6C
330
1F
100
AcDbEntity
  8
Layer 1
370
    53
100
AcDbEllipse
 10
-11.24999
 20
4.49999
 30
0.0
 11
0.0
 21
0.30001
 31
0.0
210
0.0
220
0.0
230
1.0
 40
1.0
 41
0.0
 42
6.283185307179586
  0
ELLIPSE
  5
6D
330
1F
100
AcDbEntity
  8
Layer 1
370
    53
100
AcDbEllipse
 10
-9.74999
 20
4.49999
 30
0.0
 11
0.0
 21
0.30001
 31
0.0
210
0.0
220
0.0
230
1.0
 40
1.0
 41
0.0
 42
6.283185307179586
  0
ELLIPSE
  5
6E
330
1F
100
AcDbEntity
  8
Layer 1
370
    53
100
AcDbEllipse
 10
-8.24999
 20
4.49999
 30
0.0
 11
0.0
 21
0.30001
 31
0.0
210
0.0
220
0.0
230
1.0
 40
1.0
 41
0.0
 42
6.283185307179586
  0
ELLIPSE
  5
6F
330
1F
100
AcDbEntity
  8
Layer 1
370
    53
100
AcDbEllipse
 10
5.25001
 20
4.49999
 30
0.0
 11
0.0
 21
0.30001
 31
0.0
210
0.0
220
0.0
230
1.0
 40
1.0
 41
0.0
 42
6.283185307179586
  0
ELLIPSE
  5
70
330
1F
100
AcDbEntity
  8
Layer 1
370
    53
100
AcDbEllipse
 10
3.75001
 20
4.49999
 30
0.0
 11
0.0
 21
0.30001
 31
0.0
210
0.0
220
0.0
230
1.0
 40
1.0
 41
0.0
 42
6.283185307179586
  0
ELLIPSE
  5
71
330
1F
100
AcDbEntity
  8
Layer 1
370
    53
100
AcDbEllipse
 10
6.75001
 20
4.49999
 30
0.0
 11
0.0
 21
0.30001
 31
0.0
210
0.0
220
0.0
230
1.0
 40
1.0
 41
0.0
 42
6.283185307179586
  0
ELLIPSE
  5
72
330
1F
100
AcDbEntity
  8
Layer 1
370
    53
100
AcDbEllipse
 10
9.75001
 20
4.49999
 30
0.0
 11
0.0
 21
0.30001
 31
0.0
210
0.0
220
0.0
230
1.0
 40
1.0
 41
0.0
 42
6.283185307179586
  0
ELLIPSE
  5
73
330
1F
100
AcDbEntity
  8
Layer 1
370
    53
100
AcDbEllipse
 10
8.25001
 20
4.49999
 30
0.0
 11
0.0
 21
0.30001
 31
0.0
210
0.0
220
0.0
230
1.0
 40
1.0
 41
0.0
 42
6.283185307179586
  0
ELLIPSE
  5
74
330
1F
100
AcDbEntity
  8
Layer 1
370
    53
100
AcDbEllipse
 10
11.25001
 20
4.49999
 30
0.0
 11
0.0
 21
0.30001
 31
0.0
210
0.0
220
0.0
230
1.0
 40
1.0
 41
0.0
 42
6.283185307179586
  0
ELLIPSE
  5
75
330
1F
100
AcDbEntity
  8
Layer 1
370
    53
100
AcDbEllipse
 10
12.75001
 20
4.49999
 30
0.0
 11
0.0
 21
0.30001
 31
0.0
210
0.0
220
0.0
230
1.0
 40
1.0
 41
0.0
 42
6.283185307179586
  0
ELLIPSE
  5
76
330
1F
100
AcDbEntity
  8
Layer 1
370
    53
100
AcDbEllipse
 10
14.25001
 20
4.49999
 30
0.0
 11
0.0
 21
0.30001
 31
0.0
210
0.0
220
0.0
230
1.0
 40
1.0
 41
0.0
 42
6.283185307179586
  0
ELLIPSE
  5
77
330
1F
100
AcDbEntity
  8
Layer 1
370
    53
100
AcDbEllipse
 10
15.75001
 20
4.49999
 30
0.0
 11
0.0
 21
0.30001
 31
0.0
210
0.0
220
0.0
230
1.0
 40
1.0
 41
0.0
 42
6.283185307179586
  0
ELLIPSE
  5
78
330
1F
100
AcDbEntity
  8
Layer 1
370
    53
100
AcDbEllipse
 10
15.75001
 20
-4.50001
 30
0.0
 11
0.0
 21
0.30001
 31
0.0
210
0.0
220
0.0
230
1.0
 40
1.0
 41
0.0
 42
6.283185307179586
  0
ELLIPSE
  5
79
330
1F
100
AcDbEntity
  8
Layer 1
370
    53
100
AcDbEllipse
 10
15.0
 20
4.5
 30
0.0
 11
0.0
 21
0.15
 31
0.0
210
0.0
220
0.0
230
1.0
 40
1.0
 41
0.0
 42
6.283185307179586
  0
ELLIPSE
  5
7A
330
1F
100
AcDbEntity
  8
Layer 1
370
    53
100
AcDbEllipse
 10
13.5
 20
4.5
 30
0.0
 11
0.0
 21
0.15
 31
0.0
210
0.0
220
0.0
230
1.0
 40
1.0
 41
0.0
 42
6.283185307179586
  0
ELLIPSE
  5
7B
330
1F
100
AcDbEntity
  8
Layer 1
370
    53
100
AcDbEllipse
 10
12.0
 20
4.5
 30
0.0
 11
0.0
 21
0.15
 31
0.0
210
0.0
220
0.0
230
1.0
 40
1.0
 41
0.0
 42
6.283185307179586
  0
ELLIPSE
  5
7C
330
1F
100
AcDbEntity
  8
Layer 1
370
    53
100
AcDbEllipse
 10
10.5
 20
4.5
 30
0.0
 11
0.0
 21
0.15
 31
0.0
210
0.0
220
0.0
230
1.0
 40
1.0
 41
0.0
 42
6.283185307179586
  0
ELLIPSE
  5
7D
330
1F
100
AcDbEntity
  8
Layer 1
370
    53
100
AcDbEllipse
 10
9.0
 20
4.5
 30
0.0
 11
0.0
 21
0.15
 31
0.0
210
0.0
220
0.0
230
1.0
 40
1.0
 41
0.0
 42
6.283185307179586
  0
ELLIPSE
  5
7E
330
1F
100
AcDbEntity
  8
Layer 1
370
    53
100
AcDbEllipse
 10
7.5
 20
4.5
 30
0.0
 11
0.0
 21
0.15
 31
0.0
210
0.0
220
0.0
230
1.0
 40
1.0
 41
0.0
 42
6.283185307179586
  0
ELLIPSE
  5
7F
330
1F
100
AcDbEntity
  8
Layer 1
370
    53
100
AcDbEllipse
 10
6.0
 20
4.5
 30
0.0
 11
0.0
 21
0.15
 31
0.0
210
0.0
220
0.0
230
1.0
 40
1.0
 41
0.0
 42
6.283185307179586
  0
ELLIPSE
  5
80
330
1F
100
AcDbEntity
  8
Layer 1
370
    53
100
AcDbEllipse
 10
4.5
 20
4.5
 30
0.0
 11
0.0
 21
0.15
 31
0.0
210
0.0
220
0.0
230
1.0
 40
1.0
 41
0.0
 42
6.283185307179586
  0
ELLIPSE
  5
81
330
1F
100
AcDbEntity
  8
Layer 1
370
    53
100
AcDbEllipse
 10
3.0
 20
4.5
 30
0.0
 11
0.0
 21
0.15
 31
0.0
210
0.0
220
0.0
230
1.0
 40
1.0
 41
0.0
 42
6.283185307179586
  0
ELLIPSE
  5
82
330
1F
100
AcDbEntity
  8
Layer 1
370
    53
100
AcDbEllipse
 10
1.5
 20
4.5
 30
0.0
 11
0.0
 21
0.15
 31
0.0
210
0.0
220
0.0
230
1.0
 40
1.0
 41
0.0
 42
6.283185307179586
  0
ELLIPSE
  5
83
330
1F
100
AcDbEntity
  8
Layer 1
370
    53
100
AcDbEllipse
 10
0.0
 20
4.5
 30
0.0
 11
0.0
 21
0.15
 31
0.0
210
0.0
220
0.0
230
1.0
 40
1.0
 41
0.0
 42
6.283185307179586
  0
ELLIPSE
  5
84
330
1F
100
AcDbEntity
  8
Layer 1
370
    53
100
AcDbEllipse
 10
-1.5
 20
4.5
 30
0.0
 11
0.0
 21
0.15
 31
0.0
210
0.0
220
0.0
230
1.0
 40
1.0
 41
0.0
 42
6.283185307179586
  0
ELLIPSE
  5
85
330
1F
100
AcDbEntity
  8
Layer 1
370
    53
100
AcDbEllipse
 10
-3.0
 20
4.5
 30
0.0
 11
0.0
 21
0.15
 31
0.0
210
0.0
220
0.0
230
1.0
 40
1.0
 41
0.0
 42
6.283185307179586
  0
ELLIPSE
  5
86
330
1F
100
AcDbEntity
  8
Layer 1
370
    53
100
AcDbEllipse
 10
-4.5
 20
4.5
 30
0.0
 11
0.0
 21
0.15
 31
0.0
210
0.0
220
0.0
230
1.0
 40
1.0
 41
0.0
 42
6.283185307179586
  0
ELLIPSE
  5
87
330
1F
100
AcDbEntity
  8
Layer 1
370
    53
100
AcDbEllipse
 10
-6.0
 20
4.5
 30
0.0
 11
0.0
 21
0.15
 31
0.0
210
0.0
220
0.0
230
1.0
 40
1.0
 41
0.0
 42
6.283185307179586
  0
ELLIPSE
  5
88
330
1F
100
AcDbEntity
  8
Layer 1
370
    53
100
AcDbEllipse
 10
-7.5
 20
4.5
 30
0.0
 11
0.0
 21
0.15
 31
0.0
210
0.0
220
0.0
230
1.0
 40
1.0
 41
0.0
 42
6.283185307179586
  0
ELLIPSE
  5
89
330
1F
100
AcDbEntity
  8
Layer 1
370
    53
100
AcDbEllipse
 10
-9.0
 20
4.5
 30
0.0
 11
0.0
 21
0.15
 31
0.0
210
0.0
220
0.0
230
1.0
 40
1.0
 41
0.0
 42
6.283185307179586
  0
ELLIPSE
  5
8A
330
1F
100
AcDbEntity
  8
Layer 1
370
    53
100
AcDbEllipse
 10
-10.5
 20
4.5
 30
0.0
 11
0.0
 21
0.15
 31
0.0
210
0.0
220
0.0
230
1.0
 40
1.0
 41
0.0
 42
6.283185307179586
  0
ELLIPSE
  5
8B
330
1F
100
AcDbEntity
  8
Layer 1
370
    53
100
AcDbEllipse
 10
-12.0
 20
4.5
 30
0.0
 11
0.0
 21
0.15
 31
0.0
210
0.0
220
0.0
230
1.0
 40
1.0
 41
0.0
 42
6.283185307179586
  0
ELLIPSE
  5
8C
330
1F
100
AcDbEntity
  8
Layer 1
370
    53
100
AcDbEllipse
 10
-13.5
 20
4.5
 30
0.0
 11
0.0
 21
0.15
 31
0.0
210
0.0
220
0.0
230
1.0
 40
1.0
 41
0.0
 42
6.283185307179586
  0
ELLIPSE
  5
8D
330
1F
100
AcDbEntity
  8
Layer 1
370
    53
100
AcDbEllipse
 10
-15.0
 20
4.5
 30
0.0
 11
0.0
 21
0.15
 31
0.0
210
0.0
220
0.0
230
1.0
 40
1.0
 41
0.0
 42
6.283185307179586
  0
ELLIPSE
  5
8E
330
1F
100
AcDbEntity
  8
Layer 1
370
    53
100
AcDbEllipse
 10
-15.75
 20
2.25
 30
0.0
 11
0.0
 21
0.15
 31
0.0
210
0.0
220
0.0
230
1.0
 40
1.0
 41
0.0
 42
6.283185307179586
  0
ELLIPSE
  5
8F
330
1F
100
AcDbEntity
  8
Layer 1
370
    53
100
AcDbEllipse
 10
15.75001
 20
-0.00001
 30
0.0
 11
0.0
 21
0.30001
 31
0.0
210
0.0
220
0.0
230
1.0
 40
1.0
 41
0.0
 42
6.283185307179586
  0
ELLIPSE
  5
90
330
1F
100
AcDbEntity
  8
Layer 1
370
    53
100
AcDbEllipse
 10
15.75
 20
-0.75
 30
0.0
 11
0.0
 21
0.15
 31
0.0
210
0.0
220
0.0
230
1.0
 40
1.0
 41
0.0
 42
6.283185307179586
  0
ELLIPSE
  5
91
330
1F
100
AcDbEntity
  8
Layer 1
370
    53
100
AcDbEllipse
 10
15.75
 20
-2.25
 30
0.0
 11
0.0
 21
0.15
 31
0.0
210
0.0
220
0.0
230
1.0
 40
1.0
 41
0.0
 42
6.283185307179586
  0
ELLIPSE
  5
92
330
1F
100
AcDbEntity
  8
Layer 1
370
    53
100
AcDbEllipse
 10
15.75
 20
-3.75
 30
0.0
 11
0.0
 21
0.15
 31
0.0
210
0.0
220
0.0
230
1.0
 40
1.0
 41
0.0
 42
6.283185307179586
  0
ELLIPSE
  5
93
330
1F
100
AcDbEntity
  8
Layer 1
370
    53
100
AcDbEllipse
 10
15.75001
 20
-1.50001
 30
0.0
 11
0.0
 21
0.30001
 31
0.0
210
0.0
220
0.0
230
1.0
 40
1.0
 41
0.0
 42
6.283185307179586
  0
ELLIPSE
  5
94
330
1F
100
AcDbEntity
  8
Layer 1
370
    53
100
AcDbEllipse
 10
15.75001
 20
-3.00001
 30
0.0
 11
0.0
 21
0.30001
 31
0.0
210
0.0
220
0.0
230
1.0
 40
1.0
 41
0.0
 42
6.283185307179586
  0
ENDSEC
  0
SECTION
  2
OBJECTS
  0
DICTIONARY
  5
C
330
0
100
AcDbDictionary
281
     1
  3
ACAD_GROUP
350
D
  3
ACAD_LAYOUT
350
1A
  3
ACAD_MATERIAL
350
3B
  3
ACAD_MLEADERSTYLE
350
B6
  3
ACAD_MLINESTYLE
350
17
  3
ACAD_PLOTSETTINGS
350
19
  3
ACAD_PLOTSTYLENAME
350
E
  3
ACAD_TABLESTYLE
350
B5
  3
ACAD_VISUALSTYLE
350
2A
  0
DICTIONARY
  5
D
102
{ACAD_REACTORS
330
C
102
}
330
C
100
AcDbDictionary
281
     1
  0
DICTIONARY
  5
1A
102
{ACAD_REACTORS
330
C
102
}
330
C
100
AcDbDictionary
281
     1
  3
Layout1
350
1E
  3
Layout2
350
26
  3
Model
350
22
  0
DICTIONARY
  5
3B
102
{ACAD_REACTORS
330
C
102
}
330
C
100
AcDbDictionary
281
     1
  3
ByBlock
350
3D
  3
ByLayer
350
3C
  3
Global
350
3E
  0
DICTIONARY
  5
B6
102
{ACAD_REACTORS
330
C
102
}
330
C
100
AcDbDictionary
281
     1
  0
DICTIONARY
  5
17
102
{ACAD_REACTORS
330
C
102
}
330
C
100
AcDbDictionary
281
     1
  3
Standard
350
18
  0
DICTIONARY
  5
19
102
{ACAD_REACTORS
330
C
102
}
330
C
100
AcDbDictionary
281
     1
  0
ACDBDICTIONARYWDFLT
  5
E
102
{ACAD_REACTORS
330
C
102
}
330
C
100
AcDbDictionary
281
     1
  3
Normal
350
F
100
AcDbDictionaryWithDefault
340
F
  0
DICTIONARY
  5
B5
102
{ACAD_REACTORS
330
C
102
}
330
C
100
AcDbDictionary
281
     1
  0
DICTIONARY
  5
2A
102
{ACAD_REACTORS
330
C
102
}
330
C
100
AcDbDictionary
281
     1
  3
2dWireframe
350
2F
  3
3D Hidden
350
31
  3
3dWireframe
350
30
  3
Basic
350
32
  3
Brighten
350
36
  3
ColorChange
350
3A
  3
Conceptual
350
34
  3
Dim
350
35
  3
Facepattern
350
39
  3
Flat
350
2B
  3
FlatWithEdges
350
2C
  3
Gouraud
350
2D
  3
GouraudWithEdges
350
2E
  3
Linepattern
350
38
  3
Realistic
350
33
  3
Thicken
350
37
  0
LAYOUT
  5
1E
102
{ACAD_REACTORS
330
1A
102
}
330
1A
100
AcDbPlotSettings
  1

  2
none_device
  4

  6

 40
0.0
 41
0.0
 42
0.0
 43
0.0
 44
0.0
 45
0.0
 46
0.0
 47
0.0
 48
0.0
 49
0.0
140
0.0
141
0.0
142
1.0
143
1.0
 70
   688
 72
     0
 73
     0
 74
     5
  7

 75
    16
 76
     0
 77
     2
 78
   300
147
1.0
148
0.0
149
0.0
100
AcDbLayout
  1
Layout1
 70
     1
 71
     1
 10
0.0
 20
0.0
 11
12.0
 21
9.0
 12
0.0
 22
0.0
 32
0.0
 14
1.000000000000000E+20
 24
1.000000000000000E+20
 34
1.000000000000000E+20
 15
-1.000000000000000E+20
 25
-1.000000000000000E+20
 35
-1.000000000000000E+20
146
0.0
 13
0.0
 23
0.0
 33
0.0
 16
1.0
 26
0.0
 36
0.0
 17
0.0
 27
1.0
 37
0.0
 76
     0
330
1B
  0
LAYOUT
  5
26
102
{ACAD_REACTORS
330
1A
102
}
330
1A
100
AcDbPlotSettings
  1

  2
none_device
  4

  6

 40
0.0
 41
0.0
 42
0.0
 43
0.0
 44
0.0
 45
0.0
 46
0.0
 47
0.0
 48
0.0
 49
0.0
140
0.0
141
0.0
142
1.0
143
1.0
 70
   688
 72
     0
 73
     0
 74
     5
  7

 75
    16
 76
     0
 77
     2
 78
   300
147
1.0
148
0.0
149
0.0
100
AcDbLayout
  1
Layout2
 70
     1
 71
     2
 10
0.0
 20
0.0
 11
0.0
 21
0.0
 12
0.0
 22
0.0
 32
0.0
 14
0.0
 24
0.0
 34
0.0
 15
0.0
 25
0.0
 35
0.0
146
0.0
 13
0.0
 23
0.0
 33
0.0
 16
1.0
 26
0.0
 36
0.0
 17
0.0
 27
1.0
 37
0.0
 76
     0
330
23
  0
LAYOUT
  5
22
102
{ACAD_REACTORS
330
1A
102
}
330
1A
100
AcDbPlotSettings
  1

  2
none_device
  4

  6

 40
0.0
 41
0.0
 42
0.0
 43
0.0
 44
0.0
 45
0.0
 46
0.0
 47
0.0
 48
0.0
 49
0.0
140
0.0
141
0.0
142
1.0
143
1.0
 70
  1712
 72
     0
 73
     0
 74
     0
  7

 75
     0
 76
     0
 77
     2
 78
   300
147
1.0
148
0.0
149
0.0
100
AcDbLayout
  1
Model
 70
     1
 71
     0
 10
0.0
 20
0.0
 11
12.0
 21
9.0
 12
0.0
 22
0.0
 32
0.0
 14
-16.47646
 24
-5.22646
 34
0.0
 15
16.47646
 25
5.22646
 35
0.0
146
0.0
 13
0.0
 23
0.0
 33
0.0
 16
1.0
 26
0.0
 36
0.0
 17
0.0
 27
1.0
 37
0.0
 76
     0
330
1F
331
29
  0
MATERIAL
  5
3D
102
{ACAD_REACTORS
330
3B
102
}
330
3B
100
AcDbMaterial
  1
ByBlock
 72
     1
 94
      127
  0
MATERIAL
  5
3C
102
{ACAD_REACTORS
330
3B
102
}
330
3B
100
AcDbMaterial
  1
ByLayer
 72
     1
 94
      127
  0
MATERIAL
  5
3E
102
{ACAD_REACTORS
330
3B
102
}
330
3B
100
AcDbMaterial
  1
Global
 72
     1
 94
      127
  0
MLINESTYLE
  5
18
102
{ACAD_REACTORS
330
17
102
}
330
17
100
AcDbMlineStyle
  2
Standard
 70
     0
  3

 62
   256
 51
90.0
 52
90.0
 71
     2
 49
0.5
 62
   256
  6
BYLAYER
 49
-0.5
 62
   256
  6
BYLAYER
  0
ACDBPLACEHOLDER
  5
F
102
{ACAD_REACTORS
330
E
102
}
330
E
  0
VISUALSTYLE
  5
2F
102
{ACAD_REACTORS
330
2A
102
}
102
{ACAD_XDICTIONARY
360
9D
102
}
330
2A
100
AcDbVisualStyle
  2
2dWireframe
 70
     4
 71
     0
 72
     2
 73
     0
 90
        0
 40
-0.6
 41
-30.0
 62
     5
 63
     7
421
 16777215
 74
     1
 91
        4
 64
     7
 65
   257
 75
     1
175
     1
 42
1.0
 92
        0
 66
   257
 43
1.0
 76
     1
 77
     6
 78
     2
 67
     7
 79
     5
170
     0
171
     0
290
     0
174
     0
 93
        1
 44
0.0
173
     0
291
     0
 45
0.0
  0
VISUALSTYLE
  5
31
102
{ACAD_REACTORS
330
2A
102
}
102
{ACAD_XDICTIONARY
360
A1
102
}
330
2A
100
AcDbVisualStyle
  2
3D Hidden
 70
     6
 71
     1
 72
     2
 73
     2
 90
        0
 40
-0.6
 41
-30.0
 62
     5
 63
     7
421
 16777215
 74
     2
 91
        2
 64
     7
 65
   257
 75
     2
175
     1
 42
40.0
 92
        0
 66
   257
 43
1.0
 76
     1
 77
     6
 78
     2
 67
     7
 79
     3
170
     0
171
     0
290
     0
174
     0
 93
        1
 44
0.0
173
     0
291
     0
 45
0.0
  0
VISUALSTYLE
  5
30
102
{ACAD_REACTORS
330
2A
102
}
102
{ACAD_XDICTIONARY
360
9F
102
}
330
2A
100
AcDbVisualStyle
  2
3dWireframe
 70
     5
 71
     0
 72
     2
 73
     0
 90
        0
 40
-0.6
 41
-30.0
 62
     5
 63
     7
421
 16777215
 74
     1
 91
        4
 64
     7
 65
   257
 75
     1
175
     1
 42
1.0
 92
        0
 66
   257
 43
1.0
 76
     1
 77
     6
 78
     2
 67
     7
 79
     5
170
     0
171
     0
290
     0
174
     0
 93
        1
 44
0.0
173
     0
291
     0
 45
0.0
  0
VISUALSTYLE
  5
32
102
{ACAD_REACTORS
330
2A
102
}
102
{ACAD_XDICTIONARY
360
A3
102
}
330
2A
100
AcDbVisualStyle
  2
Basic
 70
     7
 71
     1
 72
     0
 73
     1
 90
        0
 40
-0.6
 41
-30.0
 62
     5
 63
     7
421
 16777215
 74
     0
 91
        4
 64
     7
 65
   257
 75
     1
175
     1
 42
1.0
 92
        8
 66
     7
 43
1.0
 76
     1
 77
     6
 78
     2
 67
     7
 79
     5
170
     0
171
     0
290
     0
174
     0
 93
        1
 44
0.0
173
     0
291
     1
 45
0.0
  0
VISUALSTYLE
  5
36
102
{ACAD_REACTORS
330
2A
102
}
102
{ACAD_XDICTIONARY
360
AB
102
}
330
2A
100
AcDbVisualStyle
  2
Brighten
 70
    12
 71
     2
 72
     2
 73
     0
 90
        0
 40
-0.6
 41
-30.0
 62
     5
 63
     7
421
 16777215
 74
     1
 91
        4
 64
     7
 65
   257
 75
     1
175
     1
 42
1.0
 92
        8
 66
     7
 43
1.0
 76
     1
 77
     6
 78
     2
 67
     7
 79
     5
170
     0
171
     0
290
     0
174
     0
 93
        1
 44
50.0
173
     0
291
     1
 45
0.0
  0
VISUALSTYLE
  5
3A
102
{ACAD_REACTORS
330
2A
102
}
102
{ACAD_XDICTIONARY
360
B3
102
}
330
2A
100
AcDbVisualStyle
  2
ColorChange
 70
    16
 71
     2
 72
     2
 73
     3
 90
        0
 40
-0.6
 41
-30.0
 62
     5
 63
     8
421
  8421504
 74
     1
 91
        4
 64
     7
 65
   257
 75
     1
175
     1
 42
1.0
 92
        8
 66
     8
424
  8421504
 43
1.0
 76
     1
 77
     6
 78
     2
 67
     7
 79
     5
170
     0
171
     0
290
     0
174
     0
 93
        1
 44
0.0
173
     0
291
     1
 45
0.0
  0
VISUALSTYLE
  5
34
102
{ACAD_REACTORS
330
2A
102
}
102
{ACAD_XDICTIONARY
360
A7
102
}
330
2A
100
AcDbVisualStyle
  2
Conceptual
 70
     9
 71
     3
 72
     2
 73
     0
 90
        0
 40
-0.6
 41
-30.0
 62
     5
 63
     7
421
 16777215
 74
     2
 91
        2
 64
     7
 65
   257
 75
     1
175
     1
 42
40.0
 92
        8
 66
     7
 43
1.0
 76
     1
 77
     6
 78
     2
 67
     7
 79
     3
170
     0
171
     0
290
     0
174
     0
 93
        1
 44
0.0
173
     0
291
     0
 45
0.0
  0
VISUALSTYLE
  5
35
102
{ACAD_REACTORS
330
2A
102
}
102
{ACAD_XDICTIONARY
360
A9
102
}
330
2A
100
AcDbVisualStyle
  2
Dim
 70
    11
 71
     2
 72
     2
 73
     0
 90
        0
 40
-0.6
 41
-30.0
 62
     5
 63
     7
421
 16777215
 74
     1
 91
        4
 64
     7
 65
   257
 75
     1
175
     1
 42
1.0
 92
        8
 66
     7
 43
1.0
 76
     1
 77
     6
 78
     2
 67
     7
 79
     5
170
     0
171
     0
290
     0
174
     0
 93
        1
 44
-50.0
173
     0
291
     1
 45
0.0
  0
VISUALSTYLE
  5
39
102
{ACAD_REACTORS
330
2A
102
}
102
{ACAD_XDICTIONARY
360
B1
102
}
330
2A
100
AcDbVisualStyle
  2
Facepattern
 70
    15
 71
     2
 72
     2
 73
     0
 90
        0
 40
-0.6
 41
-30.0
 62
     5
 63
     7
421
 16777215
 74
     1
 91
        4
 64
     7
 65
   257
 75
     1
175
     1
 42
1.0
 92
        8
 66
     7
 43
1.0
 76
     1
 77
     6
 78
     2
 67
     7
 79
     5
170
     0
171
     0
290
     0
174
     0
 93
        1
 44
0.0
173
     0
291
     1
 45
0.0
  0
VISUALSTYLE
  5
2B
102
{ACAD_REACTORS
330
2A
102
}
102
{ACAD_XDICTIONARY
360
95
102
}
330
2A
100
AcDbVisualStyle
  2
Flat
 70
     0
 71
     2
 72
     1
 73
     1
 90
        2
 40
-0.6
 41
30.0
 62
     5
 63
     7
421
 16777215
 74
     0
 91
        4
 64
     7
 65
   257
 75
     1
175
     1
 42
1.0
 92
        8
 66
     7
 43
1.0
 76
     1
 77
     6
 78
     2
 67
     7
 79
     5
170
     0
171
     0
290
     0
174
     0
 93
       13
 44
0.0
173
     0
291
     1
 45
0.0
  0
VISUALSTYLE
  5
2C
102
{ACAD_REACTORS
330
2A
102
}
102
{ACAD_XDICTIONARY
360
97
102
}
330
2A
100
AcDbVisualStyle
  2
FlatWithEdges
 70
     1
 71
     2
 72
     1
 73
     1
 90
        2
 40
-0.6
 41
30.0
 62
     5
 63
     7
421
 16777215
 74
     1
 91
        4
 64
     7
 65
   257
 75
     1
175
     1
 42
1.0
 92
        0
 66
   257
 43
1.0
 76
     1
 77
     6
 78
     2
 67
     7
 79
     5
170
     0
171
     0
290
     0
174
     0
 93
       13
 44
0.0
173
     0
291
     1
 45
0.0
  0
VISUALSTYLE
  5
2D
102
{ACAD_REACTORS
330
2A
102
}
102
{ACAD_XDICTIONARY
360
99
102
}
330
2A
100
AcDbVisualStyle
  2
Gouraud
 70
     2
 71
     2
 72
     2
 73
     1
 90
        2
 40
-0.6
 41
30.0
 62
     5
 63
     7
421
 16777215
 74
     0
 91
        4
 64
     7
 65
   257
 75
     1
175
     1
 42
1.0
 92
        0
 66
     7
 43
1.0
 76
     1
 77
     6
 78
     2
 67
     7
 79
     5
170
     0
171
     0
290
     0
174
     0
 93
       13
 44
0.0
173
     0
291
     1
 45
0.0
  0
VISUALSTYLE
  5
2E
102
{ACAD_REACTORS
330
2A
102
}
102
{ACAD_XDICTIONARY
360
9B
102
}
330
2A
100
AcDbVisualStyle
  2
GouraudWithEdges
 70
     3
 71
     2
 72
     2
 73
     1
 90
        2
 40
-0.6
 41
30.0
 62
     5
 63
     7
421
 16777215
 74
     1
 91
        4
 64
     7
 65
   257
 75
     1
175
     1
 42
1.0
 92
        0
 66
   257
 43
1.0
 76
     1
 77
     6
 78
     2
 67
     7
 79
     5
170
     0
171
     0
290
     0
174
     0
 93
       13
 44
0.0
173
     0
291
     1
 45
0.0
  0
VISUALSTYLE
  5
38
102
{ACAD_REACTORS
330
2A
102
}
102
{ACAD_XDICTIONARY
360
AF
102
}
330
2A
100
AcDbVisualStyle
  2
Linepattern
 70
    14
 71
     2
 72
     2
 73
     0
 90
        0
 40
-0.6
 41
-30.0
 62
     5
 63
     7
421
 16777215
 74
     1
 91
        4
 64
     7
 65
   257
 75
     7
175
     7
 42
1.0
 92
        8
 66
     7
 43
1.0
 76
     1
 77
     6
 78
     2
 67
     7
 79
     5
170
     0
171
     0
290
     0
174
     0
 93
        1
 44
0.0
173
     0
291
     1
 45
0.0
  0
VISUALSTYLE
  5
33
102
{ACAD_REACTORS
330
2A
102
}
102
{ACAD_XDICTIONARY
360
A5
102
}
330
2A
100
AcDbVisualStyle
  2
Realistic
 70
     8
 71
     2
 72
     2
 73
     0
 90
        0
 40
-0.6
 41
-30.0
 62
     5
 63
     7
421
 16777215
 74
     1
 91
        0
 64
     7
 65
   257
 75
     1
175
     1
 42
1.0
 92
        8
 66
     8
424
  7895160
 43
1.0
 76
     1
 77
     6
 78
     2
 67
     7
 79
     5
170
     0
171
     0
290
     0
174
     0
 93
       13
 44
0.0
173
     0
291
     0
 45
0.0
  0
VISUALSTYLE
  5
37
102
{ACAD_REACTORS
330
2A
102
}
102
{ACAD_XDICTIONARY
360
AD
102
}
330
2A
100
AcDbVisualStyle
  2
Thicken
 70
    13
 71
     2
 72
     2
 73
     0
 90
        0
 40
-0.6
 41
-30.0
 62
     5
 63
     7
421
 16777215
 74
     1
 91
        4
 64
     7
 65
   257
 75
     1
175
     1
 42
1.0
 92
       12
 66
     7
 43
1.0
 76
     1
 77
     6
 78
     2
 67
     7
 79
     5
170
     0
171
     0
290
     0
174
     0
 93
        1
 44
0.0
173
     0
291
     1
 45
0.0
  0
DICTIONARY
  5
9D
330
2F
100
AcDbDictionary
280
     1
281
     1
  3
ACAD_XREC_ROUNDTRIP
360
9E
  0
DICTIONARY
  5
A1
330
31
100
AcDbDictionary
280
     1
281
     1
  3
ACAD_XREC_ROUNDTRIP
360
A2
  0
DICTIONARY
  5
9F
330
30
100
AcDbDictionary
280
     1
281
     1
  3
ACAD_XREC_ROUNDTRIP
360
A0
  0
DICTIONARY
  5
A3
330
32
100
AcDbDictionary
280
     1
281
     1
  3
ACAD_XREC_ROUNDTRIP
360
A4
  0
DICTIONARY
  5
AB
330
36
100
AcDbDictionary
280
     1
281
     1
  3
ACAD_XREC_ROUNDTRIP
360
AC
  0
DICTIONARY
  5
B3
330
3A
100
AcDbDictionary
280
     1
281
     1
  3
ACAD_XREC_ROUNDTRIP
360
B4
  0
DICTIONARY
  5
A7
330
34
100
AcDbDictionary
280
     1
281
     1
  3
ACAD_XREC_ROUNDTRIP
360
A8
  0
DICTIONARY
  5
A9
330
35
100
AcDbDictionary
280
     1
281
     1
  3
ACAD_XREC_ROUNDTRIP
360
AA
  0
DICTIONARY
  5
B1
330
39
100
AcDbDictionary
280
     1
281
     1
  3
ACAD_XREC_ROUNDTRIP
360
B2
  0
DICTIONARY
  5
95
330
2B
100
AcDbDictionary
280
     1
281
     1
  3
ACAD_XREC_ROUNDTRIP
360
96
  0
DICTIONARY
  5
97
330
2C
100
AcDbDictionary
280
     1
281
     1
  3
ACAD_XREC_ROUNDTRIP
360
98
  0
DICTIONARY
  5
99
330
2D
100
AcDbDictionary
280
     1
281
     1
  3
ACAD_XREC_ROUNDTRIP
360
9A
  0
DICTIONARY
  5
9B
330
2E
100
AcDbDictionary
280
     1
281
     1
  3
ACAD_XREC_ROUNDTRIP
360
9C
  0
DICTIONARY
  5
AF
330
38
100
AcDbDictionary
280
     1
281
     1
  3
ACAD_XREC_ROUNDTRIP
360
B0
  0
DICTIONARY
  5
A5
330
33
100
AcDbDictionary
280
     1
281
     1
  3
ACAD_XREC_ROUNDTRIP
360
A6
  0
DICTIONARY
  5
AD
330
37
100
AcDbDictionary
280
     1
281
     1
  3
ACAD_XREC_ROUNDTRIP
360
AE
  0
XRECORD
  5
9E
102
{ACAD_REACTORS
330
9D
102
}
330
9D
100
AcDbXrecord
280
     1
102
RTVSPropertyOp0
 70
     1
102
RTVSPropertyOp1
 70
     1
102
RTVSPropertyOp2
 70
     1
102
RTVSPropertyOp3
 70
     1
102
RTVSPropertyOp4
 70
     1
102
RTVSPropertyOp5
 70
     1
102
RTVSPropertyOp6
 70
     1
102
RTVSPropertyOp7
 70
     1
102
RTVSPropertyOp8
 70
     1
102
RTVSPropertyOp9
 70
     1
102
RTVSPropertyOp10
 70
     1
102
RTVSPropertyOp11
 70
     1
102
RTVSPropertyOp12
 70
     1
102
RTVSPropertyOp13
 70
     1
102
RTVSPropertyOp14
 70
     1
102
RTVSPropertyOp15
 70
     1
102
RTVSPropertyOp16
 70
     1
102
RTVSPropertyOp17
 70
     1
102
RTVSPropertyOp18
 70
     1
102
RTVSPropertyOp19
 70
     1
102
RTVSPropertyOp20
 70
     1
102
RTVSPropertyOp21
 70
     1
102
RTVSPropertyOp22
 70
     1
102
RTVSPropertyOp23
 70
     1
102
RTVSPropertyOp24
 70
     1
102
RTVSPropertyOp25
 70
     1
102
RTVSPropertyOp26
 70
     1
102
RTVSPropertyOp27
 70
     1
102
RTVSPropertyOp28
 70
     1
102
RTVSPropertyOp29
 70
     1
102
RTVSPropertyOp30
 70
     1
102
RTVSPropertyOp31
 70
     1
102
RTVSPropertyOp32
 70
     1
  0
XRECORD
  5
A2
102
{ACAD_REACTORS
330
A1
102
}
330
A1
100
AcDbXrecord
280
     1
102
RTVSPropertyOp0
 70
     1
102
RTVSPropertyOp1
 70
     1
102
RTVSPropertyOp2
 70
     1
102
RTVSPropertyOp3
 70
     1
102
RTVSPropertyOp4
 70
     1
102
RTVSPropertyOp5
 70
     1
102
RTVSPropertyOp6
 70
     1
102
RTVSPropertyOp7
 70
     1
102
RTVSPropertyOp8
 70
     1
102
RTVSPropertyOp9
 70
     1
102
RTVSPropertyOp10
 70
     1
102
RTVSPropertyOp11
 70
     1
102
RTVSPropertyOp12
 70
     1
102
RTVSPropertyOp13
 70
     1
102
RTVSPropertyOp14
 70
     1
102
RTVSPropertyOp15
 70
     1
102
RTVSPropertyOp16
 70
     1
102
RTVSPropertyOp17
 70
     1
102
RTVSPropertyOp18
 70
     1
102
RTVSPropertyOp19
 70
     1
102
RTVSPropertyOp20
 70
     1
102
RTVSPropertyOp21
 70
     1
102
RTVSPropertyOp22
 70
     1
102
RTVSPropertyOp23
 70
     1
102
RTVSPropertyOp24
 70
     1
102
RTVSPropertyOp25
 70
     1
102
RTVSPropertyOp26
 70
     1
102
RTVSPropertyOp27
 70
     1
102
RTVSPropertyOp28
 70
     1
102
RTVSPropertyOp29
 70
     1
102
RTVSPropertyOp30
 70
     1
102
RTVSPropertyOp31
 70
     1
102
RTVSPropertyOp32
 70
     1
  0
XRECORD
  5
A0
102
{ACAD_REACTORS
330
9F
102
}
330
9F
100
AcDbXrecord
280
     1
102
RTVSPropertyOp0
 70
     1
102
RTVSPropertyOp1
 70
     1
102
RTVSPropertyOp2
 70
     1
102
RTVSPropertyOp3
 70
     1
102
RTVSPropertyOp4
 70
     1
102
RTVSPropertyOp5
 70
     1
102
RTVSPropertyOp6
 70
     1
102
RTVSPropertyOp7
 70
     1
102
RTVSPropertyOp8
 70
     1
102
RTVSPropertyOp9
 70
     1
102
RTVSPropertyOp10
 70
     1
102
RTVSPropertyOp11
 70
     1
102
RTVSPropertyOp12
 70
     1
102
RTVSPropertyOp13
 70
     1
102
RTVSPropertyOp14
 70
     1
102
RTVSPropertyOp15
 70
     1
102
RTVSPropertyOp16
 70
     1
102
RTVSPropertyOp17
 70
     1
102
RTVSPropertyOp18
 70
     1
102
RTVSPropertyOp19
 70
     1
102
RTVSPropertyOp20
 70
     1
102
RTVSPropertyOp21
 70
     1
102
RTVSPropertyOp22
 70
     1
102
RTVSPropertyOp23
 70
     1
102
RTVSPropertyOp24
 70
     1
102
RTVSPropertyOp25
 70
     1
102
RTVSPropertyOp26
 70
     1
102
RTVSPropertyOp27
 70
     1
102
RTVSPropertyOp28
 70
     1
102
RTVSPropertyOp29
 70
     1
102
RTVSPropertyOp30
 70
     1
102
RTVSPropertyOp31
 70
     1
102
RTVSPropertyOp32
 70
     1
  0
XRECORD
  5
A4
102
{ACAD_REACTORS
330
A3
102
}
330
A3
100
AcDbXrecord
280
     1
102
RTVSPropertyOp0
 70
     1
102
RTVSPropertyOp1
 70
     1
102
RTVSPropertyOp2
 70
     1
102
RTVSPropertyOp3
 70
     1
102
RTVSPropertyOp4
 70
     1
102
RTVSPropertyOp5
 70
     1
102
RTVSPropertyOp6
 70
     1
102
RTVSPropertyOp7
 70
     1
102
RTVSPropertyOp8
 70
     1
102
RTVSPropertyOp9
 70
     1
102
RTVSPropertyOp10
 70
     1
102
RTVSPropertyOp11
 70
     1
102
RTVSPropertyOp12
 70
     1
102
RTVSPropertyOp13
 70
     1
102
RTVSPropertyOp14
 70
     1
102
RTVSPropertyOp15
 70
     1
102
RTVSPropertyOp16
 70
     1
102
RTVSPropertyOp17
 70
     1
102
RTVSPropertyOp18
 70
     1
102
RTVSPropertyOp19
 70
     1
102
RTVSPropertyOp20
 70
     1
102
RTVSPropertyOp21
 70
     1
102
RTVSPropertyOp22
 70
     1
102
RTVSPropertyOp23
 70
     1
102
RTVSPropertyOp24
 70
     1
102
RTVSPropertyOp25
 70
     1
102
RTVSPropertyOp26
 70
     1
102
RTVSPropertyOp27
 70
     1
102
RTVSPropertyOp28
 70
     1
102
RTVSPropertyOp29
 70
     1
102
RTVSPropertyOp30
 70
     1
102
RTVSPropertyOp31
 70
     1
102
RTVSPropertyOp32
 70
     1
  0
XRECORD
  5
AC
102
{ACAD_REACTORS
330
AB
102
}
330
AB
100
AcDbXrecord
280
     1
102
RTVSPropertyOp0
 70
     1
102
RTVSPropertyOp1
 70
     1
102
RTVSPropertyOp2
 70
     1
102
RTVSPropertyOp3
 70
     1
102
RTVSPropertyOp4
 70
     1
102
RTVSPropertyOp5
 70
     1
102
RTVSPropertyOp6
 70
     1
102
RTVSPropertyOp7
 70
     1
102
RTVSPropertyOp8
 70
     1
102
RTVSPropertyOp9
 70
     1
102
RTVSPropertyOp10
 70
     1
102
RTVSPropertyOp11
 70
     1
102
RTVSPropertyOp12
 70
     1
102
RTVSPropertyOp13
 70
     1
102
RTVSPropertyOp14
 70
     1
102
RTVSPropertyOp15
 70
     1
102
RTVSPropertyOp16
 70
     1
102
RTVSPropertyOp17
 70
     1
102
RTVSPropertyOp18
 70
     1
102
RTVSPropertyOp19
 70
     1
102
RTVSPropertyOp20
 70
     1
102
RTVSPropertyOp21
 70
     1
102
RTVSPropertyOp22
 70
     1
102
RTVSPropertyOp23
 70
     1
102
RTVSPropertyOp24
 70
     1
102
RTVSPropertyOp25
 70
     1
102
RTVSPropertyOp26
 70
     1
102
RTVSPropertyOp27
 70
     1
102
RTVSPropertyOp28
 70
     1
102
RTVSPropertyOp29
 70
     1
102
RTVSPropertyOp30
 70
     1
102
RTVSPropertyOp31
 70
     1
102
RTVSPropertyOp32
 70
     1
  0
XRECORD
  5
B4
102
{ACAD_REACTORS
330
B3
102
}
330
B3
100
AcDbXrecord
280
     1
102
RTVSPropertyOp0
 70
     1
102
RTVSPropertyOp1
 70
     1
102
RTVSPropertyOp2
 70
     1
102
RTVSPropertyOp3
 70
     1
102
RTVSPropertyOp4
 70
     1
102
RTVSPropertyOp5
 70
     1
102
RTVSPropertyOp6
 70
     1
102
RTVSPropertyOp7
 70
     1
102
RTVSPropertyOp8
 70
     1
102
RTVSPropertyOp9
 70
     1
102
RTVSPropertyOp10
 70
     1
102
RTVSPropertyOp11
 70
     1
102
RTVSPropertyOp12
 70
     1
102
RTVSPropertyOp13
 70
     1
102
RTVSPropertyOp14
 70
     1
102
RTVSPropertyOp15
 70
     1
102
RTVSPropertyOp16
 70
     1
102
RTVSPropertyOp17
 70
     1
102
RTVSPropertyOp18
 70
     1
102
RTVSPropertyOp19
 70
     1
102
RTVSPropertyOp20
 70
     1
102
RTVSPropertyOp21
 70
     1
102
RTVSPropertyOp22
 70
     1
102
RTVSPropertyOp23
 70
     1
102
RTVSPropertyOp24
 70
     1
102
RTVSPropertyOp25
 70
     1
102
RTVSPropertyOp26
 70
     1
102
RTVSPropertyOp27
 70
     1
102
RTVSPropertyOp28
 70
     1
102
RTVSPropertyOp29
 70
     1
102
RTVSPropertyOp30
 70
     1
102
RTVSPropertyOp31
 70
     1
102
RTVSPropertyOp32
 70
     1
  0
XRECORD
  5
A8
102
{ACAD_REACTORS
330
A7
102
}
330
A7
100
AcDbXrecord
280
     1
102
RTVSPropertyOp0
 70
     1
102
RTVSPropertyOp1
 70
     1
102
RTVSPropertyOp2
 70
     1
102
RTVSPropertyOp3
 70
     1
102
RTVSPropertyOp4
 70
     1
102
RTVSPropertyOp5
 70
     1
102
RTVSPropertyOp6
 70
     1
102
RTVSPropertyOp7
 70
     1
102
RTVSPropertyOp8
 70
     1
102
RTVSPropertyOp9
 70
     1
102
RTVSPropertyOp10
 70
     1
102
RTVSPropertyOp11
 70
     1
102
RTVSPropertyOp12
 70
     1
102
RTVSPropertyOp13
 70
     1
102
RTVSPropertyOp14
 70
     1
102
RTVSPropertyOp15
 70
     1
102
RTVSPropertyOp16
 70
     1
102
RTVSPropertyOp17
 70
     1
102
RTVSPropertyOp18
 70
     1
102
RTVSPropertyOp19
 70
     1
102
RTVSPropertyOp20
 70
     1
102
RTVSPropertyOp21
 70
     1
102
RTVSPropertyOp22
 70
     1
102
RTVSPropertyOp23
 70
     1
102
RTVSPropertyOp24
 70
     1
102
RTVSPropertyOp25
 70
     1
102
RTVSPropertyOp26
 70
     1
102
RTVSPropertyOp27
 70
     1
102
RTVSPropertyOp28
 70
     1
102
RTVSPropertyOp29
 70
     1
102
RTVSPropertyOp30
 70
     1
102
RTVSPropertyOp31
 70
     1
102
RTVSPropertyOp32
 70
     1
  0
XRECORD
  5
AA
102
{ACAD_REACTORS
330
A9
102
}
330
A9
100
AcDbXrecord
280
     1
102
RTVSPropertyOp0
 70
     1
102
RTVSPropertyOp1
 70
     1
102
RTVSPropertyOp2
 70
     1
102
RTVSPropertyOp3
 70
     1
102
RTVSPropertyOp4
 70
     1
102
RTVSPropertyOp5
 70
     1
102
RTVSPropertyOp6
 70
     1
102
RTVSPropertyOp7
 70
     1
102
RTVSPropertyOp8
 70
     1
102
RTVSPropertyOp9
 70
     1
102
RTVSPropertyOp10
 70
     1
102
RTVSPropertyOp11
 70
     1
102
RTVSPropertyOp12
 70
     1
102
RTVSPropertyOp13
 70
     1
102
RTVSPropertyOp14
 70
     1
102
RTVSPropertyOp15
 70
     1
102
RTVSPropertyOp16
 70
     1
102
RTVSPropertyOp17
 70
     1
102
RTVSPropertyOp18
 70
     1
102
RTVSPropertyOp19
 70
     1
102
RTVSPropertyOp20
 70
     1
102
RTVSPropertyOp21
 70
     1
102
RTVSPropertyOp22
 70
     1
102
RTVSPropertyOp23
 70
     1
102
RTVSPropertyOp24
 70
     1
102
RTVSPropertyOp25
 70
     1
102
RTVSPropertyOp26
 70
     1
102
RTVSPropertyOp27
 70
     1
102
RTVSPropertyOp28
 70
     1
102
RTVSPropertyOp29
 70
     1
102
RTVSPropertyOp30
 70
     1
102
RTVSPropertyOp31
 70
     1
102
RTVSPropertyOp32
 70
     1
  0
XRECORD
  5
B2
102
{ACAD_REACTORS
330
B1
102
}
330
B1
100
AcDbXrecord
280
     1
102
RTVSPropertyOp0
 70
     1
102
RTVSPropertyOp1
 70
     1
102
RTVSPropertyOp2
 70
     1
102
RTVSPropertyOp3
 70
     1
102
RTVSPropertyOp4
 70
     1
102
RTVSPropertyOp5
 70
     1
102
RTVSPropertyOp6
 70
     1
102
RTVSPropertyOp7
 70
     1
102
RTVSPropertyOp8
 70
     1
102
RTVSPropertyOp9
 70
     1
102
RTVSPropertyOp10
 70
     1
102
RTVSPropertyOp11
 70
     1
102
RTVSPropertyOp12
 70
     1
102
RTVSPropertyOp13
 70
     1
102
RTVSPropertyOp14
 70
     1
102
RTVSPropertyOp15
 70
     1
102
RTVSPropertyOp16
 70
     1
102
RTVSPropertyOp17
 70
     1
102
RTVSPropertyOp18
 70
     1
102
RTVSPropertyOp19
 70
     1
102
RTVSPropertyOp20
 70
     1
102
RTVSPropertyOp21
 70
     1
102
RTVSPropertyOp22
 70
     1
102
RTVSPropertyOp23
 70
     1
102
RTVSPropertyOp24
 70
     1
102
RTVSPropertyOp25
 70
     1
102
RTVSPropertyOp26
 70
     1
102
RTVSPropertyOp27
 70
     1
102
RTVSPropertyOp28
 70
     1
102
RTVSPropertyOp29
 70
     1
102
RTVSPropertyOp30
 70
     1
102
RTVSPropertyOp31
 70
     1
102
RTVSPropertyOp32
 70
     1
  0
XRECORD
  5
96
102
{ACAD_REACTORS
330
95
102
}
330
95
100
AcDbXrecord
280
     1
102
RTVSPropertyOp0
 70
     1
102
RTVSPropertyOp1
 70
     1
102
RTVSPropertyOp2
 70
     1
102
RTVSPropertyOp3
 70
     1
102
RTVSPropertyOp4
 70
     1
102
RTVSPropertyOp5
 70
     1
102
RTVSPropertyOp6
 70
     1
102
RTVSPropertyOp7
 70
     1
102
RTVSPropertyOp8
 70
     1
102
RTVSPropertyOp9
 70
     1
102
RTVSPropertyOp10
 70
     1
102
RTVSPropertyOp11
 70
     1
102
RTVSPropertyOp12
 70
     1
102
RTVSPropertyOp13
 70
     1
102
RTVSPropertyOp14
 70
     1
102
RTVSPropertyOp15
 70
     1
102
RTVSPropertyOp16
 70
     1
102
RTVSPropertyOp17
 70
     1
102
RTVSPropertyOp18
 70
     1
102
RTVSPropertyOp19
 70
     1
102
RTVSPropertyOp20
 70
     1
102
RTVSPropertyOp21
 70
     1
102
RTVSPropertyOp22
 70
     1
102
RTVSPropertyOp23
 70
     1
102
RTVSPropertyOp24
 70
     1
102
RTVSPropertyOp25
 70
     1
102
RTVSPropertyOp26
 70
     1
102
RTVSPropertyOp27
 70
     1
102
RTVSPropertyOp28
 70
     1
102
RTVSPropertyOp29
 70
     1
102
RTVSPropertyOp30
 70
     1
102
RTVSPropertyOp31
 70
     1
102
RTVSPropertyOp32
 70
     1
  0
XRECORD
  5
98
102
{ACAD_REACTORS
330
97
102
}
330
97
100
AcDbXrecord
280
     1
102
RTVSPropertyOp0
 70
     1
102
RTVSPropertyOp1
 70
     1
102
RTVSPropertyOp2
 70
     1
102
RTVSPropertyOp3
 70
     1
102
RTVSPropertyOp4
 70
     1
102
RTVSPropertyOp5
 70
     1
102
RTVSPropertyOp6
 70
     1
102
RTVSPropertyOp7
 70
     1
102
RTVSPropertyOp8
 70
     1
102
RTVSPropertyOp9
 70
     1
102
RTVSPropertyOp10
 70
     1
102
RTVSPropertyOp11
 70
     1
102
RTVSPropertyOp12
 70
     1
102
RTVSPropertyOp13
 70
     1
102
RTVSPropertyOp14
 70
     1
102
RTVSPropertyOp15
 70
     1
102
RTVSPropertyOp16
 70
     1
102
RTVSPropertyOp17
 70
     1
102
RTVSPropertyOp18
 70
     1
102
RTVSPropertyOp19
 70
     1
102
RTVSPropertyOp20
 70
     1
102
RTVSPropertyOp21
 70
     1
102
RTVSPropertyOp22
 70
     1
102
RTVSPropertyOp23
 70
     1
102
RTVSPropertyOp24
 70
     1
102
RTVSPropertyOp25
 70
     1
102
RTVSPropertyOp26
 70
     1
102
RTVSPropertyOp27
 70
     1
102
RTVSPropertyOp28
 70
     1
102
RTVSPropertyOp29
 70
     1
102
RTVSPropertyOp30
 70
     1
102
RTVSPropertyOp31
 70
     1
102
RTVSPropertyOp32
 70
     1
  0
XRECORD
  5
9A
102
{ACAD_REACTORS
330
99
102
}
330
99
100
AcDbXrecord
280
     1
102
RTVSPropertyOp0
 70
     1
102
RTVSPropertyOp1
 70
     1
102
RTVSPropertyOp2
 70
     1
102
RTVSPropertyOp3
 70
     1
102
RTVSPropertyOp4
 70
     1
102
RTVSPropertyOp5
 70
     1
102
RTVSPropertyOp6
 70
     1
102
RTVSPropertyOp7
 70
     1
102
RTVSPropertyOp8
 70
     1
102
RTVSPropertyOp9
 70
     1
102
RTVSPropertyOp10
 70
     1
102
RTVSPropertyOp11
 70
     1
102
RTVSPropertyOp12
 70
     1
102
RTVSPropertyOp13
 70
     1
102
RTVSPropertyOp14
 70
     1
102
RTVSPropertyOp15
 70
     1
102
RTVSPropertyOp16
 70
     1
102
RTVSPropertyOp17
 70
     1
102
RTVSPropertyOp18
 70
     1
102
RTVSPropertyOp19
 70
     1
102
RTVSPropertyOp20
 70
     1
102
RTVSPropertyOp21
 70
     1
102
RTVSPropertyOp22
 70
     1
102
RTVSPropertyOp23
 70
     1
102
RTVSPropertyOp24
 70
     1
102
RTVSPropertyOp25
 70
     1
102
RTVSPropertyOp26
 70
     1
102
RTVSPropertyOp27
 70
     1
102
RTVSPropertyOp28
 70
     1
102
RTVSPropertyOp29
 70
     1
102
RTVSPropertyOp30
 70
     1
102
RTVSPropertyOp31
 70
     1
102
RTVSPropertyOp32
 70
     1
  0
XRECORD
  5
9C
102
{ACAD_REACTORS
330
9B
102
}
330
9B
100
AcDbXrecord
280
     1
102
RTVSPropertyOp0
 70
     1
102
RTVSPropertyOp1
 70
     1
102
RTVSPropertyOp2
 70
     1
102
RTVSPropertyOp3
 70
     1
102
RTVSPropertyOp4
 70
     1
102
RTVSPropertyOp5
 70
     1
102
RTVSPropertyOp6
 70
     1
102
RTVSPropertyOp7
 70
     1
102
RTVSPropertyOp8
 70
     1
102
RTVSPropertyOp9
 70
     1
102
RTVSPropertyOp10
 70
     1
102
RTVSPropertyOp11
 70
     1
102
RTVSPropertyOp12
 70
     1
102
RTVSPropertyOp13
 70
     1
102
RTVSPropertyOp14
 70
     1
102
RTVSPropertyOp15
 70
     1
102
RTVSPropertyOp16
 70
     1
102
RTVSPropertyOp17
 70
     1
102
RTVSPropertyOp18
 70
     1
102
RTVSPropertyOp19
 70
     1
102
RTVSPropertyOp20
 70
     1
102
RTVSPropertyOp21
 70
     1
102
RTVSPropertyOp22
 70
     1
102
RTVSPropertyOp23
 70
     1
102
RTVSPropertyOp24
 70
     1
102
RTVSPropertyOp25
 70
     1
102
RTVSPropertyOp26
 70
     1
102
RTVSPropertyOp27
 70
     1
102
RTVSPropertyOp28
 70
     1
102
RTVSPropertyOp29
 70
     1
102
RTVSPropertyOp30
 70
     1
102
RTVSPropertyOp31
 70
     1
102
RTVSPropertyOp32
 70
     1
  0
XRECORD
  5
B0
102
{ACAD_REACTORS
330
AF
102
}
330
AF
100
AcDbXrecord
280
     1
102
RTVSPropertyOp0
 70
     1
102
RTVSPropertyOp1
 70
     1
102
RTVSPropertyOp2
 70
     1
102
RTVSPropertyOp3
 70
     1
102
RTVSPropertyOp4
 70
     1
102
RTVSPropertyOp5
 70
     1
102
RTVSPropertyOp6
 70
     1
102
RTVSPropertyOp7
 70
     1
102
RTVSPropertyOp8
 70
     1
102
RTVSPropertyOp9
 70
     1
102
RTVSPropertyOp10
 70
     1
102
RTVSPropertyOp11
 70
     1
102
RTVSPropertyOp12
 70
     1
102
RTVSPropertyOp13
 70
     1
102
RTVSPropertyOp14
 70
     1
102
RTVSPropertyOp15
 70
     1
102
RTVSPropertyOp16
 70
     1
102
RTVSPropertyOp17
 70
     1
102
RTVSPropertyOp18
 70
     1
102
RTVSPropertyOp19
 70
     1
102
RTVSPropertyOp20
 70
     1
102
RTVSPropertyOp21
 70
     1
102
RTVSPropertyOp22
 70
     1
102
RTVSPropertyOp23
 70
     1
102
RTVSPropertyOp24
 70
     1
102
RTVSPropertyOp25
 70
     1
102
RTVSPropertyOp26
 70
     1
102
RTVSPropertyOp27
 70
     1
102
RTVSPropertyOp28
 70
     1
102
RTVSPropertyOp29
 70
     1
102
RTVSPropertyOp30
 70
     1
102
RTVSPropertyOp31
 70
     1
102
RTVSPropertyOp32
 70
     1
  0
XRECORD
  5
A6
102
{ACAD_REACTORS
330
A5
102
}
330
A5
100
AcDbXrecord
280
     1
102
RTVSPropertyOp0
 70
     1
102
RTVSPropertyOp1
 70
     1
102
RTVSPropertyOp2
 70
     1
102
RTVSPropertyOp3
 70
     1
102
RTVSPropertyOp4
 70
     1
102
RTVSPropertyOp5
 70
     1
102
RTVSPropertyOp6
 70
     1
102
RTVSPropertyOp7
 70
     1
102
RTVSPropertyOp8
 70
     1
102
RTVSPropertyOp9
 70
     1
102
RTVSPropertyOp10
 70
     1
102
RTVSPropertyOp11
 70
     1
102
RTVSPropertyOp12
 70
     1
102
RTVSPropertyOp13
 70
     1
102
RTVSPropertyOp14
 70
     1
102
RTVSPropertyOp15
 70
     1
102
RTVSPropertyOp16
 70
     1
102
RTVSPropertyOp17
 70
     1
102
RTVSPropertyOp18
 70
     1
102
RTVSPropertyOp19
 70
     1
102
RTVSPropertyOp20
 70
     1
102
RTVSPropertyOp21
 70
     1
102
RTVSPropertyOp22
 70
     1
102
RTVSPropertyOp23
 70
     1
102
RTVSPropertyOp24
 70
     1
102
RTVSPropertyOp25
 70
     1
102
RTVSPropertyOp26
 70
     1
102
RTVSPropertyOp27
 70
     1
102
RTVSPropertyOp28
 70
     1
102
RTVSPropertyOp29
 70
     1
102
RTVSPropertyOp30
 70
     1
102
RTVSPropertyOp31
 70
     1
102
RTVSPropertyOp32
 70
     1
  0
XRECORD
  5
AE
102
{ACAD_REACTORS
330
AD
102
}
330
AD
100
AcDbXrecord
280
     1
102
RTVSPropertyOp0
 70
     1
102
RTVSPropertyOp1
 70
     1
102
RTVSPropertyOp2
 70
     1
102
RTVSPropertyOp3
 70
     1
102
RTVSPropertyOp4
 70
     1
102
RTVSPropertyOp5
 70
     1
102
RTVSPropertyOp6
 70
     1
102
RTVSPropertyOp7
 70
     1
102
RTVSPropertyOp8
 70
     1
102
RTVSPropertyOp9
 70
     1
102
RTVSPropertyOp10
 70
     1
102
RTVSPropertyOp11
 70
     1
102
RTVSPropertyOp12
 70
     1
102
RTVSPropertyOp13
 70
     1
102
RTVSPropertyOp14
 70
     1
102
RTVSPropertyOp15
 70
     1
102
RTVSPropertyOp16
 70
     1
102
RTVSPropertyOp17
 70
     1
102
RTVSPropertyOp18
 70
     1
102
RTVSPropertyOp19
 70
     1
102
RTVSPropertyOp20
 70
     1
102
RTVSPropertyOp21
 70
     1
102
RTVSPropertyOp22
 70
     1
102
RTVSPropertyOp23
 70
     1
102
RTVSPropertyOp24
 70
     1
102
RTVSPropertyOp25
 70
     1
102
RTVSPropertyOp26
 70
     1
102
RTVSPropertyOp27
 70
     1
102
RTVSPropertyOp28
 70
     1
102
RTVSPropertyOp29
 70
     1
102
RTVSPropertyOp30
 70
     1
102
RTVSPropertyOp31
 70
     1
102
RTVSPropertyOp32
 70
     1
  0
ENDSEC
  0
EOF
